<svg width="40" height="41" viewBox="0 0 40 41" fill="none" xmlns="http://www.w3.org/2000/svg">
<path fill-rule="evenodd" clip-rule="evenodd" d="M16.172 20.6351H19.256C20.9522 20.6351 22.5789 21.3089 23.7783 22.5081C24.9777 23.7074 25.6515 25.3339 25.6515 27.0299H15.7016L15.703 28.4509H27.0727V27.0299C27.0682 25.5178 26.6313 24.0386 25.8135 22.7667H29.9151C31.2585 22.7663 32.5745 23.1467 33.7105 23.8638C34.8465 24.5809 35.7559 25.6053 36.3333 26.8181C32.9721 31.2532 27.5303 34.1351 21.3879 34.1351C17.4639 34.1351 14.1397 33.2967 11.4394 31.8259V18.6044C13.1684 18.8521 14.8012 19.5527 16.172 20.6351ZM10.0182 31.293C10.0182 31.6699 9.86842 32.0314 9.6019 32.2979C9.33537 32.5644 8.97388 32.7141 8.59695 32.7141H5.75452C5.3776 32.7141 5.0161 32.5644 4.74958 32.2979C4.48305 32.0314 4.33331 31.6699 4.33331 31.293V18.5036C4.33331 18.1267 4.48305 17.7652 4.74958 17.4987C5.0161 17.2322 5.3776 17.0825 5.75452 17.0825H8.59695C8.97388 17.0825 9.33537 17.2322 9.6019 17.4987C9.86842 17.7652 10.0182 18.1267 10.0182 18.5036V31.293Z" fill="#0086FF"/>
<path d="M25.5496 6.1471L26.7835 8.63131C26.9497 8.97487 27.396 9.30081 27.7723 9.37129L30.0037 9.74128C31.43 9.97913 31.7626 11.0186 30.7388 12.0581L28.9974 13.8112C28.7086 14.1019 28.5424 14.6745 28.6386 15.0885L29.1374 17.2556C29.5312 18.9646 28.6211 19.6341 27.1248 18.7355L25.0334 17.4846C24.6571 17.2556 24.027 17.2556 23.6508 17.4846L21.5594 18.7355C20.063 19.6253 19.153 18.9646 19.5467 17.2556L20.0455 15.0885C20.1243 14.6657 19.958 14.093 19.6692 13.8023L17.9279 12.0493C16.9041 11.0186 17.2366 9.97913 18.6629 9.73247L20.8943 9.36248C21.2706 9.30081 21.7169 8.96606 21.8831 8.6225L23.117 6.13829C23.7908 4.79928 24.8759 4.79928 25.5496 6.1471Z" fill="#FAAF3A"/>
</svg>
