<svg width="40" height="41" viewBox="0 0 40 41" fill="none" xmlns="http://www.w3.org/2000/svg">
<path fill-rule="evenodd" clip-rule="evenodd" d="M16.5052 20.9685H19.5892C21.2854 20.9685 22.9121 21.6423 24.1115 22.8415C25.3109 24.0407 25.9847 25.6673 25.9847 27.3633H16.0348L16.0362 28.7843H27.4059V27.3633C27.4014 25.8512 26.9645 24.372 26.1467 23.1001H30.2483C31.5917 23.0997 32.9077 23.4801 34.0437 24.1972C35.1797 24.9143 36.0891 25.9387 36.6665 27.1515C33.3053 31.5866 27.8635 34.4685 21.721 34.4685C17.7971 34.4685 14.4729 33.6301 11.7726 32.1593V18.9378C13.5016 19.1855 15.1344 19.8861 16.5052 20.9685ZM10.3513 31.6264C10.3513 32.0033 10.2016 32.3648 9.93509 32.6313C9.66856 32.8978 9.30707 33.0475 8.93014 33.0475H6.08772C5.71079 33.0475 5.3493 32.8978 5.08277 32.6313C4.81624 32.3648 4.6665 32.0033 4.6665 31.6264V18.8369C4.6665 18.4601 4.81624 18.0986 5.08277 17.8321C5.3493 17.5656 5.71079 17.4159 6.08772 17.4159H8.93014C9.30707 17.4159 9.66856 17.5656 9.93509 17.8321C10.2016 18.0986 10.3513 18.4601 10.3513 18.8369V31.6264Z" fill="#0086FF"/>
<path d="M24.8934 18.0151C26.1671 18.0151 27.4122 17.6374 28.4712 16.9298C29.5303 16.2222 30.3557 15.2164 30.8432 14.0396C31.3306 12.8629 31.4581 11.568 31.2096 10.3188C30.9611 9.06951 30.3478 7.92201 29.4471 7.02136C28.5465 6.12071 27.399 5.50736 26.1498 5.25887C24.9005 5.01039 23.6056 5.13792 22.4289 5.62535C21.2521 6.11278 20.2463 6.93821 19.5387 7.99726C18.8311 9.05631 18.4534 10.3014 18.4534 11.5751L24.8934 11.5751L24.8934 18.0151Z" fill="#0086FF"/>
<path d="M17.3333 12.6951C17.3333 13.5408 17.4998 14.3783 17.8235 15.1596C18.1471 15.9409 18.6215 16.6509 19.2195 17.2489C19.8175 17.8469 20.5274 18.3213 21.3088 18.6449C22.0901 18.9686 22.9275 19.1351 23.7733 19.1351L23.7733 12.6951L17.3333 12.6951Z" fill="#FAAF3A"/>
</svg>
