<svg width="40" height="41" viewBox="0 0 40 41" fill="none" xmlns="http://www.w3.org/2000/svg">
<path fill-rule="evenodd" clip-rule="evenodd" d="M5.33331 8.04422C5.33331 6.42968 6.63286 5.13513 8.25365 5.13513H19.935L28.696 13.8624V19.797C28.2127 19.7234 27.7247 19.6845 27.2358 19.6806C24.525 19.6806 21.9252 20.7533 20.0084 22.6628C18.0915 24.5722 17.0147 27.162 17.0147 29.8624C17.0167 31.3723 17.3559 32.8628 18.0076 34.226H8.25365C7.47913 34.226 6.73633 33.9195 6.18866 33.374C5.64099 32.8284 5.33331 32.0885 5.33331 31.317V8.04422ZM26.5057 15.317L18.4748 7.31695V15.317H26.5057Z" fill="#0086FF"/>
<path d="M23.8579 34.2782L22.0546 33.8966C21.8907 33.8648 21.7595 33.7826 21.6612 33.6498C21.5628 33.5175 21.5246 33.3719 21.5464 33.2129L21.7268 31.4161L20.4972 30.0486C20.388 29.932 20.3333 29.7941 20.3333 29.6351C20.3333 29.4761 20.388 29.3383 20.4972 29.2217L21.7268 27.8542L21.5464 26.0574C21.5246 25.8984 21.5628 25.7527 21.6612 25.6204C21.7595 25.4877 21.8907 25.4055 22.0546 25.3736L23.8579 24.992L24.8087 23.4337C24.8962 23.2959 25.0164 23.2058 25.1694 23.1634C25.3224 23.121 25.4754 23.1263 25.6284 23.1793L27.3333 23.8789L29.0382 23.1793C29.1912 23.1263 29.3442 23.121 29.4972 23.1634C29.6503 23.2058 29.7705 23.2959 29.8579 23.4337L30.8087 24.992L32.612 25.3736C32.7759 25.4055 32.9071 25.4877 33.0054 25.6204C33.1038 25.7527 33.1421 25.8984 33.1202 26.0574L32.9399 27.8542L34.1694 29.2217C34.2787 29.3383 34.3333 29.4761 34.3333 29.6351C34.3333 29.7941 34.2787 29.932 34.1694 30.0486L32.9399 31.4161L33.1202 33.2129C33.1421 33.3719 33.1038 33.5175 33.0054 33.6498C32.9071 33.7826 32.7759 33.8648 32.612 33.8966L30.8087 34.2782L29.8579 35.8365C29.7705 35.9744 29.6503 36.0645 29.4972 36.1069C29.3442 36.1493 29.1912 36.144 29.0382 36.091L27.3333 35.3913L25.6284 36.091C25.4754 36.144 25.3224 36.1493 25.1694 36.1069C25.0164 36.0645 24.8962 35.9744 24.8087 35.8365L23.8579 34.2782ZM26.1858 31.4479C26.306 31.5645 26.459 31.6228 26.6448 31.6228C26.8306 31.6228 26.9836 31.5645 27.1038 31.4479L29.8907 28.7447C30.0218 28.6175 30.0874 28.4663 30.0874 28.2912C30.0874 28.1165 30.0218 27.9655 29.8907 27.8383C29.7595 27.7111 29.6039 27.6475 29.4238 27.6475C29.2433 27.6475 29.0874 27.7111 28.9563 27.8383L26.6448 30.0804L25.694 29.174C25.5628 29.0574 25.4072 29.0016 25.2271 29.0067C25.0465 29.0122 24.8962 29.0733 24.7759 29.1899C24.6557 29.3065 24.5956 29.4549 24.5956 29.6351C24.5956 29.8153 24.6557 29.9638 24.7759 30.0804L26.1858 31.4479Z" fill="#FAAF3A"/>
</svg>
