<svg width="40" height="41" viewBox="0 0 40 41" fill="none" xmlns="http://www.w3.org/2000/svg">
<path fill-rule="evenodd" clip-rule="evenodd" d="M11.6059 8.16026C10.9472 8.81664 10.5772 9.70687 10.5772 10.6351V22.6907H19.1625C19.7684 22.6902 20.3661 22.8306 20.9081 23.1006C21.45 23.3706 21.9213 23.7629 22.2845 24.2462H25.0162C25.3267 24.2462 25.6245 24.3692 25.844 24.588C26.0636 24.8067 26.1869 25.1035 26.1869 25.4129C26.1869 25.7223 26.0636 26.0191 25.844 26.2379C25.6245 26.4567 25.3267 26.5796 25.0162 26.5796H23.065V32.8018H31.2601C32.6056 32.8018 33.896 32.2692 34.8474 31.3211C35.7988 30.373 36.3333 29.0871 36.3333 27.7462V22.6907H30.8698V10.6351C30.8698 9.70687 30.4998 8.81664 29.8411 8.16026C29.1825 7.50388 28.2891 7.13513 27.3576 7.13513H14.0893C13.1579 7.13513 12.2645 7.50388 11.6059 8.16026ZM31.2601 30.4685H30.8698V25.024H33.9918V27.7462C33.9918 28.4682 33.704 29.1606 33.1917 29.6711C32.6794 30.1817 31.9846 30.4685 31.2601 30.4685ZM15.3333 14.1351L15.327 14.1352C14.7776 14.1385 14.3333 14.5849 14.3333 15.1351C14.3333 15.6874 14.781 16.1351 15.3333 16.1351H25.3333C25.8855 16.1351 26.3333 15.6874 26.3333 15.1351C26.3333 14.9421 26.2786 14.7618 26.1838 14.609C26.0075 14.3246 25.6925 14.1351 25.3333 14.1351H15.3333ZM26.3333 19.1351C26.3333 19.3462 26.2679 19.5419 26.1563 19.7033C25.9758 19.9642 25.6745 20.1351 25.3333 20.1351H15.3333C15.3126 20.1351 15.2921 20.1345 15.2718 20.1333C14.7481 20.1015 14.3333 19.6668 14.3333 19.1351C14.3333 18.5828 14.781 18.1351 15.3333 18.1351H25.3333C25.8855 18.1351 26.3333 18.5828 26.3333 19.1351ZM5.01905 24.9297C4.57994 25.3672 4.33325 25.9607 4.33325 26.5796V32.8018C4.33325 33.4206 4.57994 34.0141 5.01905 34.4517C5.45816 34.8893 6.05372 35.1351 6.67472 35.1351H19.1625C19.7835 35.1351 20.3791 34.8893 20.8182 34.4517C21.2573 34.0141 21.504 33.4206 21.504 32.8018V26.5796C21.504 25.9607 21.2573 25.3672 20.8182 24.9297C20.3791 24.4921 19.7835 24.2462 19.1625 24.2462H6.67472C6.05372 24.2462 5.45816 24.4921 5.01905 24.9297ZM18.8392 26.9017C19.132 27.1935 19.529 27.3574 19.943 27.3574V28.9129C19.115 28.9129 18.3209 28.5851 17.7355 28.0017C17.15 27.4182 16.8211 26.6269 16.8211 25.8018H18.382C18.382 26.2144 18.5465 26.61 18.8392 26.9017ZM17.7355 31.3797C18.3209 30.7962 19.115 30.4685 19.943 30.4685V32.024C19.529 32.024 19.132 32.1879 18.8392 32.4796C18.5465 32.7714 18.382 33.167 18.382 33.5796H16.8211C16.8211 32.7545 17.15 31.9631 17.7355 31.3797ZM6.998 26.9017C7.29074 26.61 7.4552 26.2144 7.4552 25.8018H9.01618C9.01618 26.6269 8.68726 27.4182 8.10178 28.0017C7.5163 28.5851 6.72222 28.9129 5.89423 28.9129V27.3574C6.30822 27.3574 6.70526 27.1935 6.998 26.9017ZM8.10178 31.3797C8.68726 31.9631 9.01618 32.7545 9.01618 33.5796H7.4552C7.4552 33.167 7.29074 32.7714 6.998 32.4796C6.70526 32.1879 6.30822 32.024 5.89423 32.024V30.4685C6.72222 30.4685 7.5163 30.7962 8.10178 31.3797ZM14.8502 27.7658C15.3625 28.2763 15.6503 28.9687 15.6503 29.6907C15.6503 30.4127 15.3625 31.1051 14.8502 31.6156C14.3379 32.1261 13.6431 32.4129 12.9186 32.4129C12.1941 32.4129 11.4993 32.1261 10.987 31.6156C10.4747 31.1051 10.1869 30.4127 10.1869 29.6907C10.1869 28.9687 10.4747 28.2763 10.987 27.7658C11.4993 27.2553 12.1941 26.9685 12.9186 26.9685C13.6431 26.9685 14.3379 27.2553 14.8502 27.7658ZM15.1926 12.1351H14.6352V9.20868H15.1229L16.4236 11.1132V9.20868H16.981V12.1351H16.4933L15.1926 10.2306V12.1351ZM19.6509 12.1351H17.5838V9.20868H19.6044V9.74287H18.1412V10.37H19.4883V10.9042H18.1412V11.6009H19.6509V12.1351ZM20.7654 12.1351H21.1602L21.7408 10.3003L22.3215 12.1351H22.7163L23.6454 9.20868H23.0879L22.5073 11.1132L21.9034 9.20868H21.5783L20.9744 11.1132L20.3937 9.20868H19.8363L20.7654 12.1351ZM24.8767 12.1584C24.2264 12.1584 23.8315 11.7635 23.8315 11.2061H24.3889C24.3889 11.4662 24.5748 11.6474 24.8767 11.6474C25.2065 11.6474 25.3644 11.4848 25.3644 11.299C25.3644 11.0746 25.0979 10.9936 24.7888 10.8997C24.3623 10.7702 23.8547 10.6161 23.8547 10.0262C23.8547 9.58029 24.2496 9.18546 24.8767 9.18546C25.4573 9.18546 25.8522 9.58029 25.8522 10.1145H25.318C25.318 9.85436 25.1554 9.69642 24.8767 9.69642C24.598 9.69642 24.4354 9.859 24.4354 10.0216C24.4354 10.2283 24.687 10.3057 24.9848 10.3973C25.4164 10.5301 25.9451 10.6928 25.9451 11.3222C25.9451 11.7403 25.5224 12.1584 24.8767 12.1584Z" fill="#FAAF3A"/>
<path fill-rule="evenodd" clip-rule="evenodd" d="M10.5772 10.6351C10.5772 9.70687 10.9472 8.81664 11.6059 8.16026C12.2645 7.50388 13.1579 7.13513 14.0893 7.13513H27.3576C28.2891 7.13513 29.1825 7.50388 29.8411 8.16026C30.4998 8.81664 30.8698 9.70687 30.8698 10.6351V22.6907H36.3333V27.7462C36.3333 29.0871 35.7988 30.373 34.8474 31.3211C33.896 32.2692 32.6056 32.8018 31.2601 32.8018H23.065V26.5796H25.0162C25.3267 26.5796 25.6245 26.4567 25.844 26.2379C26.0636 26.0191 26.1869 25.7223 26.1869 25.4129C26.1869 25.1035 26.0636 24.8067 25.844 24.588C25.6245 24.3692 25.3267 24.2462 25.0162 24.2462H22.2845C21.9213 23.7629 21.45 23.3706 20.9081 23.1006C20.3661 22.8306 19.7684 22.6902 19.1625 22.6907H10.5772V10.6351ZM30.8698 30.4685H31.2601C31.9846 30.4685 32.6794 30.1817 33.1917 29.6711C33.704 29.1606 33.9918 28.4682 33.9918 27.7462V25.024H30.8698V30.4685ZM15.327 14.1352L15.3333 14.1351H25.3333C25.6925 14.1351 26.0075 14.3246 26.1838 14.609C26.2786 14.7618 26.3333 14.9421 26.3333 15.1351C26.3333 15.6874 25.8855 16.1351 25.3333 16.1351H15.3333C14.781 16.1351 14.3333 15.6874 14.3333 15.1351C14.3333 14.5849 14.7776 14.1385 15.327 14.1352ZM26.1563 19.7033C26.2679 19.5419 26.3333 19.3462 26.3333 19.1351C26.3333 18.5828 25.8855 18.1351 25.3333 18.1351H15.3333C14.781 18.1351 14.3333 18.5828 14.3333 19.1351C14.3333 19.6668 14.7481 20.1015 15.2718 20.1333C15.2921 20.1345 15.3126 20.1351 15.3333 20.1351H25.3333C25.6745 20.1351 25.9758 19.9642 26.1563 19.7033ZM14.6352 12.1351H15.1926V10.2306L16.4933 12.1351H16.981V9.20868H16.4236V11.1132L15.1229 9.20868H14.6352V12.1351ZM17.5838 12.1351H19.6509V11.6009H18.1412V10.9042H19.4883V10.37H18.1412V9.74287H19.6044V9.20868H17.5838V12.1351ZM21.1602 12.1351H20.7654L19.8363 9.20868H20.3937L20.9744 11.1132L21.5783 9.20868H21.9034L22.5073 11.1132L23.0879 9.20868H23.6454L22.7163 12.1351H22.3215L21.7408 10.3003L21.1602 12.1351ZM23.8315 11.2061C23.8315 11.7635 24.2264 12.1584 24.8767 12.1584C25.5224 12.1584 25.9451 11.7403 25.9451 11.3222C25.9451 10.6928 25.4164 10.5301 24.9848 10.3973C24.687 10.3057 24.4354 10.2283 24.4354 10.0216C24.4354 9.859 24.598 9.69642 24.8767 9.69642C25.1554 9.69642 25.318 9.85436 25.318 10.1145H25.8522C25.8522 9.58029 25.4573 9.18546 24.8767 9.18546C24.2496 9.18546 23.8547 9.58029 23.8547 10.0262C23.8547 10.6161 24.3623 10.7702 24.7888 10.8997C25.0979 10.9936 25.3644 11.0746 25.3644 11.299C25.3644 11.4848 25.2065 11.6474 24.8767 11.6474C24.5748 11.6474 24.3889 11.4662 24.3889 11.2061H23.8315Z" fill="#0086FF"/>
<path d="M23.065 26.5796H25.0162C25.3267 26.5796 25.6245 26.4567 25.844 26.2379C26.0636 26.0191 26.1869 25.7223 26.1869 25.4129C26.1869 25.1035 26.0636 24.8067 25.844 24.588C25.6245 24.3692 25.3267 24.2462 25.0162 24.2462H22.2845C22.5446 24.6166 23.065 25.6018 23.065 26.5796Z" fill="#0086FF"/>
</svg>
