<svg width="40" height="41" viewBox="0 0 40 41" fill="none" xmlns="http://www.w3.org/2000/svg">
<path d="M34.3232 22.0051L28.437 19.4101V18.6976C28.437 18.3901 28.1868 18.1351 27.8851 18.1351C27.5835 18.1351 27.3333 18.3901 27.3333 18.6976V32.5726C27.3333 32.8801 27.5835 33.1351 27.8851 33.1351C28.1868 33.1351 28.437 32.8801 28.437 32.5726V29.6026L34.485 26.5576C34.485 26.5576 34.485 26.5576 34.4924 26.5576C35.7138 25.9126 36.3686 25.0801 36.3318 24.2026C36.2951 23.3251 35.5814 22.5451 34.3232 22.0051Z" fill="#FAAF3A"/>
<path d="M19.4251 7.13513H11.2546C8.64479 7.13513 7.33331 8.51724 7.33331 11.2678V33.1351H14.4153V28.0036C14.4153 27.4425 14.8612 26.9772 15.3989 26.9772C15.9366 26.9772 16.3825 27.4288 16.3825 28.0036V33.1351H23.3333V11.2678C23.3333 8.51724 22.035 7.13513 19.4251 7.13513ZM18.6776 20.4772H12.1858C11.6481 20.4772 11.2022 20.012 11.2022 19.4509C11.2022 18.8899 11.6481 18.4246 12.1858 18.4246H18.6776C19.2153 18.4246 19.6612 18.8899 19.6612 19.4509C19.6612 20.012 19.2153 20.4772 18.6776 20.4772ZM18.6776 15.3457H12.1858C11.6481 15.3457 11.2022 14.8804 11.2022 14.3193C11.2022 13.7583 11.6481 13.293 12.1858 13.293H18.6776C19.2153 13.293 19.6612 13.7583 19.6612 14.3193C19.6612 14.8804 19.2153 15.3457 18.6776 15.3457Z" fill="#0086FF"/>
<path fill-rule="evenodd" clip-rule="evenodd" d="M32.221 32.1019H35.312C35.8703 32.1019 36.3333 32.5597 36.3333 33.1118C36.3333 33.6639 35.8703 34.1217 35.312 34.1217H31.2678C31.2542 34.1217 31.2439 34.125 31.2337 34.1284C31.2235 34.1318 31.2133 34.1351 31.1997 34.1351C31.1861 34.1351 31.1759 34.1318 31.1657 34.1284C31.1554 34.125 31.1452 34.1217 31.1316 34.1217H5.35459C4.79629 34.1217 4.33331 33.6639 4.33331 33.1118C4.33331 32.5597 4.79629 32.1019 5.35459 32.1019H30.1648H32.221Z" fill="#0086FF"/>
</svg>
