<svg width="40" height="41" viewBox="0 0 40 41" fill="none" xmlns="http://www.w3.org/2000/svg">
<path d="M6.33325 13.4229V33.8286C6.33325 35.0383 7.6845 35.7234 8.63325 34.9946L11.0914 33.1289C11.6664 32.6917 12.4714 32.75 12.9889 33.2747L15.3751 35.7088C15.9358 36.2772 16.8558 36.2772 17.4164 35.7088L19.8314 33.2601C20.3345 32.75 21.1395 32.6917 21.7001 33.1289L24.1583 34.9946C25.107 35.7088 26.4583 35.0238 26.4583 33.8286V9.05023C26.4583 7.44693 27.752 6.13513 29.3333 6.13513H13.5208H12.0833C7.77075 6.13513 6.33325 8.74414 6.33325 11.9653V13.4229Z" fill="#0086FF"/>
<path d="M29.3483 6.13513V8.3018C30.3383 8.3018 31.2833 8.6918 31.9733 9.3418C32.6933 10.0496 33.0833 10.9596 33.0833 11.9129V15.4085C33.0833 16.4774 32.5883 16.9685 31.4633 16.9685H28.5833V9.03847C28.5833 8.63402 28.9283 8.3018 29.3483 8.3018V6.13513ZM29.3483 6.13513C27.6833 6.13513 26.3333 7.43513 26.3333 9.03847V19.1351H31.4633C33.8333 19.1351 35.3333 17.6907 35.3333 15.4085V11.9129C35.3333 10.324 34.6583 8.87958 33.5783 7.82513C32.4833 6.78513 30.9983 6.14958 29.3483 6.13513C29.3483 6.13513 29.3633 6.13513 29.3483 6.13513Z" fill="#FAAF3A"/>
<path d="M12.8333 24.1351H14.4444V17.1351H13.1666L11.3333 18.4129L12.111 19.6351L12.8333 19.1351V24.1351Z" fill="#FAAF3A"/>
<path d="M18.3126 24.1351H19.9094V21.524L22.2221 17.1351H20.5151L19.1165 19.9129L17.7069 17.1351H15.9999L18.3126 21.524V24.1351Z" fill="#FAAF3A"/>
</svg>
