<svg width="52" height="52" viewBox="0 0 52 52" fill="none" xmlns="http://www.w3.org/2000/svg">
<path d="M25.2801 0.500061C23.315 0.500061 21.7175 2.09757 21.7175 4.06258C21.7175 5.99009 23.225 7.5501 25.19 7.6176C25.2501 7.6101 25.3101 7.6101 25.3551 7.6176C25.3701 7.6176 25.3776 7.6176 25.3926 7.6176C25.4001 7.6176 25.4001 7.6176 25.4076 7.6176C27.3276 7.5501 28.8351 5.99009 28.8426 4.06258C28.8426 2.09757 27.2451 0.500061 25.2801 0.500061Z" fill="#0086FF"/>
<path d="M29.0901 9.61257C26.9975 8.21756 23.585 8.21756 21.4775 9.61257C20.525 10.2501 20 11.1126 20 12.0351C20 12.9576 20.525 13.8126 21.47 14.4426C22.52 15.1476 23.9 15.5001 25.28 15.5001C26.66 15.5001 28.04 15.1476 29.0901 14.4426C30.0351 13.8051 30.5601 12.9501 30.5601 12.0201C30.5526 11.0976 30.0351 10.2426 29.0901 9.61257Z" fill="#0086FF"/>
<path d="M25.3401 36.5001C23.3751 36.5001 21.7776 38.0976 21.7776 40.0626C21.7776 41.9901 23.2851 43.5501 25.2501 43.6176C25.3101 43.6101 25.3701 43.6101 25.4151 43.6176C25.4301 43.6176 25.4376 43.6176 25.4526 43.6176C25.4601 43.6176 25.4601 43.6176 25.4676 43.6176C27.3876 43.5501 28.8951 41.9901 28.9026 40.0626C28.9026 38.0976 27.3051 36.5001 25.3401 36.5001Z" fill="#FAAF3A"/>
<path d="M29.1501 45.6126C27.0576 44.2176 23.6451 44.2176 21.5376 45.6126C20.5851 46.2501 20.0601 47.1126 20.0601 48.0351C20.0601 48.9576 20.5851 49.8126 21.5301 50.4426C22.5801 51.1476 23.9601 51.5001 25.3401 51.5001C26.7201 51.5001 28.1001 51.1476 29.1501 50.4426C30.0951 49.8051 30.6201 48.9501 30.6201 48.0201C30.6126 47.0976 30.0951 46.2426 29.1501 45.6126Z" fill="#FAAF3A"/>
<path d="M41.9002 36.5001C39.9352 36.5001 38.3376 38.0976 38.3376 40.0626C38.3376 41.9901 39.8452 43.5501 41.8102 43.6176C41.8702 43.6101 41.9302 43.6101 41.9752 43.6176C41.9902 43.6176 41.9977 43.6176 42.0127 43.6176C42.0202 43.6176 42.0202 43.6176 42.0277 43.6176C43.9477 43.5501 45.4552 41.9901 45.4627 40.0626C45.4627 38.0976 43.8652 36.5001 41.9002 36.5001Z" fill="#FAAF3A"/>
<path d="M45.7102 45.6126C43.6177 44.2176 40.2051 44.2176 38.0976 45.6126C37.1451 46.2501 36.6201 47.1126 36.6201 48.0351C36.6201 48.9576 37.1451 49.8126 38.0901 50.4426C39.1401 51.1476 40.5201 51.5001 41.9001 51.5001C43.2802 51.5001 44.6602 51.1476 45.7102 50.4426C46.6552 49.8051 47.1802 48.9501 47.1802 48.0201C47.1727 47.0976 46.6552 46.2426 45.7102 45.6126Z" fill="#FAAF3A"/>
<path d="M8.78005 36.5001C6.81504 36.5001 5.21753 38.0976 5.21753 40.0626C5.21753 41.9901 6.72504 43.5501 8.69005 43.6176C8.75005 43.6101 8.81005 43.6101 8.85505 43.6176C8.87005 43.6176 8.87755 43.6176 8.89255 43.6176C8.90005 43.6176 8.90005 43.6176 8.90755 43.6176C10.8276 43.5501 12.3351 41.9901 12.3426 40.0626C12.3426 38.0976 10.7451 36.5001 8.78005 36.5001Z" fill="#FAAF3A"/>
<path d="M12.5901 45.6126C10.4975 44.2176 7.08502 44.2176 4.97751 45.6126C4.025 46.2501 3.5 47.1126 3.5 48.0351C3.5 48.9576 4.025 49.8126 4.97001 50.4426C6.02001 51.1476 7.40002 51.5001 8.78003 51.5001C10.16 51.5001 11.54 51.1476 12.5901 50.4426C13.5351 49.8051 14.0601 48.9501 14.0601 48.0201C14.0526 47.0976 13.5351 46.2426 12.5901 45.6126Z" fill="#FAAF3A"/>
<path d="M8.75001 35.0001L8.75 29.8126C8.75 29.2603 9.19772 28.8126 9.75 28.8126H41.5C42.0523 28.8126 42.5 29.2603 42.5 29.8126V35.0001M25.25 35.0001V29.0001V23.3126M25.25 23.3126H18.75C18.1977 23.3126 17.75 22.8648 17.75 22.3126V19.5001C17.75 18.9478 18.1977 18.5001 18.75 18.5001H26.6094M25.25 23.3126H32.3125C32.8648 23.3126 33.3125 22.8648 33.3125 22.3126V19.5001C33.3125 18.9478 32.8648 18.5001 32.3125 18.5001H31.4844" stroke="#414042" stroke-width="1.5" stroke-linejoin="round"/>
</svg>
