<svg width="40" height="41" viewBox="0 0 40 41" fill="none" xmlns="http://www.w3.org/2000/svg">
<path d="M6.33325 13.4229V33.8286C6.33325 35.0383 7.6845 35.7234 8.63325 34.9946L11.0914 33.1289C11.6664 32.6917 12.4714 32.75 12.9889 33.2747L15.3751 35.7088C15.9358 36.2772 16.8558 36.2772 17.4164 35.7088L19.8314 33.2601C20.3345 32.75 21.1395 32.6917 21.7001 33.1289L24.1583 34.9946C25.107 35.7088 26.4583 35.0238 26.4583 33.8286V9.05023C26.4583 7.44693 27.752 6.13513 29.3333 6.13513H13.5208H12.0833C7.77075 6.13513 6.33325 8.74414 6.33325 11.9653V13.4229Z" fill="#0086FF"/>
<path d="M29.3483 6.13513V8.3018C30.3383 8.3018 31.2833 8.6918 31.9733 9.3418C32.6933 10.0496 33.0833 10.9596 33.0833 11.9129V15.4085C33.0833 16.4774 32.5883 16.9685 31.4633 16.9685H28.5833V9.03847C28.5833 8.63402 28.9283 8.3018 29.3483 8.3018V6.13513ZM29.3483 6.13513C27.6833 6.13513 26.3333 7.43513 26.3333 9.03847V19.1351H31.4633C33.8333 19.1351 35.3333 17.6907 35.3333 15.4085V11.9129C35.3333 10.324 34.6583 8.87958 33.5783 7.82513C32.4833 6.78513 30.9983 6.14958 29.3483 6.13513C29.3483 6.13513 29.3633 6.13513 29.3483 6.13513Z" fill="#FAAF3A"/>
<path d="M16.7832 22.547H17.1732C17.5632 22.547 17.8872 22.199 17.8872 21.779C17.8872 21.257 17.7012 21.155 17.3952 21.047L16.7892 20.837V22.547H16.7832Z" fill="#FAAF3A"/>
<path d="M16.3153 14.1351C13.0033 14.1471 10.3213 16.8411 10.3333 20.1531C10.3453 23.4651 13.0393 26.1471 16.3513 26.1351C19.6633 26.1231 22.3453 23.4291 22.3333 20.1171C22.3213 16.8051 19.6273 14.1291 16.3153 14.1351ZM17.6893 20.1951C18.1573 20.3571 18.7873 20.7051 18.7873 21.7791C18.7873 22.7031 18.0613 23.4471 17.1733 23.4471H16.7833V23.7951C16.7833 24.0411 16.5793 24.2451 16.3333 24.2451C16.0873 24.2451 15.8833 24.0411 15.8833 23.7951V23.4471H15.6673C14.6833 23.4471 13.8853 22.6191 13.8853 21.5991C13.8853 21.3531 14.0893 21.1491 14.3353 21.1491C14.5813 21.1491 14.7853 21.3531 14.7853 21.5991C14.7853 22.1211 15.1813 22.5471 15.6673 22.5471H15.8833V20.5191L14.9773 20.1951C14.5093 20.0331 13.8793 19.6851 13.8793 18.6111C13.8793 17.6871 14.6053 16.9431 15.4933 16.9431H15.8833V16.5951C15.8833 16.3491 16.0873 16.1451 16.3333 16.1451C16.5793 16.1451 16.7833 16.3491 16.7833 16.5951V16.9431H16.9993C17.9833 16.9431 18.7813 17.7711 18.7813 18.7911C18.7813 19.0371 18.5773 19.2411 18.3313 19.2411C18.0853 19.2411 17.8813 19.0371 17.8813 18.7911C17.8813 18.2691 17.4853 17.8431 16.9993 17.8431H16.7833V19.8711L17.6893 20.1951Z" fill="#FAAF3A"/>
<path d="M14.7853 18.6171C14.7853 19.1391 14.9713 19.2411 15.2773 19.3491L15.8833 19.5591V17.8431H15.4933C15.1033 17.8431 14.7853 18.1911 14.7853 18.6171Z" fill="#FAAF3A"/>
</svg>
