<svg width="40" height="41" viewBox="0 0 40 41" fill="none" xmlns="http://www.w3.org/2000/svg">
<path fill-rule="evenodd" clip-rule="evenodd" d="M5.33331 8.04422C5.33331 6.42968 6.63286 5.13513 8.25365 5.13513H19.935L28.696 13.8624V19.797C28.2127 19.7234 27.7247 19.6845 27.2358 19.6806C24.525 19.6806 21.9252 20.7533 20.0084 22.6628C18.0915 24.5722 17.0147 27.162 17.0147 29.8624C17.0167 31.3723 17.3559 32.8628 18.0076 34.226H8.25365C7.47913 34.226 6.73633 33.9195 6.18866 33.374C5.64099 32.8284 5.33331 32.0885 5.33331 31.317V8.04422ZM26.5057 15.317L18.4748 7.31695V15.317H26.5057Z" fill="#0086FF"/>
<path fill-rule="evenodd" clip-rule="evenodd" d="M25.53 22.6736C25.5995 22.6177 25.6864 22.588 25.7757 22.5897H28.696C28.7797 22.5913 28.8599 22.6232 28.9217 22.6794C28.9835 22.7356 29.0226 22.8123 29.0318 22.8951L29.3093 24.8151C29.7619 24.9897 30.1562 25.237 30.5504 25.4988L32.3464 24.7715C32.5362 24.7715 32.726 24.7715 32.8137 24.9606L34.2738 27.477C34.3146 27.5529 34.3281 27.6404 34.3122 27.725C34.2963 27.8097 34.2518 27.8863 34.1862 27.9424L32.6384 29.1351C32.6822 29.3824 32.6968 29.6151 32.6968 29.8624C32.6968 30.0967 32.6706 30.3179 32.643 30.5507C32.6415 30.5637 32.64 30.5767 32.6384 30.5897L34.2008 31.7824C34.2664 31.8385 34.3109 31.9151 34.3268 31.9998C34.3427 32.0844 34.3292 32.1719 34.2884 32.2479L32.8283 34.7642C32.726 34.9533 32.5362 34.9533 32.3464 34.9533L30.5504 34.226C30.1562 34.4879 29.7619 34.7206 29.3239 34.9097L29.0464 36.8297C29.0172 37.0042 28.8566 37.1351 28.696 37.1351H25.7757C25.5712 37.1351 25.4252 37.0042 25.396 36.8297L25.1186 34.9097C24.6659 34.7351 24.2571 34.4879 23.8774 34.226L22.0668 34.9533C21.8916 34.9533 21.7018 34.9533 21.6142 34.7642L20.154 32.2479C20.1132 32.1719 20.0997 32.0844 20.1156 31.9998C20.1316 31.9151 20.176 31.8385 20.2416 31.7824L21.7894 30.5897C21.7311 30.1066 21.7311 29.6182 21.7894 29.1351L20.2416 27.9424C20.0956 27.826 20.0664 27.637 20.154 27.477L21.6142 24.9606C21.7164 24.7715 21.9062 24.7715 22.0668 24.7715L23.8774 25.4988C24.2571 25.237 24.6805 25.0042 25.1186 24.8151L25.396 22.8951C25.4132 22.8079 25.4606 22.7295 25.53 22.6736ZM29.4261 29.8624C29.4261 28.6551 28.4478 27.6806 27.2358 27.6806C26.0239 27.6806 25.0456 28.6551 25.0456 29.8624C25.0456 31.0697 26.0093 32.0442 27.2358 32.0442C28.4478 32.0442 29.4261 31.0697 29.4261 29.8624Z" fill="#FAAF3A"/>
</svg>
