<svg width="52" height="52" viewBox="0 0 52 52" fill="none" xmlns="http://www.w3.org/2000/svg">
<path fill-rule="evenodd" clip-rule="evenodd" d="M3.5 6.3637C3.5 3.94188 5.44932 2.00006 7.8805 2.00006H25.4025L38.544 15.091V23.9928C37.8191 23.8825 37.0871 23.8242 36.3538 23.8182C32.2875 23.8182 28.3878 25.4273 25.5126 28.2915C22.6373 31.1557 21.022 35.0404 21.022 39.091C21.0251 41.3558 21.5339 43.5916 22.5114 45.6364H7.8805C6.71872 45.6364 5.60452 45.1767 4.78302 44.3583C3.96152 43.54 3.5 42.4301 3.5 41.2728V6.3637ZM35.2586 17.2728L23.2123 5.27279V17.2728H35.2586Z" fill="#0086FF"/>
<path d="M31.2869 45.7147L28.582 45.1423C28.3361 45.0946 28.1393 44.9712 27.9918 44.7721C27.8443 44.5737 27.7869 44.3552 27.8197 44.1167L28.0902 41.4214L26.2459 39.3702C26.082 39.1953 26 38.9886 26 38.7501C26 38.5115 26.082 38.3048 26.2459 38.1299L28.0902 36.0787L27.8197 33.3835C27.7869 33.1449 27.8443 32.9265 27.9918 32.728C28.1393 32.5289 28.3361 32.4055 28.582 32.3578L31.2869 31.7854L32.7131 29.4479C32.8443 29.2412 33.0246 29.1061 33.2541 29.0425C33.4836 28.9789 33.7131 28.9868 33.9426 29.0663L36.5 30.1158L39.0574 29.0663C39.2869 28.9868 39.5164 28.9789 39.7459 29.0425C39.9754 29.1061 40.1557 29.2412 40.2869 29.4479L41.7131 31.7854L44.418 32.3578C44.6639 32.4055 44.8607 32.5289 45.0082 32.728C45.1557 32.9265 45.2131 33.1449 45.1803 33.3835L44.9098 36.0787L46.7541 38.1299C46.918 38.3048 47 38.5115 47 38.7501C47 38.9886 46.918 39.1953 46.7541 39.3702L44.9098 41.4214L45.1803 44.1167C45.2131 44.3552 45.1557 44.5737 45.0082 44.7721C44.8607 44.9712 44.6639 45.0946 44.418 45.1423L41.7131 45.7147L40.2869 48.0522C40.1557 48.2589 39.9754 48.3941 39.7459 48.4577C39.5164 48.5213 39.2869 48.5133 39.0574 48.4338L36.5 47.3843L33.9426 48.4338C33.7131 48.5133 33.4836 48.5213 33.2541 48.4577C33.0246 48.3941 32.8443 48.2589 32.7131 48.0522L31.2869 45.7147ZM34.7787 41.4691C34.959 41.6441 35.1885 41.7315 35.4672 41.7315C35.7459 41.7315 35.9754 41.6441 36.1557 41.4691L40.3361 37.4144C40.5328 37.2236 40.6311 36.9968 40.6311 36.7341C40.6311 36.4721 40.5328 36.2456 40.3361 36.0548C40.1393 35.864 39.9059 35.7686 39.6357 35.7686C39.3649 35.7686 39.1311 35.864 38.9344 36.0548L35.4672 39.4179L34.041 38.0584C33.8443 37.8835 33.6108 37.7998 33.3407 37.8074C33.0698 37.8157 32.8443 37.9073 32.6639 38.0822C32.4836 38.2571 32.3934 38.4797 32.3934 38.7501C32.3934 39.0204 32.4836 39.243 32.6639 39.4179L34.7787 41.4691Z" fill="#FAAF3A"/>
</svg>
