<svg width="52" height="52" viewBox="0 0 52 52" fill="none" xmlns="http://www.w3.org/2000/svg">
<path d="M23 8.33756C23 8.76506 22.6372 9.12506 22.2064 9.12506H19.6442C14.7465 9.12506 10.7558 13.0851 10.7558 17.9451V38.7126C10.7558 39.1401 10.393 39.5001 9.96221 39.5001H8.375C5.67674 39.5001 3.5 37.3401 3.5 34.6626V8.33756C3.5 5.66006 5.67674 3.50006 8.375 3.50006H18.125C20.8233 3.50006 23 5.66006 23 8.33756Z" fill="#FAAF3A"/>
<path d="M48.5 8.33756V34.6626C48.5 37.3401 46.3233 39.5001 43.625 39.5001H42.1965C41.7657 39.5001 41.4029 39.1401 41.4029 38.7126V17.9451C41.4029 13.0851 37.4122 9.12506 32.5145 9.12506H29.7936C29.3628 9.12506 29 8.76506 29 8.33756C29 5.66006 31.1767 3.50006 33.875 3.50006H43.625C46.3233 3.50006 48.5 5.66006 48.5 8.33756Z" fill="#FAAF3A"/>
<path d="M32.5567 12.5001H19.4433C16.4292 12.5001 14 14.9301 14 17.9451V43.0551C14 46.0701 16.4292 48.5001 19.4433 48.5001H23.1097C23.7395 48.5001 24.2343 48.0051 24.2343 47.3751V41.7501C24.2343 40.8276 24.9991 40.0626 25.9213 40.0626C26.8435 40.0626 27.6082 40.8276 27.6082 41.7501V47.3751C27.6082 48.0051 28.1031 48.5001 28.7329 48.5001H32.5792C35.5708 48.5001 38 46.0701 38 43.0776V17.9451C38 14.9301 35.5708 12.5001 32.5567 12.5001ZM30.4199 32.1876H21.4227C20.5005 32.1876 19.7357 31.4226 19.7357 30.5001C19.7357 29.5776 20.5005 28.8126 21.4227 28.8126H30.4199C31.3421 28.8126 32.1068 29.5776 32.1068 30.5001C32.1068 31.4226 31.3421 32.1876 30.4199 32.1876ZM30.4199 25.4376H21.4227C20.5005 25.4376 19.7357 24.6726 19.7357 23.7501C19.7357 22.8276 20.5005 22.0626 21.4227 22.0626H30.4199C31.3421 22.0626 32.1068 22.8276 32.1068 23.7501C32.1068 24.6726 31.3421 25.4376 30.4199 25.4376Z" fill="#0086FF"/>
</svg>
