<svg width="52" height="52" viewBox="0 0 52 52" fill="none" xmlns="http://www.w3.org/2000/svg">
<path d="M46.9848 27.3051L38.1555 23.4126V22.3438C38.1555 21.8826 37.7802 21.5001 37.3277 21.5001C36.8752 21.5001 36.5 21.8826 36.5 22.3438V43.1563C36.5 43.6176 36.8752 44.0001 37.3277 44.0001C37.7802 44.0001 38.1555 43.6176 38.1555 43.1563V38.7013L47.2276 34.1338C47.2276 34.1338 47.2276 34.1338 47.2386 34.1338C49.0707 33.1663 50.053 31.9176 49.9978 30.6013C49.9426 29.2851 48.8721 28.1151 46.9848 27.3051Z" fill="#FAAF3A"/>
<path d="M24.6377 5.00006H12.382C8.46721 5.00006 6.5 7.07322 6.5 11.199V44.0001H17.123V36.3027C17.123 35.4611 17.7918 34.7632 18.5984 34.7632C19.4049 34.7632 20.0738 35.4406 20.0738 36.3027V44.0001H30.5V11.199C30.5 7.07322 28.5525 5.00006 24.6377 5.00006ZM23.5164 25.0132H13.7787C12.9721 25.0132 12.3033 24.3153 12.3033 23.4737C12.3033 22.6322 12.9721 21.9343 13.7787 21.9343H23.5164C24.3229 21.9343 24.9918 22.6322 24.9918 23.4737C24.9918 24.3153 24.3229 25.0132 23.5164 25.0132ZM23.5164 17.3159H13.7787C12.9721 17.3159 12.3033 16.618 12.3033 15.7764C12.3033 14.9348 12.9721 14.2369 13.7787 14.2369H23.5164C24.3229 14.2369 24.9918 14.9348 24.9918 15.7764C24.9918 16.618 24.3229 17.3159 23.5164 17.3159Z" fill="#0086FF"/>
<path fill-rule="evenodd" clip-rule="evenodd" d="M43.8315 42.4502H48.4681C49.3055 42.4502 50 43.137 50 43.9651C50 44.7931 49.3055 45.4799 48.4681 45.4799H42.4017C42.3813 45.4799 42.366 45.4849 42.3506 45.49C42.3353 45.495 42.32 45.5001 42.2996 45.5001C42.2791 45.5001 42.2638 45.495 42.2485 45.49C42.2332 45.4849 42.2179 45.4799 42.1974 45.4799H3.53191C2.69447 45.4799 2 44.7931 2 43.9651C2 43.137 2.69447 42.4502 3.53191 42.4502H40.7472H43.8315Z" fill="#0086FF"/>
</svg>
