<svg width="52" height="52" viewBox="0 0 52 52" fill="none" xmlns="http://www.w3.org/2000/svg">
<path fill-rule="evenodd" clip-rule="evenodd" d="M12.9089 6.53775C11.9209 7.52232 11.3659 8.85767 11.3659 10.2501V28.3334H24.2439C25.1528 28.3327 26.0493 28.5432 26.8622 28.9482C27.6752 29.3533 28.3821 29.9417 28.9268 30.6667H33.0244C33.4901 30.6667 33.9368 30.8511 34.2661 31.1793C34.5955 31.5075 34.7805 31.9526 34.7805 32.4167C34.7805 32.8809 34.5955 33.326 34.2661 33.6542C33.9368 33.9824 33.4901 34.1667 33.0244 34.1667H30.0976V43.5001H42.3902C44.4085 43.5001 46.344 42.7011 47.7712 41.279C49.1983 39.8568 50 37.928 50 35.9167V28.3334H41.8049V10.2501C41.8049 8.85767 41.2498 7.52232 40.2618 6.53775C39.2738 5.55318 37.9338 5.00006 36.5366 5.00006H16.6341C15.2369 5.00006 13.8969 5.55318 12.9089 6.53775ZM42.3902 40.0001H41.8049V31.8334H46.4878V35.9167C46.4878 36.9997 46.0561 38.0383 45.2877 38.8041C44.5192 39.5699 43.477 40.0001 42.3902 40.0001ZM18.5 15.5001L18.4907 15.5001C17.6665 15.5051 17 16.1747 17 17.0001C17 17.8285 17.6716 18.5001 18.5 18.5001H33.5C34.3284 18.5001 35 17.8285 35 17.0001C35 16.7105 34.9179 16.4401 34.7758 16.2108C34.5114 15.7842 34.0389 15.5001 33.5 15.5001H18.5ZM35 23.0001C35 23.3166 34.9019 23.6103 34.7345 23.8523C34.4638 24.2437 34.0119 24.5001 33.5 24.5001H18.5C18.4691 24.5001 18.4383 24.4991 18.4078 24.4973C17.6223 24.4497 17 23.7975 17 23.0001C17 22.1716 17.6716 21.5001 18.5 21.5001H33.5C34.3284 21.5001 35 22.1716 35 23.0001ZM3.0287 31.6919C2.37003 32.3482 2 33.2385 2 34.1667V43.5001C2 44.4283 2.37003 45.3186 3.0287 45.9749C3.68736 46.6313 4.5807 47.0001 5.51219 47.0001H24.2439C25.1754 47.0001 26.0687 46.6313 26.7274 45.9749C27.3861 45.3186 27.7561 44.4283 27.7561 43.5001V34.1667C27.7561 33.2385 27.3861 32.3482 26.7274 31.6919C26.0687 31.0355 25.1754 30.6667 24.2439 30.6667H5.51219C4.5807 30.6667 3.68736 31.0355 3.0287 31.6919ZM23.759 34.65C24.1981 35.0876 24.7936 35.3334 25.4146 35.3334V37.6667C24.1726 37.6667 22.9815 37.1751 22.1033 36.2999C21.2251 35.4247 20.7317 34.2377 20.7317 33.0001H23.0732C23.0732 33.6189 23.3199 34.2124 23.759 34.65ZM22.1033 41.3669C22.9815 40.4917 24.1726 40.0001 25.4146 40.0001V42.3334C24.7936 42.3334 24.1981 42.5792 23.759 43.0168C23.3199 43.4544 23.0732 44.0479 23.0732 44.6667H20.7317C20.7317 43.4291 21.2251 42.2421 22.1033 41.3669ZM5.99713 34.65C6.43624 34.2124 6.68293 33.6189 6.68293 33.0001H9.02439C9.02439 34.2377 8.53101 35.4247 7.65279 36.2999C6.77457 37.1751 5.58345 37.6667 4.34146 37.6667V35.3334C4.96246 35.3334 5.55802 35.0876 5.99713 34.65ZM7.65279 41.3669C8.53101 42.2421 9.02439 43.4291 9.02439 44.6667H6.68293C6.68293 44.0479 6.43624 43.4544 5.99713 43.0168C5.55802 42.5792 4.96246 42.3334 4.34146 42.3334V40.0001C5.58345 40.0001 6.77457 40.4917 7.65279 41.3669ZM17.7755 35.946C18.5439 36.7118 18.9756 37.7504 18.9756 38.8334C18.9756 39.9164 18.5439 40.955 17.7755 41.7207C17.007 42.4865 15.9648 42.9167 14.878 42.9167C13.7913 42.9167 12.7491 42.4865 11.9806 41.7207C11.2122 40.955 10.7805 39.9164 10.7805 38.8334C10.7805 37.7504 11.2122 36.7118 11.9806 35.946C12.7491 35.1803 13.7913 34.7501 14.878 34.7501C15.9648 34.7501 17.007 35.1803 17.7755 35.946ZM18.289 12.5001H17.4529V8.11038H18.1845L20.1355 10.9672V8.11038H20.9716V12.5001H20.24L18.289 9.64329V12.5001ZM24.9764 12.5001H21.8758V8.11038H24.9068V8.91168H22.7119V9.85232H24.7326V10.6536H22.7119V11.6988H24.9764V12.5001ZM26.6482 12.5001H27.2404L28.1114 9.7478L28.9823 12.5001H29.5746L30.9682 8.11038H30.132L29.2611 10.9672L28.3553 8.11038H27.8675L26.9617 10.9672L26.0907 8.11038H25.2546L26.6482 12.5001ZM32.8152 12.5349C31.8397 12.5349 31.2474 11.9426 31.2474 11.1065H32.0835C32.0835 11.4967 32.3622 11.7685 32.8152 11.7685C33.3099 11.7685 33.5468 11.5246 33.5468 11.2459C33.5468 10.9092 33.147 10.7878 32.6834 10.647C32.0436 10.4527 31.2822 10.2215 31.2822 9.33671C31.2822 8.6678 31.8745 8.07555 32.8152 8.07555C33.6861 8.07555 34.2784 8.6678 34.2784 9.46909H33.4771C33.4771 9.0789 33.2332 8.842 32.8152 8.842C32.3971 8.842 32.1532 9.08587 32.1532 9.32974C32.1532 9.6398 32.5306 9.75592 32.9773 9.89335C33.6248 10.0925 34.4177 10.3365 34.4177 11.2807C34.4177 11.9078 33.7837 12.5349 32.8152 12.5349Z" fill="#FAAF3A"/>
<path fill-rule="evenodd" clip-rule="evenodd" d="M11.3659 10.2501C11.3659 8.85767 11.9209 7.52232 12.9089 6.53775C13.8969 5.55318 15.2369 5.00006 16.6341 5.00006H36.5366C37.9338 5.00006 39.2738 5.55318 40.2618 6.53775C41.2498 7.52232 41.8049 8.85767 41.8049 10.2501V28.3334H50V35.9167C50 37.928 49.1983 39.8568 47.7712 41.279C46.344 42.7011 44.4085 43.5001 42.3902 43.5001H30.0976V34.1667H33.0244C33.4901 34.1667 33.9368 33.9824 34.2661 33.6542C34.5955 33.326 34.7805 32.8809 34.7805 32.4167C34.7805 31.9526 34.5955 31.5075 34.2661 31.1793C33.9368 30.8511 33.4901 30.6667 33.0244 30.6667H28.9268C28.3821 29.9417 27.6752 29.3533 26.8622 28.9482C26.0493 28.5432 25.1528 28.3327 24.2439 28.3334H11.3659V10.2501ZM41.8049 40.0001H42.3902C43.477 40.0001 44.5192 39.5699 45.2877 38.8041C46.0561 38.0383 46.4878 36.9997 46.4878 35.9167V31.8334H41.8049V40.0001ZM18.4907 15.5001L18.5 15.5001H33.5C34.0389 15.5001 34.5114 15.7842 34.7758 16.2108C34.9179 16.4401 35 16.7105 35 17.0001C35 17.8285 34.3284 18.5001 33.5 18.5001H18.5C17.6716 18.5001 17 17.8285 17 17.0001C17 16.1747 17.6665 15.5051 18.4907 15.5001ZM34.7345 23.8523C34.9019 23.6103 35 23.3166 35 23.0001C35 22.1716 34.3284 21.5001 33.5 21.5001H18.5C17.6716 21.5001 17 22.1716 17 23.0001C17 23.7975 17.6223 24.4497 18.4078 24.4973C18.4383 24.4991 18.4691 24.5001 18.5 24.5001H33.5C34.0119 24.5001 34.4638 24.2437 34.7345 23.8523ZM17.4529 12.5001H18.289V9.64329L20.24 12.5001H20.9716V8.11038H20.1355V10.9672L18.1845 8.11038H17.4529V12.5001ZM21.8758 12.5001H24.9764V11.6988H22.7119V10.6536H24.7326V9.85232H22.7119V8.91168H24.9068V8.11038H21.8758V12.5001ZM27.2404 12.5001H26.6482L25.2546 8.11038H26.0907L26.9617 10.9672L27.8675 8.11038H28.3553L29.2611 10.9672L30.132 8.11038H30.9682L29.5746 12.5001H28.9823L28.1114 9.7478L27.2404 12.5001ZM31.2474 11.1065C31.2474 11.9426 31.8397 12.5349 32.8152 12.5349C33.7837 12.5349 34.4177 11.9078 34.4177 11.2807C34.4177 10.3365 33.6248 10.0925 32.9773 9.89335C32.5306 9.75592 32.1532 9.6398 32.1532 9.32974C32.1532 9.08587 32.3971 8.842 32.8152 8.842C33.2332 8.842 33.4771 9.0789 33.4771 9.46909H34.2784C34.2784 8.6678 33.6861 8.07555 32.8152 8.07555C31.8745 8.07555 31.2822 8.6678 31.2822 9.33671C31.2822 10.2215 32.0436 10.4527 32.6834 10.647C33.147 10.7878 33.5468 10.9092 33.5468 11.2459C33.5468 11.5246 33.3099 11.7685 32.8152 11.7685C32.3622 11.7685 32.0835 11.4967 32.0835 11.1065H31.2474Z" fill="#0086FF"/>
<path d="M30.0976 34.1667H33.0244C33.4901 34.1667 33.9368 33.9824 34.2661 33.6542C34.5955 33.326 34.7805 32.8809 34.7805 32.4167C34.7805 31.9526 34.5955 31.5075 34.2661 31.1793C33.9368 30.8511 33.4901 30.6667 33.0244 30.6667H28.9268C29.3171 31.2223 30.0976 32.7001 30.0976 34.1667Z" fill="#0086FF"/>
</svg>
