<svg width="52" height="52" viewBox="0 0 52 52" fill="none" xmlns="http://www.w3.org/2000/svg">
<path fill-rule="evenodd" clip-rule="evenodd" d="M19.758 25.2501H24.3841C26.9284 25.2501 29.3684 26.2607 31.1675 28.0595C32.9665 29.8584 33.9773 32.2982 33.9773 34.8422H19.0524L19.0545 36.9737H36.1091V34.8422C36.1024 32.5741 35.447 30.3552 34.2203 28.4474H40.3727C42.3878 28.4469 44.3618 29.0175 46.0658 30.0931C47.7698 31.1687 49.1339 32.7053 50 34.5246C44.9582 41.1772 36.7955 45.5001 27.5818 45.5001C21.6959 45.5001 16.7095 44.2424 12.6591 42.0362V22.204C15.2527 22.5755 17.7018 23.6264 19.758 25.2501ZM10.5273 41.2369C10.5273 41.8022 10.3027 42.3444 9.90287 42.7442C9.50308 43.1439 8.96085 43.3685 8.39545 43.3685H4.13182C3.56642 43.3685 3.02419 43.1439 2.62439 42.7442C2.2246 42.3444 2 41.8022 2 41.2369V22.0527C2 21.4874 2.2246 20.9452 2.62439 20.5454C3.02419 20.1457 3.56642 19.9211 4.13182 19.9211H8.39545C8.96085 19.9211 9.50308 20.1457 9.90287 20.5454C10.3027 20.9452 10.5273 21.4874 10.5273 22.0527V41.2369Z" fill="#0086FF"/>
<path d="M33.8245 3.51801L35.6752 7.24433C35.9246 7.75967 36.5941 8.24858 37.1585 8.35429L40.5056 8.90928C42.6451 9.26605 43.1439 10.8253 41.6082 12.3845L38.9961 15.0141C38.5629 15.4502 38.3136 16.3091 38.4579 16.9301L39.2061 20.1807C39.7968 22.7442 38.4317 23.7485 36.1872 22.4007L33.0501 20.5243C32.4857 20.1807 31.5406 20.1807 30.9762 20.5243L27.8391 22.4007C25.5946 23.7353 24.2295 22.7442 24.8201 20.1807L25.5683 16.9301C25.6864 16.2958 25.4371 15.4369 25.0039 15.0009L22.3918 12.3713C20.8561 10.8253 21.3549 9.26605 23.4944 8.89606L26.8415 8.34108C27.4059 8.24858 28.0754 7.74646 28.3247 7.23111L30.1755 3.5048C31.1862 1.49629 32.8138 1.49629 33.8245 3.51801Z" fill="#FAAF3A"/>
</svg>
