<svg width="60" height="60" viewBox="0 0 60 60" fill="none" xmlns="http://www.w3.org/2000/svg">
<path d="M24.5 48.1863C24.5 47.0662 24.5 46.5061 24.718 46.0783C24.9097 45.702 25.2157 45.396 25.592 45.2043C26.0198 44.9863 26.5799 44.9863 27.7 44.9863H29.9674C31.0875 44.9863 31.6475 44.9863 32.0754 45.2043C32.4517 45.396 32.7576 45.702 32.9494 46.0783C33.1674 46.5061 33.1674 47.0662 33.1674 48.1863V55.2295H24.5V48.1863Z" fill="#7FBFFF"/>
<path d="M26.8633 48.138C26.8633 47.0633 26.8633 46.526 27.0644 46.1121C27.2603 45.7089 27.586 45.3832 27.9892 45.1873C28.4031 44.9862 28.9404 44.9862 30.0151 44.9862C31.0897 44.9862 31.627 44.9862 32.0409 45.1873C32.4441 45.3832 32.7698 45.7089 32.9657 46.1121C33.1668 46.526 33.1668 47.0633 33.1668 48.138V55.2295H26.8633V48.138Z" fill="#0086FF"/>
<path d="M35.5312 33.7001C35.5312 32.58 35.5312 32.0199 35.7492 31.5921C35.941 31.2158 36.2469 30.9098 36.6233 30.718C37.0511 30.5001 37.6111 30.5001 38.7313 30.5001H40.9986C42.1187 30.5001 42.6788 30.5001 43.1066 30.718C43.4829 30.9098 43.7889 31.2158 43.9806 31.5921C44.1986 32.0199 44.1986 32.58 44.1986 33.7001V55.2298H35.5312V33.7001Z" fill="#FCD79C"/>
<path d="M37.8945 33.6518C37.8945 32.5772 37.8945 32.0399 38.0956 31.626C38.2916 31.2228 38.6173 30.8971 39.0205 30.7012C39.4344 30.5001 39.9717 30.5001 41.0463 30.5001C42.1209 30.5001 42.6582 30.5001 43.0721 30.7012C43.4754 30.8971 43.801 31.2228 43.997 31.626C44.1981 32.0399 44.1981 32.5772 44.1981 33.6518V55.2298H37.8945V33.6518Z" fill="#FAAF3A"/>
<path d="M46.5625 39.5173C46.5625 38.3972 46.5625 37.8372 46.7805 37.4093C46.9722 37.033 47.2782 36.7271 47.6545 36.5353C48.0823 36.3173 48.6424 36.3173 49.7625 36.3173H52.0299C53.15 36.3173 53.71 36.3173 54.1379 36.5353C54.5142 36.7271 54.8201 37.033 55.0119 37.4093C55.2299 37.8372 55.2299 38.3972 55.2299 39.5173V55.228H46.5625V39.5173Z" fill="#7FBFFF"/>
<path d="M48.9258 39.4691C48.9258 38.3944 48.9258 37.8571 49.1269 37.4432C49.3228 37.04 49.6485 36.7143 50.0517 36.5184C50.4656 36.3173 51.0029 36.3173 52.0776 36.3173C53.1522 36.3173 53.6895 36.3173 54.1034 36.5184C54.5066 36.7143 54.8323 37.04 55.0282 37.4432C55.2293 37.8571 55.2293 38.3944 55.2293 39.4691V55.2279H48.9258V39.4691Z" fill="#0086FF"/>
<path d="M19.5761 39.5001L15.4012 47.8498C15.0625 48.5274 14.3699 48.9554 13.6124 48.9554H5.78711" stroke="#0086FF" stroke-width="1.5" stroke-linecap="round"/>
<rect x="5" y="44.6232" width="7.87943" height="1.57589" rx="0.787943" fill="#414042"/>
<path d="M25.25 39.5001C28.6617 39.5001 31.9968 38.4884 34.8336 36.5929C37.6703 34.6975 39.8813 32.0034 41.1869 28.8514C42.4925 25.6993 42.8341 22.2309 42.1685 18.8848C41.503 15.5386 39.86 12.4649 37.4476 10.0525C35.0351 7.64001 31.9615 5.99711 28.6153 5.33152C25.2691 4.66592 21.8007 5.00753 18.6487 6.31314C15.4967 7.61875 12.8026 9.82972 10.9072 12.6665C9.0117 15.5032 8 18.8383 8 22.2501L25.25 22.2501V39.5001Z" fill="#0086FF"/>
<path d="M5 25.2501C5 27.5154 5.44618 29.7585 6.31308 31.8513C7.17997 33.9442 8.4506 35.8458 10.0524 37.4477C11.6542 39.0495 13.5558 40.3201 15.6487 41.187C17.7416 42.0539 19.9847 42.5001 22.25 42.5001V25.2501L5 25.2501Z" fill="#FAAF3A"/>
<path d="M38 18.3957L42.9428 9.56924C43.2965 8.93763 43.9639 8.54645 44.6878 8.54645H54.9408" stroke="#FAAF3A" stroke-width="1.5" stroke-linecap="round"/>
<rect x="46.2734" y="5.00006" width="9.45531" height="1.57589" rx="0.787943" fill="#414042"/>
<rect x="48.5" y="23.0001" width="7.09148" height="1.57589" rx="0.787943" fill="#414042"/>
<rect x="48.5" y="26.1509" width="7.09148" height="1.57589" rx="0.787943" fill="#414042"/>
<rect x="48.5" y="29.3038" width="7.09148" height="1.57589" rx="0.787943" fill="#414042"/>
</svg>
