<svg width="52" height="52" viewBox="0 0 52 52" fill="none" xmlns="http://www.w3.org/2000/svg">
<path d="M5 14.4317V45.0402C5 46.8548 7.02687 47.8824 8.45 46.7893L12.1372 43.9908C12.9997 43.3349 14.2072 43.4223 14.9834 44.2094L18.5628 47.8606C19.4037 48.7132 20.7838 48.7132 21.6247 47.8606L25.2472 44.1875C26.0019 43.4223 27.2094 43.3349 28.0503 43.9908L31.7375 46.7893C33.1606 47.8606 35.1875 46.833 35.1875 45.0402V7.87271C35.1875 5.46775 37.1281 3.50006 39.5 3.50006H15.7812H13.625C7.15625 3.50006 5 7.41358 5 12.2454V14.4317Z" fill="#0086FF"/>
<path d="M39.5225 3.50006V6.75006C41.0075 6.75006 42.425 7.33506 43.46 8.31006C44.54 9.37173 45.125 10.7367 45.125 12.1667V17.4101C45.125 19.0134 44.3825 19.7501 42.695 19.7501H38.375V7.85506C38.375 7.24839 38.8925 6.75006 39.5225 6.75006V3.50006ZM39.5225 3.50006C37.025 3.50006 35 5.45006 35 7.85506V23.0001H42.695C46.25 23.0001 48.5 20.8334 48.5 17.4101V12.1667C48.5 9.78339 47.4875 7.61673 45.8675 6.03506C44.225 4.47506 41.9975 3.52173 39.5225 3.50006C39.5225 3.50006 39.545 3.50006 39.5225 3.50006Z" fill="#FAAF3A"/>
<path d="M14.75 30.5001H17.1667V20.0001H15.25L12.5 21.9167L13.6667 23.7501L14.75 23.0001V30.5001Z" fill="#FAAF3A"/>
<path d="M22.969 30.5001H25.3643V26.5834L28.8333 20.0001H26.2729L24.1749 24.1667L22.0605 20.0001H19.5L22.969 26.5834V30.5001Z" fill="#FAAF3A"/>
</svg>
