<svg width="52" height="52" viewBox="0 0 52 52" fill="none" xmlns="http://www.w3.org/2000/svg">
<path d="M5 14.4317V45.0402C5 46.8548 7.02687 47.8824 8.45 46.7893L12.1372 43.9908C12.9997 43.3349 14.2072 43.4223 14.9834 44.2094L18.5628 47.8606C19.4037 48.7132 20.7838 48.7132 21.6247 47.8606L25.2472 44.1875C26.0019 43.4223 27.2094 43.3349 28.0503 43.9908L31.7375 46.7893C33.1606 47.8606 35.1875 46.833 35.1875 45.0402V7.87271C35.1875 5.46775 37.1281 3.50006 39.5 3.50006H15.7812H13.625C7.15625 3.50006 5 7.41358 5 12.2454V14.4317Z" fill="#0086FF"/>
<path d="M39.5225 3.50006V6.75006C41.0075 6.75006 42.425 7.33506 43.46 8.31006C44.54 9.37173 45.125 10.7367 45.125 12.1667V17.4101C45.125 19.0134 44.3825 19.7501 42.695 19.7501H38.375V7.85506C38.375 7.24839 38.8925 6.75006 39.5225 6.75006V3.50006ZM39.5225 3.50006C37.025 3.50006 35 5.45006 35 7.85506V23.0001H42.695C46.25 23.0001 48.5 20.8334 48.5 17.4101V12.1667C48.5 9.78339 47.4875 7.61673 45.8675 6.03506C44.225 4.47506 41.9975 3.52173 39.5225 3.50006C39.5225 3.50006 39.545 3.50006 39.5225 3.50006Z" fill="#FAAF3A"/>
<path d="M20.675 28.1179H21.26C21.845 28.1179 22.331 27.5959 22.331 26.9659C22.331 26.1829 22.052 26.0299 21.593 25.8679L20.684 25.5529V28.1179H20.675Z" fill="#FAAF3A"/>
<path d="M19.973 15.5001C15.0051 15.5181 10.9821 19.5591 11.0001 24.5271C11.0181 29.4951 15.0591 33.518 20.027 33.5C24.995 33.482 29.018 29.4411 29 24.4731C28.982 19.5051 24.941 15.4911 19.973 15.5001ZM22.034 24.5901C22.736 24.8331 23.681 25.3551 23.681 26.9661C23.681 28.3521 22.592 29.4681 21.26 29.4681H20.675V29.9901C20.675 30.3591 20.369 30.6651 20 30.6651C19.631 30.6651 19.325 30.3591 19.325 29.9901V29.4681H19.001C17.525 29.4681 16.3281 28.2261 16.3281 26.6961C16.3281 26.3271 16.6341 26.0211 17.0031 26.0211C17.372 26.0211 17.678 26.3271 17.678 26.6961C17.678 27.4791 18.272 28.1181 19.001 28.1181H19.325V25.0761L17.966 24.5901C17.264 24.3471 16.3191 23.8251 16.3191 22.2141C16.3191 20.8281 17.4081 19.7121 18.74 19.7121H19.325V19.1901C19.325 18.8211 19.631 18.5151 20 18.5151C20.369 18.5151 20.675 18.8211 20.675 19.1901V19.7121H20.999C22.475 19.7121 23.672 20.9541 23.672 22.4841C23.672 22.8531 23.366 23.1591 22.997 23.1591C22.628 23.1591 22.322 22.8531 22.322 22.4841C22.322 21.7011 21.728 21.0621 20.999 21.0621H20.675V24.1041L22.034 24.5901Z" fill="#FAAF3A"/>
<path d="M17.678 22.223C17.678 23.006 17.957 23.159 18.416 23.321L19.325 23.636V21.062H18.74C18.155 21.062 17.678 21.584 17.678 22.223Z" fill="#FAAF3A"/>
</svg>
