<svg width="204" height="150" viewBox="0 0 204 150" fill="none" xmlns="http://www.w3.org/2000/svg">
<g clip-path="url(#clip0_1287_12459)">
<path d="M110.795 51.8764C119.212 51.8764 126.036 45.053 126.036 36.636C126.036 28.2189 119.212 21.3955 110.795 21.3955C102.378 21.3955 95.5547 28.2189 95.5547 36.636C95.5547 45.053 102.378 51.8764 110.795 51.8764Z" fill="#232E3D"/>
<path d="M113.615 24.6731C113.615 24.6731 115.45 20.7964 113.785 19.0061C112.121 17.2157 107.393 19.2576 107.393 19.2576C107.393 19.2576 107.734 18.1035 107.171 17.5338C105.625 15.9802 101.216 18.0073 95.9778 23.1565C91.4131 27.6398 91.0653 36.2366 94.2539 38.7447L113.615 24.6731Z" fill="#232E3D"/>
<path d="M97.3389 54.8066H129.573C132.691 54.8079 135.726 55.8119 138.229 57.6704C140.732 59.5288 142.571 62.1432 143.474 65.1272L159.862 119.238H96.8136L83.4006 73.4133C82.7662 71.2481 82.6447 68.9648 83.0463 66.7446C83.4478 64.5243 84.3613 62.4282 85.714 60.6224C87.0668 58.8166 88.8215 57.3509 90.8394 56.3414C92.8572 55.3319 95.0826 54.8064 97.3389 54.8066Z" fill="#0086FF"/>
<path d="M116.943 50.0049H103.996V62.249H116.943V50.0049Z" fill="#FFC9AB"/>
<path d="M96.8057 119.238L81.8242 140.767H167.452L159.854 119.238H96.8057Z" fill="#232E3D"/>
<path d="M139.827 59.0605L166.83 80.5525L169.22 113.638L129.824 70.2541L139.827 59.0605Z" fill="#0086FF"/>
<path d="M86.9883 59.127L61.96 86.0789L59.5703 119.171L96.7688 70.0838L86.9883 59.127Z" fill="#0086FF"/>
<path d="M130.845 58.3726C130.845 51.8769 124.187 48.1038 121.139 47.8301C119.901 48.9711 118.483 49.9009 116.944 50.5822V52.6686C116.944 52.6686 113.77 60.8066 108.902 60.4515C104.344 60.1408 103.997 53.8745 103.997 53.8745L103.346 52.5428L96.7687 50.4121C95.3312 51.2701 94.0922 52.4233 93.1332 53.7955C92.1741 55.1677 91.5169 56.7278 91.2052 58.3726C89.5258 66.4589 95.9844 74.3011 107.178 74.6858C120.014 75.1297 130.845 68.2271 130.845 58.3726Z" fill="#0086FF"/>
<path d="M108.317 75.233H107.156C101.237 75.0258 96.2582 72.7767 93.2175 68.9C92.0338 67.4279 91.192 65.711 90.7531 63.8737C90.3143 62.0363 90.2891 60.1244 90.6798 58.2761C90.8702 57.3565 91.1553 56.459 91.5305 55.598C91.5874 55.4685 91.6935 55.3669 91.8253 55.3155C91.9571 55.2642 92.104 55.2673 92.2335 55.3242C92.363 55.3811 92.4647 55.4871 92.516 55.6189C92.5673 55.7508 92.5642 55.8976 92.5073 56.0271C92.1586 56.8185 91.893 57.6442 91.7155 58.4907C91.358 60.1867 91.381 61.9408 91.7827 63.6269C92.1844 65.3129 92.9549 66.889 94.0386 68.2416C96.887 71.8668 101.555 73.9753 107.185 74.1602C114.68 74.4192 121.73 72.0887 126.036 67.9309C127.364 66.7161 128.428 65.2414 129.162 63.5985C129.896 61.9555 130.285 60.1792 130.305 58.3797C130.308 57.2287 130.079 56.089 129.632 55.0283C129.605 54.9642 129.592 54.8955 129.592 54.8261C129.592 54.7568 129.606 54.6881 129.633 54.6241C129.66 54.5602 129.699 54.5022 129.748 54.4534C129.797 54.4047 129.856 54.3662 129.92 54.3403C130.05 54.2859 130.196 54.285 130.326 54.3377C130.456 54.3903 130.56 54.4923 130.616 54.6214C131.107 55.8133 131.359 57.0905 131.355 58.3797C131.338 60.3227 130.921 62.2413 130.129 64.0157C129.337 65.7902 128.188 67.3823 126.754 68.6929C122.492 72.8285 115.664 75.233 108.317 75.233Z" fill="#232E3D"/>
<path d="M76.6543 138.695V47.2354L0.191803 47.2354V138.695H76.6543Z" fill="#1B17C4"/>
<path d="M15.3618 133.454L5.47461 123.698V52.4873H71.3674V133.454H15.3618Z" fill="#FFFDFA"/>
<path d="M63.123 53.8688V43.6553H13.7109V53.8688H63.123Z" fill="#F24754"/>
<path d="M42.2216 43.021C42.2204 43.7731 41.9964 44.508 41.5777 45.1328C41.159 45.7576 40.5644 46.2443 39.8692 46.5313C39.174 46.8183 38.4093 46.8928 37.6718 46.7454C36.9343 46.5979 36.2568 46.2352 35.7253 45.7029C35.1939 45.1707 34.8322 44.4928 34.6859 43.755C34.5396 43.0173 34.6154 42.2527 34.9035 41.5579C35.1916 40.8631 35.6792 40.2694 36.3046 39.8516C36.9301 39.4339 37.6653 39.2109 38.4174 39.2109C38.9175 39.2109 39.4128 39.3095 39.8747 39.5011C40.3366 39.6926 40.7561 39.9734 41.1094 40.3272C41.4628 40.6811 41.7428 41.1012 41.9336 41.5634C42.1244 42.0256 42.2224 42.5209 42.2216 43.021Z" fill="#FFFDFA"/>
<path d="M14.5413 133.876C14.486 133.877 14.4312 133.866 14.3802 133.845C14.3292 133.823 14.2831 133.792 14.2446 133.752L4.35731 123.865C4.29702 123.806 4.256 123.73 4.23908 123.648C4.22215 123.565 4.2303 123.48 4.26255 123.402C4.29509 123.325 4.3494 123.259 4.41903 123.212C4.48866 123.166 4.57036 123.141 4.65404 123.141H14.5413C14.5972 123.141 14.6524 123.152 14.7039 123.173C14.7554 123.195 14.8023 123.226 14.8415 123.266C14.8807 123.306 14.9114 123.353 14.9322 123.405C14.9531 123.457 14.9634 123.512 14.9627 123.568V133.455C14.963 133.539 14.9385 133.621 14.8919 133.691C14.8454 133.761 14.7791 133.815 14.7016 133.847C14.6502 133.866 14.596 133.876 14.5413 133.876ZM5.67493 123.989L14.12 132.434V123.989H5.67493Z" fill="#232E3D"/>
<path d="M25.621 64.3975H15.627V74.3915H25.621V64.3975Z" fill="#FAAF3A"/>
<path d="M20.0903 71.521C20.0317 71.5207 19.9737 71.5079 19.9205 71.4833C19.8673 71.4587 19.8199 71.423 19.7817 71.3785L17.841 69.2658C17.7628 69.1869 17.7188 69.0802 17.7188 68.9691C17.7188 68.8579 17.7628 68.7512 17.841 68.6723C17.9207 68.5954 18.0271 68.5525 18.1378 68.5525C18.2485 68.5525 18.3549 68.5954 18.4345 68.6723L20.0547 70.4527L22.749 67.4082C22.824 67.3264 22.9278 67.2769 23.0385 67.2703C23.1493 67.2637 23.2583 67.3003 23.3425 67.3726C23.4257 67.4467 23.4761 67.5508 23.4828 67.662C23.4894 67.7733 23.4519 67.8826 23.3781 67.9661L20.3752 71.3667C20.293 71.4535 20.1802 71.5046 20.0607 71.5091L20.0903 71.521Z" fill="#232E3D"/>
<path d="M25.621 77.9824H15.627V87.9764H25.621V77.9824Z" fill="#FAAF3A"/>
<path d="M20.0903 85.0786C20.0321 85.0795 19.9743 85.0677 19.9211 85.0442C19.8678 85.0206 19.8202 84.9858 19.7817 84.9421L17.841 82.8294C17.7628 82.7505 17.7188 82.6438 17.7188 82.5327C17.7188 82.4215 17.7628 82.3148 17.841 82.2359C17.9207 82.159 18.0271 82.1161 18.1378 82.1161C18.2485 82.1161 18.3549 82.159 18.4345 82.2359L20.0547 84.0163L22.749 80.9718C22.823 80.8876 22.9275 80.8362 23.0394 80.829C23.1512 80.8218 23.2612 80.8593 23.3454 80.9333C23.4296 81.0072 23.481 81.1116 23.4883 81.2235C23.4955 81.3353 23.4579 81.4455 23.3839 81.5297L20.381 84.9243C20.3411 84.9684 20.2928 85.0037 20.2387 85.0282C20.1846 85.0527 20.1259 85.0658 20.0665 85.0667L20.0903 85.0786Z" fill="#232E3D"/>
<path d="M25.621 91.5684H15.627V101.562H25.621V91.5684Z" fill="#FAAF3A"/>
<path d="M20.0906 98.6818C20.0323 98.6827 19.9746 98.6709 19.9213 98.6474C19.8681 98.6238 19.8205 98.589 19.782 98.5453L17.8413 96.4326C17.8023 96.3917 17.7718 96.3435 17.7515 96.2908C17.7311 96.2381 17.7214 96.1818 17.7228 96.1253C17.7242 96.0689 17.7367 96.0132 17.7596 95.9615C17.7825 95.9099 17.8152 95.8632 17.8561 95.8243C17.897 95.7853 17.9454 95.7548 17.9981 95.7344C18.0508 95.7141 18.1068 95.7043 18.1632 95.7057C18.2197 95.7071 18.2756 95.7196 18.3273 95.7425C18.3789 95.7654 18.4254 95.7982 18.4643 95.8391L20.0845 97.6195L22.7789 94.581C22.8521 94.4969 22.9559 94.4453 23.0672 94.4376C23.1784 94.4298 23.288 94.4664 23.3723 94.5394C23.4542 94.6143 23.5036 94.7182 23.5103 94.8289C23.5169 94.9397 23.4802 95.0487 23.408 95.1329L20.405 98.5275C20.3651 98.5715 20.3168 98.6069 20.2627 98.6314C20.2086 98.6559 20.15 98.6691 20.0906 98.67V98.6818Z" fill="#232E3D"/>
<path d="M25.621 105.146H15.627V115.14H25.621V105.146Z" fill="#FAAF3A"/>
<path d="M20.0905 112.267C20.0323 112.268 19.9745 112.256 19.9213 112.233C19.868 112.209 19.8204 112.174 19.7819 112.131L17.8531 110.006C17.8136 109.967 17.7824 109.921 17.761 109.87C17.7396 109.819 17.7285 109.765 17.7285 109.709C17.7285 109.654 17.7396 109.599 17.761 109.548C17.7824 109.498 17.8136 109.451 17.8531 109.413C17.932 109.334 18.0387 109.29 18.1499 109.29C18.261 109.29 18.3677 109.334 18.4466 109.413L20.0667 111.193L22.7611 108.149C22.8398 108.064 22.9487 108.015 23.0639 108.011C23.121 108.009 23.1777 108.018 23.2311 108.038C23.2846 108.058 23.3338 108.089 23.3754 108.128C23.4171 108.167 23.4507 108.214 23.4743 108.266C23.4979 108.318 23.5109 108.374 23.5128 108.431C23.5147 108.488 23.5056 108.545 23.4856 108.598C23.4655 108.651 23.435 108.7 23.396 108.742L20.393 112.137C20.3532 112.181 20.3049 112.216 20.2508 112.241C20.1966 112.265 20.138 112.278 20.0786 112.279L20.0905 112.267Z" fill="#232E3D"/>
<path d="M61.2053 69.8213H34.2442C34.1403 69.809 34.0445 69.759 33.975 69.6808C33.9055 69.6026 33.8672 69.5016 33.8672 69.397C33.8672 69.2924 33.9055 69.1914 33.975 69.1132C34.0445 69.035 34.1403 68.985 34.2442 68.9727H61.2053C61.3092 68.985 61.405 69.035 61.4745 69.1132C61.544 69.1914 61.5823 69.2924 61.5823 69.397C61.5823 69.5016 61.544 69.6026 61.4745 69.6808C61.405 69.759 61.3092 69.809 61.2053 69.8213Z" fill="#232E3D"/>
<path d="M61.2066 83.8173H34.2456C34.1338 83.8173 34.0267 83.7729 33.9477 83.6939C33.8686 83.6149 33.8242 83.5077 33.8242 83.3959C33.8242 83.2842 33.8686 83.177 33.9477 83.098C34.0267 83.019 34.1338 82.9746 34.2456 82.9746H61.2066C61.262 82.9746 61.3169 82.9855 61.368 83.0067C61.4192 83.0278 61.4657 83.0589 61.5048 83.098C61.544 83.1371 61.5749 83.1836 61.5961 83.2347C61.6173 83.2858 61.628 83.3406 61.628 83.3959C61.628 83.4513 61.6173 83.5061 61.5961 83.5572C61.5749 83.6083 61.544 83.6548 61.5048 83.6939C61.4657 83.733 61.4192 83.7641 61.368 83.7853C61.3169 83.8064 61.262 83.8173 61.2066 83.8173Z" fill="#232E3D"/>
<path d="M61.2066 96.9853H34.2456C34.1338 96.9853 34.0267 96.9409 33.9477 96.8619C33.8686 96.7829 33.8242 96.6757 33.8242 96.5639C33.8242 96.4522 33.8686 96.345 33.9477 96.266C34.0267 96.187 34.1338 96.1426 34.2456 96.1426H61.2066C61.3184 96.1426 61.4258 96.187 61.5048 96.266C61.5838 96.345 61.628 96.4522 61.628 96.5639C61.628 96.6757 61.5838 96.7829 61.5048 96.8619C61.4258 96.9409 61.3184 96.9853 61.2066 96.9853Z" fill="#232E3D"/>
<path d="M61.2053 110.598H34.2442C34.1403 110.585 34.0445 110.535 33.975 110.457C33.9055 110.379 33.8672 110.278 33.8672 110.173C33.8672 110.069 33.9055 109.968 33.975 109.89C34.0445 109.811 34.1403 109.761 34.2442 109.749H61.2053C61.3092 109.761 61.405 109.811 61.4745 109.89C61.544 109.968 61.5823 110.069 61.5823 110.173C61.5823 110.278 61.544 110.379 61.4745 110.457C61.405 110.535 61.3092 110.585 61.2053 110.598Z" fill="#232E3D"/>
<path d="M51.7957 27.9431C43.1175 24.3623 30.3405 25.1613 24.4737 29.9998C19.5391 34.0985 8.34553 45.0849 11.401 48.6657C14.1902 51.9431 20.6266 46.1428 24.1334 42.6731C23.1938 48.6361 22.4691 57.9431 27.0487 58.3574C29.1276 58.5497 30.7475 56.4338 31.9608 53.6003C32.6193 55.8716 33.8769 57.5436 36.126 57.6102C39.4034 57.7063 41.3641 53.4523 42.5182 48.9764C43.1914 51.477 44.2421 53.4671 45.9067 53.4967C50.3456 53.5633 52.2765 41.5707 52.2765 41.5707H62.5676C62.5676 41.5707 60.9177 31.7162 51.7957 27.9431Z" fill="#FFC9AB"/>
<path d="M27.3134 58.9051H27.0027C26.5103 58.864 26.0321 58.7179 25.6008 58.4767C25.1694 58.2355 24.7947 57.9048 24.5019 57.5068C22.2824 54.6437 22.7781 47.8225 23.6067 42.6067C23.6174 42.5382 23.6414 42.4725 23.6775 42.4133C23.7136 42.3541 23.7613 42.3026 23.8173 42.2617C23.8733 42.2208 23.9367 42.1914 24.0041 42.175C24.0714 42.1587 24.1411 42.1558 24.2096 42.1665C24.2781 42.1772 24.344 42.2012 24.4032 42.2373C24.4624 42.2734 24.5137 42.3208 24.5546 42.3768C24.5955 42.4328 24.625 42.4963 24.6413 42.5636C24.6576 42.631 24.6607 42.7009 24.65 42.7694C23.5402 49.8496 23.7771 54.8582 25.3381 56.8262C25.5432 57.1082 25.8066 57.3428 26.1105 57.5138C26.4143 57.6849 26.7514 57.7885 27.0988 57.8175C28.6673 57.9581 30.1395 56.4636 31.4786 53.3786C31.5203 53.2775 31.5926 53.192 31.6852 53.134C31.7778 53.076 31.8864 53.0483 31.9955 53.0548C32.1046 53.0613 32.2088 53.1017 32.2939 53.1704C32.379 53.239 32.4404 53.3325 32.4698 53.4377C33.1653 55.8274 34.3638 57.0111 36.169 57.0629C39.2318 57.1517 41.0519 52.6239 42.0359 48.8286C42.064 48.7145 42.1298 48.6132 42.2223 48.5407C42.3149 48.4683 42.4288 48.429 42.5464 48.4291C42.6632 48.4306 42.7765 48.4695 42.8697 48.5401C42.9628 48.6106 43.0312 48.7091 43.0644 48.8212C43.5601 50.693 44.4698 52.9273 45.942 52.9495C49.1973 52.9495 51.2689 44.6782 51.7794 41.4747C51.8002 41.3499 51.8644 41.2363 51.9604 41.1538C52.0564 41.0713 52.1781 41.0252 52.3046 41.0234H62.5661C62.7074 41.0234 62.843 41.0796 62.9429 41.1794C63.0428 41.2793 63.099 41.4148 63.099 41.5561C63.099 41.6974 63.0428 41.8329 62.9429 41.9328C62.843 42.0327 62.7074 42.0888 62.5661 42.0888H52.7266C52.2901 44.5228 50.3218 54.0074 45.942 54.0074H45.898C44.5071 54.0074 43.3899 52.9051 42.5539 50.7818C41.0003 55.7312 38.8548 58.18 36.1101 58.1209C34.2013 58.0691 32.7881 57.0111 31.8929 54.9766C30.5612 57.5882 29.0224 58.9051 27.3134 58.9051Z" fill="#232E3D"/>
<path d="M24.132 43.1984H24.0507C23.9813 43.1885 23.9146 43.1649 23.8545 43.1288C23.7945 43.0928 23.7424 43.0451 23.701 42.9886C23.6596 42.9321 23.6301 42.8678 23.6139 42.7997C23.5978 42.7315 23.5952 42.6608 23.6067 42.5918L25.2049 32.2342C25.2267 32.095 25.3029 31.9702 25.4166 31.887C25.5302 31.8038 25.6721 31.769 25.8114 31.7903C25.8807 31.8002 25.9475 31.8238 26.0075 31.8599C26.0676 31.8959 26.1197 31.9436 26.1611 32.0001C26.2024 32.0566 26.2323 32.1209 26.2485 32.189C26.2647 32.2572 26.2669 32.3278 26.2554 32.3969L24.65 42.7545C24.6306 42.878 24.5679 42.9906 24.473 43.072C24.3781 43.1533 24.257 43.1982 24.132 43.1984Z" fill="#232E3D"/>
<path d="M31.9674 54.1327H31.9006C31.7617 54.116 31.6352 54.0453 31.548 53.936C31.4608 53.8266 31.4199 53.6873 31.4345 53.5482L33.8318 33.0032C33.8503 32.8638 33.9224 32.737 34.033 32.65C34.1435 32.5629 34.2835 32.5224 34.4235 32.5371C34.563 32.5556 34.6897 32.6279 34.7768 32.7384C34.8638 32.8489 34.9042 32.9891 34.8895 33.129L32.4926 53.6666C32.475 53.7942 32.4123 53.9112 32.316 53.9967C32.2197 54.0822 32.0961 54.1304 31.9674 54.1327Z" fill="#232E3D"/>
<path d="M42.5163 49.5095H42.4718C42.4024 49.5049 42.3349 49.4863 42.2728 49.4549C42.2107 49.4235 42.1555 49.38 42.1106 49.3268C42.0657 49.2736 42.0318 49.2119 42.0112 49.1454C41.9907 49.0789 41.9839 49.009 41.991 48.9398L43.3374 33.5884C43.343 33.5193 43.3624 33.452 43.3941 33.3904C43.4258 33.3288 43.4694 33.274 43.5223 33.2293C43.5753 33.1846 43.6365 33.1509 43.7026 33.13C43.7686 33.109 43.838 33.1014 43.907 33.1075C44.0478 33.1207 44.1777 33.1885 44.269 33.2964C44.3603 33.4042 44.4057 33.5436 44.3954 33.6846L43.0491 49.0286C43.0346 49.1601 42.9724 49.2816 42.8742 49.3703C42.7761 49.4589 42.6485 49.5084 42.5163 49.5095Z" fill="#232E3D"/>
<path d="M52.2826 42.3109H52.2086C52.0685 42.2996 51.9384 42.2334 51.847 42.1267C51.7555 42.0199 51.7099 41.8814 51.7202 41.7412L52.0164 38.0421C52.0384 37.9109 52.1085 37.7927 52.2133 37.7108C52.318 37.6288 52.4498 37.589 52.5825 37.5992C52.7151 37.6094 52.839 37.6689 52.93 37.7659C53.021 37.8629 53.0724 37.9905 53.0741 38.1235L52.7782 41.8226C52.7694 41.9505 52.7142 42.0707 52.6229 42.1606C52.5316 42.2505 52.4106 42.304 52.2826 42.3109Z" fill="#232E3D"/>
<path d="M74.699 28.7127L73.8038 16.3502L81.2982 21.6843L82.3562 19.2355L75.5572 14.5598L83.3475 10.1874L82.3562 8.30826L74.3438 12.3181L75.7791 0H73.8038L71.8506 11.4451L65.9542 4.59433L64.8149 6.11097L70.4302 12.9692L59.7988 18.8582L60.694 20.6856L71.5177 15.6178L71.8506 28.7127H74.699Z" fill="#1B17C4"/>
<path d="M197.711 56.1755C197.592 56.1752 197.477 56.1348 197.385 56.0609C197.292 55.9871 197.227 55.884 197.2 55.7685C196.82 54.2312 196.267 52.742 195.551 51.3296C195.276 50.8885 194.911 50.5104 194.48 50.2197C194.049 49.9291 193.562 49.7325 193.05 49.6428C192.919 49.6263 192.799 49.562 192.713 49.4623C192.627 49.3625 192.581 49.2344 192.584 49.1027C192.585 48.972 192.635 48.8466 192.724 48.7508C192.813 48.655 192.935 48.5959 193.065 48.5848C193.559 48.5231 194.032 48.3515 194.451 48.0826C194.869 47.8138 195.223 47.4545 195.484 47.0312C196.256 45.5008 196.809 43.8696 197.126 42.1853C197.15 42.0701 197.211 41.9659 197.3 41.8889C197.389 41.8119 197.5 41.7664 197.618 41.7597C197.735 41.7529 197.851 41.7852 197.949 41.8515C198.046 41.9178 198.118 42.0144 198.155 42.1262C198.606 43.6502 199.501 46.2692 199.975 46.8167C200.776 47.529 201.709 48.0792 202.72 48.4369C202.817 48.4738 202.901 48.5383 202.962 48.6225C203.023 48.7067 203.058 48.8068 203.062 48.9106C203.067 49.0144 203.041 49.1173 202.988 49.2066C202.935 49.296 202.857 49.3679 202.764 49.4134C201.735 49.8675 200.774 50.4626 199.908 51.1816C199.464 51.6995 198.636 54.2667 198.221 55.7538C198.198 55.872 198.134 55.9784 198.041 56.0552C197.948 56.132 197.831 56.1744 197.711 56.1755ZM194.752 49.1619C195.459 49.552 196.049 50.1242 196.461 50.8191C196.977 51.7607 197.395 52.7522 197.711 53.7784C198.017 52.6362 198.483 51.5428 199.094 50.5306C199.753 49.9131 200.501 49.3993 201.314 49.0065C200.521 48.6477 199.802 48.1461 199.191 47.5269C198.554 46.5102 198.056 45.4129 197.711 44.2642C197.406 45.4177 196.964 46.5304 196.394 47.5787C196.011 48.2515 195.444 48.8008 194.759 49.1619H194.752Z" fill="#FAAF3A"/>
<path d="M137.111 25.7832C136.993 25.7846 136.878 25.7458 136.785 25.6732C136.692 25.6005 136.627 25.4984 136.6 25.3837C136.221 23.8459 135.668 22.3566 134.95 20.9447C134.675 20.5028 134.309 20.1241 133.877 19.8335C133.445 19.5428 132.956 19.3467 132.443 19.2579C132.313 19.2426 132.194 19.1802 132.107 19.0827C132.02 18.9852 131.973 18.8594 131.973 18.7289C131.973 18.5985 132.02 18.4726 132.107 18.3751C132.194 18.2776 132.313 18.2153 132.443 18.1999C132.936 18.1382 133.41 17.9666 133.828 17.6977C134.247 17.4289 134.6 17.0696 134.862 16.6463C135.635 15.1164 136.187 13.485 136.504 11.8004C136.524 11.6831 136.583 11.5761 136.672 11.4968C136.761 11.4175 136.874 11.3706 136.993 11.3639C137.112 11.3544 137.232 11.3868 137.33 11.4557C137.429 11.5245 137.5 11.6255 137.533 11.7413C137.984 13.2653 138.879 15.8843 139.353 16.4392C140.156 17.1469 141.088 17.6943 142.097 18.052C142.197 18.0878 142.283 18.1522 142.345 18.2372C142.408 18.3221 142.444 18.4237 142.449 18.5291C142.453 18.6345 142.427 18.739 142.372 18.8292C142.317 18.9194 142.237 18.9914 142.142 19.036C141.111 19.4872 140.149 20.0826 139.286 20.8041C138.842 21.3146 138.013 23.8818 137.599 25.3763C137.573 25.4881 137.512 25.5885 137.423 25.662C137.335 25.7355 137.225 25.778 137.111 25.7832ZM134.151 18.777C134.863 19.1604 135.457 19.7309 135.868 20.4268C136.383 21.369 136.801 22.3604 137.118 23.3861C137.426 22.2445 137.892 21.1513 138.502 20.1383C139.159 19.5209 139.907 19.0093 140.721 18.6216C139.927 18.265 139.207 17.7632 138.598 17.142C137.959 16.129 137.462 15.0339 137.118 13.8868C136.812 15.0374 136.37 16.1475 135.801 17.1938C135.413 17.8671 134.84 18.4161 134.151 18.777Z" fill="#FAAF3A"/>
<path d="M101.873 89.3493C101.783 89.3492 101.694 89.3263 101.614 89.2828C101.551 89.249 101.496 89.2026 101.451 89.1464C101.406 89.0902 101.373 89.0254 101.354 88.9561C101.336 88.8868 101.331 88.8143 101.342 88.7433C101.352 88.6722 101.377 88.604 101.415 88.5429C102.114 87.0687 102.432 85.442 102.337 83.8129C102.243 82.1838 101.74 80.6047 100.875 79.2211C97.5972 73.6058 103.982 67.8204 104.048 67.7612C104.154 67.6631 104.295 67.6111 104.439 67.6166C104.584 67.6222 104.72 67.6848 104.818 67.7908C104.916 67.8967 104.968 68.0373 104.962 68.1816C104.957 68.3259 104.894 68.4621 104.788 68.5602C104.729 68.612 98.9807 73.8204 101.829 78.6884C102.784 80.2295 103.335 81.9866 103.43 83.797C103.526 85.6075 103.164 87.4128 102.377 89.046C102.333 89.1409 102.261 89.2205 102.171 89.2746C102.082 89.3286 101.978 89.3547 101.873 89.3493Z" fill="white"/>
<path d="M118.334 89.3493C118.224 89.3506 118.116 89.3169 118.025 89.2532C117.935 89.1894 117.867 89.0988 117.831 88.9942C117.743 88.7574 115.745 83.0164 116.892 77.6674C117.942 72.7697 113.659 68.6045 113.614 68.5601C113.565 68.5119 113.526 68.4544 113.499 68.3908C113.473 68.3273 113.459 68.2591 113.459 68.1902C113.459 68.1213 113.473 68.0531 113.499 67.9896C113.526 67.9261 113.565 67.8685 113.614 67.8203C113.713 67.7227 113.846 67.668 113.984 67.668C114.123 67.668 114.256 67.7227 114.354 67.8203C114.547 68.0053 119.111 72.4368 117.935 77.9189C116.855 82.9646 118.815 88.6168 118.838 88.6686C118.885 88.8011 118.878 88.9471 118.819 89.0746C118.759 89.2021 118.651 89.3009 118.519 89.3493C118.458 89.3609 118.395 89.3609 118.334 89.3493Z" fill="white"/>
<path d="M183.27 51.7283C183.27 51.7283 186.665 45.6395 185.903 36.2585C185.46 28.4607 184.764 11.7406 179.356 12.1031C177.484 12.2289 176.781 14.0859 176.67 16.4607L176.315 15.166C174.747 9.48415 173.312 5.68142 169.605 6.36206C168.562 6.55442 167.223 8.4188 167.023 9.94285C165.603 5.59266 163.013 3.07724 160.801 3.78007C157.893 4.70486 157.516 9.29179 158.204 13.7973C158.848 18.0144 159.958 23.9034 159.958 23.9034C153.299 22.2092 144.643 27.9354 142.653 34.9638C141.225 40.0094 142.431 44.1599 146.352 44.4558C146.113 44.5326 145.89 44.653 145.694 44.8109C141.129 49.6864 149.193 54.3473 156.466 59.3485L168.68 113.171C180.636 123.262 198.495 112.024 194.574 96.8948L183.27 51.7283ZM156.836 46.1278C154.779 45.4767 151.442 42.7172 148.468 43.9823C150.577 42.5026 150.688 38.6481 153.077 36.9021C156.148 34.6827 159.861 34.0464 160.89 40.002C161.948 46.076 159.262 46.8898 156.836 46.1278Z" fill="#FFC9AB"/>
<path d="M170.019 27.7579C169.895 27.7568 169.774 27.7128 169.678 27.6333C169.583 27.5537 169.517 27.4436 169.493 27.3214L166.497 10.0317C166.484 9.96313 166.485 9.89271 166.5 9.82455C166.515 9.7564 166.543 9.69187 166.583 9.63472C166.623 9.57756 166.674 9.52891 166.733 9.49164C166.792 9.45437 166.858 9.4292 166.926 9.41761C166.995 9.40594 167.066 9.40799 167.134 9.42362C167.202 9.43924 167.267 9.46813 167.324 9.50867C167.381 9.5492 167.429 9.60057 167.466 9.65985C167.504 9.71912 167.529 9.78512 167.54 9.85411L170.544 27.1365C170.556 27.2055 170.554 27.2761 170.538 27.3443C170.522 27.4125 170.494 27.4769 170.453 27.5339C170.413 27.5909 170.361 27.6394 170.302 27.6766C170.243 27.7138 170.176 27.7389 170.107 27.7505L170.019 27.7579Z" fill="#232E3D"/>
<path d="M168.725 46.8454C168.608 46.846 168.494 46.8077 168.402 46.7367C168.31 46.6658 168.243 46.5661 168.214 46.4533C167.067 42.2511 167.415 38.5594 169.235 35.4817C171.861 31.0427 176.722 29.2893 178.276 28.8233L176.145 16.5643C176.133 16.4953 176.134 16.4246 176.15 16.3563C176.165 16.2879 176.193 16.2232 176.233 16.1658C176.274 16.1084 176.325 16.0595 176.384 16.0219C176.443 15.9843 176.509 15.9587 176.578 15.9466C176.647 15.9344 176.717 15.936 176.786 15.9511C176.854 15.9663 176.919 15.9948 176.976 16.035C177.034 16.0752 177.082 16.1263 177.12 16.1854C177.158 16.2445 177.183 16.3104 177.195 16.3794L179.415 29.1192C179.439 29.2523 179.411 29.3897 179.337 29.5027C179.262 29.6157 179.147 29.6957 179.015 29.7258C178.956 29.7258 173.015 31.2055 170.137 36.044C168.473 38.8553 168.17 42.2659 169.227 46.187C169.264 46.3224 169.245 46.4666 169.176 46.5885C169.107 46.7104 168.992 46.8 168.858 46.8381C168.814 46.8467 168.769 46.8492 168.725 46.8454Z" fill="#232E3D"/>
<path d="M146.382 44.9597C146.262 44.9581 146.146 44.9165 146.052 44.8414C145.958 44.7664 145.892 44.6623 145.864 44.5454C145.849 44.4769 145.848 44.4061 145.86 44.337C145.872 44.2679 145.897 44.2019 145.935 44.1428C145.973 44.0836 146.023 44.0326 146.08 43.9925C146.138 43.9524 146.203 43.9241 146.271 43.9092L148.387 43.4801C148.525 43.4513 148.669 43.4778 148.788 43.5538C148.907 43.6299 148.991 43.7495 149.023 43.887C149.04 43.9546 149.042 44.0248 149.031 44.0934C149.019 44.1619 148.994 44.2275 148.957 44.2862C148.92 44.3449 148.871 44.3955 148.814 44.4349C148.756 44.4744 148.692 44.5019 148.624 44.5158L146.537 44.9893L146.382 44.9597Z" fill="#232E3D"/>
<path d="M160.713 28.8013C160.589 28.7996 160.468 28.7543 160.374 28.6731C160.279 28.592 160.216 28.4803 160.195 28.3574L159.455 23.9999C159.443 23.9309 159.445 23.8602 159.46 23.7918C159.475 23.7234 159.504 23.6587 159.544 23.6013C159.584 23.544 159.635 23.4951 159.694 23.4575C159.753 23.4199 159.819 23.3942 159.888 23.3821C159.957 23.37 160.028 23.3715 160.096 23.3867C160.165 23.4019 160.229 23.4304 160.287 23.4706C160.344 23.5107 160.393 23.5618 160.431 23.6209C160.468 23.68 160.494 23.7459 160.506 23.8149L161.246 28.1799C161.258 28.249 161.257 28.3199 161.242 28.3885C161.227 28.4571 161.198 28.5219 161.157 28.5792C161.116 28.6364 161.065 28.6849 161.005 28.7218C160.945 28.7587 160.879 28.7832 160.809 28.7939L160.713 28.8013Z" fill="#232E3D"/>
<path d="M152.085 95.1267C152.012 95.1269 151.939 95.1119 151.871 95.0826C151.804 95.0533 151.743 95.0104 151.693 94.9565L137.289 79.3535C137.24 79.3025 137.202 79.2425 137.177 79.1768C137.151 79.111 137.139 79.041 137.141 78.9706C137.143 78.9001 137.158 78.8308 137.187 78.7664C137.215 78.702 137.256 78.6438 137.307 78.5952C137.358 78.5466 137.418 78.5086 137.484 78.4832C137.55 78.4579 137.619 78.4457 137.69 78.4474C137.76 78.4491 137.83 78.4647 137.894 78.4932C137.959 78.5218 138.017 78.5627 138.065 78.6137L152.455 94.2093C152.544 94.3141 152.59 94.449 152.583 94.5865C152.576 94.724 152.517 94.8537 152.418 94.9491C152.334 95.0492 152.215 95.1129 152.085 95.1267Z" fill="#232E3D"/>
<path d="M106.349 53.9186C113.479 53.9186 119.259 48.1386 119.259 41.0086C119.259 33.8786 113.479 28.0986 106.349 28.0986C99.2195 28.0986 93.4395 33.8786 93.4395 41.0086C93.4395 48.1386 99.2195 53.9186 106.349 53.9186Z" fill="#FFC9AB"/>
<path d="M107.177 47.9114C109.204 47.9114 110.847 46.2684 110.847 44.2418C110.847 42.2152 109.204 40.5723 107.177 40.5723C105.151 40.5723 103.508 42.2152 103.508 44.2418C103.508 46.2684 105.151 47.9114 107.177 47.9114Z" fill="#FFA183"/>
<path d="M102.369 37.6351C102.261 37.6357 102.155 37.6031 102.065 37.5418C101.976 37.4805 101.908 37.3934 101.869 37.2921C101.83 37.1907 101.823 37.08 101.849 36.9748C101.875 36.8695 101.933 36.7746 102.014 36.7029C102.854 35.963 103.929 35.545 105.048 35.5233C106.167 35.5017 107.258 35.8777 108.125 36.5845C108.185 36.6263 108.236 36.68 108.274 36.7421C108.312 36.8043 108.337 36.8736 108.348 36.9458C108.358 37.018 108.353 37.0916 108.334 37.1619C108.315 37.2323 108.281 37.2979 108.235 37.3547C108.189 37.4116 108.133 37.4585 108.068 37.4924C108.004 37.5264 107.933 37.5468 107.86 37.5523C107.787 37.5577 107.714 37.5482 107.645 37.5243C107.576 37.5004 107.513 37.4625 107.46 37.4132C107.363 37.3318 104.981 35.5044 102.717 37.5019C102.622 37.5885 102.498 37.6361 102.369 37.6351Z" fill="#232E3D"/>
<path d="M97.812 43.5538C97.7 43.5533 97.5912 43.517 97.5013 43.4502C97.3893 43.3662 97.3147 43.2415 97.2939 43.1031C97.2732 42.9646 97.3076 42.8236 97.39 42.7104C97.39 42.7104 98.8031 40.7647 98.1743 38.9595C98.1715 38.9349 98.1715 38.9101 98.1743 38.8855C98.0278 38.4522 97.7854 38.0575 97.4652 37.7308C97.1449 37.4042 96.7551 37.154 96.3247 36.9989C95.9801 36.8357 95.6005 36.7604 95.2197 36.7798C94.8388 36.7992 94.4688 36.9126 94.1425 37.1099C94.0857 37.1589 94.0191 37.1953 93.9474 37.2168C93.8756 37.2383 93.8002 37.2445 93.7259 37.2349C93.6517 37.2252 93.5803 37.2001 93.5164 37.161C93.4525 37.1219 93.3977 37.0698 93.3553 37.0081C93.3129 36.9463 93.2839 36.8763 93.2704 36.8026C93.2569 36.729 93.2592 36.6533 93.2769 36.5805C93.2946 36.5077 93.3275 36.4395 93.3734 36.3803C93.4192 36.3211 93.4771 36.2723 93.5432 36.2369C94.012 35.9321 94.5509 35.7519 95.1088 35.713C95.6667 35.6742 96.2253 35.7781 96.7318 36.015C97.3159 36.2368 97.8416 36.5885 98.2697 37.0435C98.6978 37.4985 99.0169 38.0449 99.2028 38.6414C99.987 40.9718 98.3299 43.2505 98.2559 43.3467C98.2039 43.4142 98.1363 43.4682 98.0591 43.5043C97.9818 43.5403 97.8971 43.5573 97.812 43.5538Z" fill="#232E3D"/>
<path d="M105.906 39.4771C105.906 39.3308 105.862 39.1878 105.781 39.0661C105.7 38.9444 105.584 38.8496 105.449 38.7936C105.314 38.7376 105.165 38.723 105.021 38.7515C104.878 38.7801 104.746 38.8505 104.643 38.954C104.539 39.0575 104.469 39.1893 104.44 39.3328C104.411 39.4763 104.426 39.6251 104.482 39.7603C104.538 39.8954 104.633 40.011 104.755 40.0923C104.876 40.1736 105.019 40.217 105.166 40.217C105.362 40.217 105.55 40.139 105.689 40.0003C105.828 39.8615 105.906 39.6733 105.906 39.4771Z" fill="#232E3D"/>
<path d="M97.9013 39.4771C97.9013 39.3308 97.858 39.1878 97.7767 39.0661C97.6954 38.9444 97.5799 38.8496 97.4447 38.7936C97.3095 38.7376 97.1609 38.723 97.0174 38.7515C96.8739 38.7801 96.7419 38.8505 96.6384 38.954C96.535 39.0575 96.4647 39.1893 96.4361 39.3328C96.4076 39.4763 96.4221 39.6251 96.478 39.7603C96.534 39.8954 96.6291 40.011 96.7508 40.0923C96.8724 40.1736 97.0152 40.217 97.1615 40.217C97.3577 40.217 97.5462 40.139 97.685 40.0003C97.8237 39.8615 97.9013 39.6733 97.9013 39.4771Z" fill="#232E3D"/>
<path d="M98.9283 46.3796C98.1808 46.3937 97.4478 46.171 96.8345 45.7434C96.7796 45.7011 96.7336 45.6485 96.6991 45.5884C96.6645 45.5284 96.6423 45.4621 96.6333 45.3934C96.6244 45.3247 96.629 45.2549 96.6471 45.188C96.6651 45.1211 96.6962 45.0584 96.7384 45.0036C96.7807 44.9487 96.8334 44.9026 96.8934 44.8681C96.9535 44.8335 97.0198 44.8112 97.0885 44.8023C97.1572 44.7933 97.2268 44.798 97.2937 44.816C97.3606 44.8341 97.4234 44.8651 97.4783 44.9074C97.9385 45.1839 98.4654 45.33 99.0024 45.33C99.5393 45.33 100.066 45.1839 100.526 44.9074C100.591 44.8722 100.661 44.8507 100.734 44.844C100.807 44.8374 100.88 44.8457 100.949 44.8686C101.019 44.8915 101.083 44.9285 101.137 44.9771C101.192 45.0258 101.236 45.0852 101.266 45.1515C101.303 45.2154 101.325 45.2861 101.332 45.3591C101.34 45.4322 101.331 45.5059 101.308 45.5756C101.285 45.6453 101.248 45.7094 101.199 45.7638C101.149 45.8182 101.089 45.8617 101.022 45.8914C100.371 46.2138 99.6546 46.3809 98.9283 46.3796Z" fill="#232E3D"/>
<path d="M100.476 28.3941C100.476 28.3941 99.6838 36.0661 110.596 33.6321C110.596 33.6321 112.039 40.1648 115.516 41.4965C115.516 41.4965 112.187 48.3916 116.944 50.5815L122.707 38.0045L114.036 23.3633L100.476 28.3941Z" fill="#232E3D"/>
<path d="M120.014 41.7484C120.014 40.8353 119.743 39.9427 119.236 39.1836C118.729 38.4244 118.008 37.8327 117.164 37.4833C116.321 37.1338 115.393 37.0424 114.497 37.2205C113.602 37.3987 112.779 37.8384 112.133 38.484C111.488 39.1296 111.048 39.9522 110.87 40.8477C110.692 41.7432 110.783 42.6715 111.133 43.515C111.482 44.3586 112.074 45.0796 112.833 45.5869C113.592 46.0941 114.485 46.3649 115.398 46.3649C116.622 46.3629 117.794 45.8759 118.66 45.0106C119.525 44.1452 120.012 42.9721 120.014 41.7484Z" fill="#FFC9AB"/>
<path d="M114.244 43.2951C114.14 43.2939 114.038 43.2623 113.952 43.2041C113.865 43.146 113.798 43.0639 113.758 42.9679C113.718 42.8719 113.707 42.7662 113.726 42.664C113.745 42.5617 113.794 42.4673 113.866 42.3925L116.411 39.8475C116.512 39.7635 116.64 39.7202 116.771 39.7261C116.902 39.732 117.026 39.7867 117.119 39.8794C117.212 39.9722 117.266 40.0962 117.272 40.2272C117.278 40.3581 117.235 40.4866 117.151 40.5873L114.606 43.1323C114.559 43.182 114.503 43.2219 114.441 43.2498C114.379 43.2778 114.312 43.2931 114.244 43.2951Z" fill="#232E3D"/>
<path d="M124.564 31.924C124.442 31.9227 124.325 31.8797 124.231 31.802C124.137 31.7243 124.072 31.6168 124.048 31.4973C124.024 31.3778 124.041 31.2536 124.097 31.1455C124.154 31.0373 124.245 30.9518 124.357 30.9031C126.798 29.8525 125.955 27.2039 125.918 27.0634C125.896 26.9973 125.888 26.9276 125.893 26.8582C125.898 26.7889 125.917 26.7212 125.949 26.6593C125.981 26.5973 126.024 26.5423 126.077 26.4974C126.13 26.4524 126.192 26.4185 126.258 26.3975C126.324 26.3745 126.393 26.3648 126.463 26.3692C126.532 26.3735 126.6 26.3918 126.662 26.4228C126.724 26.4539 126.779 26.4971 126.824 26.55C126.869 26.6028 126.903 26.6642 126.924 26.7304C127.346 28.0103 127.435 30.7329 124.771 31.9092C124.704 31.9279 124.633 31.9329 124.564 31.924Z" fill="#232E3D"/>
<path d="M168.71 113.704C168.589 113.704 168.472 113.663 168.378 113.587C168.284 113.512 168.218 113.407 168.192 113.29L155.977 59.4674C155.957 59.3344 155.987 59.1987 156.063 59.0875C156.139 58.9763 156.254 58.8979 156.385 58.8679C156.516 58.8379 156.654 58.8586 156.77 58.9259C156.887 58.9932 156.973 59.1021 157.013 59.2306L169.227 113.023C169.256 113.161 169.231 113.304 169.156 113.422C169.082 113.541 168.964 113.626 168.828 113.66L168.71 113.704Z" fill="#232E3D"/>
</g>
<defs>
<clipPath id="clip0_1287_12459">
<rect width="202.136" height="150" fill="white" transform="translate(0.931641)"/>
</clipPath>
</defs>
</svg>
