<svg width="52" height="52" viewBox="0 0 52 52" fill="none" xmlns="http://www.w3.org/2000/svg">
<path fill-rule="evenodd" clip-rule="evenodd" d="M20.2578 25.7501H24.8838C27.4281 25.7501 29.8682 26.7607 31.6672 28.5596C33.4663 30.3585 34.477 32.7983 34.477 35.3422H19.5522L19.5543 37.4738H36.6088V35.3422C36.6021 33.0742 35.9467 30.8553 34.72 28.9475H40.8725C42.8876 28.947 44.8616 29.5176 46.5656 30.5932C48.2695 31.6688 49.6337 33.2053 50.4998 35.0246C45.458 41.6773 37.2953 46.0001 28.0816 46.0001C22.1956 46.0001 17.2093 44.7425 13.1588 42.5363V22.7041C15.7524 23.0756 18.2016 24.1265 20.2578 25.7501ZM11.027 41.737C11.027 42.3023 10.8024 42.8445 10.4026 43.2442C10.0028 43.644 9.4606 43.8686 8.89521 43.8686H4.63157C4.06618 43.8686 3.52394 43.644 3.12415 43.2442C2.72436 42.8445 2.49976 42.3023 2.49976 41.737V22.5528C2.49976 21.9874 2.72436 21.4453 3.12415 21.0455C3.52394 20.6458 4.06618 20.4212 4.63157 20.4212H8.89521C9.4606 20.4212 10.0028 20.6458 10.4026 21.0455C10.8024 21.4453 11.027 21.9874 11.027 22.5528V41.737Z" fill="#0086FF"/>
<path d="M32.8399 21.3201C34.7505 21.3201 36.6182 20.7535 38.2067 19.6921C39.7953 18.6306 41.0335 17.1219 41.7646 15.3568C42.4958 13.5916 42.6871 11.6493 42.3143 9.77549C41.9416 7.90163 41.0216 6.18039 39.6706 4.82941C38.3196 3.47843 36.5984 2.55841 34.7245 2.18568C32.8506 1.81294 30.9083 2.00424 29.1432 2.73538C27.3781 3.46653 25.8694 4.70467 24.8079 6.29325C23.7465 7.88183 23.1799 9.74949 23.1799 11.6601L32.8399 11.6601L32.8399 21.3201Z" fill="#0086FF"/>
<path d="M21.5 13.3401C21.5 14.6086 21.7499 15.8648 22.2353 17.0368C22.7208 18.2088 23.4323 19.2737 24.3293 20.1707C25.2264 21.0677 26.2913 21.7793 27.4633 22.2647C28.6353 22.7502 29.8914 23.0001 31.16 23.0001L31.16 13.3401L21.5 13.3401Z" fill="#FAAF3A"/>
</svg>
