<svg width="52" height="52" viewBox="0 0 52 52" fill="none" xmlns="http://www.w3.org/2000/svg">
<path fill-rule="evenodd" clip-rule="evenodd" d="M3.5 6.3637C3.5 3.94188 5.44932 2.00006 7.8805 2.00006H25.4025L38.544 15.091V23.9928C37.8191 23.8825 37.0871 23.8242 36.3538 23.8182C32.2875 23.8182 28.3878 25.4273 25.5126 28.2915C22.6373 31.1557 21.022 35.0404 21.022 39.091C21.0251 41.3558 21.5339 43.5916 22.5114 45.6364H7.8805C6.71872 45.6364 5.60452 45.1767 4.78302 44.3583C3.96152 43.54 3.5 42.4301 3.5 41.2728V6.3637ZM35.2586 17.2728L23.2123 5.27279V17.2728H35.2586Z" fill="#0086FF"/>
<path fill-rule="evenodd" clip-rule="evenodd" d="M33.7951 28.3077C33.8992 28.224 34.0297 28.1794 34.1635 28.1819H38.544C38.6695 28.1843 38.7898 28.2321 38.8825 28.3164C38.9752 28.4008 39.034 28.5158 39.0478 28.6401L39.4639 31.5201C40.1429 31.7819 40.7343 32.1528 41.3256 32.5455L44.0196 31.4546C44.3044 31.4546 44.5891 31.4546 44.7205 31.7382L46.9108 35.5128C46.9719 35.6267 46.9922 35.758 46.9683 35.8849C46.9445 36.0119 46.8778 36.1269 46.7794 36.211L44.4577 38.0001C44.5234 38.371 44.5453 38.7201 44.5453 39.091C44.5453 39.4423 44.506 39.7741 44.4646 40.1235C44.4623 40.1429 44.46 40.1623 44.4577 40.1819L46.8013 41.971C46.8997 42.0551 46.9663 42.1701 46.9902 42.297C47.0141 42.424 46.9938 42.5553 46.9327 42.6692L44.7424 46.4437C44.5891 46.7273 44.3044 46.7273 44.0196 46.7273L41.3256 45.6364C40.7343 46.0292 40.1429 46.3782 39.4858 46.6619L39.0697 49.5419C39.0259 49.8037 38.7849 50.0001 38.544 50.0001H34.1635C33.8569 50.0001 33.6378 49.8037 33.594 49.5419L33.1779 46.6619C32.4989 46.4001 31.8857 46.0292 31.3162 45.6364L28.6003 46.7273C28.3374 46.7273 28.0527 46.7273 27.9213 46.4437L25.731 42.6692C25.6699 42.5553 25.6496 42.424 25.6735 42.297C25.6974 42.1701 25.764 42.0551 25.8625 41.971L28.1841 40.1819C28.0968 39.4572 28.0968 38.7247 28.1841 38.0001L25.8625 36.211C25.6434 36.0364 25.5996 35.7528 25.731 35.5128L27.9213 31.7382C28.0746 31.4546 28.3593 31.4546 28.6003 31.4546L31.3162 32.5455C31.8857 32.1528 32.5208 31.8037 33.1779 31.5201L33.594 28.6401C33.6198 28.5092 33.6909 28.3915 33.7951 28.3077ZM39.6391 39.091C39.6391 37.2801 38.1717 35.8182 36.3538 35.8182C34.5359 35.8182 33.0684 37.2801 33.0684 39.091C33.0684 40.9019 34.5139 42.3637 36.3538 42.3637C38.1717 42.3637 39.6391 40.9019 39.6391 39.091Z" fill="#FAAF3A"/>
</svg>
