<svg width="52" height="52" viewBox="0 0 52 52" fill="none" xmlns="http://www.w3.org/2000/svg">
<path d="M18.125 19.2501C14.2462 19.2501 10.5263 20.7909 7.78356 23.5336C5.04084 26.2763 3.5 29.9963 3.5 33.8751C3.5 35.7956 3.87829 37.6974 4.61326 39.4718C5.34824 41.2462 6.42551 42.8584 7.78356 44.2165C10.5263 46.9592 14.2462 48.5001 18.125 48.5001C20.0456 48.5001 21.9474 48.1218 23.7217 47.3868C25.4961 46.6518 27.1084 45.5746 28.4664 44.2165C29.8245 42.8584 30.9018 41.2462 31.6367 39.4718C32.3717 37.6974 32.75 35.7956 32.75 33.8751V30.2976L48.5 26.0001V19.2501H23.75V23.7501H19.25V19.2501H18.125ZM23.75 3.50006V14.7501H19.25V3.50006H23.75ZM13.2875 15.3801C11.78 15.7401 10.34 16.2801 8.9675 17.0001L3.815 9.98006L7.46 7.32506L13.2875 15.3801ZM39.185 9.98006L35.72 14.7501H30.1625L35.54 7.32506L39.185 9.98006V9.98006Z" fill="#0086FF"/>
<path fill-rule="evenodd" clip-rule="evenodd" d="M23.75 14.7501V3.50006H19.25V14.7501H23.75ZM8.9675 17.0001C10.34 16.2801 11.78 15.7401 13.2875 15.3801L7.46 7.32506L3.815 9.98006L8.9675 17.0001ZM35.72 14.7501L39.185 9.98006L35.54 7.32506L30.1625 14.7501H35.72Z" fill="#FAAF3A"/>
<path d="M26 34.2501C26 38.8064 22.3063 42.5001 17.75 42.5001C13.1937 42.5001 9.5 38.8064 9.5 34.2501C9.5 29.6937 13.1937 26.0001 17.75 26.0001C22.3063 26.0001 26 29.6937 26 34.2501ZM13.1974 34.2501C13.1974 36.7644 15.2356 38.8027 17.75 38.8027C20.2644 38.8027 22.3026 36.7644 22.3026 34.2501C22.3026 31.7357 20.2644 29.6974 17.75 29.6974C15.2356 29.6974 13.1974 31.7357 13.1974 34.2501Z" fill="#FFFDFA"/>
</svg>
