<svg width="48" height="48" viewBox="0 0 48 48" fill="none" xmlns="http://www.w3.org/2000/svg">
<path d="M44 22V34C44 42 42 44 34 44H14C6 44 4 42 4 34V14C4 6 6 4 14 4H17C20 4 20.66 4.88 21.8 6.4L24.8 10.4C25.56 11.4 26 12 28 12H34C42 12 44 14 44 22Z" stroke="#F24754" stroke-width="1.5" stroke-miterlimit="10"/>
<path d="M12 34.76H14.8176V31.4141C14.9761 31.5374 15.1522 31.6606 15.3635 31.7663C15.7157 31.96 16.2264 32.1185 16.8428 32.1185C18.6918 32.1185 20.5409 30.2694 20.5409 27.8921C20.5409 25.5147 18.6918 23.6657 16.8428 23.6657C16.1384 23.6657 15.5396 23.8946 15.117 24.1588C14.8704 24.2996 14.6591 24.4581 14.4654 24.6342L14.0252 23.8418H12V34.76ZM16.2264 29.477C15.434 29.477 14.7296 28.7902 14.7296 27.8921C14.7296 26.994 15.434 26.3072 16.2264 26.3072C17.0189 26.3072 17.7233 26.994 17.7233 27.8921C17.7233 28.7902 17.0189 29.477 16.2264 29.477Z" fill="#F24754"/>
<path d="M27.4913 31.9424H29.5165V20.8481H26.6989V24.3701C26.5404 24.2468 26.3643 24.1235 26.153 24.0179C25.8008 23.8242 25.2901 23.6657 24.6737 23.6657C22.8247 23.6657 20.9756 25.5147 20.9756 27.8921C20.9756 30.2694 22.8247 32.1185 24.6737 32.1185C25.3781 32.1185 25.9593 31.9072 26.3819 31.643C26.6285 31.5021 26.8574 31.3437 27.0511 31.1499L27.4913 31.9424ZM25.2901 29.477C24.4976 29.477 23.7932 28.7902 23.7932 27.8921C23.7932 26.994 24.4976 26.3072 25.2901 26.3072C26.0825 26.3072 26.7869 26.994 26.7869 27.8921C26.7869 28.7902 26.0825 29.477 25.2901 29.477Z" fill="#F24754"/>
<path d="M31.0959 31.9424H33.9135V26.8355H35.4984V24.282H33.9135C34.0016 23.7361 34.3362 23.4015 34.8821 23.4015C35.0758 23.4015 35.1991 23.4367 35.3223 23.4543L35.4984 23.4896V21.0242C35.3752 20.9889 35.2343 20.9537 35.0934 20.9009C34.8292 20.8305 34.5299 20.76 34.1777 20.76C32.223 20.76 31.0959 21.8871 31.0959 23.9298V24.282H30.1274V26.8355H31.0959V31.9424Z" fill="#F24754"/>
</svg>
