<?xml version="1.0" standalone="no"?>
<!DOCTYPE svg PUBLIC "-//W3C//DTD SVG 1.1//EN" "http://www.w3.org/Graphics/SVG/1.1/DTD/svg11.dtd" >
<svg xmlns="http://www.w3.org/2000/svg" xmlns:xlink="http://www.w3.org/1999/xlink" version="1.1">
<metadata>
Created by FontForge 20190801 at Thu Oct 24 18:56:35 2019
 By Jimmy Wärting
Designed for Typetype in 2018 by Ivan Gladkikh and Pavel Emelyanov. TT Commons is one of series of fontfamilies which were designed for use in web and mobile applications, print and multimedia environments.
</metadata>
<defs>
<font id="TTCommons-Bold" horiz-adv-x="535" >
  <font-face 
    font-family="TT Commons"
    font-weight="700"
    font-stretch="normal"
    units-per-em="1000"
    panose-1="2 0 8 6 3 0 0 2 0 4"
    ascent="800"
    descent="-200"
    x-height="460"
    cap-height="630"
    bbox="-490 -290 1438 970"
    underline-thickness="50"
    underline-position="-100"
    stemh="140"
    stemv="145"
    unicode-range="U+000D-FB06"
  />
<missing-glyph horiz-adv-x="900" 
d="M100 0v284h45v-139h33v139h50v31h-128v126l19 -61h23l34 106l33 -106h23l54 170h-32l-34 -110l-35 110h-19l-35 -110l-31 103v157h700v-150h-110v-170h110v-91c-8 17 -27 27 -50 27c-38 0 -60 -23 -60 -49c0 -59 88 -42 88 -73c0 -18 -16 -21 -28 -21
c-20 0 -28 12 -28 25h-33c0 -32 24 -55 61 -55c26 0 44 13 50 20v-163h-700zM328 143c50 0 82 38 82 86c0 49 -33 87 -82 87s-82 -38 -82 -87c0 -48 32 -86 82 -86zM328 174c-30 0 -51 24 -51 55c0 32 19 56 51 56s51 -24 51 -56c0 -31 -21 -55 -51 -55zM549 209v106h-32
v-106c0 -38 30 -66 68 -66s67 28 67 66v106h-32v-106c0 -20 -13 -35 -35 -35c-24 0 -36 18 -36 35zM311 380h33v62h24l35 -62h37l-40 67c24 11 36 28 36 50c0 28 -22 53 -57 53h-68v-170zM344 473v46h35c13 0 24 -9 24 -23c0 -17 -14 -23 -24 -23h-35zM469 380h33v170h-33
v-170zM776 262h24v-38c-28 26 -76 21 -76 43c0 12 12 20 26 20c13 0 26 -9 26 -25zM580 380h32v139h50v31h-132v-31h50v-139zM722 411v41h78v-41h-78zM722 483v36h78v-36h-78z" />
    <glyph glyph-name="ff" unicode="ff" horiz-adv-x="610" 
d="M80 0v315h-60v125h60c0 115 60 175 165 175c38 0 65 -10 65 -10v-120s-15 5 -35 5c-50 0 -60 -50 -60 -50h140v25c0 110 60 170 165 170c38 0 65 -10 65 -10v-120s-15 5 -35 5c-35 0 -60 -25 -60 -65v-5h95v-125h-95v-315h-135v315h-140v-315h-135z" />
    <glyph glyph-name="uniFB01" unicode="fi" horiz-adv-x="550" 
d="M80 0v315h-60v125h60v25c0 110 60 170 165 170c38 0 65 -10 65 -10v-120s-15 5 -35 5c-35 0 -60 -25 -60 -65v-5h275v-440h-135v315h-140v-315h-135zM425 485c-40 0 -75 35 -75 75s35 75 75 75s75 -35 75 -75s-35 -75 -75 -75z" />
    <glyph glyph-name="uniFB02" unicode="fl" horiz-adv-x="540" 
d="M80 0v315h-60v125h65c0 130 75 205 180 205c55 0 90 -15 90 -15h135v-630h-135v510s-20 10 -60 10c-45 0 -80 -35 -80 -80h95v-125h-95v-315h-135z" />
    <glyph glyph-name="ffi" unicode="ffi" horiz-adv-x="825" 
d="M80 0v315h-60v125h60c0 115 60 175 165 175c38 0 65 -10 65 -10v-120s-15 5 -35 5c-50 0 -60 -50 -60 -50h140v25c0 110 60 170 165 170c38 0 65 -10 65 -10v-120s-15 5 -35 5c-35 0 -60 -25 -60 -65v-5h275v-440h-135v315h-140v-315h-135v315h-140v-315h-135zM700 485
c-40 0 -75 35 -75 75s35 75 75 75s75 -35 75 -75s-35 -75 -75 -75z" />
    <glyph glyph-name="ffl" unicode="ffl" horiz-adv-x="815" 
d="M80 0v315h-60v125h60c0 115 60 175 165 175c38 0 65 -10 65 -10v-120s-15 5 -35 5c-50 0 -60 -50 -60 -50h145c0 130 75 205 180 205c55 0 90 -15 90 -15h135v-630h-135v510s-20 10 -60 10c-45 0 -80 -35 -80 -80h95v-125h-95v-315h-135v315h-140v-315h-135z" />
    <glyph glyph-name="f_f_j" unicode="ffj" horiz-adv-x="825" 
d="M600 -165c-35 0 -65 10 -65 10v120s15 -5 35 -5c35 0 60 25 60 65v290h-140v-315h-135v315h-140v-315h-135v315h-60v125h60c0 115 60 175 165 175c38 0 65 -10 65 -10v-120s-15 5 -35 5c-50 0 -60 -50 -60 -50h140v25c0 110 60 170 165 170c38 0 65 -10 65 -10v-120
s-15 5 -35 5c-35 0 -60 -25 -60 -65v-5h275v-435c0 -110 -60 -170 -165 -170zM700 485c-40 0 -75 35 -75 75s35 75 75 75s75 -35 75 -75s-35 -75 -75 -75z" />
    <glyph glyph-name="f_j" unicode="fj" horiz-adv-x="550" 
d="M325 -165c-35 0 -65 10 -65 10v120s15 -5 35 -5c35 0 60 25 60 65v290h-140v-315h-135v315h-60v125h60v25c0 110 60 170 165 170c38 0 65 -10 65 -10v-120s-15 5 -35 5c-35 0 -60 -25 -60 -65v-5h275v-435c0 -110 -60 -170 -165 -170zM425 485c-40 0 -75 35 -75 75
s35 75 75 75s75 -35 75 -75s-35 -75 -75 -75z" />
    <glyph glyph-name=".notdef" horiz-adv-x="900" 
d="M100 0v284h45v-139h33v139h50v31h-128v126l19 -61h23l34 106l33 -106h23l54 170h-32l-34 -110l-35 110h-19l-35 -110l-31 103v157h700v-150h-110v-170h110v-91c-8 17 -27 27 -50 27c-38 0 -60 -23 -60 -49c0 -59 88 -42 88 -73c0 -18 -16 -21 -28 -21
c-20 0 -28 12 -28 25h-33c0 -32 24 -55 61 -55c26 0 44 13 50 20v-163h-700zM328 143c50 0 82 38 82 86c0 49 -33 87 -82 87s-82 -38 -82 -87c0 -48 32 -86 82 -86zM328 174c-30 0 -51 24 -51 55c0 32 19 56 51 56s51 -24 51 -56c0 -31 -21 -55 -51 -55zM549 209v106h-32
v-106c0 -38 30 -66 68 -66s67 28 67 66v106h-32v-106c0 -20 -13 -35 -35 -35c-24 0 -36 18 -36 35zM311 380h33v62h24l35 -62h37l-40 67c24 11 36 28 36 50c0 28 -22 53 -57 53h-68v-170zM344 473v46h35c13 0 24 -9 24 -23c0 -17 -14 -23 -24 -23h-35zM469 380h33v170h-33
v-170zM776 262h24v-38c-28 26 -76 21 -76 43c0 12 12 20 26 20c13 0 26 -9 26 -25zM580 380h32v139h50v31h-132v-31h50v-139zM722 411v41h78v-41h-78zM722 483v36h78v-36h-78z" />
    <glyph glyph-name=".null" horiz-adv-x="0" 
 />
    <glyph glyph-name=".null" horiz-adv-x="0" 
 />
    <glyph glyph-name="CR" unicode="&#xd;" horiz-adv-x="0" 
 />
    <glyph glyph-name="space" unicode=" " horiz-adv-x="230" 
 />
    <glyph glyph-name="exclam" unicode="!" horiz-adv-x="280" 
d="M140 -5c-40 0 -75 35 -75 75s35 75 75 75s75 -35 75 -75s-35 -75 -75 -75zM75 190l-15 440h160l-15 -440h-130z" />
    <glyph glyph-name="quotedbl" unicode="&#x22;" horiz-adv-x="405" 
d="M50 425v205h125v-205h-125zM230 425v205h125v-205h-125z" />
    <glyph glyph-name="numbersign" unicode="#" horiz-adv-x="650" 
d="M100 0l30 150h-120l25 110h115l20 110h-115l25 110h110l30 150h110l-30 -150h110l30 150h110l-30 -150h120l-25 -110h-115l-20 -110h115l-25 -110h-110l-30 -150h-110l30 150h-110l-30 -150h-110zM260 260h110l20 110h-110z" />
    <glyph glyph-name="dollar" unicode="$" horiz-adv-x="525" 
d="M200 -85v85c-110 20 -170 100 -170 200l140 10c0 -55 30 -85 90 -85c55 0 85 30 85 65c0 95 -310 40 -310 265c0 85 65 155 165 175v85h130v-90c90 -20 150 -97 150 -190l-140 -10c0 50 -30 80 -80 80c-45 0 -75 -30 -75 -60c0 -90 310 -35 310 -265
c0 -85 -65 -160 -165 -180v-85h-130z" />
    <glyph glyph-name="percent" unicode="%" horiz-adv-x="660" 
d="M80 0l385 630h115l-385 -630h-115zM490 -5c-80 0 -140 60 -140 140s60 140 140 140s140 -60 140 -140s-60 -140 -140 -140zM490 80c30 0 55 25 55 55s-25 55 -55 55s-55 -24 -55 -55c0 -30 25 -55 55 -55zM170 355c-80 0 -140 60 -140 140s60 140 140 140
s140 -60 140 -140s-60 -140 -140 -140zM170 440c30 0 55 24 55 55c0 30 -25 55 -55 55s-55 -25 -55 -55s25 -55 55 -55z" />
    <glyph glyph-name="ampersand" unicode="&#x26;" horiz-adv-x="585" 
d="M220 -10c-120 0 -190 70 -190 160c0 115 115 175 115 175l-30 35c-17 20 -50 55 -50 120c0 80 75 155 175 155s175 -75 175 -155c0 -65 -36 -100 -55 -115l-50 -40l80 -80l45 65h155l-110 -155l155 -155h-165l-65 65s-65 -75 -185 -75zM235 120c45 0 75 40 75 40l-90 90
s-45 -30 -45 -75c0 -30 25 -55 60 -55zM235 395c35 25 55 45 55 75c0 35 -20 55 -50 55s-50 -20 -50 -55c0 -30 20 -50 45 -75z" />
    <glyph glyph-name="quotesingle" unicode="'" horiz-adv-x="225" 
d="M50 425v205h125v-205h-125z" />
    <glyph glyph-name="parenleft" unicode="(" horiz-adv-x="315" 
d="M190 -210c0 0 -150 180 -150 435s150 435 150 435l105 -70s-115 -160 -115 -365c0 -206 115 -365 115 -365z" />
    <glyph glyph-name="parenright" unicode=")" horiz-adv-x="315" 
d="M125 -210l-105 70s115 159 115 365c0 205 -115 365 -115 365l105 70s150 -180 150 -435s-150 -435 -150 -435z" />
    <glyph glyph-name="asterisk" unicode="*" horiz-adv-x="360" 
d="M125 335l-70 50l65 80l-95 25l25 80l90 -35l-5 100h90l-5 -100l90 35l25 -80l-95 -25l65 -80l-70 -50l-55 85z" />
    <glyph glyph-name="plus" unicode="+" horiz-adv-x="465" 
d="M170 50v145h-140v120h140v145h125v-145h140v-120h-140v-145h-125z" />
    <glyph glyph-name="comma" unicode="," horiz-adv-x="210" 
d="M80 -110l-25 35s40 25 50 70c-40 0 -75 35 -75 75s35 75 75 75s75 -35 75 -80c0 -125 -100 -175 -100 -175z" />
    <glyph glyph-name="hyphen" unicode="-" horiz-adv-x="375" 
d="M35 195v120h305v-120h-305z" />
    <glyph glyph-name="period" unicode="." horiz-adv-x="210" 
d="M105 -5c-40 0 -75 35 -75 75s35 75 75 75s75 -35 75 -75s-35 -75 -75 -75z" />
    <glyph glyph-name="slash" unicode="/" horiz-adv-x="390" 
d="M0 -180l260 810h130l-260 -810h-130z" />
    <glyph glyph-name="zero" unicode="0" horiz-adv-x="610" 
d="M305 -5c-150 0 -270 120 -270 320s120 320 270 320s270 -120 270 -320s-120 -320 -270 -320zM305 135c65 0 125 60 125 180s-60 180 -125 180s-125 -60 -125 -180s60 -180 125 -180z" />
    <glyph glyph-name="one" unicode="1" horiz-adv-x="345" 
d="M140 0v450l-65 -45l-70 110l165 115h115v-630h-145z" />
    <glyph glyph-name="two" unicode="2" horiz-adv-x="510" 
d="M35 0v100l230 240s55 55 55 100c0 40 -25 65 -70 65c-50 0 -80 -30 -80 -80l-140 10c0 115 85 200 220 200c140 0 220 -80 220 -190c0 -95 -100 -180 -100 -180l-120 -125h220v-140h-435z" />
    <glyph glyph-name="three" unicode="3" horiz-adv-x="515" 
d="M255 -5c-145 0 -230 85 -235 185l145 10c5 -35 35 -65 85 -65c55 0 85 30 85 70c0 35 -30 65 -90 65h-60v120h60c55 0 80 26 80 60c0 35 -30 65 -80 65c-45 0 -70 -25 -75 -60l-145 10c5 95 90 180 225 180s220 -85 220 -175s-85 -130 -85 -130s100 -40 100 -155
c0 -95 -85 -180 -230 -180z" />
    <glyph glyph-name="four" unicode="4" horiz-adv-x="525" 
d="M295 0v110h-275v130l248 390h172v-380h65v-140h-65v-110h-145zM170 250h125v200z" />
    <glyph glyph-name="five" unicode="5" horiz-adv-x="530" 
d="M265 -5c-130 0 -215 85 -230 180l145 10s15 -60 85 -60c50 0 90 40 90 90s-40 90 -90 90c-65 0 -85 -50 -85 -50h-130l40 375h365v-140h-244l-11 -85s35 25 85 25c120 0 215 -95 215 -215c0 -125 -95 -220 -235 -220z" />
    <glyph glyph-name="six" unicode="6" horiz-adv-x="530" 
d="M265 -5c-140 0 -235 95 -235 220c0 90 60 170 60 170l165 245h150l-135 -200c120 10 230 -84 230 -215c0 -125 -95 -220 -235 -220zM265 120c50 0 90 40 90 95s-40 95 -90 95s-90 -40 -90 -95s40 -95 90 -95z" />
    <glyph glyph-name="seven" unicode="7" horiz-adv-x="480" 
d="M59 0l231 490h-255v140h420v-115l-240 -515h-156z" />
    <glyph glyph-name="eight" unicode="8" horiz-adv-x="530" 
d="M265 -5c-145 0 -235 90 -235 190c0 110 100 155 100 155s-75 40 -75 125c0 90 80 170 210 170s210 -80 210 -170c0 -85 -75 -125 -75 -125s100 -45 100 -155c0 -100 -90 -190 -235 -190zM265 115c55 0 90 35 90 80s-35 80 -90 80s-90 -35 -90 -80s35 -80 90 -80zM265 395
c40 0 70 25 70 60s-30 60 -70 60c-45 0 -70 -30 -70 -60c0 -35 30 -60 70 -60z" />
    <glyph glyph-name="nine" unicode="9" horiz-adv-x="530" 
d="M125 0l135 200c-120 -10 -230 84 -230 215c0 125 95 220 235 220s235 -95 235 -220c0 -90 -60 -170 -60 -170l-165 -245h-150zM265 320c50 0 90 40 90 95s-40 95 -90 95s-90 -40 -90 -95s40 -95 90 -95z" />
    <glyph glyph-name="colon" unicode=":" horiz-adv-x="210" 
d="M105 -5c-40 0 -75 35 -75 75s35 75 75 75s75 -35 75 -75s-35 -75 -75 -75zM105 315c-40 0 -75 35 -75 75s35 75 75 75s75 -35 75 -75s-35 -75 -75 -75z" />
    <glyph glyph-name="semicolon" unicode=";" horiz-adv-x="210" 
d="M80 -110l-25 35s40 25 50 70c-40 0 -75 35 -75 75s35 75 75 75s75 -35 75 -80c0 -125 -100 -175 -100 -175zM105 315c-40 0 -75 35 -75 75s35 75 75 75s75 -35 75 -75s-35 -75 -75 -75z" />
    <glyph glyph-name="less" unicode="&#x3c;" horiz-adv-x="460" 
d="M420 0l-380 170v110l380 170v-125l-230 -100l230 -100v-125z" />
    <glyph glyph-name="equal" unicode="=" horiz-adv-x="460" 
d="M35 90v125h390v-125h-390zM35 295v125h390v-125h-390z" />
    <glyph glyph-name="greater" unicode="&#x3e;" horiz-adv-x="460" 
d="M40 0v125l230 100l-230 100v125l380 -170v-110z" />
    <glyph glyph-name="question" unicode="?" horiz-adv-x="465" 
d="M230 -5c-40 0 -75 35 -75 75s35 75 75 75s75 -35 75 -75s-35 -75 -75 -75zM155 190c0 170 135 180 135 255c0 35 -25 60 -65 60c-35 0 -65 -30 -65 -85l-145 10c10 125 90 205 210 205c135 0 215 -80 215 -175c0 -135 -140 -135 -145 -270h-140z" />
    <glyph glyph-name="at" unicode="@" horiz-adv-x="760" 
d="M380 -110c-195 0 -345 147 -345 335c0 187 150 335 345 335c199 0 350 -146 350 -325c0 -115 -70 -185 -150 -185c-75 0 -110 60 -110 60s-41 -60 -115 -60c-85 0 -155 70 -155 175s70 175 155 175c50 0 85 -45 85 -45l15 35h80v-175c0 -55 20 -75 45 -75
c30 0 55 25 55 95c0 132 -110 240 -255 240c-141 0 -250 -110 -250 -250c0 -141 109 -250 250 -250c85 0 143 46 143 46c18 -23 34 -48 51 -72c0 0 -76 -59 -194 -59zM370 140c40 0 75 35 75 85s-35 85 -75 85s-75 -35 -75 -85s35 -85 75 -85z" />
    <glyph glyph-name="A" unicode="A" horiz-adv-x="590" 
d="M-5 0l225 630h150l225 -630h-150l-40 120h-220l-40 -120h-150zM225 245h140l-70 210z" />
    <glyph glyph-name="B" unicode="B" horiz-adv-x="580" 
d="M60 0v630h270c115 0 195 -80 195 -175c0 -85 -75 -120 -75 -120s100 -40 100 -150c0 -100 -85 -185 -205 -185h-285zM205 120h125c45 0 80 35 80 75s-35 75 -80 75h-125v-150zM205 380h110c40 0 70 30 70 65s-30 65 -70 65h-110v-130z" />
    <glyph glyph-name="C" unicode="C" horiz-adv-x="650" 
d="M340 -5c-170 0 -310 140 -310 320s140 320 310 320c150 0 255 -105 285 -225l-150 -10c-15 50 -60 95 -135 95c-90 0 -165 -75 -165 -180s75 -180 165 -180c80 0 125 45 140 95l150 -10c-30 -120 -135 -225 -290 -225z" />
    <glyph glyph-name="D" unicode="D" horiz-adv-x="620" 
d="M60 0v630h215c175 0 315 -140 315 -315s-140 -315 -315 -315h-215zM205 140h70c95 0 170 75 170 175s-75 175 -170 175h-70v-350z" />
    <glyph glyph-name="E" unicode="E" horiz-adv-x="560" 
d="M60 0v630h450v-140h-305v-100h280v-140h-280v-110h315v-140h-460z" />
    <glyph glyph-name="F" unicode="F" horiz-adv-x="520" 
d="M60 0v630h435v-140h-290v-130h235v-140h-235v-220h-145z" />
    <glyph glyph-name="G" unicode="G" horiz-adv-x="695" 
d="M340 -5c-170 0 -310 140 -310 320s140 320 310 320c150 0 255 -105 285 -220l-150 -10c-15 45 -60 90 -135 90c-90 0 -165 -75 -165 -180s75 -180 165 -180c80 0 125 45 140 85h-140v120h305v-340h-100l-25 60s-70 -65 -180 -65z" />
    <glyph glyph-name="H" unicode="H" horiz-adv-x="650" 
d="M60 0v630h145v-240h240v240h145v-630h-145v250h-240v-250h-145z" />
    <glyph glyph-name="I" unicode="I" horiz-adv-x="265" 
d="M60 0v630h145v-630h-145z" />
    <glyph glyph-name="J" unicode="J" horiz-adv-x="485" 
d="M220 -5c-130 0 -215 85 -215 205c48 3 145 10 145 10c0 -45 30 -75 70 -75s70 30 70 75v420h145v-420c0 -130 -85 -215 -215 -215z" />
    <glyph glyph-name="K" unicode="K" horiz-adv-x="565" 
d="M60 0v630h145v-270l190 270h165l-222 -310l237 -320h-165l-205 280v-280h-145z" />
    <glyph glyph-name="L" unicode="L" horiz-adv-x="500" 
d="M60 0v630h145v-490h285v-140h-430z" />
    <glyph glyph-name="M" unicode="M" horiz-adv-x="790" 
d="M60 0v630h130l205 -445l205 445h130v-630h-145v315l-145 -315h-90l-145 315v-315h-145z" />
    <glyph glyph-name="N" unicode="N" horiz-adv-x="650" 
d="M60 0v630h130l255 -370v370h145v-630h-130l-255 370v-370h-145z" />
    <glyph glyph-name="O" unicode="O" horiz-adv-x="680" 
d="M340 -5c-170 0 -310 140 -310 320s140 320 310 320s310 -140 310 -320s-140 -320 -310 -320zM340 135c90 0 165 75 165 180s-75 180 -165 180s-165 -75 -165 -180s75 -180 165 -180z" />
    <glyph glyph-name="P" unicode="P" horiz-adv-x="560" 
d="M60 0v630h245c130 0 225 -95 225 -215s-95 -215 -225 -215h-100v-200h-145zM205 340h100c45 0 80 35 80 75s-35 75 -80 75h-100v-150z" />
    <glyph glyph-name="Q" unicode="Q" horiz-adv-x="680" 
d="M570 -20l-65 65s-65 -50 -165 -50c-170 0 -310 140 -310 320s140 320 310 320s310 -140 310 -320c0 -115 -60 -190 -60 -190l60 -60zM340 135c35 0 60 10 60 10l-65 65l80 85l70 -70s20 45 20 90c0 105 -75 180 -165 180s-165 -75 -165 -180s75 -180 165 -180z" />
    <glyph glyph-name="R" unicode="R" horiz-adv-x="570" 
d="M60 0v630h255c130 0 220 -90 220 -200c0 -140 -119 -190 -120 -190l140 -240h-160l-115 210h-75v-210h-145zM205 350h110c50 0 80 30 80 70s-30 70 -80 70h-110v-140z" />
    <glyph glyph-name="S" unicode="S" horiz-adv-x="525" 
d="M260 -5c-145 0 -230 85 -230 205l140 10c0 -55 30 -85 90 -85c55 0 85 30 85 65c0 95 -310 40 -310 265c0 95 85 180 225 180c135 0 220 -85 220 -200l-140 -10c0 50 -30 80 -80 80c-45 0 -75 -30 -75 -60c0 -90 310 -35 310 -265c0 -100 -85 -185 -235 -185z" />
    <glyph glyph-name="T" unicode="T" horiz-adv-x="525" 
d="M190 0v490h-180v140h505v-140h-180v-490h-145z" />
    <glyph glyph-name="U" unicode="U" horiz-adv-x="620" 
d="M310 -5c-155 0 -260 105 -260 260v375h145v-375c0 -75 45 -120 115 -120s115 45 115 120v375h145v-375c0 -155 -105 -260 -260 -260z" />
    <glyph glyph-name="V" unicode="V" horiz-adv-x="590" 
d="M220 0l-215 630h150l140 -435l140 435h150l-215 -630h-150z" />
    <glyph glyph-name="W" unicode="W" horiz-adv-x="860" 
d="M205 0l-200 630h140l120 -390l120 390h90l120 -390l120 390h140l-200 -630h-110l-115 370l-115 -370h-110z" />
    <glyph glyph-name="X" unicode="X" horiz-adv-x="580" 
d="M0 0l200 320l-190 310h160l120 -205l120 205h160l-190 -310l200 -320h-160l-130 215l-130 -215h-160z" />
    <glyph glyph-name="Y" unicode="Y" horiz-adv-x="565" 
d="M210 0v235l-210 395h155l128 -250l127 250h155l-210 -395v-235h-145z" />
    <glyph glyph-name="Z" unicode="Z" horiz-adv-x="530" 
d="M30 0v120l270 370h-260v140h445v-120l-270 -370h285v-140h-470z" />
    <glyph glyph-name="bracketleft" unicode="[" horiz-adv-x="325" 
d="M60 -180v810h240v-140h-100v-530h100v-140h-240z" />
    <glyph glyph-name="backslash" unicode="\" horiz-adv-x="390" 
d="M260 -180l-260 810h130l260 -810h-130z" />
    <glyph glyph-name="bracketright" unicode="]" horiz-adv-x="325" 
d="M25 -180v140h100v530h-100v140h240v-810h-240z" />
    <glyph glyph-name="asciicircum" unicode="^" horiz-adv-x="420" 
d="M25 335l145 295h80l145 -295h-115l-70 145l-70 -145h-115z" />
    <glyph glyph-name="underscore" unicode="_" horiz-adv-x="290" 
d="M-20 -195v120h330v-120h-330z" />
    <glyph glyph-name="grave" unicode="`" horiz-adv-x="260" 
d="M125 505l-95 130h135l65 -130h-105z" />
    <glyph glyph-name="a" unicode="a" horiz-adv-x="485" 
d="M185 -5c-100 0 -155 55 -155 130c0 90 65 155 275 155c0 45 -25 70 -60 70c-50 0 -60 -45 -60 -45l-135 10c15 90 80 155 200 155c110 0 190 -80 190 -190v-280h-100l-20 45s-55 -50 -135 -50zM220 95c50 0 85 35 85 85v20c-115 0 -140 -25 -140 -60c0 -25 20 -45 55 -45
z" />
    <glyph glyph-name="b" unicode="b" horiz-adv-x="545" 
d="M300 -5c-80 0 -130 50 -130 50l-20 -45h-100v630h135v-205s45 40 115 40c115 0 215 -100 215 -235s-100 -235 -215 -235zM280 120c55 0 100 45 100 110s-45 110 -100 110s-100 -45 -100 -110s45 -110 100 -110z" />
    <glyph glyph-name="c" unicode="c" horiz-adv-x="510" 
d="M265 -10c-130 0 -235 105 -235 240s105 240 235 240c185 0 220 -180 220 -180l-135 -10s-20 65 -85 65c-55 0 -100 -45 -100 -115s45 -115 100 -115c65 0 85 65 85 65l135 -10s-35 -180 -220 -180z" />
    <glyph glyph-name="d" unicode="d" horiz-adv-x="545" 
d="M245 -5c-115 0 -215 100 -215 235s100 235 215 235c70 0 115 -40 115 -40v205h135v-630h-100l-20 45s-50 -50 -130 -50zM265 120c55 0 100 45 100 110s-45 110 -100 110s-100 -45 -100 -110s45 -110 100 -110z" />
    <glyph glyph-name="e" unicode="e" horiz-adv-x="515" 
d="M260 -10c-125 0 -230 105 -230 240s105 240 235 240c125 0 225 -95 225 -240c0 -20 -5 -45 -5 -45h-315c10 -35 45 -70 95 -70s70 30 70 30l140 -10c-25 -75 -95 -145 -215 -145zM170 270h190c-10 40 -45 75 -95 75s-85 -35 -95 -75z" />
    <glyph glyph-name="f" unicode="f" horiz-adv-x="335" 
d="M80 0v315h-60v125h60v25c0 110 60 170 165 170c38 0 65 -10 65 -10v-120s-15 5 -35 5c-35 0 -60 -25 -60 -65v-5h95v-125h-95v-315h-135z" />
    <glyph glyph-name="g" unicode="g" horiz-adv-x="540" 
d="M260 -170c-170 0 -215 155 -215 155l135 10s20 -45 80 -45c55 0 95 40 95 90v25s-35 -40 -115 -40c-115 0 -210 95 -210 220s95 220 210 220c80 0 130 -50 130 -50l20 45h100v-420c0 -120 -90 -210 -230 -210zM260 150c55 0 95 40 95 95s-40 95 -95 95s-95 -40 -95 -95
s40 -95 95 -95z" />
    <glyph glyph-name="h" unicode="h" 
d="M50 0v630h135v-215s40 50 130 50c100 0 175 -75 175 -195v-270h-135v245c0 60 -35 95 -85 95s-85 -35 -85 -95v-245h-135z" />
    <glyph glyph-name="i" unicode="i" horiz-adv-x="235" 
d="M50 0v460h135v-460h-135zM120 510c-40 0 -75 35 -75 75s35 75 75 75s75 -35 75 -75s-35 -75 -75 -75z" />
    <glyph glyph-name="j" unicode="j" horiz-adv-x="235" 
d="M20 -165c-35 0 -65 10 -65 10v120s15 -5 35 -5c35 0 60 25 60 65v435h135v-455c0 -110 -60 -170 -165 -170zM120 510c-40 0 -75 35 -75 75s35 75 75 75s75 -35 75 -75s-35 -75 -75 -75z" />
    <glyph glyph-name="k" unicode="k" horiz-adv-x="470" 
d="M50 0v630h135v-355l125 185h155l-155 -220l170 -240h-155l-140 205v-205h-135z" />
    <glyph glyph-name="l" unicode="l" horiz-adv-x="235" 
d="M50 0v630h135v-630h-135z" />
    <glyph glyph-name="m" unicode="m" horiz-adv-x="760" 
d="M50 0v460h100l20 -45s45 50 115 50c95 0 130 -60 130 -60s55 60 135 60c100 0 165 -65 165 -190v-275h-135v260c0 50 -30 80 -65 80s-65 -30 -65 -80v-260h-135v260c0 50 -30 80 -65 80s-65 -30 -65 -80v-260h-135z" />
    <glyph glyph-name="n" unicode="n" 
d="M50 0v460h100l20 -45s55 50 135 50c110 0 185 -75 185 -195v-270h-135v245c0 60 -35 95 -85 95s-85 -35 -85 -95v-245h-135z" />
    <glyph glyph-name="o" unicode="o" horiz-adv-x="530" 
d="M265 -10c-130 0 -235 105 -235 240s105 240 235 240s235 -105 235 -240s-105 -240 -235 -240zM265 115c55 0 100 45 100 115s-45 115 -100 115s-100 -45 -100 -115s45 -115 100 -115z" />
    <glyph glyph-name="p" unicode="p" horiz-adv-x="545" 
d="M50 -160v620h100l20 -45s50 50 130 50c115 0 215 -100 215 -235s-100 -235 -215 -235c-70 0 -115 40 -115 40v-195h-135zM280 120c55 0 100 45 100 110s-45 110 -100 110s-100 -45 -100 -110s45 -110 100 -110z" />
    <glyph glyph-name="q" unicode="q" horiz-adv-x="545" 
d="M360 -160v195s-45 -40 -115 -40c-115 0 -215 100 -215 235s100 235 215 235c80 0 130 -50 130 -50l20 45h100v-620h-135zM265 120c55 0 100 45 100 110s-45 110 -100 110s-100 -45 -100 -110s45 -110 100 -110z" />
    <glyph glyph-name="r" unicode="r" horiz-adv-x="340" 
d="M50 0v460h100l20 -50s40 55 110 55c25 0 40 -5 40 -5v-140s-20 10 -50 10c-50 0 -85 -35 -85 -95v-235h-135z" />
    <glyph glyph-name="s" unicode="s" horiz-adv-x="445" 
d="M230 -10c-125 0 -185 60 -200 150l130 10c5 -30 25 -50 60 -50s55 20 55 40c0 50 -235 25 -235 190c0 75 65 140 175 140c120 0 180 -60 195 -140l-130 -10c-5 20 -25 40 -55 40s-45 -15 -45 -35c0 -50 235 -25 235 -190c0 -75 -70 -145 -185 -145z" />
    <glyph glyph-name="t" unicode="t" horiz-adv-x="365" 
d="M255 -5c-105 0 -165 60 -165 170v170h-70v115h35c35 0 55 20 55 55v65h115v-110h95v-125h-95v-150c0 -40 25 -65 60 -65c20 0 35 5 35 5v-120s-27 -10 -65 -10z" />
    <glyph glyph-name="u" unicode="u" 
d="M230 -5c-110 0 -185 75 -185 195v270h135v-245c0 -60 35 -95 85 -95s85 35 85 95v245h135v-460h-100l-20 45s-55 -50 -135 -50z" />
    <glyph glyph-name="v" unicode="v" horiz-adv-x="490" 
d="M175 0l-175 460h145l100 -300l100 300h145l-175 -460h-140z" />
    <glyph glyph-name="w" unicode="w" horiz-adv-x="700" 
d="M155 0l-155 460h140l80 -270l85 270h90l85 -270l80 270h140l-155 -460h-115l-80 255l-80 -255h-115z" />
    <glyph glyph-name="x" unicode="x" horiz-adv-x="460" 
d="M-5 0l150 235l-140 225h150l75 -130l75 130h150l-140 -225l150 -235h-150l-85 140l-85 -140h-150z" />
    <glyph glyph-name="y" unicode="y" horiz-adv-x="490" 
d="M125 -165c-20 0 -45 5 -45 5v115c55 0 80 25 95 65l-175 440h145l100 -285l100 285h145l-185 -460c-46 -115 -95 -165 -180 -165z" />
    <glyph glyph-name="z" unicode="z" horiz-adv-x="435" 
d="M30 0v110l190 220h-190v130h365v-110l-190 -220h200v-130h-375z" />
    <glyph glyph-name="braceleft" unicode="{" horiz-adv-x="345" 
d="M250 -180c-110 0 -160 50 -160 160v135c0 35 -20 55 -55 55v110c35 0 55 20 55 55v135c0 110 50 160 160 160h70v-130h-40c-35 0 -55 -20 -55 -55v-125c0 -80 -60 -95 -60 -95s60 -15 60 -95v-125c0 -35 20 -55 55 -55h40v-130h-70z" />
    <glyph glyph-name="bar" unicode="|" horiz-adv-x="380" 
d="M120 -160v790h140v-790h-140z" />
    <glyph glyph-name="braceright" unicode="}" horiz-adv-x="345" 
d="M25 -180v130h40c35 0 55 20 55 55v125c0 80 60 95 60 95s-60 15 -60 95v125c0 35 -20 55 -55 55h-40v130h70c110 0 160 -50 160 -160v-135c0 -35 20 -55 55 -55v-110c-35 0 -55 -20 -55 -55v-135c0 -110 -50 -160 -160 -160h-70z" />
    <glyph glyph-name="asciitilde" unicode="~" horiz-adv-x="465" 
d="M115 180l-110 10c0 110 55 165 130 165c70 0 130 -50 170 -50c25 0 45 20 45 50l110 -10c0 -110 -55 -165 -130 -165c-70 0 -130 50 -170 50c-25 0 -45 -20 -45 -50z" />
    <glyph glyph-name="nbspace" unicode="&#xa0;" horiz-adv-x="230" 
 />
    <glyph glyph-name="exclamdown" unicode="&#xa1;" horiz-adv-x="280" 
d="M60 -160l15 430h130l15 -430h-160zM140 315c-40 0 -75 35 -75 75s35 75 75 75s75 -35 75 -75s-35 -75 -75 -75z" />
    <glyph glyph-name="cent" unicode="&#xa2;" horiz-adv-x="510" 
d="M200 -85v85c-95 30 -170 110 -170 230c0 125 85 210 170 230v75h135v-75c125 -35 150 -170 150 -170l-135 -10s-20 65 -85 65c-55 0 -100 -45 -100 -115s45 -115 100 -115c65 0 85 65 85 65l135 -10s-25 -130 -150 -170v-85h-135z" />
    <glyph glyph-name="sterling" unicode="&#xa3;" horiz-adv-x="540" 
d="M30 0v140c35 0 60 25 60 60v40h-50v120h50v75c0 120 80 200 215 200c120 0 205 -85 205 -190l-145 -10c0 45 -30 75 -65 75s-65 -30 -65 -75v-75h140v-120h-140v-40c0 -40 -30 -60 -30 -60h296v-140h-471z" />
    <glyph glyph-name="currency" unicode="&#xa4;" horiz-adv-x="580" 
d="M95 0v85h-70v115h70v45h-70v115h70v270h230c140 0 225 -85 225 -195c0 -105 -85 -190 -225 -190h-85v-45h170v-115h-170v-85h-145zM240 360h80c50 0 85 35 85 75s-35 75 -85 75h-80v-150z" />
    <glyph glyph-name="yen" unicode="&#xa5;" horiz-adv-x="565" 
d="M210 0v85h-125v105h125v40h-125v105h75l-160 295h155l128 -250l127 250h155l-160 -295h75v-105h-125v-40h125v-105h-125v-85h-145z" />
    <glyph glyph-name="brokenbar" unicode="&#xa6;" horiz-adv-x="380" 
d="M120 -160v310h140v-310h-140zM120 320v310h140v-310h-140z" />
    <glyph glyph-name="section" unicode="&#xa7;" horiz-adv-x="490" 
d="M250 -120c-120 0 -180 60 -195 150l120 10s5 -60 60 -60c35 0 55 20 55 45c0 80 -250 60 -250 240c0 95 85 130 85 130s-55 40 -55 105c0 70 65 135 165 135c115 0 180 -65 190 -145l-120 -10s-5 55 -55 55c-30 0 -50 -20 -50 -45c0 -80 250 -60 250 -240
c0 -95 -85 -130 -85 -130s55 -40 55 -105c0 -70 -65 -135 -170 -135zM270 180c0 0 50 25 50 65c0 35 -30 65 -100 90c0 0 -50 -25 -50 -65c0 -35 30 -65 100 -90z" />
    <glyph glyph-name="dieresis" unicode="&#xa8;" horiz-adv-x="385" 
d="M100 500c-40 0 -70 30 -70 70s30 70 70 70s70 -30 70 -70s-30 -70 -70 -70zM285 500c-40 0 -70 30 -70 70s30 70 70 70s70 -30 70 -70s-30 -70 -70 -70z" />
    <glyph glyph-name="copyright" unicode="&#xa9;" horiz-adv-x="720" 
d="M360 -5c-180 0 -320 140 -320 320s140 320 320 320s320 -140 320 -320s-140 -320 -320 -320zM360 75c130 0 235 105 235 240s-105 240 -235 240s-235 -105 -235 -240s105 -240 235 -240zM360 145c-90 0 -165 75 -165 170s75 170 165 170c130 0 160 -125 160 -125l-90 -5
s-15 50 -65 50c-45 0 -80 -35 -80 -90s35 -90 80 -90c50 0 65 50 65 50l90 -5s-30 -125 -160 -125z" />
    <glyph glyph-name="ordfeminine" unicode="&#xaa;" horiz-adv-x="320" 
d="M115 355c-55 0 -90 35 -90 75c0 55 40 95 170 95c0 0 0 35 -40 35c-25 0 -30 -20 -30 -20h-80c0 55 40 95 115 95s120 -45 120 -110v-165h-65l-15 30s-30 -35 -85 -35zM145 420c30 0 50 20 50 45v15c-65 0 -85 -20 -85 -35s10 -25 35 -25z" />
    <glyph glyph-name="guillemotleft" unicode="&#xab;" horiz-adv-x="510" 
d="M140 65l-110 160l110 160h135l-110 -160l110 -160h-135zM345 65l-110 160l110 160h135l-110 -160l110 -160h-135z" />
    <glyph glyph-name="logicalnot" unicode="&#xac;" horiz-adv-x="500" 
d="M330 165v115h-295v120h425v-235h-130z" />
    <glyph glyph-name="uni00AD" unicode="&#xad;" horiz-adv-x="375" 
d="M35 195v120h305v-120h-305z" />
    <glyph glyph-name="registered" unicode="&#xae;" horiz-adv-x="720" 
d="M360 -5c-180 0 -320 140 -320 320s140 320 320 320s320 -140 320 -320s-140 -320 -320 -320zM360 75c130 0 235 105 235 240s-105 240 -235 240s-235 -105 -235 -240s105 -240 235 -240zM240 150v330h135c70 0 120 -50 120 -110c0 -70 -70 -90 -70 -90l95 -130h-95
l-75 110h-25v-110h-85zM325 335h45c30 0 45 15 45 35s-15 35 -45 35h-45v-70z" />
    <glyph glyph-name="macron" unicode="&#xaf;" horiz-adv-x="325" 
d="M30 515v105h265v-105h-265z" />
    <glyph glyph-name="degree" unicode="&#xb0;" horiz-adv-x="320" 
d="M160 375c-75 0 -130 55 -130 130s55 130 130 130s130 -55 130 -130s-55 -130 -130 -130zM160 455c30 0 50 20 50 50s-20 50 -50 50s-50 -20 -50 -50s20 -50 50 -50z" />
    <glyph glyph-name="plusminus" unicode="&#xb1;" horiz-adv-x="465" 
d="M30 5v120h140v115h-140v120h140v145h125v-145h140v-120h-140v-115h140v-120h-405z" />
    <glyph glyph-name="twosuperior" unicode="&#xb2;" horiz-adv-x="280" 
d="M25 420v60l90 80s50 40 50 65c0 15 -10 25 -30 25s-35 -15 -35 -35l-80 5c10 65 50 105 120 105c80 0 120 -40 120 -100c0 -40 -30 -65 -30 -65l-75 -65h100v-75h-230z" />
    <glyph glyph-name="threesuperior" unicode="&#xb3;" horiz-adv-x="285" 
d="M140 415c-75 0 -120 45 -125 100c1 0 84 5 85 5c0 -15 16 -30 36 -30c29 0 39 15 39 25c0 15 -10 25 -39 25h-31v65h30c15 0 30 10 30 20c0 15 -10 25 -30 25c-25 0 -35 -10 -35 -25l-80 5c5 55 45 95 120 95s115 -40 115 -90c0 -40 -35 -60 -35 -60s45 -20 45 -65
c0 -50 -50 -95 -125 -95z" />
    <glyph glyph-name="acute" unicode="&#xb4;" horiz-adv-x="260" 
d="M30 505l65 130h135l-95 -130h-105z" />
    <glyph glyph-name="mu" unicode="&#xb5;" horiz-adv-x="540" 
d="M50 -160v620h135v-245c0 -60 35 -95 85 -95s85 35 85 95v245h135v-460h-100l-20 45s-35 -50 -105 -50c-45 0 -80 25 -80 25v-180h-135z" />
    <glyph glyph-name="paragraph" unicode="&#xb6;" horiz-adv-x="540" 
d="M190 -90v390c-95 0 -170 75 -170 165s75 165 170 165h290v-720h-110v600h-70v-600h-110z" />
    <glyph glyph-name="periodcentered" unicode="&#xb7;" horiz-adv-x="230" 
d="M115 240c-40 0 -75 35 -75 75s35 75 75 75s75 -35 75 -75s-35 -75 -75 -75z" />
    <glyph glyph-name="cedilla" unicode="&#xb8;" horiz-adv-x="240" 
d="M90 -200c-34 0 -60 10 -60 10v50s20 -5 40 -5c35 0 50 15 50 35c0 15 -15 30 -45 30c-10 0 -24 -5 -25 -5l35 85h60l-20 -40s85 -10 85 -80c0 -45 -35 -80 -120 -80z" />
    <glyph glyph-name="onesuperior" unicode="&#xb9;" horiz-adv-x="250" 
d="M90 420v190l-35 -20l-40 65l105 65h60v-300h-90z" />
    <glyph glyph-name="ordmasculine" unicode="&#xba;" horiz-adv-x="330" 
d="M165 355c-75 0 -140 65 -140 140s65 140 140 140s140 -65 140 -140s-65 -140 -140 -140zM165 440c25 0 45 20 45 55s-20 55 -45 55s-45 -20 -45 -55s20 -55 45 -55z" />
    <glyph glyph-name="guillemotright" unicode="&#xbb;" horiz-adv-x="510" 
d="M30 65l110 160l-110 160h135l110 -160l-110 -160h-135zM235 65l110 160l-110 160h135l110 -160l-110 -160h-135z" />
    <glyph glyph-name="onequarter" unicode="&#xbc;" horiz-adv-x="620" 
d="M60 0l385 630h115l-385 -630h-115zM90 330v190l-35 -20l-40 65l105 65h60v-300h-90zM475 0v55h-135v55l120 190h105v-170h35v-75h-35v-55h-90zM430 130h50v80z" />
    <glyph glyph-name="onehalf" unicode="&#xbd;" horiz-adv-x="640" 
d="M60 0l385 630h115l-385 -630h-115zM90 330v190l-35 -20l-40 65l105 65h60v-300h-90zM385 0v60l90 80s50 40 50 65c0 15 -10 25 -30 25s-35 -15 -35 -35l-80 5c10 65 50 105 120 105c80 0 120 -40 120 -100c0 -40 -30 -65 -30 -65l-75 -65h100v-75h-230z" />
    <glyph glyph-name="threequarters" unicode="&#xbe;" horiz-adv-x="665" 
d="M95 0l385 630h115l-385 -630h-115zM140 325c-75 0 -120 45 -125 100c1 0 84 5 85 5c0 -15 16 -30 36 -30c29 0 39 15 39 25c0 15 -10 25 -39 25h-31v65h30c15 0 30 10 30 20c0 15 -10 25 -30 25c-25 0 -35 -10 -35 -25l-80 5c5 55 45 95 120 95s115 -40 115 -90
c0 -40 -35 -60 -35 -60s45 -20 45 -65c0 -50 -50 -95 -125 -95zM520 0v55h-135v55l120 190h105v-170h35v-75h-35v-55h-90zM475 130h50v80z" />
    <glyph glyph-name="questiondown" unicode="&#xbf;" horiz-adv-x="450" 
d="M230 -165c-135 0 -215 80 -215 175c0 135 140 135 145 260h140c0 -160 -135 -170 -135 -245c0 -35 25 -60 65 -60c35 0 65 30 65 85l145 -10c-10 -125 -90 -205 -210 -205zM225 315c-40 0 -75 35 -75 75s35 75 75 75s75 -35 75 -75s-35 -75 -75 -75z" />
    <glyph glyph-name="Agrave" unicode="&#xc0;" horiz-adv-x="590" 
d="M-5 0l225 630h150l225 -630h-150l-40 120h-220l-40 -120h-150zM225 245h140l-70 210zM240 695l-95 130h135l65 -130h-105z" />
    <glyph glyph-name="Aacute" unicode="&#xc1;" horiz-adv-x="590" 
d="M-5 0l225 630h150l225 -630h-150l-40 120h-220l-40 -120h-150zM225 245h140l-70 210zM245 695l65 130h135l-95 -130h-105z" />
    <glyph glyph-name="Acircumflex" unicode="&#xc2;" horiz-adv-x="590" 
d="M-5 0l225 630h150l225 -630h-150l-40 120h-220l-40 -120h-150zM225 245h140l-70 210zM135 695l100 130h120l100 -130h-115l-45 60l-45 -60h-115z" />
    <glyph glyph-name="Atilde" unicode="&#xc3;" horiz-adv-x="590" 
d="M-5 0l225 630h150l225 -630h-150l-40 120h-220l-40 -120h-150zM225 245h140l-70 210zM220 685l-75 10c0 85 40 125 90 125c60 0 80 -45 110 -45c20 0 35 15 35 45l75 -10c0 -85 -40 -125 -90 -125c-60 0 -80 45 -110 45c-19 0 -35 -15 -35 -45z" />
    <glyph glyph-name="Adieresis" unicode="&#xc4;" horiz-adv-x="590" 
d="M-5 0l225 630h150l225 -630h-150l-40 120h-220l-40 -120h-150zM225 245h140l-70 210zM203 690c-40 0 -70 30 -70 70s30 70 70 70s70 -30 70 -70s-30 -70 -70 -70zM388 690c-40 0 -70 30 -70 70s30 70 70 70s70 -30 70 -70s-30 -70 -70 -70z" />
    <glyph glyph-name="Aring" unicode="&#xc5;" horiz-adv-x="590" 
d="M-5 0l225 630h150l225 -630h-150l-40 120h-220l-40 -120h-150zM225 245h140l-70 210zM295 675c-60 0 -100 40 -100 95s40 95 100 95s100 -40 100 -95s-40 -95 -100 -95zM295 735c20 0 35 15 35 35s-15 35 -35 35s-35 -15 -35 -35s15 -35 35 -35z" />
    <glyph glyph-name="AE" unicode="&#xc6;" horiz-adv-x="855" 
d="M-25 0l325 630h505v-140h-275v-100h250v-140h-250v-110h285v-140h-430v120h-185l-60 -120h-165zM270 260h115v230z" />
    <glyph glyph-name="Ccedilla" unicode="&#xc7;" horiz-adv-x="650" 
d="M310 -200c-34 0 -60 10 -60 10v50s20 -5 40 -5c35 0 50 15 50 35c0 15 -15 30 -45 30c-10 0 -24 -5 -25 -5l34 83c-154 17 -274 150 -274 317c0 180 140 320 310 320c150 0 255 -105 285 -225l-150 -10c-15 50 -60 95 -135 95c-90 0 -165 -75 -165 -180s75 -180 165 -180
c80 0 125 45 140 95l150 -10c-29 -114 -125 -214 -267 -224l-18 -36s85 -10 85 -80c0 -45 -35 -80 -120 -80z" />
    <glyph glyph-name="Egrave" unicode="&#xc8;" horiz-adv-x="560" 
d="M60 0v630h450v-140h-305v-100h280v-140h-280v-110h315v-140h-460zM250 695l-95 130h135l65 -130h-105z" />
    <glyph glyph-name="Eacute" unicode="&#xc9;" horiz-adv-x="560" 
d="M60 0v630h450v-140h-305v-100h280v-140h-280v-110h315v-140h-460zM230 695l65 130h135l-95 -130h-105z" />
    <glyph glyph-name="Ecircumflex" unicode="&#xca;" horiz-adv-x="560" 
d="M60 0v630h450v-140h-305v-100h280v-140h-280v-110h315v-140h-460zM130 695l100 130h120l100 -130h-115l-45 60l-45 -60h-115z" />
    <glyph glyph-name="Edieresis" unicode="&#xcb;" horiz-adv-x="560" 
d="M60 0v630h450v-140h-305v-100h280v-140h-280v-110h315v-140h-460zM200 690c-40 0 -70 30 -70 70s30 70 70 70s70 -30 70 -70s-30 -70 -70 -70zM385 690c-40 0 -70 30 -70 70s30 70 70 70s70 -30 70 -70s-30 -70 -70 -70z" />
    <glyph glyph-name="Igrave" unicode="&#xcc;" horiz-adv-x="265" 
d="M60 0v630h145v-630h-145zM80 695l-95 130h135l65 -130h-105z" />
    <glyph glyph-name="Iacute" unicode="&#xcd;" horiz-adv-x="265" 
d="M60 0v630h145v-630h-145zM80 695l65 130h135l-95 -130h-105z" />
    <glyph glyph-name="Icircumflex" unicode="&#xce;" horiz-adv-x="265" 
d="M60 0v630h145v-630h-145zM-30 695l100 130h120l100 -130h-115l-45 60l-45 -60h-115z" />
    <glyph glyph-name="Idieresis" unicode="&#xcf;" horiz-adv-x="265" 
d="M60 0v630h145v-630h-145zM40 690c-40 0 -70 30 -70 70s30 70 70 70s70 -30 70 -70s-30 -70 -70 -70zM225 690c-40 0 -70 30 -70 70s30 70 70 70s70 -30 70 -70s-30 -70 -70 -70z" />
    <glyph glyph-name="Eth" unicode="&#xd0;" horiz-adv-x="650" 
d="M90 0v250h-70v120h70v260h215c175 0 315 -140 315 -315s-140 -315 -315 -315h-215zM235 140h70c95 0 170 75 170 175s-75 175 -170 175h-70v-120h100v-120h-100v-110z" />
    <glyph glyph-name="Ntilde" unicode="&#xd1;" horiz-adv-x="650" 
d="M60 0v630h130l255 -370v370h145v-630h-130l-255 370v-370h-145zM245 685l-75 10c0 85 40 125 90 125c60 0 80 -45 110 -45c20 0 35 15 35 45l75 -10c0 -85 -40 -125 -90 -125c-60 0 -80 45 -110 45c-19 0 -35 -15 -35 -45z" />
    <glyph glyph-name="Ograve" unicode="&#xd2;" horiz-adv-x="680" 
d="M340 -5c-170 0 -310 140 -310 320s140 320 310 320s310 -140 310 -320s-140 -320 -310 -320zM340 135c90 0 165 75 165 180s-75 180 -165 180s-165 -75 -165 -180s75 -180 165 -180zM290 695l-95 130h135l65 -130h-105z" />
    <glyph glyph-name="Oacute" unicode="&#xd3;" horiz-adv-x="680" 
d="M340 -5c-170 0 -310 140 -310 320s140 320 310 320s310 -140 310 -320s-140 -320 -310 -320zM340 135c90 0 165 75 165 180s-75 180 -165 180s-165 -75 -165 -180s75 -180 165 -180zM290 695l65 130h135l-95 -130h-105z" />
    <glyph glyph-name="Ocircumflex" unicode="&#xd4;" horiz-adv-x="680" 
d="M340 -5c-170 0 -310 140 -310 320s140 320 310 320s310 -140 310 -320s-140 -320 -310 -320zM340 135c90 0 165 75 165 180s-75 180 -165 180s-165 -75 -165 -180s75 -180 165 -180zM180 695l100 130h120l100 -130h-115l-45 60l-45 -60h-115z" />
    <glyph glyph-name="Otilde" unicode="&#xd5;" horiz-adv-x="680" 
d="M340 -5c-170 0 -310 140 -310 320s140 320 310 320s310 -140 310 -320s-140 -320 -310 -320zM340 135c90 0 165 75 165 180s-75 180 -165 180s-165 -75 -165 -180s75 -180 165 -180zM260 685l-75 10c0 85 40 125 90 125c60 0 80 -45 110 -45c20 0 35 15 35 45l75 -10
c0 -85 -40 -125 -90 -125c-60 0 -80 45 -110 45c-19 0 -35 -15 -35 -45z" />
    <glyph glyph-name="Odieresis" unicode="&#xd6;" horiz-adv-x="680" 
d="M340 -5c-170 0 -310 140 -310 320s140 320 310 320s310 -140 310 -320s-140 -320 -310 -320zM340 135c90 0 165 75 165 180s-75 180 -165 180s-165 -75 -165 -180s75 -180 165 -180zM250 690c-40 0 -70 30 -70 70s30 70 70 70s70 -30 70 -70s-30 -70 -70 -70zM435 690
c-40 0 -70 30 -70 70s30 70 70 70s70 -30 70 -70s-30 -70 -70 -70z" />
    <glyph glyph-name="multiply" unicode="&#xd7;" horiz-adv-x="470" 
d="M135 65l-85 80l105 110l-105 110l85 80l100 -105l100 105l85 -80l-105 -110l105 -110l-85 -80l-100 105z" />
    <glyph glyph-name="Oslash" unicode="&#xd8;" horiz-adv-x="700" 
d="M350 -5c-100 0 -175 55 -175 55l-55 -50l-95 100l55 55s-40 70 -40 160c0 180 140 320 310 320c100 0 175 -55 175 -55l55 50l95 -100l-55 -55s40 -65 40 -160c0 -180 -140 -320 -310 -320zM350 135c90 0 165 75 165 180c0 40 -5 55 -5 55l-230 -220s25 -15 70 -15z
M190 260l230 220s-25 15 -70 15c-90 0 -165 -75 -165 -180c0 -40 5 -55 5 -55z" />
    <glyph glyph-name="Ugrave" unicode="&#xd9;" horiz-adv-x="620" 
d="M310 -5c-155 0 -260 105 -260 260v375h145v-375c0 -75 45 -120 115 -120s115 45 115 120v375h145v-375c0 -155 -105 -260 -260 -260zM265 695l-95 130h135l65 -130h-105z" />
    <glyph glyph-name="Uacute" unicode="&#xda;" horiz-adv-x="620" 
d="M310 -5c-155 0 -260 105 -260 260v375h145v-375c0 -75 45 -120 115 -120s115 45 115 120v375h145v-375c0 -155 -105 -260 -260 -260zM255 695l65 130h135l-95 -130h-105z" />
    <glyph glyph-name="Ucircumflex" unicode="&#xdb;" horiz-adv-x="620" 
d="M310 -5c-155 0 -260 105 -260 260v375h145v-375c0 -75 45 -120 115 -120s115 45 115 120v375h145v-375c0 -155 -105 -260 -260 -260zM150 695l100 130h120l100 -130h-115l-45 60l-45 -60h-115z" />
    <glyph glyph-name="Udieresis" unicode="&#xdc;" horiz-adv-x="620" 
d="M310 -5c-155 0 -260 105 -260 260v375h145v-375c0 -75 45 -120 115 -120s115 45 115 120v375h145v-375c0 -155 -105 -260 -260 -260zM220 690c-40 0 -70 30 -70 70s30 70 70 70s70 -30 70 -70s-30 -70 -70 -70zM405 690c-40 0 -70 30 -70 70s30 70 70 70s70 -30 70 -70
s-30 -70 -70 -70z" />
    <glyph glyph-name="Yacute" unicode="&#xdd;" horiz-adv-x="565" 
d="M210 0v235l-210 395h155l128 -250l127 250h155l-210 -395v-235h-145zM230 695l65 130h135l-95 -130h-105z" />
    <glyph glyph-name="Thorn" unicode="&#xde;" horiz-adv-x="600" 
d="M50 0v630h145v-95h150c130 0 225 -95 225 -210s-95 -210 -225 -210h-150v-115h-145zM195 255h150c45 0 80 35 80 70s-35 70 -80 70h-150v-140z" />
    <glyph glyph-name="germandbls" unicode="&#xdf;" horiz-adv-x="545" 
d="M60 0v440c0 110 85 195 205 195c125 0 205 -80 205 -175c0 -80 -55 -120 -55 -120s100 -45 100 -160c0 -100 -80 -180 -190 -180h-60v120h50c35 0 65 30 65 70s-30 70 -65 70h-50v120c45 0 70 25 70 65c0 45 -25 70 -70 70c-40 0 -70 -30 -70 -75v-440h-135z" />
    <glyph glyph-name="agrave" unicode="&#xe0;" horiz-adv-x="485" 
d="M185 -5c-100 0 -155 55 -155 130c0 90 65 155 275 155c0 45 -25 70 -60 70c-50 0 -60 -45 -60 -45l-135 10c15 90 80 155 200 155c110 0 190 -80 190 -190v-280h-100l-20 45s-55 -50 -135 -50zM220 95c50 0 85 35 85 85v20c-115 0 -140 -25 -140 -60c0 -25 20 -45 55 -45
zM200 515l-95 130h135l65 -130h-105z" />
    <glyph glyph-name="aacute" unicode="&#xe1;" horiz-adv-x="485" 
d="M185 -5c-100 0 -155 55 -155 130c0 90 65 155 275 155c0 45 -25 70 -60 70c-50 0 -60 -45 -60 -45l-135 10c15 90 80 155 200 155c110 0 190 -80 190 -190v-280h-100l-20 45s-55 -50 -135 -50zM220 95c50 0 85 35 85 85v20c-115 0 -140 -25 -140 -60c0 -25 20 -45 55 -45
zM195 520l65 130h135l-95 -130h-105z" />
    <glyph glyph-name="acircumflex" unicode="&#xe2;" horiz-adv-x="485" 
d="M185 -5c-100 0 -155 55 -155 130c0 90 65 155 275 155c0 45 -25 70 -60 70c-50 0 -60 -45 -60 -45l-135 10c15 90 80 155 200 155c110 0 190 -80 190 -190v-280h-100l-20 45s-55 -50 -135 -50zM220 95c50 0 85 35 85 85v20c-115 0 -140 -25 -140 -60c0 -25 20 -45 55 -45
zM95 515l100 130h120l100 -130h-115l-45 60l-45 -60h-115z" />
    <glyph glyph-name="atilde" unicode="&#xe3;" horiz-adv-x="485" 
d="M185 -5c-100 0 -155 55 -155 130c0 90 65 155 275 155c0 45 -25 70 -60 70c-50 0 -60 -45 -60 -45l-135 10c15 90 80 155 200 155c110 0 190 -80 190 -190v-280h-100l-20 45s-55 -50 -135 -50zM220 95c50 0 85 35 85 85v20c-115 0 -140 -25 -140 -60c0 -25 20 -45 55 -45
zM175 505l-75 10c0 85 40 125 90 125c60 0 80 -45 110 -45c20 0 35 15 35 45l75 -10c0 -85 -40 -125 -90 -125c-60 0 -80 45 -110 45c-19 0 -35 -15 -35 -45z" />
    <glyph glyph-name="adieresis" unicode="&#xe4;" horiz-adv-x="485" 
d="M185 -5c-100 0 -155 55 -155 130c0 90 65 155 275 155c0 45 -25 70 -60 70c-50 0 -60 -45 -60 -45l-135 10c15 90 80 155 200 155c110 0 190 -80 190 -190v-280h-100l-20 45s-55 -50 -135 -50zM220 95c50 0 85 35 85 85v20c-115 0 -140 -25 -140 -60c0 -25 20 -45 55 -45
zM163 510c-40 0 -70 30 -70 70s30 70 70 70s70 -30 70 -70s-30 -70 -70 -70zM348 510c-40 0 -70 30 -70 70s30 70 70 70s70 -30 70 -70s-30 -70 -70 -70z" />
    <glyph glyph-name="aring" unicode="&#xe5;" horiz-adv-x="485" 
d="M185 -5c-100 0 -155 55 -155 130c0 90 65 155 275 155c0 45 -25 70 -60 70c-50 0 -60 -45 -60 -45l-135 10c15 90 80 155 200 155c110 0 190 -80 190 -190v-280h-100l-20 45s-55 -50 -135 -50zM220 95c50 0 85 35 85 85v20c-115 0 -140 -25 -140 -60c0 -25 20 -45 55 -45
zM250 500c-60 0 -100 40 -100 95s40 95 100 95s100 -40 100 -95s-40 -95 -100 -95zM250 560c20 0 35 15 35 35s-15 35 -35 35s-35 -15 -35 -35s15 -35 35 -35z" />
    <glyph glyph-name="ae" unicode="&#xe6;" horiz-adv-x="785" 
d="M215 -10c-120 0 -185 65 -185 135c0 90 65 155 275 155c0 45 -25 70 -60 70c-50 0 -60 -45 -60 -45l-135 10c15 90 80 155 200 155c105 0 145 -50 145 -50s45 50 140 50c125 0 225 -100 225 -240c0 -25 -5 -45 -5 -45h-315s20 -70 95 -70c50 0 70 30 70 30l140 -10
c-25 -75 -100 -145 -215 -145c-100 0 -145 60 -145 60s-60 -60 -170 -60zM220 95c50 0 85 35 85 85v20c-115 0 -140 -25 -140 -60c0 -25 20 -45 55 -45zM440 275h180c-5 40 -40 75 -90 75s-85 -35 -90 -75z" />
    <glyph glyph-name="ccedilla" unicode="&#xe7;" horiz-adv-x="510" 
d="M245 -200c-34 0 -60 10 -60 10v50s20 -5 40 -5c35 0 50 15 50 35c0 15 -15 30 -45 30c-10 0 -24 -5 -25 -5l31 77c-116 13 -206 113 -206 238c0 135 105 240 235 240c185 0 220 -180 220 -180l-135 -10s-20 65 -85 65c-55 0 -100 -45 -100 -115s45 -115 100 -115
c65 0 85 65 85 65l135 -10s-31 -159 -189 -178l-16 -32s85 -10 85 -80c0 -45 -35 -80 -120 -80z" />
    <glyph glyph-name="egrave" unicode="&#xe8;" horiz-adv-x="515" 
d="M260 -10c-125 0 -230 105 -230 240s105 240 235 240c125 0 225 -95 225 -240c0 -20 -5 -45 -5 -45h-315c10 -35 45 -70 95 -70s70 30 70 30l140 -10c-25 -75 -95 -145 -215 -145zM170 270h190c-10 40 -45 75 -95 75s-85 -35 -95 -75zM215 515l-95 130h135l65 -130h-105z
" />
    <glyph glyph-name="eacute" unicode="&#xe9;" horiz-adv-x="515" 
d="M260 -10c-125 0 -230 105 -230 240s105 240 235 240c125 0 225 -95 225 -240c0 -20 -5 -45 -5 -45h-315c10 -35 45 -70 95 -70s70 30 70 30l140 -10c-25 -75 -95 -145 -215 -145zM170 270h190c-10 40 -45 75 -95 75s-85 -35 -95 -75zM210 515l65 130h135l-95 -130h-105z
" />
    <glyph glyph-name="ecircumflex" unicode="&#xea;" horiz-adv-x="515" 
d="M260 -10c-125 0 -230 105 -230 240s105 240 235 240c125 0 225 -95 225 -240c0 -20 -5 -45 -5 -45h-315c10 -35 45 -70 95 -70s70 30 70 30l140 -10c-25 -75 -95 -145 -215 -145zM170 270h190c-10 40 -45 75 -95 75s-85 -35 -95 -75zM105 515l100 130h120l100 -130h-115
l-45 60l-45 -60h-115z" />
    <glyph glyph-name="edieresis" unicode="&#xeb;" horiz-adv-x="515" 
d="M260 -10c-125 0 -230 105 -230 240s105 240 235 240c125 0 225 -95 225 -240c0 -20 -5 -45 -5 -45h-315c10 -35 45 -70 95 -70s70 30 70 30l140 -10c-25 -75 -95 -145 -215 -145zM170 270h190c-10 40 -45 75 -95 75s-85 -35 -95 -75zM175 510c-40 0 -70 30 -70 70
s30 70 70 70s70 -30 70 -70s-30 -70 -70 -70zM360 510c-40 0 -70 30 -70 70s30 70 70 70s70 -30 70 -70s-30 -70 -70 -70z" />
    <glyph glyph-name="igrave" unicode="&#xec;" horiz-adv-x="235" 
d="M50 0v460h135v-460h-135zM65 515l-95 130h135l65 -130h-105z" />
    <glyph glyph-name="iacute" unicode="&#xed;" horiz-adv-x="235" 
d="M50 0v460h135v-460h-135zM65 515l65 130h135l-95 -130h-105z" />
    <glyph glyph-name="icircumflex" unicode="&#xee;" horiz-adv-x="235" 
d="M50 0v460h135v-460h-135zM-45 515l100 130h120l100 -130h-115l-45 60l-45 -60h-115z" />
    <glyph glyph-name="idieresis" unicode="&#xef;" horiz-adv-x="235" 
d="M50 0v460h135v-460h-135zM25 510c-40 0 -70 30 -70 70s30 70 70 70s70 -30 70 -70s-30 -70 -70 -70zM210 510c-40 0 -70 30 -70 70s30 70 70 70s70 -30 70 -70s-30 -70 -70 -70z" />
    <glyph glyph-name="eth" unicode="&#xf0;" horiz-adv-x="555" 
d="M270 -5c-140 0 -240 100 -240 225s100 225 220 225c85 0 120 -45 120 -45c-25 75 -80 115 -80 115l-65 -45l-50 70l40 25s-35 20 -75 30l35 100c85 -20 140 -55 140 -55l80 55l50 -70l-55 -40s125 -110 125 -315c0 -170 -105 -275 -245 -275zM270 120
c60 0 105 45 105 100s-45 100 -105 100s-105 -45 -105 -100s45 -100 105 -100z" />
    <glyph glyph-name="ntilde" unicode="&#xf1;" 
d="M50 0v460h100l20 -45s55 50 135 50c110 0 185 -75 185 -195v-270h-135v245c0 60 -35 95 -85 95s-85 -35 -85 -95v-245h-135zM195 505l-75 10c0 85 40 125 90 125c60 0 80 -45 110 -45c20 0 35 15 35 45l75 -10c0 -85 -40 -125 -90 -125c-60 0 -80 45 -110 45
c-19 0 -35 -15 -35 -45z" />
    <glyph glyph-name="ograve" unicode="&#xf2;" horiz-adv-x="530" 
d="M265 -10c-130 0 -235 105 -235 240s105 240 235 240s235 -105 235 -240s-105 -240 -235 -240zM265 115c55 0 100 45 100 115s-45 115 -100 115s-100 -45 -100 -115s45 -115 100 -115zM215 515l-95 130h135l65 -130h-105z" />
    <glyph glyph-name="oacute" unicode="&#xf3;" horiz-adv-x="530" 
d="M265 -10c-130 0 -235 105 -235 240s105 240 235 240s235 -105 235 -240s-105 -240 -235 -240zM265 115c55 0 100 45 100 115s-45 115 -100 115s-100 -45 -100 -115s45 -115 100 -115zM215 515l65 130h135l-95 -130h-105z" />
    <glyph glyph-name="ocircumflex" unicode="&#xf4;" horiz-adv-x="530" 
d="M265 -10c-130 0 -235 105 -235 240s105 240 235 240s235 -105 235 -240s-105 -240 -235 -240zM265 115c55 0 100 45 100 115s-45 115 -100 115s-100 -45 -100 -115s45 -115 100 -115zM105 515l100 130h120l100 -130h-115l-45 60l-45 -60h-115z" />
    <glyph glyph-name="otilde" unicode="&#xf5;" horiz-adv-x="530" 
d="M265 -10c-130 0 -235 105 -235 240s105 240 235 240s235 -105 235 -240s-105 -240 -235 -240zM265 115c55 0 100 45 100 115s-45 115 -100 115s-100 -45 -100 -115s45 -115 100 -115zM185 505l-75 10c0 85 40 125 90 125c60 0 80 -45 110 -45c20 0 35 15 35 45l75 -10
c0 -85 -40 -125 -90 -125c-60 0 -80 45 -110 45c-19 0 -35 -15 -35 -45z" />
    <glyph glyph-name="odieresis" unicode="&#xf6;" horiz-adv-x="530" 
d="M265 -10c-130 0 -235 105 -235 240s105 240 235 240s235 -105 235 -240s-105 -240 -235 -240zM265 115c55 0 100 45 100 115s-45 115 -100 115s-100 -45 -100 -115s45 -115 100 -115zM175 510c-40 0 -70 30 -70 70s30 70 70 70s70 -30 70 -70s-30 -70 -70 -70zM360 510
c-40 0 -70 30 -70 70s30 70 70 70s70 -30 70 -70s-30 -70 -70 -70z" />
    <glyph glyph-name="divide" unicode="&#xf7;" horiz-adv-x="470" 
d="M235 15c-40 0 -70 30 -70 70s30 70 70 70s70 -30 70 -70s-30 -70 -70 -70zM35 195v120h400v-120h-400zM235 355c-40 0 -70 30 -70 70s30 70 70 70s70 -30 70 -70s-30 -70 -70 -70z" />
    <glyph glyph-name="oslash" unicode="&#xf8;" horiz-adv-x="540" 
d="M270 -10c-85 0 -135 45 -135 45l-40 -35l-70 75l40 35s-30 50 -30 120c0 135 105 240 235 240c85 0 135 -45 135 -45l40 35l70 -75l-40 -35s30 -55 30 -120c0 -135 -105 -240 -235 -240zM270 115c55 0 100 45 100 115c0 15 -5 30 -5 30l-140 -135s15 -10 45 -10zM175 200
l140 135s-15 10 -45 10c-55 0 -100 -45 -100 -115c0 -15 5 -30 5 -30z" />
    <glyph glyph-name="ugrave" unicode="&#xf9;" 
d="M230 -5c-110 0 -185 75 -185 195v270h135v-245c0 -60 35 -95 85 -95s85 35 85 95v245h135v-460h-100l-20 45s-55 -50 -135 -50zM220 515l-95 130h135l65 -130h-105z" />
    <glyph glyph-name="uacute" unicode="&#xfa;" 
d="M230 -5c-110 0 -185 75 -185 195v270h135v-245c0 -60 35 -95 85 -95s85 35 85 95v245h135v-460h-100l-20 45s-55 -50 -135 -50zM210 515l65 130h135l-95 -130h-105z" />
    <glyph glyph-name="ucircumflex" unicode="&#xfb;" 
d="M230 -5c-110 0 -185 75 -185 195v270h135v-245c0 -60 35 -95 85 -95s85 35 85 95v245h135v-460h-100l-20 45s-55 -50 -135 -50zM105 515l100 130h120l100 -130h-115l-45 60l-45 -60h-115z" />
    <glyph glyph-name="udieresis" unicode="&#xfc;" 
d="M230 -5c-110 0 -185 75 -185 195v270h135v-245c0 -60 35 -95 85 -95s85 35 85 95v245h135v-460h-100l-20 45s-55 -50 -135 -50zM175 510c-40 0 -70 30 -70 70s30 70 70 70s70 -30 70 -70s-30 -70 -70 -70zM360 510c-40 0 -70 30 -70 70s30 70 70 70s70 -30 70 -70
s-30 -70 -70 -70z" />
    <glyph glyph-name="yacute" unicode="&#xfd;" horiz-adv-x="490" 
d="M125 -165c-20 0 -45 5 -45 5v115c55 0 80 25 95 65l-175 440h145l100 -285l100 285h145l-185 -460c-46 -115 -95 -165 -180 -165zM195 515l65 130h135l-95 -130h-105z" />
    <glyph glyph-name="thorn" unicode="&#xfe;" horiz-adv-x="545" 
d="M50 -160v790h135v-205s45 40 115 40c115 0 215 -100 215 -235s-100 -235 -215 -235c-70 0 -115 40 -115 40v-195h-135zM280 120c55 0 100 45 100 110s-45 110 -100 110s-100 -45 -100 -110s45 -110 100 -110z" />
    <glyph glyph-name="ydieresis" unicode="&#xff;" horiz-adv-x="490" 
d="M125 -165c-20 0 -45 5 -45 5v115c55 0 80 25 95 65l-175 440h145l100 -285l100 285h145l-185 -460c-46 -115 -95 -165 -180 -165zM160 510c-40 0 -70 30 -70 70s30 70 70 70s70 -30 70 -70s-30 -70 -70 -70zM345 510c-40 0 -70 30 -70 70s30 70 70 70s70 -30 70 -70
s-30 -70 -70 -70z" />
    <glyph glyph-name="Amacron" unicode="&#x100;" horiz-adv-x="590" 
d="M-5 0l225 630h150l225 -630h-150l-40 120h-220l-40 -120h-150zM225 245h140l-70 210zM165 700v105h265v-105h-265z" />
    <glyph glyph-name="amacron" unicode="&#x101;" horiz-adv-x="485" 
d="M185 -5c-100 0 -155 55 -155 130c0 90 65 155 275 155c0 45 -25 70 -60 70c-50 0 -60 -45 -60 -45l-135 10c15 90 80 155 200 155c110 0 190 -80 190 -190v-280h-100l-20 45s-55 -50 -135 -50zM220 95c50 0 85 35 85 85v20c-115 0 -140 -25 -140 -60c0 -25 20 -45 55 -45
zM120 520v105h265v-105h-265z" />
    <glyph glyph-name="Abreve" unicode="&#x102;" horiz-adv-x="590" 
d="M-5 0l225 630h150l225 -630h-150l-40 120h-220l-40 -120h-150zM225 245h140l-70 210zM295 690c-80 0 -135 55 -145 130h95c5 -30 25 -50 50 -50s45 20 50 50h95c-10 -75 -65 -130 -145 -130z" />
    <glyph glyph-name="abreve" unicode="&#x103;" horiz-adv-x="485" 
d="M185 -5c-100 0 -155 55 -155 130c0 90 65 155 275 155c0 45 -25 70 -60 70c-50 0 -60 -45 -60 -45l-135 10c15 90 80 155 200 155c110 0 190 -80 190 -190v-280h-100l-20 45s-55 -50 -135 -50zM220 95c50 0 85 35 85 85v20c-115 0 -140 -25 -140 -60c0 -25 20 -45 55 -45
zM255 510c-80 0 -135 55 -145 130h95c5 -30 25 -50 50 -50s45 20 50 50h95c-10 -75 -65 -130 -145 -130z" />
    <glyph glyph-name="Aogonek" unicode="&#x104;" horiz-adv-x="590" 
d="M510 -190c-70 0 -110 40 -110 90c0 55 45 100 45 100l-40 120h-220l-40 -120h-150l225 630h150l225 -630h-75s-30 -41 -30 -75c0 -25 20 -45 45 -45s40 5 40 5v-65s-25 -10 -65 -10zM225 245h140l-70 210z" />
    <glyph glyph-name="aogonek" unicode="&#x105;" horiz-adv-x="485" 
d="M405 -190c-70 0 -110 40 -110 90c0 55 45 100 45 100l-20 45s-55 -50 -135 -50c-100 0 -155 55 -155 130c0 90 65 155 275 155c0 45 -25 70 -60 70c-50 0 -60 -45 -60 -45l-135 10c15 90 80 155 200 155c110 0 190 -80 190 -190v-280h-25s-30 -41 -30 -75
c0 -25 20 -45 45 -45s40 5 40 5v-65s-25 -10 -65 -10zM220 95c50 0 85 35 85 85v20c-115 0 -140 -25 -140 -60c0 -25 20 -45 55 -45z" />
    <glyph glyph-name="Cacute" unicode="&#x106;" horiz-adv-x="650" 
d="M340 -5c-170 0 -310 140 -310 320s140 320 310 320c150 0 255 -105 285 -225l-150 -10c-15 50 -60 95 -135 95c-90 0 -165 -75 -165 -180s75 -180 165 -180c80 0 125 45 140 95l150 -10c-30 -120 -135 -225 -290 -225zM290 695l65 130h135l-95 -130h-105z" />
    <glyph glyph-name="cacute" unicode="&#x107;" horiz-adv-x="510" 
d="M265 -10c-130 0 -235 105 -235 240s105 240 235 240c185 0 220 -180 220 -180l-135 -10s-20 65 -85 65c-55 0 -100 -45 -100 -115s45 -115 100 -115c65 0 85 65 85 65l135 -10s-35 -180 -220 -180zM210 515l65 130h135l-95 -130h-105z" />
    <glyph glyph-name="Ccircumflex" unicode="&#x108;" horiz-adv-x="650" 
d="M340 -5c-170 0 -310 140 -310 320s140 320 310 320c150 0 255 -105 285 -225l-150 -10c-15 50 -60 95 -135 95c-90 0 -165 -75 -165 -180s75 -180 165 -180c80 0 125 45 140 95l150 -10c-30 -120 -135 -225 -290 -225zM185 695l100 130h120l100 -130h-115l-45 60l-45 -60
h-115z" />
    <glyph glyph-name="ccircumflex" unicode="&#x109;" horiz-adv-x="510" 
d="M265 -10c-130 0 -235 105 -235 240s105 240 235 240c185 0 220 -180 220 -180l-135 -10s-20 65 -85 65c-55 0 -100 -45 -100 -115s45 -115 100 -115c65 0 85 65 85 65l135 -10s-35 -180 -220 -180zM105 515l100 130h120l100 -130h-115l-45 60l-45 -60h-115z" />
    <glyph glyph-name="Cdotaccent" unicode="&#x10a;" horiz-adv-x="650" 
d="M340 -5c-170 0 -310 140 -310 320s140 320 310 320c150 0 255 -105 285 -225l-150 -10c-15 50 -60 95 -135 95c-90 0 -165 -75 -165 -180s75 -180 165 -180c80 0 125 45 140 95l150 -10c-30 -120 -135 -225 -290 -225zM340 690c-40 0 -75 35 -75 75s35 75 75 75
s75 -35 75 -75s-35 -75 -75 -75z" />
    <glyph glyph-name="cdotaccent" unicode="&#x10b;" horiz-adv-x="510" 
d="M265 -10c-130 0 -235 105 -235 240s105 240 235 240c185 0 220 -180 220 -180l-135 -10s-20 65 -85 65c-55 0 -100 -45 -100 -115s45 -115 100 -115c65 0 85 65 85 65l135 -10s-35 -180 -220 -180zM265 510c-40 0 -75 35 -75 75s35 75 75 75s75 -35 75 -75
s-35 -75 -75 -75z" />
    <glyph glyph-name="Ccaron" unicode="&#x10c;" horiz-adv-x="650" 
d="M340 -5c-170 0 -310 140 -310 320s140 320 310 320c150 0 255 -105 285 -225l-150 -10c-15 50 -60 95 -135 95c-90 0 -165 -75 -165 -180s75 -180 165 -180c80 0 125 45 140 95l150 -10c-30 -120 -135 -225 -290 -225zM285 695l-100 130h115l45 -60l45 60h115l-100 -130
h-120z" />
    <glyph glyph-name="ccaron" unicode="&#x10d;" horiz-adv-x="510" 
d="M265 -10c-130 0 -235 105 -235 240s105 240 235 240c185 0 220 -180 220 -180l-135 -10s-20 65 -85 65c-55 0 -100 -45 -100 -115s45 -115 100 -115c65 0 85 65 85 65l135 -10s-35 -180 -220 -180zM205 515l-100 130h115l45 -60l45 60h115l-100 -130h-120z" />
    <glyph glyph-name="Dcaron" unicode="&#x10e;" horiz-adv-x="620" 
d="M60 0v630h215c175 0 315 -140 315 -315s-140 -315 -315 -315h-215zM205 140h70c95 0 170 75 170 175s-75 175 -170 175h-70v-350zM244 695l-100 130h115l45 -60l45 60h115l-100 -130h-120z" />
    <glyph glyph-name="dcaron" unicode="&#x10f;" horiz-adv-x="660" 
d="M545 500l35 130h125l-65 -130h-95zM245 -5c-115 0 -215 100 -215 235s100 235 215 235c70 0 115 -40 115 -40v205h135v-630h-100l-20 45s-50 -50 -130 -50zM265 120c55 0 100 45 100 110s-45 110 -100 110s-100 -45 -100 -110s45 -110 100 -110z" />
    <glyph glyph-name="Dcroat" unicode="&#x110;" horiz-adv-x="650" 
d="M90 0v250h-70v120h70v260h215c175 0 315 -140 315 -315s-140 -315 -315 -315h-215zM235 140h70c95 0 170 75 170 175s-75 175 -170 175h-70v-120h100v-120h-100v-110z" />
    <glyph glyph-name="dcroat" unicode="&#x111;" horiz-adv-x="560" 
d="M235 -5c-110 0 -205 95 -205 215s95 215 205 215c75 0 115 -40 115 -40v75h-115v110h115v60h135v-60h65v-110h-65v-460h-100l-20 45s-50 -50 -130 -50zM260 120c55 0 95 40 95 90s-40 90 -95 90s-95 -40 -95 -90s40 -90 95 -90z" />
    <glyph glyph-name="Emacron" unicode="&#x112;" horiz-adv-x="560" 
d="M60 0v630h450v-140h-305v-100h280v-140h-280v-110h315v-140h-460zM160 700v105h265v-105h-265z" />
    <glyph glyph-name="emacron" unicode="&#x113;" horiz-adv-x="515" 
d="M260 -10c-125 0 -230 105 -230 240s105 240 235 240c125 0 225 -95 225 -240c0 -20 -5 -45 -5 -45h-315c10 -35 45 -70 95 -70s70 30 70 30l140 -10c-25 -75 -95 -145 -215 -145zM170 270h190c-10 40 -45 75 -95 75s-85 -35 -95 -75zM135 520v105h265v-105h-265z" />
    <glyph glyph-name="Ebreve" unicode="&#x114;" horiz-adv-x="560" 
d="M60 0v630h450v-140h-305v-100h280v-140h-280v-110h315v-140h-460zM290 690c-80 0 -135 55 -145 130h95c5 -30 25 -50 50 -50s45 20 50 50h95c-10 -75 -65 -130 -145 -130z" />
    <glyph glyph-name="ebreve" unicode="&#x115;" horiz-adv-x="515" 
d="M260 -10c-125 0 -230 105 -230 240s105 240 235 240c125 0 225 -95 225 -240c0 -20 -5 -45 -5 -45h-315c10 -35 45 -70 95 -70s70 30 70 30l140 -10c-25 -75 -95 -145 -215 -145zM170 270h190c-10 40 -45 75 -95 75s-85 -35 -95 -75zM265 510c-80 0 -135 55 -145 130h95
c5 -30 25 -50 50 -50s45 20 50 50h95c-10 -75 -65 -130 -145 -130z" />
    <glyph glyph-name="Edotaccent" unicode="&#x116;" horiz-adv-x="560" 
d="M60 0v630h450v-140h-305v-100h280v-140h-280v-110h315v-140h-460zM290 690c-40 0 -75 35 -75 75s35 75 75 75s75 -35 75 -75s-35 -75 -75 -75z" />
    <glyph glyph-name="edotaccent" unicode="&#x117;" horiz-adv-x="515" 
d="M260 -10c-125 0 -230 105 -230 240s105 240 235 240c125 0 225 -95 225 -240c0 -20 -5 -45 -5 -45h-315c10 -35 45 -70 95 -70s70 30 70 30l140 -10c-25 -75 -95 -145 -215 -145zM170 270h190c-10 40 -45 75 -95 75s-85 -35 -95 -75zM265 510c-40 0 -75 35 -75 75
s35 75 75 75s75 -35 75 -75s-35 -75 -75 -75z" />
    <glyph glyph-name="Eogonek" unicode="&#x118;" horiz-adv-x="560" 
d="M510 -190c-70 0 -110 40 -110 90c0 55 45 100 45 100h-385v630h450v-140h-305v-100h280v-140h-280v-110h315v-140s-30 -41 -30 -75c0 -25 20 -45 45 -45s40 5 40 5v-65s-25 -10 -65 -10z" />
    <glyph glyph-name="eogonek" unicode="&#x119;" horiz-adv-x="515" 
d="M300 -190c-70 0 -110 40 -110 90c0 42 25 77 38 92c-111 16 -198 114 -198 238c0 135 105 240 235 240c125 0 225 -95 225 -240c0 -20 -5 -45 -5 -45h-315c10 -35 45 -70 95 -70s70 30 70 30l140 -10c-22 -65 -77 -126 -170 -141c-8 -13 -25 -42 -25 -69
c0 -25 20 -45 45 -45s40 5 40 5v-65s-25 -10 -65 -10zM170 270h190c-10 40 -45 75 -95 75s-85 -35 -95 -75z" />
    <glyph glyph-name="Ecaron" unicode="&#x11a;" horiz-adv-x="560" 
d="M60 0v630h450v-140h-305v-100h280v-140h-280v-110h315v-140h-460zM230 695l-100 130h115l45 -60l45 60h115l-100 -130h-120z" />
    <glyph glyph-name="ecaron" unicode="&#x11b;" horiz-adv-x="515" 
d="M260 -10c-125 0 -230 105 -230 240s105 240 235 240c125 0 225 -95 225 -240c0 -20 -5 -45 -5 -45h-315c10 -35 45 -70 95 -70s70 30 70 30l140 -10c-25 -75 -95 -145 -215 -145zM170 270h190c-10 40 -45 75 -95 75s-85 -35 -95 -75zM205 515l-100 130h115l45 -60l45 60
h115l-100 -130h-120z" />
    <glyph glyph-name="Gcircumflex" unicode="&#x11c;" horiz-adv-x="695" 
d="M340 -5c-170 0 -310 140 -310 320s140 320 310 320c150 0 255 -105 285 -220l-150 -10c-15 45 -60 90 -135 90c-90 0 -165 -75 -165 -180s75 -180 165 -180c80 0 125 45 140 85h-140v120h305v-340h-100l-25 60s-70 -65 -180 -65zM190 695l100 130h120l100 -130h-115
l-45 60l-45 -60h-115z" />
    <glyph glyph-name="gcircumflex" unicode="&#x11d;" horiz-adv-x="540" 
d="M260 -170c-170 0 -215 155 -215 155l135 10s20 -45 80 -45c55 0 95 40 95 90v25s-35 -40 -115 -40c-115 0 -210 95 -210 220s95 220 210 220c80 0 130 -50 130 -50l20 45h100v-420c0 -120 -90 -210 -230 -210zM260 150c55 0 95 40 95 95s-40 95 -95 95s-95 -40 -95 -95
s40 -95 95 -95zM110 515l100 130h120l100 -130h-115l-45 60l-45 -60h-115z" />
    <glyph glyph-name="Gbreve" unicode="&#x11e;" horiz-adv-x="695" 
d="M340 -5c-170 0 -310 140 -310 320s140 320 310 320c150 0 255 -105 285 -220l-150 -10c-15 45 -60 90 -135 90c-90 0 -165 -75 -165 -180s75 -180 165 -180c80 0 125 45 140 85h-140v120h305v-340h-100l-25 60s-70 -65 -180 -65zM350 690c-80 0 -135 55 -145 130h95
c5 -30 25 -50 50 -50s45 20 50 50h95c-10 -75 -65 -130 -145 -130z" />
    <glyph glyph-name="gbreve" unicode="&#x11f;" horiz-adv-x="540" 
d="M260 -170c-170 0 -215 155 -215 155l135 10s20 -45 80 -45c55 0 95 40 95 90v25s-35 -40 -115 -40c-115 0 -210 95 -210 220s95 220 210 220c80 0 130 -50 130 -50l20 45h100v-420c0 -120 -90 -210 -230 -210zM260 150c55 0 95 40 95 95s-40 95 -95 95s-95 -40 -95 -95
s40 -95 95 -95zM270 510c-80 0 -135 55 -145 130h95c5 -30 25 -50 50 -50s45 20 50 50h95c-10 -75 -65 -130 -145 -130z" />
    <glyph glyph-name="Gdotaccent" unicode="&#x120;" horiz-adv-x="695" 
d="M340 -5c-170 0 -310 140 -310 320s140 320 310 320c150 0 255 -105 285 -220l-150 -10c-15 45 -60 90 -135 90c-90 0 -165 -75 -165 -180s75 -180 165 -180c80 0 125 45 140 85h-140v120h305v-340h-100l-25 60s-70 -65 -180 -65zM345 690c-40 0 -75 35 -75 75
s35 75 75 75s75 -35 75 -75s-35 -75 -75 -75z" />
    <glyph glyph-name="gdotaccent" unicode="&#x121;" horiz-adv-x="540" 
d="M260 -170c-170 0 -215 155 -215 155l135 10s20 -45 80 -45c55 0 95 40 95 90v25s-35 -40 -115 -40c-115 0 -210 95 -210 220s95 220 210 220c80 0 130 -50 130 -50l20 45h100v-420c0 -120 -90 -210 -230 -210zM260 150c55 0 95 40 95 95s-40 95 -95 95s-95 -40 -95 -95
s40 -95 95 -95zM270 510c-40 0 -75 35 -75 75s35 75 75 75s75 -35 75 -75s-35 -75 -75 -75z" />
    <glyph glyph-name="Gcommaaccent" unicode="&#x122;" horiz-adv-x="695" 
d="M340 -5c-170 0 -310 140 -310 320s140 320 310 320c150 0 255 -105 285 -220l-150 -10c-15 45 -60 90 -135 90c-90 0 -165 -75 -165 -180s75 -180 165 -180c80 0 125 45 140 85h-140v120h305v-340h-100l-25 60s-70 -65 -180 -65zM320 -290l-20 30s40 25 50 65
c-40 0 -70 30 -70 70s30 70 70 70s70 -30 70 -75c0 -105 -100 -160 -100 -160z" />
    <glyph glyph-name="gcommaaccent" unicode="&#x123;" horiz-adv-x="540" 
d="M271 510c-40 0 -70 30 -70 75c0 105 100 160 100 160l20 -30s-40 -25 -50 -65c40 0 70 -30 70 -70s-30 -70 -70 -70zM260 -170c-170 0 -215 155 -215 155l135 10s20 -45 80 -45c55 0 95 40 95 90v25s-35 -40 -115 -40c-115 0 -210 95 -210 220s95 220 210 220
c80 0 130 -50 130 -50l20 45h100v-420c0 -120 -90 -210 -230 -210zM260 150c55 0 95 40 95 95s-40 95 -95 95s-95 -40 -95 -95s40 -95 95 -95z" />
    <glyph glyph-name="Hcircumflex" unicode="&#x124;" horiz-adv-x="650" 
d="M60 0v630h145v-240h240v240h145v-630h-145v250h-240v-250h-145zM165 695l100 130h120l100 -130h-115l-45 60l-45 -60h-115z" />
    <glyph glyph-name="hcircumflex" unicode="&#x125;" 
d="M50 0v630h135v-215s40 50 130 50c100 0 175 -75 175 -195v-270h-135v245c0 60 -35 95 -85 95s-85 -35 -85 -95v-245h-135zM110 695l100 130h120l100 -130h-115l-45 60l-45 -60h-115z" />
    <glyph glyph-name="Hbar" unicode="&#x126;" horiz-adv-x="700" 
d="M85 0v440h-70v120h70v70h145v-70h240v70h145v-70h70v-120h-70v-440h-145v250h-240v-250h-145zM230 390h240v50h-240v-50z" />
    <glyph glyph-name="hbar" unicode="&#x127;" horiz-adv-x="560" 
d="M75 0v460h-70v110h70v60h135v-60h110v-110h-110v-90s40 50 130 50c100 0 175 -75 175 -195v-225h-135v200c0 60 -35 95 -85 95s-85 -35 -85 -95v-200h-135z" />
    <glyph glyph-name="uni0128" unicode="&#x128;" horiz-adv-x="265" 
d="M60 0v630h145v-630h-145zM50 685l-75 10c0 85 40 125 90 125c60 0 80 -45 110 -45c20 0 35 15 35 45l75 -10c0 -85 -40 -125 -90 -125c-60 0 -80 45 -110 45c-19 0 -35 -15 -35 -45z" />
    <glyph glyph-name="uni0129" unicode="&#x129;" horiz-adv-x="235" 
d="M50 0v460h135v-460h-135zM35 510l-75 10c0 85 40 125 90 125c60 0 80 -45 110 -45c20 0 35 15 35 45l75 -10c0 -85 -40 -125 -90 -125c-60 0 -80 45 -110 45c-19 0 -35 -15 -35 -45z" />
    <glyph glyph-name="Imacron" unicode="&#x12a;" horiz-adv-x="265" 
d="M60 0v630h145v-630h-145zM0 700v105h265v-105h-265z" />
    <glyph glyph-name="imacron" unicode="&#x12b;" horiz-adv-x="235" 
d="M50 0v460h135v-460h-135zM-15 520v105h265v-105h-265z" />
    <glyph glyph-name="Ibreve" unicode="&#x12c;" horiz-adv-x="265" 
d="M60 0v630h145v-630h-145zM135 690c-80 0 -135 55 -145 130h95c5 -30 25 -50 50 -50s45 20 50 50h95c-10 -75 -65 -130 -145 -130z" />
    <glyph glyph-name="ibreve" unicode="&#x12d;" horiz-adv-x="235" 
d="M50 0v460h135v-460h-135zM115 510c-80 0 -135 55 -145 130h95c5 -30 25 -50 50 -50s45 20 50 50h95c-10 -75 -65 -130 -145 -130z" />
    <glyph glyph-name="Iogonek" unicode="&#x12e;" horiz-adv-x="265" 
d="M125 -190c-70 0 -110 40 -110 90c0 55 45 100 45 100v630h145v-630h-70s-30 -41 -30 -75c0 -25 20 -45 45 -45s40 5 40 5v-65s-25 -10 -65 -10z" />
    <glyph glyph-name="iogonek" unicode="&#x12f;" horiz-adv-x="235" 
d="M115 -190c-70 0 -110 40 -110 90c0 55 45 100 45 100v460h135v-460h-60s-30 -41 -30 -75c0 -25 20 -45 45 -45s40 5 40 5v-65s-25 -10 -65 -10zM120 510c-40 0 -75 35 -75 75s35 75 75 75s75 -35 75 -75s-35 -75 -75 -75z" />
    <glyph glyph-name="Idotaccent" unicode="&#x130;" horiz-adv-x="265" 
d="M60 0v630h145v-630h-145zM135 690c-40 0 -75 35 -75 75s35 75 75 75s75 -35 75 -75s-35 -75 -75 -75z" />
    <glyph glyph-name="dotlessi" unicode="&#x131;" horiz-adv-x="235" 
d="M50 0v460h135v-460h-135z" />
    <glyph glyph-name="uni0132" unicode="&#x132;" horiz-adv-x="730" 
d="M60 0v630h145v-630h-145zM465 -5c-130 0 -215 85 -215 205c48 3 145 10 145 10c0 -45 30 -75 70 -75s70 30 70 75v420h145v-420c0 -130 -85 -215 -215 -215z" />
    <glyph glyph-name="uni0133" unicode="&#x133;" horiz-adv-x="480" 
d="M50 0v460h135v-460h-135zM265 -165c-35 0 -65 10 -65 10v120s15 -5 35 -5c35 0 60 25 60 65v435h135v-455c0 -110 -60 -170 -165 -170zM120 510c-40 0 -75 35 -75 75s35 75 75 75s75 -35 75 -75s-35 -75 -75 -75zM365 510c-40 0 -75 35 -75 75s35 75 75 75s75 -35 75 -75
s-35 -75 -75 -75z" />
    <glyph glyph-name="Jcircumflex" unicode="&#x134;" horiz-adv-x="485" 
d="M220 -5c-130 0 -215 85 -215 205c48 3 145 10 145 10c0 -45 30 -75 70 -75s70 30 70 75v420h145v-420c0 -130 -85 -215 -215 -215zM200 695l100 130h120l100 -130h-115l-45 60l-45 -60h-115z" />
    <glyph glyph-name="jcircumflex" unicode="&#x135;" horiz-adv-x="235" 
d="M20 -165c-35 0 -65 10 -65 10v120s15 -5 35 -5c35 0 60 25 60 65v435h135v-455c0 -110 -60 -170 -165 -170zM-45 515l100 130h120l100 -130h-115l-45 60l-45 -60h-115z" />
    <glyph glyph-name="Kcommaaccent" unicode="&#x136;" horiz-adv-x="565" 
d="M60 0v630h145v-270l190 270h165l-222 -310l237 -320h-165l-205 280v-280h-145zM270 -290l-20 30s40 25 50 65c-40 0 -70 30 -70 70s30 70 70 70s70 -30 70 -75c0 -105 -100 -160 -100 -160z" />
    <glyph glyph-name="kcommaaccent" unicode="&#x137;" horiz-adv-x="470" 
d="M50 0v630h135v-355l125 185h155l-155 -220l170 -240h-155l-140 205v-205h-135zM225 -290l-20 30s40 25 50 65c-40 0 -70 30 -70 70s30 70 70 70s70 -30 70 -75c0 -105 -100 -160 -100 -160z" />
    <glyph glyph-name="Lacute" unicode="&#x139;" horiz-adv-x="500" 
d="M60 0v630h145v-490h285v-140h-430zM80 695l65 130h135l-95 -130h-105z" />
    <glyph glyph-name="lacute" unicode="&#x13a;" horiz-adv-x="240" 
d="M50 0v630h135v-630h-135zM65 695l65 130h135l-95 -130h-105z" />
    <glyph glyph-name="Lcommaaccent" unicode="&#x13b;" horiz-adv-x="500" 
d="M60 0v630h145v-490h285v-140h-430zM255 -290l-20 30s40 25 50 65c-40 0 -70 30 -70 70s30 70 70 70s70 -30 70 -75c0 -105 -100 -160 -100 -160z" />
    <glyph glyph-name="lcommaaccent" unicode="&#x13c;" horiz-adv-x="240" 
d="M50 0v630h135v-630h-135zM90 -290l-20 30s40 25 50 65c-40 0 -70 30 -70 70s30 70 70 70s70 -30 70 -75c0 -105 -100 -160 -100 -160z" />
    <glyph glyph-name="Lcaron" unicode="&#x13d;" horiz-adv-x="500" 
d="M255 500l35 130h125l-65 -130h-95zM60 0v630h145v-490h285v-140h-430z" />
    <glyph glyph-name="lcaron" unicode="&#x13e;" horiz-adv-x="350" 
d="M235 500l35 130h125l-65 -130h-95zM50 0v630h135v-630h-135z" />
    <glyph glyph-name="Ldot" unicode="&#x13f;" horiz-adv-x="500" 
d="M60 0v630h145v-490h285v-140h-430zM385 280c-40 0 -75 35 -75 75s35 75 75 75s75 -35 75 -75s-35 -75 -75 -75z" />
    <glyph glyph-name="ldot" unicode="&#x140;" horiz-adv-x="400" 
d="M50 0v630h135v-630h-135zM320 235c-40 0 -75 35 -75 75s35 75 75 75s75 -35 75 -75s-35 -75 -75 -75z" />
    <glyph glyph-name="Lslash" unicode="&#x141;" horiz-adv-x="520" 
d="M80 0v165l-70 -45v130l70 45v335h145v-240l125 80v-130l-125 -80v-120h285v-140h-430z" />
    <glyph glyph-name="lslash" unicode="&#x142;" horiz-adv-x="315" 
d="M90 0v210l-75 -50v130l75 50v290h135v-195l75 50v-130l-75 -50v-305h-135z" />
    <glyph glyph-name="Nacute" unicode="&#x143;" horiz-adv-x="650" 
d="M60 0v630h130l255 -370v370h145v-630h-130l-255 370v-370h-145zM270 695l65 130h135l-95 -130h-105z" />
    <glyph glyph-name="nacute" unicode="&#x144;" 
d="M50 0v460h100l20 -45s55 50 135 50c110 0 185 -75 185 -195v-270h-135v245c0 60 -35 95 -85 95s-85 -35 -85 -95v-245h-135zM220 515l65 130h135l-95 -130h-105z" />
    <glyph glyph-name="Ncommaaccent" unicode="&#x145;" horiz-adv-x="650" 
d="M60 0v630h130l255 -370v370h145v-630h-130l-255 370v-370h-145zM300 -290l-20 30s40 25 50 65c-40 0 -70 30 -70 70s30 70 70 70s70 -30 70 -75c0 -105 -100 -160 -100 -160z" />
    <glyph glyph-name="ncommaaccent" unicode="&#x146;" 
d="M50 0v460h100l20 -45s55 50 135 50c110 0 185 -75 185 -195v-270h-135v245c0 60 -35 95 -85 95s-85 -35 -85 -95v-245h-135zM240 -290l-20 30s40 25 50 65c-40 0 -70 30 -70 70s30 70 70 70s70 -30 70 -75c0 -105 -100 -160 -100 -160z" />
    <glyph glyph-name="Ncaron" unicode="&#x147;" horiz-adv-x="650" 
d="M60 0v630h130l255 -370v370h145v-630h-130l-255 370v-370h-145zM265 695l-100 130h115l45 -60l45 60h115l-100 -130h-120z" />
    <glyph glyph-name="ncaron" unicode="&#x148;" 
d="M50 0v460h100l20 -45s55 50 135 50c110 0 185 -75 185 -195v-270h-135v245c0 60 -35 95 -85 95s-85 -35 -85 -95v-245h-135zM220 515l-100 130h115l45 -60l45 60h115l-100 -130h-120z" />
    <glyph glyph-name="napostrophe" unicode="&#x149;" horiz-adv-x="605" 
d="M120 0v460h100l20 -45s55 50 135 50c110 0 185 -75 185 -195v-270h-135v245c0 60 -35 95 -85 95s-85 -35 -85 -95v-245h-135zM30 395l-20 30s40 25 50 65c-40 0 -70 30 -70 70s30 70 70 70s70 -30 70 -75c0 -105 -100 -160 -100 -160z" />
    <glyph glyph-name="Eng" unicode="&#x14a;" horiz-adv-x="650" 
d="M380 -240c-115 0 -200 85 -205 190l145 10c0 -40 25 -65 60 -65c40 0 65 25 65 65v62l-240 348v-370h-145v630h130l255 -370v370h145v-670c0 -115 -85 -200 -210 -200z" />
    <glyph glyph-name="eng" unicode="&#x14b;" 
d="M325 -170c-40 0 -65 15 -65 15v110s15 -5 30 -5c40 0 65 25 65 65v230c0 60 -35 95 -85 95s-85 -35 -85 -95v-245h-135v460h100l20 -45s55 50 135 50c110 0 185 -75 185 -195v-265c0 -110 -65 -175 -165 -175z" />
    <glyph glyph-name="Omacron" unicode="&#x14c;" horiz-adv-x="680" 
d="M340 -5c-170 0 -310 140 -310 320s140 320 310 320s310 -140 310 -320s-140 -320 -310 -320zM340 135c90 0 165 75 165 180s-75 180 -165 180s-165 -75 -165 -180s75 -180 165 -180zM210 700v105h265v-105h-265z" />
    <glyph glyph-name="omacron" unicode="&#x14d;" horiz-adv-x="530" 
d="M265 -10c-130 0 -235 105 -235 240s105 240 235 240s235 -105 235 -240s-105 -240 -235 -240zM265 115c55 0 100 45 100 115s-45 115 -100 115s-100 -45 -100 -115s45 -115 100 -115zM135 520v105h265v-105h-265z" />
    <glyph glyph-name="Obreve" unicode="&#x14e;" horiz-adv-x="680" 
d="M340 -5c-170 0 -310 140 -310 320s140 320 310 320s310 -140 310 -320s-140 -320 -310 -320zM340 135c90 0 165 75 165 180s-75 180 -165 180s-165 -75 -165 -180s75 -180 165 -180zM340 690c-80 0 -135 55 -145 130h95c5 -30 25 -50 50 -50s45 20 50 50h95
c-10 -75 -65 -130 -145 -130z" />
    <glyph glyph-name="obreve" unicode="&#x14f;" horiz-adv-x="530" 
d="M265 -10c-130 0 -235 105 -235 240s105 240 235 240s235 -105 235 -240s-105 -240 -235 -240zM265 115c55 0 100 45 100 115s-45 115 -100 115s-100 -45 -100 -115s45 -115 100 -115zM265 510c-80 0 -135 55 -145 130h95c5 -30 25 -50 50 -50s45 20 50 50h95
c-10 -75 -65 -130 -145 -130z" />
    <glyph glyph-name="Ohungarumlaut" unicode="&#x150;" horiz-adv-x="680" 
d="M340 -5c-170 0 -310 140 -310 320s140 320 310 320s310 -140 310 -320s-140 -320 -310 -320zM340 135c90 0 165 75 165 180s-75 180 -165 180s-165 -75 -165 -180s75 -180 165 -180zM200 695l70 130h135l-100 -130h-105zM375 695l70 130h135l-100 -130h-105z" />
    <glyph glyph-name="ohungarumlaut" unicode="&#x151;" horiz-adv-x="530" 
d="M265 -10c-130 0 -235 105 -235 240s105 240 235 240s235 -105 235 -240s-105 -240 -235 -240zM265 115c55 0 100 45 100 115s-45 115 -100 115s-100 -45 -100 -115s45 -115 100 -115zM125 515l70 130h135l-100 -130h-105zM300 515l70 130h135l-100 -130h-105z" />
    <glyph glyph-name="OE" unicode="&#x152;" horiz-adv-x="855" 
d="M345 0c-175 0 -315 140 -315 315s140 315 315 315h460v-140h-270v-100h245v-140h-245v-110h280v-140h-470zM345 140h45v350h-45c-95 0 -170 -75 -170 -175s75 -175 170 -175z" />
    <glyph glyph-name="oe" unicode="&#x153;" horiz-adv-x="830" 
d="M255 -10c-125 0 -225 100 -225 240s100 240 225 240c115 0 170 -75 170 -75s55 75 155 75c125 0 225 -100 225 -240c0 -25 -5 -45 -5 -45h-315s20 -70 95 -70c50 0 70 30 70 30l140 -10c-25 -75 -95 -145 -210 -145c-105 0 -155 75 -155 75s-60 -75 -170 -75zM255 115
c50 0 95 45 95 115s-45 115 -95 115s-95 -45 -95 -115s45 -115 95 -115zM485 275h180c-5 40 -40 75 -90 75s-85 -35 -90 -75z" />
    <glyph glyph-name="Racute" unicode="&#x154;" horiz-adv-x="580" 
d="M60 0v630h255c130 0 220 -90 220 -200c0 -140 -119 -190 -120 -190l140 -240h-160l-115 210h-75v-210h-145zM205 350h110c50 0 80 30 80 70s-30 70 -80 70h-110v-140zM235 695l65 130h135l-95 -130h-105z" />
    <glyph glyph-name="racute" unicode="&#x155;" horiz-adv-x="340" 
d="M50 0v460h100l20 -50s40 55 110 55c25 0 40 -5 40 -5v-140s-20 10 -50 10c-50 0 -85 -35 -85 -95v-235h-135zM135 515l65 130h135l-95 -130h-105z" />
    <glyph glyph-name="Rcommaaccent" unicode="&#x156;" horiz-adv-x="580" 
d="M60 0v630h255c130 0 220 -90 220 -200c0 -140 -119 -190 -120 -190l140 -240h-160l-115 210h-75v-210h-145zM205 350h110c50 0 80 30 80 70s-30 70 -80 70h-110v-140zM275 -290l-20 30s40 25 50 65c-40 0 -70 30 -70 70s30 70 70 70s70 -30 70 -75
c0 -105 -100 -160 -100 -160z" />
    <glyph glyph-name="rcommaaccent" unicode="&#x157;" horiz-adv-x="340" 
d="M50 0v460h100l20 -50s40 55 110 55c25 0 40 -5 40 -5v-140s-20 10 -50 10c-50 0 -85 -35 -85 -95v-235h-135zM90 -290l-20 30s40 25 50 65c-40 0 -70 30 -70 70s30 70 70 70s70 -30 70 -75c0 -105 -100 -160 -100 -160z" />
    <glyph glyph-name="Rcaron" unicode="&#x158;" horiz-adv-x="580" 
d="M60 0v630h255c130 0 220 -90 220 -200c0 -140 -119 -190 -120 -190l140 -240h-160l-115 210h-75v-210h-145zM205 350h110c50 0 80 30 80 70s-30 70 -80 70h-110v-140zM235 695l-100 130h115l45 -60l45 60h115l-100 -130h-120z" />
    <glyph glyph-name="rcaron" unicode="&#x159;" horiz-adv-x="340" 
d="M50 0v460h100l20 -50s40 55 110 55c25 0 40 -5 40 -5v-140s-20 10 -50 10c-50 0 -85 -35 -85 -95v-235h-135zM130 515l-100 130h115l45 -60l45 60h115l-100 -130h-120z" />
    <glyph glyph-name="Sacute" unicode="&#x15a;" horiz-adv-x="525" 
d="M260 -5c-145 0 -230 85 -230 205l140 10c0 -55 30 -85 90 -85c55 0 85 30 85 65c0 95 -310 40 -310 265c0 95 85 180 225 180c135 0 220 -85 220 -200l-140 -10c0 50 -30 80 -80 80c-45 0 -75 -30 -75 -60c0 -90 310 -35 310 -265c0 -100 -85 -185 -235 -185zM210 695
l65 130h135l-95 -130h-105z" />
    <glyph glyph-name="sacute" unicode="&#x15b;" horiz-adv-x="445" 
d="M230 -10c-125 0 -185 60 -200 150l130 10c5 -30 25 -50 60 -50s55 20 55 40c0 50 -235 25 -235 190c0 75 65 140 175 140c120 0 180 -60 195 -140l-130 -10c-5 20 -25 40 -55 40s-45 -15 -45 -35c0 -50 235 -25 235 -190c0 -75 -70 -145 -185 -145zM165 515l65 130h135
l-95 -130h-105z" />
    <glyph glyph-name="Scircumflex" unicode="&#x15c;" horiz-adv-x="525" 
d="M260 -5c-145 0 -230 85 -230 205l140 10c0 -55 30 -85 90 -85c55 0 85 30 85 65c0 95 -310 40 -310 265c0 95 85 180 225 180c135 0 220 -85 220 -200l-140 -10c0 50 -30 80 -80 80c-45 0 -75 -30 -75 -60c0 -90 310 -35 310 -265c0 -100 -85 -185 -235 -185zM100 695
l100 130h120l100 -130h-115l-45 60l-45 -60h-115z" />
    <glyph glyph-name="scircumflex" unicode="&#x15d;" horiz-adv-x="445" 
d="M230 -10c-125 0 -185 60 -200 150l130 10c5 -30 25 -50 60 -50s55 20 55 40c0 50 -235 25 -235 190c0 75 65 140 175 140c120 0 180 -60 195 -140l-130 -10c-5 20 -25 40 -55 40s-45 -15 -45 -35c0 -50 235 -25 235 -190c0 -75 -70 -145 -185 -145zM65 515l100 130h120
l100 -130h-115l-45 60l-45 -60h-115z" />
    <glyph glyph-name="Scedilla" unicode="&#x15e;" horiz-adv-x="525" 
d="M235 -200c-34 0 -60 10 -60 10v50s20 -5 40 -5c35 0 50 15 50 35c0 15 -15 30 -45 30c-10 0 -24 -5 -25 -5l33 82c-125 11 -198 92 -198 203l140 10c0 -55 30 -85 90 -85c55 0 85 30 85 65c0 95 -310 40 -310 265c0 95 85 180 225 180c135 0 220 -85 220 -200l-140 -10
c0 50 -30 80 -80 80c-45 0 -75 -30 -75 -60c0 -90 310 -35 310 -265c0 -94 -75 -174 -207 -184l-18 -36s85 -10 85 -80c0 -45 -35 -80 -120 -80z" />
    <glyph glyph-name="scedilla" unicode="&#x15f;" horiz-adv-x="445" 
d="M205 -200c-34 0 -60 10 -60 10v50s20 -5 40 -5c35 0 50 15 50 35c0 15 -15 30 -45 30c-10 0 -24 -5 -25 -5l31 77c-102 10 -153 66 -166 148l130 10c5 -30 25 -50 60 -50s55 20 55 40c0 50 -235 25 -235 190c0 75 65 140 175 140c120 0 180 -60 195 -140l-130 -10
c-5 20 -25 40 -55 40s-45 -15 -45 -35c0 -50 235 -25 235 -190c0 -70 -60 -135 -160 -144l-15 -31s85 -10 85 -80c0 -45 -35 -80 -120 -80z" />
    <glyph glyph-name="Scaron" unicode="&#x160;" horiz-adv-x="525" 
d="M260 -5c-145 0 -230 85 -230 205l140 10c0 -55 30 -85 90 -85c55 0 85 30 85 65c0 95 -310 40 -310 265c0 95 85 180 225 180c135 0 220 -85 220 -200l-140 -10c0 50 -30 80 -80 80c-45 0 -75 -30 -75 -60c0 -90 310 -35 310 -265c0 -100 -85 -185 -235 -185zM200 695
l-100 130h115l45 -60l45 60h115l-100 -130h-120z" />
    <glyph glyph-name="scaron" unicode="&#x161;" horiz-adv-x="445" 
d="M230 -10c-125 0 -185 60 -200 150l130 10c5 -30 25 -50 60 -50s55 20 55 40c0 50 -235 25 -235 190c0 75 65 140 175 140c120 0 180 -60 195 -140l-130 -10c-5 20 -25 40 -55 40s-45 -15 -45 -35c0 -50 235 -25 235 -190c0 -75 -70 -145 -185 -145zM165 515l-100 130h115
l45 -60l45 60h115l-100 -130h-120z" />
    <glyph glyph-name="Tcommaaccent" unicode="&#x162;" horiz-adv-x="525" 
d="M190 0v490h-180v140h505v-140h-180v-490h-145zM235 -290l-20 30s40 25 50 65c-40 0 -70 30 -70 70s30 70 70 70s70 -30 70 -75c0 -105 -100 -160 -100 -160z" />
    <glyph glyph-name="tcommaaccent" unicode="&#x163;" horiz-adv-x="365" 
d="M255 -5c-105 0 -165 60 -165 170v170h-70v115h35c35 0 55 20 55 55v65h115v-110h95v-125h-95v-150c0 -40 25 -65 60 -65c20 0 35 5 35 5v-120s-27 -10 -65 -10zM180 -290l-20 30s40 25 50 65c-40 0 -70 30 -70 70s30 70 70 70s70 -30 70 -75c0 -105 -100 -160 -100 -160z
" />
    <glyph glyph-name="Tcaron" unicode="&#x164;" horiz-adv-x="525" 
d="M190 0v490h-180v140h505v-140h-180v-490h-145zM200 695l-100 130h115l45 -60l45 60h115l-100 -130h-120z" />
    <glyph glyph-name="tcaron" unicode="&#x165;" horiz-adv-x="412" 
d="M302 500l35 130h125l-65 -130h-95zM255 -5c-105 0 -165 60 -165 170v170h-70v115h35c35 0 55 20 55 55v65h115v-110h95v-125h-95v-150c0 -40 25 -65 60 -65c20 0 35 5 35 5v-120s-27 -10 -65 -10z" />
    <glyph glyph-name="Tbar" unicode="&#x166;" horiz-adv-x="525" 
d="M190 0v265h-90v115h90v110h-180v140h505v-140h-180v-110h90v-115h-90v-265h-145z" />
    <glyph glyph-name="tbar" unicode="&#x167;" horiz-adv-x="365" 
d="M255 -5c-105 0 -165 60 -165 170v55h-70v95h70v40h-70v95h35c35 0 55 20 55 55v65h115v-110h95v-105h-95v-40h95v-95h-95v-35c0 -40 25 -65 60 -65c20 0 35 5 35 5v-120s-27 -10 -65 -10z" />
    <glyph glyph-name="uni0168" unicode="&#x168;" horiz-adv-x="620" 
d="M310 -5c-155 0 -260 105 -260 260v375h145v-375c0 -75 45 -120 115 -120s115 45 115 120v375h145v-375c0 -155 -105 -260 -260 -260zM230 685l-75 10c0 85 40 125 90 125c60 0 80 -45 110 -45c20 0 35 15 35 45l75 -10c0 -85 -40 -125 -90 -125c-60 0 -80 45 -110 45
c-19 0 -35 -15 -35 -45z" />
    <glyph glyph-name="uni0169" unicode="&#x169;" 
d="M230 -5c-110 0 -185 75 -185 195v270h135v-245c0 -60 35 -95 85 -95s85 35 85 95v245h135v-460h-100l-20 45s-55 -50 -135 -50zM185 510l-75 10c0 85 40 125 90 125c60 0 80 -45 110 -45c20 0 35 15 35 45l75 -10c0 -85 -40 -125 -90 -125c-60 0 -80 45 -110 45
c-19 0 -35 -15 -35 -45z" />
    <glyph glyph-name="Umacron" unicode="&#x16a;" horiz-adv-x="620" 
d="M310 -5c-155 0 -260 105 -260 260v375h145v-375c0 -75 45 -120 115 -120s115 45 115 120v375h145v-375c0 -155 -105 -260 -260 -260zM180 700v105h265v-105h-265z" />
    <glyph glyph-name="umacron" unicode="&#x16b;" 
d="M230 -5c-110 0 -185 75 -185 195v270h135v-245c0 -60 35 -95 85 -95s85 35 85 95v245h135v-460h-100l-20 45s-55 -50 -135 -50zM135 520v105h265v-105h-265z" />
    <glyph glyph-name="Ubreve" unicode="&#x16c;" horiz-adv-x="620" 
d="M310 -5c-155 0 -260 105 -260 260v375h145v-375c0 -75 45 -120 115 -120s115 45 115 120v375h145v-375c0 -155 -105 -260 -260 -260zM310 690c-80 0 -135 55 -145 130h95c5 -30 25 -50 50 -50s45 20 50 50h95c-10 -75 -65 -130 -145 -130z" />
    <glyph glyph-name="ubreve" unicode="&#x16d;" 
d="M230 -5c-110 0 -185 75 -185 195v270h135v-245c0 -60 35 -95 85 -95s85 35 85 95v245h135v-460h-100l-20 45s-55 -50 -135 -50zM265 510c-80 0 -135 55 -145 130h95c5 -30 25 -50 50 -50s45 20 50 50h95c-10 -75 -65 -130 -145 -130z" />
    <glyph glyph-name="Uring" unicode="&#x16e;" horiz-adv-x="620" 
d="M310 -5c-155 0 -260 105 -260 260v375h145v-375c0 -75 45 -120 115 -120s115 45 115 120v375h145v-375c0 -155 -105 -260 -260 -260zM310 675c-60 0 -100 40 -100 95s40 95 100 95s100 -40 100 -95s-40 -95 -100 -95zM310 735c20 0 35 15 35 35s-15 35 -35 35
s-35 -15 -35 -35s15 -35 35 -35z" />
    <glyph glyph-name="uring" unicode="&#x16f;" 
d="M230 -5c-110 0 -185 75 -185 195v270h135v-245c0 -60 35 -95 85 -95s85 35 85 95v245h135v-460h-100l-20 45s-55 -50 -135 -50zM265 500c-60 0 -100 40 -100 95s40 95 100 95s100 -40 100 -95s-40 -95 -100 -95zM265 560c20 0 35 15 35 35s-15 35 -35 35s-35 -15 -35 -35
s15 -35 35 -35z" />
    <glyph glyph-name="Uhungarumlaut" unicode="&#x170;" horiz-adv-x="620" 
d="M310 -5c-155 0 -260 105 -260 260v375h145v-375c0 -75 45 -120 115 -120s115 45 115 120v375h145v-375c0 -155 -105 -260 -260 -260zM165 695l70 130h135l-100 -130h-105zM340 695l70 130h135l-100 -130h-105z" />
    <glyph glyph-name="uhungarumlaut" unicode="&#x171;" 
d="M230 -5c-110 0 -185 75 -185 195v270h135v-245c0 -60 35 -95 85 -95s85 35 85 95v245h135v-460h-100l-20 45s-55 -50 -135 -50zM120 515l70 130h135l-100 -130h-105zM295 515l70 130h135l-100 -130h-105z" />
    <glyph glyph-name="Uogonek" unicode="&#x172;" horiz-adv-x="620" 
d="M350 -190c-70 0 -110 40 -110 90c0 46 31 85 41 96c-139 12 -231 113 -231 259v375h145v-375c0 -75 45 -120 115 -120s115 45 115 120v375h145v-375c0 -138 -84 -237 -211 -256c-5 -7 -29 -43 -29 -74c0 -25 20 -45 45 -45s40 5 40 5v-65s-25 -10 -65 -10z" />
    <glyph glyph-name="uogonek" unicode="&#x173;" 
d="M450 -190c-70 0 -110 40 -110 90c0 55 45 100 45 100l-20 45s-55 -50 -135 -50c-110 0 -185 75 -185 195v270h135v-245c0 -60 35 -95 85 -95s85 35 85 95v245h135v-460h-25s-30 -41 -30 -75c0 -25 20 -45 45 -45s40 5 40 5v-65s-25 -10 -65 -10z" />
    <glyph glyph-name="Wcircumflex" unicode="&#x174;" horiz-adv-x="860" 
d="M205 0l-200 630h140l120 -390l120 390h90l120 -390l120 390h140l-200 -630h-110l-115 370l-115 -370h-110zM270 695l100 130h120l100 -130h-115l-45 60l-45 -60h-115z" />
    <glyph glyph-name="wcircumflex" unicode="&#x175;" horiz-adv-x="700" 
d="M155 0l-155 460h140l80 -270l85 270h90l85 -270l80 270h140l-155 -460h-115l-80 255l-80 -255h-115zM190 515l100 130h120l100 -130h-115l-45 60l-45 -60h-115z" />
    <glyph glyph-name="Ycircumflex" unicode="&#x176;" horiz-adv-x="565" 
d="M210 0v235l-210 395h155l128 -250l127 250h155l-210 -395v-235h-145zM125 695l100 130h120l100 -130h-115l-45 60l-45 -60h-115z" />
    <glyph glyph-name="ycircumflex" unicode="&#x177;" horiz-adv-x="490" 
d="M125 -165c-20 0 -45 5 -45 5v115c55 0 80 25 95 65l-175 440h145l100 -285l100 285h145l-185 -460c-46 -115 -95 -165 -180 -165zM90 515l100 130h120l100 -130h-115l-45 60l-45 -60h-115z" />
    <glyph glyph-name="Ydieresis" unicode="&#x178;" horiz-adv-x="565" 
d="M210 0v235l-210 395h155l128 -250l127 250h155l-210 -395v-235h-145zM190 690c-40 0 -70 30 -70 70s30 70 70 70s70 -30 70 -70s-30 -70 -70 -70zM375 690c-40 0 -70 30 -70 70s30 70 70 70s70 -30 70 -70s-30 -70 -70 -70z" />
    <glyph glyph-name="Zacute" unicode="&#x179;" horiz-adv-x="530" 
d="M30 0v120l270 370h-260v140h445v-120l-270 -370h285v-140h-470zM210 695l65 130h135l-95 -130h-105z" />
    <glyph glyph-name="zacute" unicode="&#x17a;" horiz-adv-x="435" 
d="M30 0v110l190 220h-190v130h365v-110l-190 -220h200v-130h-375zM160 515l65 130h135l-95 -130h-105z" />
    <glyph glyph-name="Zdotaccent" unicode="&#x17b;" horiz-adv-x="530" 
d="M30 0v120l270 370h-260v140h445v-120l-270 -370h285v-140h-470zM265 690c-40 0 -75 35 -75 75s35 75 75 75s75 -35 75 -75s-35 -75 -75 -75z" />
    <glyph glyph-name="zdotaccent" unicode="&#x17c;" horiz-adv-x="435" 
d="M30 0v110l190 220h-190v130h365v-110l-190 -220h200v-130h-375zM220 510c-40 0 -75 35 -75 75s35 75 75 75s75 -35 75 -75s-35 -75 -75 -75z" />
    <glyph glyph-name="Zcaron" unicode="&#x17d;" horiz-adv-x="530" 
d="M30 0v120l270 370h-260v140h445v-120l-270 -370h285v-140h-470zM205 695l-100 130h115l45 -60l45 60h115l-100 -130h-120z" />
    <glyph glyph-name="zcaron" unicode="&#x17e;" horiz-adv-x="435" 
d="M30 0v110l190 220h-190v130h365v-110l-190 -220h200v-130h-375zM155 515l-100 130h115l45 -60l45 60h115l-100 -130h-120z" />
    <glyph glyph-name="uni018F" unicode="&#x18f;" horiz-adv-x="675" 
d="M335 -5c-177 0 -305 130 -305 320c0 20 5 35 5 35h465c-15 85 -80 150 -165 150c-75 0 -110 -35 -135 -75l-155 10c35 105 130 200 290 200c170 0 310 -140 310 -320s-140 -320 -310 -320zM335 130c80 0 135 55 155 120h-305c10 -65 65 -120 150 -120z" />
    <glyph glyph-name="florin" unicode="&#x192;" horiz-adv-x="385" 
d="M15 -165c-35 0 -70 10 -70 10l30 120s15 -5 35 -5c35 0 55 20 65 60l45 245h-75l25 130h75s10 61 15 85c20 100 75 155 185 155c35 0 70 -10 70 -10l-30 -120s-15 5 -35 5c-35 0 -55 -20 -65 -60c-4 -17 -10 -55 -10 -55h95l-25 -130h-95l-50 -275
c-18 -100 -75 -155 -185 -155z" />
    <glyph glyph-name="uni01A0" unicode="&#x1a0;" horiz-adv-x="680" 
d="M340 -5c-170 0 -310 140 -310 320s140 320 310 320c110 0 180 -60 180 -60h25c25 0 40 15 40 35c0 30 -15 55 -15 55h85s20 -25 20 -65c0 -85 -85 -95 -85 -95s60 -75 60 -190c0 -180 -140 -320 -310 -320zM340 135c90 0 165 75 165 180s-75 180 -165 180
s-165 -75 -165 -180s75 -180 165 -180z" />
    <glyph glyph-name="uni01A1" unicode="&#x1a1;" horiz-adv-x="550" 
d="M265 -10c-130 0 -235 105 -235 240s105 240 235 240c95 0 150 -55 150 -55h15c25 0 40 15 40 35c0 30 -15 55 -15 55h85s20 -25 20 -65c0 -85 -90 -95 -90 -95s30 -45 30 -115c0 -135 -105 -240 -235 -240zM265 115c55 0 100 45 100 115s-45 115 -100 115
s-100 -45 -100 -115s45 -115 100 -115z" />
    <glyph glyph-name="uni01AF" unicode="&#x1af;" horiz-adv-x="705" 
d="M310 -5c-155 0 -260 105 -260 260v375h145v-375c0 -75 45 -120 115 -120s115 45 115 120v375h145v-55h15c25 0 40 15 40 35c0 30 -15 55 -15 55h85s20 -25 20 -65c0 -55 -40 -95 -110 -95c-15 0 -35 5 -35 5v-255c0 -155 -105 -260 -260 -260z" />
    <glyph glyph-name="uni01B0" unicode="&#x1b0;" horiz-adv-x="620" 
d="M230 -5c-110 0 -185 75 -185 195v270h135v-245c0 -60 35 -95 85 -95s85 35 85 95v245h135v-45h15c25 0 40 15 40 35c0 30 -15 55 -15 55h85s20 -25 20 -65c0 -55 -40 -95 -110 -95c-15 0 -35 5 -35 5v-350h-100l-20 45s-55 -50 -135 -50z" />
    <glyph glyph-name="Gacute" unicode="&#x1f4;" horiz-adv-x="695" 
d="M340 -5c-170 0 -310 140 -310 320s140 320 310 320c150 0 255 -105 285 -220l-150 -10c-15 45 -60 90 -135 90c-90 0 -165 -75 -165 -180s75 -180 165 -180c80 0 125 45 140 85h-140v120h305v-340h-100l-25 60s-70 -65 -180 -65zM290 695l65 130h135l-95 -130h-105z" />
    <glyph glyph-name="gacute" unicode="&#x1f5;" horiz-adv-x="540" 
d="M260 -170c-170 0 -215 155 -215 155l135 10s20 -45 80 -45c55 0 95 40 95 90v25s-35 -40 -115 -40c-115 0 -210 95 -210 220s95 220 210 220c80 0 130 -50 130 -50l20 45h100v-420c0 -120 -90 -210 -230 -210zM260 150c55 0 95 40 95 95s-40 95 -95 95s-95 -40 -95 -95
s40 -95 95 -95zM220 515l65 130h135l-95 -130h-105z" />
    <glyph glyph-name="Aringacute" unicode="&#x1fa;" horiz-adv-x="590" 
d="M-5 0l225 630h10c-22 17 -35 43 -35 75c0 55 40 95 100 95s100 -40 100 -95c0 -32 -13 -58 -36 -75h11l225 -630h-150l-40 120h-220l-40 -120h-150zM225 245h140l-70 210zM295 670c20 0 35 15 35 35s-15 35 -35 35s-35 -15 -35 -35s15 -35 35 -35zM260 820l55 110h135
l-85 -110h-105z" />
    <glyph glyph-name="aringacute" unicode="&#x1fb;" horiz-adv-x="485" 
d="M185 -5c-100 0 -155 55 -155 130c0 90 65 155 275 155c0 45 -25 70 -60 70c-50 0 -60 -45 -60 -45l-135 10c13 82 69 143 170 153c-43 11 -70 46 -70 92c0 55 40 95 100 95s100 -40 100 -95c0 -46 -28 -82 -73 -92c96 -12 163 -88 163 -188v-280h-100l-20 45
s-55 -50 -135 -50zM220 95c50 0 85 35 85 85v20c-115 0 -140 -25 -140 -60c0 -25 20 -45 55 -45zM250 525c20 0 35 15 35 35s-15 35 -35 35s-35 -15 -35 -35s15 -35 35 -35zM195 670l60 120h140l-90 -120h-110z" />
    <glyph glyph-name="AEacute" unicode="&#x1fc;" horiz-adv-x="855" 
d="M-25 0l325 630h505v-140h-275v-100h250v-140h-250v-110h285v-140h-430v120h-185l-60 -120h-165zM270 260h115v230zM410 695l65 130h135l-95 -130h-105z" />
    <glyph glyph-name="aeacute" unicode="&#x1fd;" horiz-adv-x="785" 
d="M215 -10c-120 0 -185 65 -185 135c0 90 65 155 275 155c0 45 -25 70 -60 70c-50 0 -60 -45 -60 -45l-135 10c15 90 80 155 200 155c105 0 145 -50 145 -50s45 50 140 50c125 0 225 -100 225 -240c0 -25 -5 -45 -5 -45h-315s20 -70 95 -70c50 0 70 30 70 30l140 -10
c-25 -75 -100 -145 -215 -145c-100 0 -145 60 -145 60s-60 -60 -170 -60zM220 95c50 0 85 35 85 85v20c-115 0 -140 -25 -140 -60c0 -25 20 -45 55 -45zM440 275h180c-5 40 -40 75 -90 75s-85 -35 -90 -75zM330 515l65 130h135l-95 -130h-105z" />
    <glyph glyph-name="Oslashacute" unicode="&#x1fe;" horiz-adv-x="700" 
d="M350 -5c-100 0 -175 55 -175 55l-55 -50l-95 100l55 55s-40 70 -40 160c0 180 140 320 310 320c100 0 175 -55 175 -55l55 50l95 -100l-55 -55s40 -65 40 -160c0 -180 -140 -320 -310 -320zM350 135c90 0 165 75 165 180c0 40 -5 55 -5 55l-230 -220s25 -15 70 -15z
M190 260l230 220s-25 15 -70 15c-90 0 -165 -75 -165 -180c0 -40 5 -55 5 -55zM300 695l65 130h135l-95 -130h-105z" />
    <glyph glyph-name="oslashacute" unicode="&#x1ff;" horiz-adv-x="540" 
d="M270 -10c-85 0 -135 45 -135 45l-40 -35l-70 75l40 35s-30 50 -30 120c0 135 105 240 235 240c85 0 135 -45 135 -45l40 35l70 -75l-40 -35s30 -55 30 -120c0 -135 -105 -240 -235 -240zM270 115c55 0 100 45 100 115c0 15 -5 30 -5 30l-140 -135s15 -10 45 -10zM175 200
l140 135s-15 10 -45 10c-55 0 -100 -45 -100 -115c0 -15 5 -30 5 -30zM220 515l65 130h135l-95 -130h-105z" />
    <glyph glyph-name="Scommaaccent" unicode="&#x218;" horiz-adv-x="525" 
d="M260 -5c-145 0 -230 85 -230 205l140 10c0 -55 30 -85 90 -85c55 0 85 30 85 65c0 95 -310 40 -310 265c0 95 85 180 225 180c135 0 220 -85 220 -200l-140 -10c0 50 -30 80 -80 80c-45 0 -75 -30 -75 -60c0 -90 310 -35 310 -265c0 -100 -85 -185 -235 -185zM240 -290
l-20 30s40 25 50 65c-40 0 -70 30 -70 70s30 70 70 70s70 -30 70 -75c0 -105 -100 -160 -100 -160z" />
    <glyph glyph-name="scommaaccent" unicode="&#x219;" horiz-adv-x="445" 
d="M230 -10c-125 0 -185 60 -200 150l130 10c5 -30 25 -50 60 -50s55 20 55 40c0 50 -235 25 -235 190c0 75 65 140 175 140c120 0 180 -60 195 -140l-130 -10c-5 20 -25 40 -55 40s-45 -15 -45 -35c0 -50 235 -25 235 -190c0 -75 -70 -145 -185 -145zM195 -290l-20 30
s40 25 50 65c-40 0 -70 30 -70 70s30 70 70 70s70 -30 70 -75c0 -105 -100 -160 -100 -160z" />
    <glyph glyph-name="uni021A" unicode="&#x21a;" horiz-adv-x="525" 
d="M190 0v490h-180v140h505v-140h-180v-490h-145zM235 -290l-20 30s40 25 50 65c-40 0 -70 30 -70 70s30 70 70 70s70 -30 70 -75c0 -105 -100 -160 -100 -160z" />
    <glyph glyph-name="uni021B" unicode="&#x21b;" horiz-adv-x="365" 
d="M255 -5c-105 0 -165 60 -165 170v170h-70v115h35c35 0 55 20 55 55v65h115v-110h95v-125h-95v-150c0 -40 25 -65 60 -65c20 0 35 5 35 5v-120s-27 -10 -65 -10zM180 -290l-20 30s40 25 50 65c-40 0 -70 30 -70 70s30 70 70 70s70 -30 70 -75c0 -105 -100 -160 -100 -160z
" />
    <glyph glyph-name="uni0232" unicode="&#x232;" horiz-adv-x="565" 
d="M210 0v235l-210 395h155l128 -250l127 250h155l-210 -395v-235h-145zM150 700v105h265v-105h-265z" />
    <glyph glyph-name="uni0233" unicode="&#x233;" horiz-adv-x="490" 
d="M125 -165c-20 0 -45 5 -45 5v115c55 0 80 25 95 65l-175 440h145l100 -285l100 285h145l-185 -460c-46 -115 -95 -165 -180 -165zM115 520v105h265v-105h-265z" />
    <glyph glyph-name="uni0244" unicode="&#x244;" horiz-adv-x="680" 
d="M340 -5c-155 0 -260 105 -260 260v70h-70v115h70v190h145v-190h230v190h145v-190h70v-115h-70v-70c0 -155 -105 -260 -260 -260zM340 135c70 0 115 45 115 120v70h-230v-70c0 -75 45 -120 115 -120z" />
    <glyph glyph-name="uni0259" unicode="&#x259;" horiz-adv-x="515" 
d="M250 -10c-125 0 -225 95 -225 240c0 20 5 45 5 45h315c-10 35 -45 70 -95 70s-70 -30 -70 -30l-140 10c25 75 95 145 215 145c125 0 230 -105 230 -240s-105 -240 -235 -240zM250 115c50 0 85 35 95 75h-190c10 -40 45 -75 95 -75z" />
    <glyph glyph-name="uni0289" unicode="&#x289;" horiz-adv-x="560" 
d="M245 -5c-110 0 -185 75 -185 195v40h-50v100h50v130h135v-130h170v130h135v-130h50v-100h-50v-230h-100l-20 45s-55 -50 -135 -50zM280 120c50 0 85 35 85 95v15h-170v-15c0 -60 35 -95 85 -95z" />
    <glyph glyph-name="afii57929" unicode="&#x2bc;" horiz-adv-x="200" 
d="M70 405l-20 30s40 25 50 65c-40 0 -70 30 -70 70s30 70 70 70s70 -30 70 -75c0 -105 -100 -160 -100 -160z" />
    <glyph glyph-name="circumflex" unicode="&#x2c6;" horiz-adv-x="380" 
d="M30 505l100 130h120l100 -130h-115l-45 60l-45 -60h-115z" />
    <glyph glyph-name="caron" unicode="&#x2c7;" horiz-adv-x="380" 
d="M130 505l-100 130h115l45 -60l45 60h115l-100 -130h-120z" />
    <glyph glyph-name="breve" unicode="&#x2d8;" horiz-adv-x="350" 
d="M175 505c-80 0 -135 55 -145 130h95c5 -30 25 -50 50 -50s45 20 50 50h95c-10 -75 -65 -130 -145 -130z" />
    <glyph glyph-name="dotaccent" unicode="&#x2d9;" horiz-adv-x="210" 
d="M105 505c-40 0 -75 35 -75 75s35 75 75 75s75 -35 75 -75s-35 -75 -75 -75z" />
    <glyph glyph-name="ring" unicode="&#x2da;" horiz-adv-x="260" 
d="M130 485c-60 0 -100 40 -100 95s40 95 100 95s100 -40 100 -95s-40 -95 -100 -95zM130 545c20 0 35 15 35 35s-15 35 -35 35s-35 -15 -35 -35s15 -35 35 -35z" />
    <glyph glyph-name="ogonek" unicode="&#x2db;" horiz-adv-x="235" 
d="M140 -190c-70 0 -110 40 -110 90c0 55 45 100 45 100h75s-30 -41 -30 -75c0 -25 20 -45 45 -45s40 5 40 5v-65s-25 -10 -65 -10z" />
    <glyph glyph-name="tilde" unicode="&#x2dc;" horiz-adv-x="370" 
d="M105 505l-75 10c0 85 40 125 90 125c60 0 80 -45 110 -45c20 0 35 15 35 45l75 -10c0 -85 -40 -125 -90 -125c-60 0 -80 45 -110 45c-19 0 -35 -15 -35 -45z" />
    <glyph glyph-name="hungarumlaut" unicode="&#x2dd;" horiz-adv-x="440" 
d="M30 505l70 130h135l-100 -130h-105zM205 505l70 130h135l-100 -130h-105z" />
    <glyph glyph-name="acutecomb" unicode="&#x301;" horiz-adv-x="0" 
d="M-380 695l65 130h135l-95 -130h-105z" />
    <glyph glyph-name="uni0302" unicode="&#x302;" horiz-adv-x="0" 
d="M-485 695l100 130h120l100 -130h-115l-45 60l-45 -60h-115z" />
    <glyph glyph-name="uni0304" unicode="&#x304;" horiz-adv-x="0" 
d="M-460 700v105h265v-105h-265z" />
    <glyph glyph-name="uni0306" unicode="&#x306;" horiz-adv-x="0" 
d="M-330 690c-80 0 -135 55 -145 130h95c5 -30 25 -50 50 -50s45 20 50 50h95c-10 -75 -65 -130 -145 -130z" />
    <glyph glyph-name="uni0308" unicode="&#x308;" horiz-adv-x="0" 
d="M-420 690c-40 0 -70 30 -70 70s30 70 70 70s70 -30 70 -70s-30 -70 -70 -70zM-235 690c-40 0 -70 30 -70 70s30 70 70 70s70 -30 70 -70s-30 -70 -70 -70z" />
    <glyph glyph-name="uni0309" unicode="&#x309;" horiz-adv-x="225" 
d="M80 520c0 0 25 30 25 60c0 25 -20 45 -50 45c-15 0 -25 -5 -25 -5v65s20 10 55 10c70 0 110 -40 110 -90c0 -55 -40 -85 -40 -85h-75z" />
    <glyph glyph-name="uni030A" unicode="&#x30a;" horiz-adv-x="0" 
d="M-325 670c-60 0 -100 40 -100 95s40 95 100 95s100 -40 100 -95s-40 -95 -100 -95zM-325 730c20 0 35 15 35 35s-15 35 -35 35s-35 -15 -35 -35s15 -35 35 -35z" />
    <glyph glyph-name="uni030C" unicode="&#x30c;" horiz-adv-x="0" 
d="M-385 695l-100 130h115l45 -60l45 60h115l-100 -130h-120z" />
    <glyph glyph-name="uni031B" unicode="&#x31b;" horiz-adv-x="205" 
d="M65 345c-15 0 -35 5 -35 5v65h15c25 0 40 15 40 35c0 30 -15 55 -15 55h85s20 -25 20 -65c0 -55 -40 -95 -110 -95z" />
    <glyph glyph-name="uni0323" unicode="&#x323;" horiz-adv-x="210" 
d="M105 -185c-40 0 -75 35 -75 75s35 75 75 75s75 -35 75 -75s-35 -75 -75 -75z" />
    <glyph glyph-name="uni0400" unicode="&#x400;" horiz-adv-x="560" 
d="M60 0v630h450v-140h-305v-100h280v-140h-280v-110h315v-140h-460zM250 695l-95 130h135l65 -130h-105z" />
    <glyph glyph-name="afii10023" unicode="&#x401;" horiz-adv-x="560" 
d="M60 0v630h450v-140h-305v-100h280v-140h-280v-110h315v-140h-460zM200 690c-40 0 -70 30 -70 70s30 70 70 70s70 -30 70 -70s-30 -70 -70 -70zM385 690c-40 0 -70 30 -70 70s30 70 70 70s70 -30 70 -70s-30 -70 -70 -70z" />
    <glyph glyph-name="afii10051" unicode="&#x402;" horiz-adv-x="660" 
d="M370 -50v135c75 0 115 40 115 100s-40 100 -100 100s-100 -40 -100 -100v-185h-145v490h-135v140h420v-140h-140v-130s45 55 135 55c125 0 210 -85 210 -230s-90 -235 -260 -235z" />
    <glyph glyph-name="afii10052" unicode="&#x403;" horiz-adv-x="480" 
d="M60 0v630h410v-140h-265v-490h-145zM210 695l65 130h135l-95 -130h-105z" />
    <glyph glyph-name="afii10053" unicode="&#x404;" horiz-adv-x="645" 
d="M340 -5c-170 0 -310 140 -310 320s140 320 310 320c150 0 250 -100 280 -215l-150 -10c-20 45 -60 85 -130 85c-80 0 -140 -60 -155 -120h205v-120h-205c20 -65 75 -120 155 -120c75 0 115 40 135 80l150 -10c-30 -110 -130 -210 -285 -210z" />
    <glyph glyph-name="afii10054" unicode="&#x405;" horiz-adv-x="525" 
d="M260 -5c-145 0 -230 85 -230 205l140 10c0 -55 30 -85 90 -85c55 0 85 30 85 65c0 95 -310 40 -310 265c0 95 85 180 225 180c135 0 220 -85 220 -200l-140 -10c0 50 -30 80 -80 80c-45 0 -75 -30 -75 -60c0 -90 310 -35 310 -265c0 -100 -85 -185 -235 -185z" />
    <glyph glyph-name="afii10055" unicode="&#x406;" horiz-adv-x="265" 
d="M60 0v630h145v-630h-145z" />
    <glyph glyph-name="afii10056" unicode="&#x407;" horiz-adv-x="265" 
d="M60 0v630h145v-630h-145zM40 690c-40 0 -70 30 -70 70s30 70 70 70s70 -30 70 -70s-30 -70 -70 -70zM225 690c-40 0 -70 30 -70 70s30 70 70 70s70 -30 70 -70s-30 -70 -70 -70z" />
    <glyph glyph-name="afii10057" unicode="&#x408;" horiz-adv-x="485" 
d="M220 -5c-130 0 -215 85 -215 205c48 3 145 10 145 10c0 -45 30 -75 70 -75s70 30 70 75v420h145v-420c0 -130 -85 -215 -215 -215z" />
    <glyph glyph-name="afii10058" unicode="&#x409;" horiz-adv-x="920" 
d="M60 -5c-31 0 -60 5 -60 5v125h20c45 0 80 35 85 95l35 410h430v-200h105c130 0 225 -95 225 -215s-95 -215 -225 -215h-250v490h-155l-25 -300c-10 -125 -80 -195 -185 -195zM570 140h105c45 0 80 35 80 75s-35 75 -80 75h-105v-150z" />
    <glyph glyph-name="afii10059" unicode="&#x40a;" horiz-adv-x="925" 
d="M60 0v630h145v-200h225v200h145v-200h105c130 0 225 -95 225 -215s-95 -215 -225 -215h-250v290h-225v-290h-145zM575 140h105c45 0 80 35 80 75s-35 75 -80 75h-105v-150z" />
    <glyph glyph-name="afii10060" unicode="&#x40b;" horiz-adv-x="665" 
d="M140 0v490h-135v140h420v-140h-140v-130s45 55 135 55c115 0 200 -85 200 -230v-185h-145v185c0 60 -40 100 -95 100s-95 -40 -95 -100v-185h-145z" />
    <glyph glyph-name="afii10061" unicode="&#x40c;" horiz-adv-x="565" 
d="M60 0v630h145v-270l190 270h165l-222 -310l237 -320h-165l-205 280v-280h-145zM245 695l65 130h135l-95 -130h-105z" />
    <glyph glyph-name="uni040D" unicode="&#x40d;" horiz-adv-x="650" 
d="M60 0v630h145v-375l255 375h130v-630h-145v375l-255 -375h-130zM285 695l-95 130h135l65 -130h-105z" />
    <glyph glyph-name="afii10062" unicode="&#x40e;" horiz-adv-x="545" 
d="M140 -10c-35 0 -65 10 -65 10v130s20 -5 45 -5c60 0 85 55 85 55l-205 450h150l125 -280l125 280h150l-200 -450c-65 -145 -110 -190 -210 -190zM275 690c-80 0 -135 55 -145 130h95c5 -30 25 -50 50 -50s45 20 50 50h95c-10 -75 -65 -130 -145 -130z" />
    <glyph glyph-name="afii10145" unicode="&#x40f;" horiz-adv-x="645" 
d="M250 -120v120h-190v630h145v-490h235v490h145v-630h-190v-120h-145z" />
    <glyph glyph-name="afii10017" unicode="&#x410;" horiz-adv-x="590" 
d="M-5 0l225 630h150l225 -630h-150l-40 120h-220l-40 -120h-150zM225 245h140l-70 210z" />
    <glyph glyph-name="afii10018" unicode="&#x411;" horiz-adv-x="580" 
d="M60 0v630h440v-140h-295v-90h125c130 0 220 -90 220 -200s-90 -200 -220 -200h-270zM205 125h120c45 0 80 35 80 75s-35 75 -80 75h-120v-150z" />
    <glyph glyph-name="afii10019" unicode="&#x412;" horiz-adv-x="580" 
d="M60 0v630h270c115 0 195 -80 195 -175c0 -85 -75 -120 -75 -120s100 -40 100 -150c0 -100 -85 -185 -205 -185h-285zM205 120h125c45 0 80 35 80 75s-35 75 -80 75h-125v-150zM205 380h110c40 0 70 30 70 65s-30 65 -70 65h-110v-130z" />
    <glyph glyph-name="afii10020" unicode="&#x413;" horiz-adv-x="480" 
d="M60 0v630h410v-140h-265v-490h-145z" />
    <glyph glyph-name="afii10021" unicode="&#x414;" horiz-adv-x="655" 
d="M0 -120v260h40s56 20 65 100l45 390h420v-490h70v-260h-145v120h-350v-120h-145zM195 140h230v350h-150l-30 -250c-10 -80 -50 -100 -50 -100z" />
    <glyph glyph-name="afii10022" unicode="&#x415;" horiz-adv-x="560" 
d="M60 0v630h450v-140h-305v-100h280v-140h-280v-110h315v-140h-460z" />
    <glyph glyph-name="afii10024" unicode="&#x416;" horiz-adv-x="815" 
d="M-10 0l212 320l-197 310h165l165 -270v270h145v-270l165 270h165l-197 -310l212 -320h-165l-180 280v-280h-145v280l-180 -280h-165z" />
    <glyph glyph-name="afii10025" unicode="&#x417;" horiz-adv-x="525" 
d="M265 -5c-150 0 -235 85 -245 195l145 10c10 -40 45 -75 95 -75c55 0 85 30 85 70c0 35 -30 65 -85 65h-65v120h60c55 0 80 25 80 60s-30 65 -80 65c-45 0 -75 -30 -80 -70l-145 10c5 105 90 190 230 190c135 0 220 -85 220 -175s-84 -130 -84 -130s99 -40 99 -155
c0 -95 -85 -180 -230 -180z" />
    <glyph glyph-name="afii10026" unicode="&#x418;" horiz-adv-x="650" 
d="M60 0v630h145v-375l255 375h130v-630h-145v375l-255 -375h-130z" />
    <glyph glyph-name="afii10027" unicode="&#x419;" horiz-adv-x="650" 
d="M60 0v630h145v-375l255 375h130v-630h-145v375l-255 -375h-130zM325 690c-80 0 -135 55 -145 130h95c5 -30 25 -50 50 -50s45 20 50 50h95c-10 -75 -65 -130 -145 -130z" />
    <glyph glyph-name="afii10028" unicode="&#x41a;" horiz-adv-x="565" 
d="M60 0v630h145v-270l190 270h165l-222 -310l237 -320h-165l-205 280v-280h-145z" />
    <glyph glyph-name="afii10029" unicode="&#x41b;" horiz-adv-x="645" 
d="M60 -5c-31 0 -60 5 -60 5v125h20c45 0 80 35 85 95l35 410h445v-630h-145v490h-170l-25 -300c-10 -125 -80 -195 -185 -195z" />
    <glyph glyph-name="afii10030" unicode="&#x41c;" horiz-adv-x="790" 
d="M60 0v630h130l205 -445l205 445h130v-630h-145v315l-145 -315h-90l-145 315v-315h-145z" />
    <glyph glyph-name="afii10031" unicode="&#x41d;" horiz-adv-x="650" 
d="M60 0v630h145v-240h240v240h145v-630h-145v250h-240v-250h-145z" />
    <glyph glyph-name="afii10032" unicode="&#x41e;" horiz-adv-x="680" 
d="M340 -5c-170 0 -310 140 -310 320s140 320 310 320s310 -140 310 -320s-140 -320 -310 -320zM340 135c90 0 165 75 165 180s-75 180 -165 180s-165 -75 -165 -180s75 -180 165 -180z" />
    <glyph glyph-name="afii10033" unicode="&#x41f;" horiz-adv-x="655" 
d="M60 0v630h535v-630h-145v490h-245v-490h-145z" />
    <glyph glyph-name="afii10034" unicode="&#x420;" horiz-adv-x="560" 
d="M60 0v630h245c130 0 225 -95 225 -215s-95 -215 -225 -215h-100v-200h-145zM205 340h100c45 0 80 35 80 75s-35 75 -80 75h-100v-150z" />
    <glyph glyph-name="afii10035" unicode="&#x421;" horiz-adv-x="650" 
d="M340 -5c-170 0 -310 140 -310 320s140 320 310 320c150 0 255 -105 285 -225l-150 -10c-15 50 -60 95 -135 95c-90 0 -165 -75 -165 -180s75 -180 165 -180c80 0 125 45 140 95l150 -10c-30 -120 -135 -225 -290 -225z" />
    <glyph glyph-name="afii10036" unicode="&#x422;" horiz-adv-x="525" 
d="M190 0v490h-180v140h505v-140h-180v-490h-145z" />
    <glyph glyph-name="afii10037" unicode="&#x423;" horiz-adv-x="545" 
d="M140 -10c-35 0 -65 10 -65 10v130s20 -5 45 -5c60 0 85 55 85 55l-205 450h150l125 -280l125 280h150l-200 -450c-65 -145 -110 -190 -210 -190z" />
    <glyph glyph-name="afii10038" unicode="&#x424;" horiz-adv-x="755" 
d="M305 -5v75c-170 10 -280 120 -280 255s110 245 280 255v55h145v-55c170 -10 280 -120 280 -255s-110 -245 -280 -255v-75h-145zM305 205v240c-85 -5 -135 -55 -135 -120s50 -115 135 -120zM450 205c85 5 135 55 135 120s-50 115 -135 120v-240z" />
    <glyph glyph-name="afii10039" unicode="&#x425;" horiz-adv-x="580" 
d="M0 0l200 320l-190 310h160l120 -205l120 205h160l-190 -310l200 -320h-160l-130 215l-130 -215h-160z" />
    <glyph glyph-name="afii10040" unicode="&#x426;" horiz-adv-x="660" 
d="M500 -120v120h-440v630h145v-490h225v490h145v-490h70v-260h-145z" />
    <glyph glyph-name="afii10041" unicode="&#x427;" horiz-adv-x="615" 
d="M410 0v210s-60 -35 -135 -35c-135 0 -225 90 -225 225v230h145v-220c0 -70 35 -105 105 -105c60 0 110 30 110 30v295h145v-630h-145z" />
    <glyph glyph-name="afii10042" unicode="&#x428;" horiz-adv-x="875" 
d="M60 0v630h145v-490h160v490h145v-490h160v490h145v-630h-755z" />
    <glyph glyph-name="afii10043" unicode="&#x429;" horiz-adv-x="900" 
d="M740 -120v120h-680v630h145v-490h160v490h145v-490h160v490h145v-490h70v-260h-145z" />
    <glyph glyph-name="afii10044" unicode="&#x42a;" horiz-adv-x="620" 
d="M125 0v490h-125v140h270v-200h105c130 0 225 -95 225 -215s-95 -215 -225 -215h-250zM270 140h105c45 0 80 35 80 75s-35 75 -80 75h-105v-150z" />
    <glyph glyph-name="afii10045" unicode="&#x42b;" horiz-adv-x="790" 
d="M60 0v630h145v-200h95c130 0 225 -95 225 -215s-95 -215 -225 -215h-240zM205 140h95c45 0 80 35 80 75s-35 75 -80 75h-95v-150zM585 0v630h145v-630h-145z" />
    <glyph glyph-name="afii10046" unicode="&#x42c;" horiz-adv-x="555" 
d="M60 0v630h145v-200h105c130 0 225 -95 225 -215s-95 -215 -225 -215h-250zM205 140h105c45 0 80 35 80 75s-35 75 -80 75h-105v-150z" />
    <glyph glyph-name="afii10047" unicode="&#x42d;" horiz-adv-x="645" 
d="M305 -5c-155 0 -255 100 -285 210l150 10c20 -40 60 -80 135 -80c80 0 135 55 155 120h-205v120h205c-15 60 -75 120 -155 120c-70 0 -110 -40 -130 -85l-150 10c30 115 130 215 280 215c170 0 310 -140 310 -320s-140 -320 -310 -320z" />
    <glyph glyph-name="afii10048" unicode="&#x42e;" horiz-adv-x="885" 
d="M560 -5c-150 0 -255 110 -285 245h-70v-240h-145v630h145v-250h65c25 140 140 255 290 255c160 0 295 -135 295 -320s-135 -320 -295 -320zM560 135c80 0 150 70 150 180s-70 180 -150 180s-150 -70 -150 -180s70 -180 150 -180z" />
    <glyph glyph-name="afii10049" unicode="&#x42f;" horiz-adv-x="575" 
d="M15 0l145 245c-1 0 -115 45 -115 185c0 110 90 200 220 200h250v-630h-145v210h-75l-120 -210h-160zM265 350h105v140h-105c-50 0 -80 -30 -80 -70s30 -70 80 -70z" />
    <glyph glyph-name="afii10065" unicode="&#x430;" horiz-adv-x="485" 
d="M185 -5c-100 0 -155 55 -155 130c0 90 65 155 275 155c0 45 -25 70 -60 70c-50 0 -60 -45 -60 -45l-135 10c15 90 80 155 200 155c110 0 190 -80 190 -190v-280h-100l-20 45s-55 -50 -135 -50zM220 95c50 0 85 35 85 85v20c-115 0 -140 -25 -140 -60c0 -25 20 -45 55 -45
z" />
    <glyph glyph-name="afii10066" unicode="&#x431;" horiz-adv-x="540" 
d="M275 -10c-135 0 -240 105 -240 290c0 260 105 365 410 370v-120c-200 -5 -255 -55 -280 -150c0 0 47 60 135 60c120 0 210 -90 210 -225c0 -125 -100 -225 -235 -225zM275 115c55 0 100 45 100 100s-45 100 -100 100s-100 -45 -100 -100s45 -100 100 -100z" />
    <glyph glyph-name="afii10067" unicode="&#x432;" horiz-adv-x="475" 
d="M50 0v460h235c95 0 150 -55 150 -125c0 -65 -55 -95 -55 -95s70 -30 70 -110c0 -70 -60 -130 -150 -130h-250zM185 100h85c25 0 45 20 45 45s-20 45 -45 45h-85v-90zM185 280h70c30 0 45 15 45 40s-15 40 -45 40h-70v-80z" />
    <glyph glyph-name="afii10068" unicode="&#x433;" horiz-adv-x="390" 
d="M50 0v460h330v-130h-195v-330h-135z" />
    <glyph glyph-name="afii10069" unicode="&#x434;" horiz-adv-x="525" 
d="M0 -100v230h32s42 15 48 70l30 260h345v-330h60v-230h-135v100h-245v-100h-135zM175 130h145v200h-95l-15 -130c-6 -55 -35 -70 -35 -70z" />
    <glyph glyph-name="afii10070" unicode="&#x435;" horiz-adv-x="515" 
d="M260 -10c-125 0 -230 105 -230 240s105 240 235 240c125 0 225 -95 225 -240c0 -20 -5 -45 -5 -45h-315c10 -35 45 -70 95 -70s70 30 70 30l140 -10c-25 -75 -95 -145 -215 -145zM170 270h190c-10 40 -45 75 -95 75s-85 -35 -95 -75z" />
    <glyph glyph-name="afii10072" unicode="&#x436;" horiz-adv-x="685" 
d="M-5 0l165 240l-155 220h155l115 -185v185h135v-185l115 185h155l-155 -220l165 -240h-155l-125 205v-205h-135v205l-125 -205h-155z" />
    <glyph glyph-name="afii10073" unicode="&#x437;" horiz-adv-x="440" 
d="M220 -10c-120 0 -190 70 -200 155c1 0 125 10 125 10c5 -30 30 -55 65 -55c40 0 60 20 60 45c0 20 -20 40 -60 40h-45v95h45c30 0 50 20 50 40s-20 40 -50 40c-35 0 -55 -20 -60 -45l-125 10c20 90 75 145 195 145c110 0 180 -70 180 -140c0 -75 -60 -95 -60 -95
s70 -30 70 -100c0 -75 -70 -145 -190 -145z" />
    <glyph glyph-name="afii10074" unicode="&#x438;" 
d="M50 0v460h135v-255l175 255h125v-460h-135v255l-175 -255h-125z" />
    <glyph glyph-name="afii10075" unicode="&#x439;" 
d="M50 0v460h135v-255l175 255h125v-460h-135v255l-175 -255h-125zM270 505c-80 0 -135 55 -145 130h95c5 -30 25 -50 50 -50s45 20 50 50h95c-10 -75 -65 -130 -145 -130z" />
    <glyph glyph-name="afii10076" unicode="&#x43a;" horiz-adv-x="475" 
d="M50 0v460h135v-185l125 185h155l-155 -220l170 -240h-155l-140 205v-205h-135z" />
    <glyph glyph-name="afii10077" unicode="&#x43b;" horiz-adv-x="510" 
d="M40 -5c-25 0 -40 5 -40 5v115h15c40 0 55 15 60 65l25 280h360v-460h-135v330h-105l-15 -180c-8 -100 -65 -155 -165 -155z" />
    <glyph glyph-name="afii10078" unicode="&#x43c;" horiz-adv-x="630" 
d="M50 0v460h135l130 -275l130 275h135v-460h-135v220l-105 -220h-50l-105 220v-220h-135z" />
    <glyph glyph-name="afii10079" unicode="&#x43d;" horiz-adv-x="530" 
d="M50 0v460h135v-165h160v165h135v-460h-135v165h-160v-165h-135z" />
    <glyph glyph-name="afii10080" unicode="&#x43e;" horiz-adv-x="530" 
d="M265 -10c-130 0 -235 105 -235 240s105 240 235 240s235 -105 235 -240s-105 -240 -235 -240zM265 115c55 0 100 45 100 115s-45 115 -100 115s-100 -45 -100 -115s45 -115 100 -115z" />
    <glyph glyph-name="afii10081" unicode="&#x43f;" horiz-adv-x="530" 
d="M50 0v460h430v-460h-135v330h-160v-330h-135z" />
    <glyph glyph-name="afii10082" unicode="&#x440;" horiz-adv-x="545" 
d="M50 -160v620h100l20 -45s50 50 130 50c115 0 215 -100 215 -235s-100 -235 -215 -235c-70 0 -115 40 -115 40v-195h-135zM280 120c55 0 100 45 100 110s-45 110 -100 110s-100 -45 -100 -110s45 -110 100 -110z" />
    <glyph glyph-name="afii10083" unicode="&#x441;" horiz-adv-x="510" 
d="M265 -10c-130 0 -235 105 -235 240s105 240 235 240c185 0 220 -180 220 -180l-135 -10s-20 65 -85 65c-55 0 -100 -45 -100 -115s45 -115 100 -115c65 0 85 65 85 65l135 -10s-35 -180 -220 -180z" />
    <glyph glyph-name="afii10084" unicode="&#x442;" horiz-adv-x="425" 
d="M145 0v330h-135v130h405v-130h-135v-330h-135z" />
    <glyph glyph-name="afii10085" unicode="&#x443;" horiz-adv-x="490" 
d="M125 -165c-20 0 -45 5 -45 5v115c55 0 80 25 95 65l-175 440h145l100 -285l100 285h145l-185 -460c-46 -115 -95 -165 -180 -165z" />
    <glyph glyph-name="afii10086" unicode="&#x444;" horiz-adv-x="755" 
d="M310 -160v180s-35 -25 -90 -25c-100 0 -190 90 -190 235s90 235 190 235c55 0 90 -25 90 -25v190h135v-190s35 25 90 25c100 0 190 -90 190 -235s-90 -235 -190 -235c-55 0 -90 25 -90 25v-180h-135zM250 120c35 0 60 20 60 20v180s-25 20 -60 20c-45 0 -85 -40 -85 -110
s40 -110 85 -110zM505 120c45 0 85 40 85 110s-40 110 -85 110c-35 0 -60 -20 -60 -20v-180s25 -20 60 -20z" />
    <glyph glyph-name="afii10087" unicode="&#x445;" horiz-adv-x="460" 
d="M-5 0l150 235l-140 225h150l75 -130l75 130h150l-140 -225l150 -235h-150l-85 140l-85 -140h-150z" />
    <glyph glyph-name="afii10088" unicode="&#x446;" horiz-adv-x="540" 
d="M395 -100v100h-345v460h135v-330h150v330h135v-330h60v-230h-135z" />
    <glyph glyph-name="afii10089" unicode="&#x447;" horiz-adv-x="505" 
d="M320 0v145s-50 -25 -110 -25c-100 0 -170 70 -170 180v160h135v-140c0 -45 30 -75 70 -75c45 0 75 25 75 25v190h135v-460h-135z" />
    <glyph glyph-name="afii10090" unicode="&#x448;" horiz-adv-x="715" 
d="M50 0v460h135v-330h105v330h135v-330h105v330h135v-460h-615z" />
    <glyph glyph-name="afii10091" unicode="&#x449;" horiz-adv-x="735" 
d="M590 -100v100h-540v460h135v-330h105v330h135v-330h105v330h135v-330h60v-230h-135z" />
    <glyph glyph-name="afii10092" unicode="&#x44a;" horiz-adv-x="520" 
d="M105 0v330h-95v130h230v-140h95c95 0 165 -70 165 -160s-70 -160 -165 -160h-230zM240 110h70c35 0 55 20 55 50s-20 50 -55 50h-70v-100z" />
    <glyph glyph-name="afii10093" unicode="&#x44b;" horiz-adv-x="660" 
d="M50 0v460h135v-140h85c95 0 165 -70 165 -160s-70 -160 -165 -160h-220zM185 110h60c35 0 55 20 55 50s-20 50 -55 50h-60v-100zM475 0v460h135v-460h-135z" />
    <glyph glyph-name="afii10094" unicode="&#x44c;" horiz-adv-x="465" 
d="M50 0v460h135v-140h95c95 0 165 -70 165 -160s-70 -160 -165 -160h-230zM185 110h70c35 0 55 20 55 50s-20 50 -55 50h-70v-100z" />
    <glyph glyph-name="afii10095" unicode="&#x44d;" horiz-adv-x="505" 
d="M240 -10c-180 0 -215 170 -215 170l135 10s20 -55 80 -55c70 0 91 65 90 65h-130v95h130s-15 70 -90 70c-60 0 -80 -55 -80 -55l-135 10s35 170 215 170c130 0 235 -105 235 -240s-105 -240 -235 -240z" />
    <glyph glyph-name="afii10096" unicode="&#x44e;" horiz-adv-x="705" 
d="M450 -10c-110 0 -190 80 -215 175h-50v-165h-135v460h135v-174h45c20 94 110 184 220 184c120 0 225 -105 225 -240s-105 -240 -225 -240zM450 115c45 0 90 45 90 115s-45 115 -90 115s-90 -45 -90 -115s45 -115 90 -115z" />
    <glyph glyph-name="afii10097" unicode="&#x44f;" horiz-adv-x="485" 
d="M15 0l105 165s-80 35 -80 135c0 90 70 160 165 160h230v-460h-135v140h-55l-85 -140h-145zM230 250h80v100h-80c-35 0 -55 -20 -55 -50s20 -50 55 -50z" />
    <glyph glyph-name="uni0450" unicode="&#x450;" horiz-adv-x="515" 
d="M260 -10c-125 0 -230 105 -230 240s105 240 235 240c125 0 225 -95 225 -240c0 -20 -5 -45 -5 -45h-315c10 -35 45 -70 95 -70s70 30 70 30l140 -10c-25 -75 -95 -145 -215 -145zM170 270h190c-10 40 -45 75 -95 75s-85 -35 -95 -75zM215 515l-95 130h135l65 -130h-105z
" />
    <glyph glyph-name="afii10071" unicode="&#x451;" horiz-adv-x="515" 
d="M260 -10c-125 0 -230 105 -230 240s105 240 235 240c125 0 225 -95 225 -240c0 -20 -5 -45 -5 -45h-315c10 -35 45 -70 95 -70s70 30 70 30l140 -10c-25 -75 -95 -145 -215 -145zM170 270h190c-10 40 -45 75 -95 75s-85 -35 -95 -75zM170 510c-40 0 -70 30 -70 70
s30 70 70 70s70 -30 70 -70s-30 -70 -70 -70zM355 510c-40 0 -70 30 -70 70s30 70 70 70s70 -30 70 -70s-30 -70 -70 -70z" />
    <glyph glyph-name="afii10099" unicode="&#x452;" horiz-adv-x="550" 
d="M280 -60v130c60 0 100 40 100 120c0 70 -35 105 -85 105s-85 -35 -85 -95v-200h-135v460h-70v110h70v60h135v-60h110v-110h-110v-90s40 50 130 50c105 0 180 -75 180 -230c0 -160 -90 -250 -240 -250z" />
    <glyph glyph-name="afii10100" unicode="&#x453;" horiz-adv-x="390" 
d="M50 0v460h330v-130h-195v-330h-135zM160 515l65 130h135l-95 -130h-105z" />
    <glyph glyph-name="afii10101" unicode="&#x454;" horiz-adv-x="505" 
d="M265 -10c-130 0 -235 105 -235 240s105 240 235 240c180 0 215 -170 215 -170l-135 -10s-20 55 -80 55c-75 0 -90 -70 -90 -70h130v-95h-130s20 -65 90 -65c60 0 80 55 80 55l135 -10s-35 -170 -215 -170z" />
    <glyph glyph-name="afii10102" unicode="&#x455;" horiz-adv-x="445" 
d="M230 -10c-125 0 -185 60 -200 150l130 10c5 -30 25 -50 60 -50s55 20 55 40c0 50 -235 25 -235 190c0 75 65 140 175 140c120 0 180 -60 195 -140l-130 -10c-5 20 -25 40 -55 40s-45 -15 -45 -35c0 -50 235 -25 235 -190c0 -75 -70 -145 -185 -145z" />
    <glyph glyph-name="afii10103" unicode="&#x456;" horiz-adv-x="235" 
d="M50 0v460h135v-460h-135zM120 510c-40 0 -75 35 -75 75s35 75 75 75s75 -35 75 -75s-35 -75 -75 -75z" />
    <glyph glyph-name="afii10104" unicode="&#x457;" horiz-adv-x="235" 
d="M50 0v460h135v-460h-135zM25 510c-40 0 -70 30 -70 70s30 70 70 70s70 -30 70 -70s-30 -70 -70 -70zM210 510c-40 0 -70 30 -70 70s30 70 70 70s70 -30 70 -70s-30 -70 -70 -70z" />
    <glyph glyph-name="afii10105" unicode="&#x458;" horiz-adv-x="235" 
d="M20 -165c-35 0 -65 10 -65 10v120s15 -5 35 -5c35 0 60 25 60 65v435h135v-455c0 -110 -60 -170 -165 -170zM120 510c-40 0 -75 35 -75 75s35 75 75 75s75 -35 75 -75s-35 -75 -75 -75z" />
    <glyph glyph-name="afii10106" unicode="&#x459;" horiz-adv-x="715" 
d="M40 -5c-25 0 -40 5 -40 5v115h15c40 0 55 15 60 65l25 280h340v-150h90c95 0 165 -70 165 -155s-70 -155 -165 -155h-225v330h-85l-15 -180c-8 -100 -65 -155 -165 -155zM440 110h65c35 0 55 20 55 45s-20 45 -55 45h-65v-90z" />
    <glyph glyph-name="afii10107" unicode="&#x45a;" horiz-adv-x="755" 
d="M50 0v460h135v-150h160v150h135v-150h90c95 0 165 -70 165 -155s-70 -155 -165 -155h-225v180h-160v-180h-135zM480 110h65c35 0 55 20 55 45s-20 45 -55 45h-65v-90z" />
    <glyph glyph-name="afii10108" unicode="&#x45b;" horiz-adv-x="560" 
d="M75 0v460h-70v110h70v60h135v-60h110v-110h-110v-90s40 50 130 50c100 0 175 -75 175 -195v-225h-135v200c0 60 -35 95 -85 95s-85 -35 -85 -95v-200h-135z" />
    <glyph glyph-name="afii10109" unicode="&#x45c;" horiz-adv-x="450" 
d="M50 0v460h135v-185l125 185h155l-155 -220l170 -240h-155l-140 205v-205h-135zM190 515l65 130h135l-95 -130h-105z" />
    <glyph glyph-name="uni045D" unicode="&#x45d;" 
d="M50 0v460h135v-255l175 255h125v-460h-135v255l-175 -255h-125zM225 515l-95 130h135l65 -130h-105z" />
    <glyph glyph-name="afii10110" unicode="&#x45e;" horiz-adv-x="490" 
d="M125 -165c-20 0 -45 5 -45 5v115c55 0 80 25 95 65l-175 440h145l100 -285l100 285h145l-185 -460c-46 -115 -95 -165 -180 -165zM245 505c-80 0 -135 55 -145 130h95c5 -30 25 -50 50 -50s45 20 50 50h95c-10 -75 -65 -130 -145 -130z" />
    <glyph glyph-name="afii10193" unicode="&#x45f;" horiz-adv-x="525" 
d="M195 -100v100h-145v460h135v-330h155v330h135v-460h-145v-100h-135z" />
    <glyph glyph-name="uni0462" unicode="&#x462;" horiz-adv-x="620" 
d="M125 0v460h-125v100h125v70h145v-70h155v-100h-155v-50h115c125 0 215 -80 215 -195s-90 -215 -215 -215h-260zM270 130h105c45 0 80 35 80 75s-35 75 -80 75h-105v-150z" />
    <glyph glyph-name="uni0463" unicode="&#x463;" horiz-adv-x="515" 
d="M100 0v380h-95v110h95v140h135v-140h130v-110h-130v-60h95c95 0 165 -70 165 -160s-70 -160 -165 -160h-230zM235 110h70c35 0 55 20 55 50s-20 50 -55 50h-70v-100z" />
    <glyph glyph-name="uni046A" unicode="&#x46a;" horiz-adv-x="815" 
d="M35 0v60c0 165 95 260 215 295l-175 175v100h665v-100l-175 -175c120 -35 215 -130 215 -295v-60h-145v60c0 115 -65 180 -155 190v-250h-145v250c-90 -10 -155 -75 -155 -190v-60h-145zM407 370l148 145h-295z" />
    <glyph glyph-name="uni046B" unicode="&#x46b;" horiz-adv-x="645" 
d="M20 0c5 150 80 225 170 255l-135 125v80h535v-80l-135 -125c90 -30 165 -105 170 -255h-135c-5 110 -45 150 -100 160v-160h-135v160c-55 -10 -95 -50 -100 -160h-135zM322 260l113 100h-225z" />
    <glyph glyph-name="uni0472" unicode="&#x472;" horiz-adv-x="680" 
d="M340 -5c-170 0 -310 140 -310 320s140 320 310 320s310 -140 310 -320s-140 -320 -310 -320zM340 135c80 0 135 55 156 120c0 0 -36 -10 -71 -10c-70 0 -110 30 -170 30c-40 0 -73 -15 -73 -15c18 -66 78 -125 158 -125zM425 355c40 0 73 15 73 15
c-18 66 -78 125 -158 125s-135 -55 -156 -120c0 0 36 10 71 10c70 0 110 -30 170 -30z" />
    <glyph glyph-name="uni0473" unicode="&#x473;" horiz-adv-x="530" 
d="M265 -10c-130 0 -235 105 -235 240s105 240 235 240s235 -105 235 -240s-105 -240 -235 -240zM265 110c55 0 90 35 100 80c0 0 -20 -10 -55 -10s-60 20 -100 20c-25 0 -45 -10 -45 -10c10 -45 45 -80 100 -80zM320 260c25 0 45 10 45 10c-10 45 -45 80 -100 80
s-90 -35 -100 -80c0 0 20 10 55 10s60 -20 100 -20z" />
    <glyph glyph-name="uni0474" unicode="&#x474;" horiz-adv-x="635" 
d="M220 0l-215 630h150l140 -435l95 295c30 95 90 155 190 155c50 0 85 -20 85 -20l-35 -130s-15 10 -35 10c-40 0 -60 -20 -75 -65l-150 -440h-150z" />
    <glyph glyph-name="uni0475" unicode="&#x475;" horiz-adv-x="520" 
d="M175 0l-175 460h145l100 -300l55 165c37 110 85 151 160 151c50 0 80 -21 80 -21l-35 -115s-10 5 -25 5c-25 0 -40 -15 -55 -55l-110 -290h-140z" />
    <glyph glyph-name="uni048A" unicode="&#x48a;" horiz-adv-x="680" 
d="M470 -120l40 120h-65v375l-255 -375h-130v630h145v-375l255 375h130v-490h90v-25l-90 -235h-120zM325 690c-80 0 -135 55 -145 130h95c5 -30 25 -50 50 -50s45 20 50 50h95c-10 -75 -65 -130 -145 -130z" />
    <glyph glyph-name="uni048B" unicode="&#x48b;" horiz-adv-x="555" 
d="M385 -100l25 100h-60v255l-175 -255h-125v460h135v-255l175 255h125v-330h80v-25l-75 -205h-105zM270 505c-80 0 -135 55 -145 130h95c5 -30 25 -50 50 -50s45 20 50 50h95c-10 -75 -65 -130 -145 -130z" />
    <glyph glyph-name="uni048C" unicode="&#x48c;" horiz-adv-x="620" 
d="M125 0v460h-125v100h125v70h145v-70h155v-100h-155v-50h115c125 0 215 -80 215 -195s-90 -215 -215 -215h-260zM270 130h105c45 0 80 35 80 75s-35 75 -80 75h-105v-150z" />
    <glyph glyph-name="uni048D" unicode="&#x48d;" horiz-adv-x="515" 
d="M100 0v380h-95v110h95v140h135v-140h130v-110h-130v-60h95c95 0 165 -70 165 -160s-70 -160 -165 -160h-230zM235 110h70c35 0 55 20 55 50s-20 50 -55 50h-70v-100z" />
    <glyph glyph-name="uni048E" unicode="&#x48e;" horiz-adv-x="560" 
d="M60 0v630h245c130 0 225 -95 225 -215c0 -105 -72 -160 -72 -160l47 -70l-75 -50l-51 76s-29 -11 -74 -11h-100v-200h-145zM205 340h87l-27 40l75 50l35 -52s10 17 10 37c0 40 -35 75 -80 75h-100v-150z" />
    <glyph glyph-name="uni048F" unicode="&#x48f;" horiz-adv-x="545" 
d="M50 -160v620h100l20 -45s50 50 130 50c115 0 215 -100 215 -235c0 -105 -62 -166 -62 -166l52 -69l-70 -50l-51 68s-39 -18 -84 -18c-70 0 -115 40 -115 40v-195h-135zM280 120c15 0 23 3 23 3l-43 57l70 50l39 -53s11 18 11 53c0 65 -45 110 -100 110
s-100 -45 -100 -110s45 -110 100 -110z" />
    <glyph glyph-name="afii10050" unicode="&#x490;" horiz-adv-x="480" 
d="M60 0v630h265v110h145v-250h-265v-490h-145z" />
    <glyph glyph-name="afii10098" unicode="&#x491;" horiz-adv-x="390" 
d="M50 0v460h195v85h135v-215h-195v-330h-135z" />
    <glyph glyph-name="uni0492" unicode="&#x492;" horiz-adv-x="515" 
d="M90 0v235h-70v125h70v270h410v-140h-265v-130h195v-125h-195v-235h-145z" />
    <glyph glyph-name="uni0493" unicode="&#x493;" horiz-adv-x="405" 
d="M60 0v145h-55v105h55v210h330v-130h-195v-80h140v-105h-140v-145h-135z" />
    <glyph glyph-name="uni0494" unicode="&#x494;" horiz-adv-x="580" 
d="M290 -50v135c75 0 115 40 115 100s-40 100 -100 100s-100 -40 -100 -100v-185h-145v630h410v-135h-265v-135s45 55 135 55c125 0 210 -85 210 -230s-90 -235 -260 -235z" />
    <glyph glyph-name="uni0495" unicode="&#x495;" horiz-adv-x="485" 
d="M240 -180v130c55 0 90 35 90 90c0 50 -35 85 -70 85c-45 0 -75 -30 -75 -75v-50h-135v460h330v-130h-195v-105s35 30 105 30c95 0 175 -80 175 -210c0 -140 -85 -225 -225 -225z" />
    <glyph glyph-name="uni0496" unicode="&#x496;" horiz-adv-x="815" 
d="M690 -120v120h-30l-180 280v-280h-145v280l-180 -280h-165l212 320l-197 310h165l165 -270v270h145v-270l165 270h165l-197 -310l119 -180h103v-260h-145z" />
    <glyph glyph-name="uni0497" unicode="&#x497;" horiz-adv-x="700" 
d="M560 -100v100h-25l-125 205v-205h-135v205l-125 -205h-155l165 240l-155 220h155l115 -185v185h135v-185l115 185h155l-155 -220l75 -110h95v-230h-135z" />
    <glyph glyph-name="uni0498" unicode="&#x498;" horiz-adv-x="525" 
d="M190 -120v123c-95 22 -160 87 -170 187l145 10c10 -40 45 -75 95 -75c55 0 85 30 85 70c0 35 -30 65 -85 65h-65v120h60c55 0 80 25 80 60s-30 65 -80 65c-45 0 -75 -30 -80 -70l-145 10c5 105 90 190 230 190c135 0 220 -85 220 -175s-85 -130 -85 -130
s100 -40 100 -155c0 -85 -70 -155 -160 -173v-122h-145z" />
    <glyph glyph-name="uni0499" unicode="&#x499;" horiz-adv-x="440" 
d="M145 -100v100c-65 20 -115 70 -125 145c1 0 125 10 125 10c5 -30 30 -55 65 -55c40 0 60 20 60 45c0 20 -20 40 -60 40h-45v95h45c30 0 50 20 50 40s-20 40 -50 40c-35 0 -55 -20 -60 -45l-125 10c20 90 75 145 195 145c110 0 180 -70 180 -140c0 -75 -60 -95 -60 -95
s70 -30 70 -100c0 -65 -50 -120 -130 -138v-97h-135z" />
    <glyph glyph-name="uni049A" unicode="&#x49a;" horiz-adv-x="570" 
d="M435 -120v120h-25l-205 280v-280h-145v630h145v-270l190 270h165l-222 -310l133 -180h109v-260h-145z" />
    <glyph glyph-name="uni049B" unicode="&#x49b;" horiz-adv-x="490" 
d="M350 -100v100h-25l-140 205v-205h-135v460h135v-185l125 185h155l-155 -220l78 -110h97v-230h-135z" />
    <glyph glyph-name="uni049C" unicode="&#x49c;" horiz-adv-x="655" 
d="M60 0v630h145v-255h30v80h80v-80h15l145 255h165l-190 -310l215 -320h-165l-170 255h-15v-75h-80v75h-30v-255h-145z" />
    <glyph glyph-name="uni049D" unicode="&#x49d;" horiz-adv-x="525" 
d="M50 0v460h135v-165h20v75h60v-75h10l85 165h150l-130 -220l150 -240h-150l-105 180h-10v-75h-60v75h-20v-180h-135z" />
    <glyph glyph-name="uni049E" unicode="&#x49e;" horiz-adv-x="605" 
d="M100 0v480h-100v100h100v50h145v-50h75v-100h-75v-120l190 270h165l-222 -310l237 -320h-165l-205 280v-280h-145z" />
    <glyph glyph-name="uni049F" unicode="&#x49f;" horiz-adv-x="495" 
d="M70 0v476h-65v99h65v55h135v-55h105v-99h-105v-201l125 185h155l-155 -220l170 -240h-155l-140 205v-205h-135z" />
    <glyph glyph-name="uni04A0" unicode="&#x4a0;" horiz-adv-x="630" 
d="M125 0v500h-125v130h270v-270l190 270h165l-222 -310l237 -320h-165l-205 280v-280h-145z" />
    <glyph glyph-name="uni04A1" unicode="&#x4a1;" horiz-adv-x="525" 
d="M100 0v330h-95v130h230v-185l125 185h155l-155 -220l170 -240h-155l-140 205v-205h-135z" />
    <glyph glyph-name="uni04A2" unicode="&#x4a2;" horiz-adv-x="680" 
d="M515 -120v120h-70v250h-240v-250h-145v630h145v-240h240v240h145v-490h70v-260h-145z" />
    <glyph glyph-name="uni04A3" unicode="&#x4a3;" horiz-adv-x="550" 
d="M405 -100v100h-60v165h-160v-165h-135v460h135v-165h160v165h135v-330h60v-230h-135z" />
    <glyph glyph-name="uni04A4" unicode="&#x4a4;" horiz-adv-x="835" 
d="M60 0v630h145v-240h225v240h395v-140h-250v-490h-145v250h-225v-250h-145z" />
    <glyph glyph-name="uni04A5" unicode="&#x4a5;" horiz-adv-x="665" 
d="M50 0v460h135v-165h150v165h320v-130h-185v-330h-135v165h-150v-165h-135z" />
    <glyph glyph-name="uni04A6" unicode="&#x4a6;" horiz-adv-x="955" 
d="M665 -50v135c75 0 115 40 115 100s-40 100 -100 100s-100 -40 -100 -100v-185h-145v490h-230v-490h-145v630h520v-270s45 55 135 55c125 0 210 -85 210 -230s-90 -235 -260 -235z" />
    <glyph glyph-name="uni04A7" unicode="&#x4a7;" horiz-adv-x="770" 
d="M525 -180v130c55 0 90 35 90 90c0 50 -35 85 -70 85c-45 0 -75 -30 -75 -75v-50h-135v330h-150v-330h-135v460h420v-235s35 30 105 30c95 0 175 -80 175 -210c0 -140 -85 -225 -225 -225z" />
    <glyph glyph-name="uni04A8" unicode="&#x4a8;" horiz-adv-x="770" 
d="M350 -5c-180 0 -320 140 -320 320c0 170 120 290 260 315v-140c-55 -15 -115 -75 -115 -175c0 -115 80 -195 175 -195h10s-90 80 -90 220c0 160 100 260 215 260s215 -100 215 -260c0 -140 -90 -220 -90 -220h10c60 0 100 30 100 30l70 -110s-60 -45 -170 -45
c-80 0 -135 30 -135 30s-55 -30 -135 -30zM485 165c0 0 70 65 70 185c0 75 -37 110 -70 110c-35 0 -70 -35 -70 -110c0 -120 70 -185 70 -185z" />
    <glyph glyph-name="uni04A9" unicode="&#x4a9;" horiz-adv-x="610" 
d="M265 -10c-131 0 -235 110 -235 240c0 125 85 210 180 235v-130c-20 -15 -50 -45 -50 -105c0 -90 60 -125 95 -125h5s-50 45 -50 140c0 110 73 185 170 185s170 -75 170 -185c0 -95 -50 -140 -50 -140h5c35 0 70 25 70 25l50 -95s-55 -45 -130 -45c-70 0 -115 30 -115 30
s-45 -30 -115 -30zM380 130c0 0 40 40 40 115c0 45 -20 65 -40 65s-40 -20 -40 -65c0 -75 40 -115 40 -115z" />
    <glyph glyph-name="uni04AA" unicode="&#x4aa;" horiz-adv-x="650" 
d="M270 -120v123c-120 27 -240 147 -240 312c0 180 140 320 310 320c150 0 255 -105 285 -225l-150 -10c-15 50 -60 95 -135 95c-90 0 -165 -75 -165 -180s75 -180 165 -180c80 0 125 45 140 95l150 -10c-25 -105 -110 -190 -215 -217v-123h-145z" />
    <glyph glyph-name="uni04AB" unicode="&#x4ab;" horiz-adv-x="510" 
d="M195 -100v100c-80 25 -165 105 -165 230c0 135 105 240 235 240c185 0 220 -180 220 -180l-135 -10s-20 65 -85 65c-55 0 -100 -45 -100 -115s45 -115 100 -115c65 0 85 65 85 65l135 -10s-25 -135 -155 -171v-99h-135z" />
    <glyph glyph-name="uni04AC" unicode="&#x4ac;" horiz-adv-x="525" 
d="M260 -120v120h-70v490h-180v140h505v-140h-180v-350h70v-260h-145z" />
    <glyph glyph-name="uni04AD" unicode="&#x4ad;" horiz-adv-x="425" 
d="M205 -100v100h-60v330h-135v130h405v-130h-135v-200h60v-230h-135z" />
    <glyph glyph-name="uni04AE" unicode="&#x4ae;" horiz-adv-x="565" 
d="M210 0v235l-210 395h155l128 -250l127 250h155l-210 -395v-235h-145z" />
    <glyph glyph-name="uni04AF" unicode="&#x4af;" horiz-adv-x="490" 
d="M177 -160v170l-177 450h145l100 -300l100 300h145l-178 -450v-170h-135z" />
    <glyph glyph-name="uni04B0" unicode="&#x4b0;" horiz-adv-x="565" 
d="M210 0v155h-135v115h116l-191 360h155l128 -250l127 250h155l-192 -360h117v-115h-135v-155h-145z" />
    <glyph glyph-name="uni04B1" unicode="&#x4b1;" horiz-adv-x="490" 
d="M177 -160v80h-102v90h102l-177 450h145l100 -300l100 300h145l-178 -450h103v-90h-103v-80h-135z" />
    <glyph glyph-name="uni04B2" unicode="&#x4b2;" horiz-adv-x="585" 
d="M440 -120v120h-20l-130 215l-130 -215h-160l200 320l-190 310h160l120 -205l120 205h160l-190 -310l112 -180h93v-260h-145z" />
    <glyph glyph-name="uni04B3" unicode="&#x4b3;" horiz-adv-x="480" 
d="M340 -100v100h-25l-85 140l-85 -140h-150l150 235l-140 225h150l75 -130l75 130h150l-140 -225l67 -105h93v-230h-135z" />
    <glyph glyph-name="uni04B4" unicode="&#x4b4;" horiz-adv-x="775" 
d="M615 -120v120h-440v490h-165v140h460v-140h-150v-350h225v490h145v-490h70v-260h-145z" />
    <glyph glyph-name="uni04B5" unicode="&#x4b5;" horiz-adv-x="615" 
d="M470 -100v100h-345v330h-115v130h335v-130h-85v-200h150v330h135v-330h60v-230h-135z" />
    <glyph glyph-name="uni04B6" unicode="&#x4b6;" horiz-adv-x="640" 
d="M480 -120v120h-70v210s-60 -35 -135 -35c-135 0 -225 90 -225 225v230h145v-220c0 -70 35 -105 105 -105c60 0 110 30 110 30v295h145v-490h70v-260h-145z" />
    <glyph glyph-name="uni04B7" unicode="&#x4b7;" horiz-adv-x="525" 
d="M380 -100v100h-60v145s-50 -25 -110 -25c-100 0 -170 70 -170 180v160h135v-140c0 -45 30 -75 70 -75c45 0 75 25 75 25v190h135v-330h60v-230h-135z" />
    <glyph glyph-name="uni04B8" unicode="&#x4b8;" horiz-adv-x="621" 
d="M410 0v210s-29 -17 -70 -27v-98h-80v90c-127 6 -210 95 -210 225v230h145v-220c0 -55 21 -89 65 -101v86h80v-86c40 8 70 26 70 26v295h145v-630h-145z" />
    <glyph glyph-name="uni04B9" unicode="&#x4b9;" horiz-adv-x="505" 
d="M320 0v145s-17 -8 -40 -15v-75h-65v65h-5c-100 0 -170 70 -170 180v160h135v-140c0 -33 16 -58 40 -69v74h65v-75c25 7 40 20 40 20v190h135v-460h-135z" />
    <glyph glyph-name="uni04BA" unicode="&#x4ba;" horiz-adv-x="615" 
d="M60 0v630h145v-210s60 35 135 35c135 0 225 -90 225 -225v-230h-145v220c0 70 -35 105 -105 105c-60 0 -110 -30 -110 -30v-295h-145z" />
    <glyph glyph-name="uni04BB" unicode="&#x4bb;" 
d="M50 0v630h135v-215s40 50 130 50c100 0 175 -75 175 -195v-270h-135v245c0 60 -35 95 -85 95s-85 -35 -85 -95v-245h-135z" />
    <glyph glyph-name="uni04BC" unicode="&#x4bc;" horiz-adv-x="800" 
d="M465 -5c-159 0 -290 120 -308 285h-12c-95 0 -145 50 -145 130v30h110v-25c0 -20 15 -35 40 -35h11c29 145 154 255 304 255c177 0 305 -130 305 -320c0 -20 -5 -35 -5 -35h-465c15 -85 80 -150 165 -150c75 0 110 35 135 75l155 -10c-35 -105 -130 -200 -290 -200z
M310 380h305c-10 65 -65 120 -150 120c-80 0 -135 -55 -155 -120z" />
    <glyph glyph-name="uni04BD" unicode="&#x4bd;" horiz-adv-x="615" 
d="M360 -10c-120 0 -210 95 -226 195c-89 0 -134 45 -134 115v30h90v-25c0 -20 15 -35 43 -35c17 105 107 200 232 200s225 -95 225 -240c0 -20 -5 -45 -5 -45h-315c10 -35 45 -70 95 -70s70 30 70 30l140 -10c-25 -75 -95 -145 -215 -145zM270 270h190
c-10 40 -45 75 -95 75s-85 -35 -95 -75z" />
    <glyph glyph-name="uni04BE" unicode="&#x4be;" horiz-adv-x="800" 
d="M395 -120v123c-125 27 -225 137 -238 277h-12c-95 0 -145 50 -145 130v30h110v-25c0 -20 15 -35 40 -35h11c29 145 154 255 304 255c177 0 305 -130 305 -320c0 -20 -5 -35 -5 -35h-465c15 -85 80 -150 165 -150c75 0 110 35 135 75l155 -10c-30 -90 -105 -170 -215 -193
v-122h-145zM310 380h305c-10 65 -65 120 -150 120c-80 0 -135 -55 -155 -120z" />
    <glyph glyph-name="uni04BF" unicode="&#x4bf;" horiz-adv-x="615" 
d="M295 -100v100c-75 20 -145 90 -161 185c-89 0 -134 45 -134 115v30h90v-25c0 -20 15 -35 43 -35c17 105 107 200 232 200s225 -95 225 -240c0 -20 -5 -45 -5 -45h-315c10 -35 45 -70 95 -70s70 30 70 30l140 -10c-25 -70 -75 -115 -145 -136v-99h-135zM270 270h190
c-10 40 -45 75 -95 75s-85 -35 -95 -75z" />
    <glyph glyph-name="uni04C0" unicode="&#x4c0;" horiz-adv-x="265" 
d="M60 0v630h145v-630h-145z" />
    <glyph glyph-name="uni04C1" unicode="&#x4c1;" horiz-adv-x="815" 
d="M-10 0l212 320l-197 310h165l165 -270v270h145v-270l165 270h165l-197 -310l212 -320h-165l-180 280v-280h-145v280l-180 -280h-165zM410 690c-80 0 -135 55 -145 130h95c5 -30 25 -50 50 -50s45 20 50 50h95c-10 -75 -65 -130 -145 -130z" />
    <glyph glyph-name="uni04C2" unicode="&#x4c2;" horiz-adv-x="685" 
d="M-5 0l165 240l-155 220h155l115 -185v185h135v-185l115 185h155l-155 -220l165 -240h-155l-125 205v-205h-135v205l-125 -205h-155zM340 510c-80 0 -135 55 -145 130h95c5 -30 25 -50 50 -50s45 20 50 50h95c-10 -75 -65 -130 -145 -130z" />
    <glyph glyph-name="uni04C3" unicode="&#x4c3;" horiz-adv-x="600" 
d="M310 -110v135c70 0 120 50 120 120c0 60 -50 105 -110 105c-65 0 -115 -45 -115 -105v-145h-145v630h145v-270l190 270h165l-180 -250c105 -15 195 -105 195 -235c0 -150 -105 -255 -265 -255z" />
    <glyph glyph-name="uni04C4" unicode="&#x4c4;" horiz-adv-x="490" 
d="M240 -180v130c60 0 95 35 95 95c0 50 -35 85 -75 85c-43 0 -72 -27 -75 -69v-61h-135v460h135v-185l125 185h155l-145 -205c80 -15 150 -85 150 -205c0 -145 -85 -230 -230 -230z" />
    <glyph glyph-name="uni04C5" unicode="&#x4c5;" horiz-adv-x="675" 
d="M465 -120l40 120h-65v490h-170l-25 -300c-10 -125 -80 -195 -185 -195c-31 0 -60 5 -60 5v125h20c45 0 80 35 85 95l35 410h445v-490h90v-25l-90 -235h-120z" />
    <glyph glyph-name="uni04C6" unicode="&#x4c6;" horiz-adv-x="530" 
d="M360 -100l25 100h-60v330h-105l-15 -180c-8 -100 -65 -155 -165 -155c-25 0 -40 5 -40 5v115h15c40 0 55 15 60 65l25 280h360v-330h80v-25l-75 -205h-105z" />
    <glyph glyph-name="uni04C7" unicode="&#x4c7;" horiz-adv-x="650" 
d="M420 -200c-55 0 -80 15 -80 15v125s15 -10 45 -10c35 0 60 25 60 65v255h-240v-250h-145v630h145v-240h240v240h145v-635c0 -125 -70 -195 -170 -195z" />
    <glyph glyph-name="uni04C8" unicode="&#x4c8;" horiz-adv-x="530" 
d="M315 -165c-35 0 -65 10 -65 10v120s15 -5 35 -5c35 0 60 25 60 65v140h-160v-165h-135v460h135v-165h160v165h135v-455c0 -110 -60 -170 -165 -170z" />
    <glyph glyph-name="uni04C9" unicode="&#x4c9;" horiz-adv-x="680" 
d="M470 -120l40 120h-65v250h-240v-250h-145v630h145v-240h240v240h145v-490h90v-25l-90 -235h-120z" />
    <glyph glyph-name="uni04CA" unicode="&#x4ca;" horiz-adv-x="550" 
d="M380 -100l25 100h-60v165h-160v-165h-135v460h135v-165h160v165h135v-330h80v-25l-75 -205h-105z" />
    <glyph glyph-name="uni04CB" unicode="&#x4cb;" horiz-adv-x="615" 
d="M340 -120v230h70v100s-60 -35 -135 -35c-135 0 -225 90 -225 225v230h145v-220c0 -70 35 -105 105 -105c60 0 110 30 110 30v295h145v-630h-70v-120h-145z" />
    <glyph glyph-name="uni04CC" unicode="&#x4cc;" horiz-adv-x="505" 
d="M260 -100v180h60v65s-50 -25 -110 -25c-100 0 -170 70 -170 180v160h135v-140c0 -45 30 -75 70 -75c45 0 75 25 75 25v190h135v-460h-60v-100h-135z" />
    <glyph glyph-name="uni04CD" unicode="&#x4cd;" horiz-adv-x="820" 
d="M610 -120l40 120h-65v315l-145 -315h-90l-145 315v-315h-145v630h130l205 -445l205 445h130v-490h90v-25l-90 -235h-120z" />
    <glyph glyph-name="uni04CE" unicode="&#x4ce;" horiz-adv-x="650" 
d="M480 -100l25 100h-60v220l-105 -220h-50l-105 220v-220h-135v460h135l130 -275l130 275h135v-330h80v-25l-75 -205h-105z" />
    <glyph glyph-name="uni04CF" unicode="&#x4cf;" horiz-adv-x="235" 
d="M50 0v630h135v-630h-135z" />
    <glyph glyph-name="uni04D0" unicode="&#x4d0;" horiz-adv-x="590" 
d="M-5 0l225 630h150l225 -630h-150l-40 120h-220l-40 -120h-150zM225 245h140l-70 210zM295 690c-80 0 -135 55 -145 130h95c5 -30 25 -50 50 -50s45 20 50 50h95c-10 -75 -65 -130 -145 -130z" />
    <glyph glyph-name="uni04D1" unicode="&#x4d1;" horiz-adv-x="485" 
d="M185 -5c-100 0 -155 55 -155 130c0 90 65 155 275 155c0 45 -25 70 -60 70c-50 0 -60 -45 -60 -45l-135 10c15 90 80 155 200 155c110 0 190 -80 190 -190v-280h-100l-20 45s-55 -50 -135 -50zM220 95c50 0 85 35 85 85v20c-115 0 -140 -25 -140 -60c0 -25 20 -45 55 -45
zM255 510c-80 0 -135 55 -145 130h95c5 -30 25 -50 50 -50s45 20 50 50h95c-10 -75 -65 -130 -145 -130z" />
    <glyph glyph-name="uni04D2" unicode="&#x4d2;" horiz-adv-x="590" 
d="M-5 0l225 630h150l225 -630h-150l-40 120h-220l-40 -120h-150zM225 245h140l-70 210zM203 690c-40 0 -70 30 -70 70s30 70 70 70s70 -30 70 -70s-30 -70 -70 -70zM388 690c-40 0 -70 30 -70 70s30 70 70 70s70 -30 70 -70s-30 -70 -70 -70z" />
    <glyph glyph-name="uni04D3" unicode="&#x4d3;" horiz-adv-x="485" 
d="M185 -5c-100 0 -155 55 -155 130c0 90 65 155 275 155c0 45 -25 70 -60 70c-50 0 -60 -45 -60 -45l-135 10c15 90 80 155 200 155c110 0 190 -80 190 -190v-280h-100l-20 45s-55 -50 -135 -50zM220 95c50 0 85 35 85 85v20c-115 0 -140 -25 -140 -60c0 -25 20 -45 55 -45
zM163 510c-40 0 -70 30 -70 70s30 70 70 70s70 -30 70 -70s-30 -70 -70 -70zM348 510c-40 0 -70 30 -70 70s30 70 70 70s70 -30 70 -70s-30 -70 -70 -70z" />
    <glyph glyph-name="uni04D6" unicode="&#x4d6;" horiz-adv-x="560" 
d="M60 0v630h450v-140h-305v-100h280v-140h-280v-110h315v-140h-460zM290 690c-80 0 -135 55 -145 130h95c5 -30 25 -50 50 -50s45 20 50 50h95c-10 -75 -65 -130 -145 -130z" />
    <glyph glyph-name="uni04D7" unicode="&#x4d7;" horiz-adv-x="515" 
d="M260 -10c-125 0 -230 105 -230 240s105 240 235 240c125 0 225 -95 225 -240c0 -20 -5 -45 -5 -45h-315c10 -35 45 -70 95 -70s70 30 70 30l140 -10c-25 -75 -95 -145 -215 -145zM170 270h190c-10 40 -45 75 -95 75s-85 -35 -95 -75zM265 510c-80 0 -135 55 -145 130h95
c5 -30 25 -50 50 -50s45 20 50 50h95c-10 -75 -65 -130 -145 -130z" />
    <glyph glyph-name="uni04D8" unicode="&#x4d8;" horiz-adv-x="675" 
d="M335 -5c-177 0 -305 130 -305 320c0 20 5 35 5 35h465c-15 85 -80 150 -165 150c-75 0 -110 -35 -135 -75l-155 10c35 105 130 200 290 200c170 0 310 -140 310 -320s-140 -320 -310 -320zM335 130c80 0 135 55 155 120h-305c10 -65 65 -120 150 -120z" />
    <glyph glyph-name="uni04D9" unicode="&#x4d9;" horiz-adv-x="515" 
d="M250 -10c-125 0 -225 95 -225 240c0 20 5 45 5 45h315c-10 35 -45 70 -95 70s-70 -30 -70 -30l-140 10c25 75 95 145 215 145c125 0 230 -105 230 -240s-105 -240 -235 -240zM250 115c50 0 85 35 95 75h-190c10 -40 45 -75 95 -75z" />
    <glyph glyph-name="uni04DA" unicode="&#x4da;" horiz-adv-x="675" 
d="M335 -5c-177 0 -305 130 -305 320c0 20 5 35 5 35h465c-15 85 -80 150 -165 150c-75 0 -110 -35 -135 -75l-155 10c35 105 130 200 290 200c170 0 310 -140 310 -320s-140 -320 -310 -320zM335 130c80 0 135 55 155 120h-305c10 -65 65 -120 150 -120zM250 690
c-40 0 -70 30 -70 70s30 70 70 70s70 -30 70 -70s-30 -70 -70 -70zM435 690c-40 0 -70 30 -70 70s30 70 70 70s70 -30 70 -70s-30 -70 -70 -70z" />
    <glyph glyph-name="uni04DB" unicode="&#x4db;" horiz-adv-x="515" 
d="M250 -10c-125 0 -225 95 -225 240c0 20 5 45 5 45h315c-10 35 -45 70 -95 70s-70 -30 -70 -30l-140 10c25 75 95 145 215 145c125 0 230 -105 230 -240s-105 -240 -235 -240zM250 115c50 0 85 35 95 75h-190c10 -40 45 -75 95 -75zM160 510c-40 0 -70 30 -70 70
s30 70 70 70s70 -30 70 -70s-30 -70 -70 -70zM345 510c-40 0 -70 30 -70 70s30 70 70 70s70 -30 70 -70s-30 -70 -70 -70z" />
    <glyph glyph-name="uni04DC" unicode="&#x4dc;" horiz-adv-x="815" 
d="M-10 0l212 320l-197 310h165l165 -270v270h145v-270l165 270h165l-197 -310l212 -320h-165l-180 280v-280h-145v280l-180 -280h-165zM315 690c-40 0 -70 30 -70 70s30 70 70 70s70 -30 70 -70s-30 -70 -70 -70zM500 690c-40 0 -70 30 -70 70s30 70 70 70s70 -30 70 -70
s-30 -70 -70 -70z" />
    <glyph glyph-name="uni04DD" unicode="&#x4dd;" horiz-adv-x="685" 
d="M-5 0l165 240l-155 220h155l115 -185v185h135v-185l115 185h155l-155 -220l165 -240h-155l-125 205v-205h-135v205l-125 -205h-155zM250 510c-40 0 -70 30 -70 70s30 70 70 70s70 -30 70 -70s-30 -70 -70 -70zM435 510c-40 0 -70 30 -70 70s30 70 70 70s70 -30 70 -70
s-30 -70 -70 -70z" />
    <glyph glyph-name="uni04DE" unicode="&#x4de;" horiz-adv-x="525" 
d="M265 -5c-150 0 -235 85 -245 195l145 10c10 -40 45 -75 95 -75c55 0 85 30 85 70c0 35 -30 65 -85 65h-65v120h60c55 0 80 25 80 60s-30 65 -80 65c-45 0 -75 -30 -80 -70l-145 10c5 105 90 190 230 190c135 0 220 -85 220 -175s-84 -130 -84 -130s99 -40 99 -155
c0 -95 -85 -180 -230 -180zM165 690c-40 0 -70 30 -70 70s30 70 70 70s70 -30 70 -70s-30 -70 -70 -70zM350 690c-40 0 -70 30 -70 70s30 70 70 70s70 -30 70 -70s-30 -70 -70 -70z" />
    <glyph glyph-name="uni04DF" unicode="&#x4df;" horiz-adv-x="440" 
d="M220 -10c-120 0 -190 70 -200 155c1 0 125 10 125 10c5 -30 30 -55 65 -55c40 0 60 20 60 45c0 20 -20 40 -60 40h-45v95h45c30 0 50 20 50 40s-20 40 -50 40c-35 0 -55 -20 -60 -45l-125 10c20 90 75 145 195 145c110 0 180 -70 180 -140c0 -75 -60 -95 -60 -95
s70 -30 70 -100c0 -75 -70 -145 -190 -145zM125 510c-40 0 -70 30 -70 70s30 70 70 70s70 -30 70 -70s-30 -70 -70 -70zM310 510c-40 0 -70 30 -70 70s30 70 70 70s70 -30 70 -70s-30 -70 -70 -70z" />
    <glyph glyph-name="uni04E0" unicode="&#x4e0;" horiz-adv-x="530" 
d="M260 -5c-150 0 -235 85 -245 195l145 10c5 -29 31 -75 100 -75c55 0 90 35 90 75s-40 80 -90 80h-95v95l130 120h-250v135h430v-120l-130 -115c75 -10 160 -95 160 -195c0 -105 -100 -205 -245 -205z" />
    <glyph glyph-name="uni04E1" unicode="&#x4e1;" horiz-adv-x="460" 
d="M220 -170c-125 0 -200 75 -215 175l135 10c5 -40 35 -70 80 -70c50 0 85 35 85 80c0 50 -35 85 -90 85h-95v85l140 140h-235v125h395v-120l-130 -130c80 -20 150 -90 150 -185c0 -110 -85 -195 -220 -195z" />
    <glyph glyph-name="uni04E2" unicode="&#x4e2;" horiz-adv-x="650" 
d="M60 0v630h145v-375l255 375h130v-630h-145v375l-255 -375h-130zM195 700v105h265v-105h-265z" />
    <glyph glyph-name="uni04E3" unicode="&#x4e3;" 
d="M50 0v460h135v-255l175 255h125v-460h-135v255l-175 -255h-125zM130 520v105h265v-105h-265z" />
    <glyph glyph-name="uni04E4" unicode="&#x4e4;" horiz-adv-x="650" 
d="M60 0v630h145v-375l255 375h130v-630h-145v375l-255 -375h-130zM235 690c-40 0 -70 30 -70 70s30 70 70 70s70 -30 70 -70s-30 -70 -70 -70zM420 690c-40 0 -70 30 -70 70s30 70 70 70s70 -30 70 -70s-30 -70 -70 -70z" />
    <glyph glyph-name="uni04E5" unicode="&#x4e5;" 
d="M50 0v460h135v-255l175 255h125v-460h-135v255l-175 -255h-125zM170 510c-40 0 -70 30 -70 70s30 70 70 70s70 -30 70 -70s-30 -70 -70 -70zM355 510c-40 0 -70 30 -70 70s30 70 70 70s70 -30 70 -70s-30 -70 -70 -70z" />
    <glyph glyph-name="uni04E6" unicode="&#x4e6;" horiz-adv-x="680" 
d="M340 -5c-170 0 -310 140 -310 320s140 320 310 320s310 -140 310 -320s-140 -320 -310 -320zM340 135c90 0 165 75 165 180s-75 180 -165 180s-165 -75 -165 -180s75 -180 165 -180zM250 690c-40 0 -70 30 -70 70s30 70 70 70s70 -30 70 -70s-30 -70 -70 -70zM435 690
c-40 0 -70 30 -70 70s30 70 70 70s70 -30 70 -70s-30 -70 -70 -70z" />
    <glyph glyph-name="uni04E7" unicode="&#x4e7;" horiz-adv-x="530" 
d="M265 -10c-130 0 -235 105 -235 240s105 240 235 240s235 -105 235 -240s-105 -240 -235 -240zM265 115c55 0 100 45 100 115s-45 115 -100 115s-100 -45 -100 -115s45 -115 100 -115zM175 510c-40 0 -70 30 -70 70s30 70 70 70s70 -30 70 -70s-30 -70 -70 -70zM360 510
c-40 0 -70 30 -70 70s30 70 70 70s70 -30 70 -70s-30 -70 -70 -70z" />
    <glyph glyph-name="uni04E8" unicode="&#x4e8;" horiz-adv-x="680" 
d="M340 -5c-170 0 -310 140 -310 320s140 320 310 320s310 -140 310 -320s-140 -320 -310 -320zM340 135c85 0 145 60 160 125h-320c15 -65 75 -125 160 -125zM180 370h320c-15 65 -75 125 -160 125s-145 -60 -160 -125z" />
    <glyph glyph-name="uni04E9" unicode="&#x4e9;" horiz-adv-x="530" 
d="M265 -10c-130 0 -235 105 -235 240s105 240 235 240s235 -105 235 -240s-105 -240 -235 -240zM265 110c55 0 90 35 100 80h-200c10 -45 45 -80 100 -80zM165 270h200c-10 45 -45 80 -100 80s-90 -35 -100 -80z" />
    <glyph glyph-name="uni04EA" unicode="&#x4ea;" horiz-adv-x="680" 
d="M340 -5c-170 0 -310 140 -310 320s140 320 310 320s310 -140 310 -320s-140 -320 -310 -320zM340 135c85 0 145 60 160 125h-320c15 -65 75 -125 160 -125zM180 370h320c-15 65 -75 125 -160 125s-145 -60 -160 -125zM250 690c-40 0 -70 30 -70 70s30 70 70 70
s70 -30 70 -70s-30 -70 -70 -70zM435 690c-40 0 -70 30 -70 70s30 70 70 70s70 -30 70 -70s-30 -70 -70 -70z" />
    <glyph glyph-name="uni04EB" unicode="&#x4eb;" horiz-adv-x="530" 
d="M265 -10c-130 0 -235 105 -235 240s105 240 235 240s235 -105 235 -240s-105 -240 -235 -240zM265 110c55 0 90 35 100 80h-200c10 -45 45 -80 100 -80zM165 270h200c-10 45 -45 80 -100 80s-90 -35 -100 -80zM175 510c-40 0 -70 30 -70 70s30 70 70 70s70 -30 70 -70
s-30 -70 -70 -70zM360 510c-40 0 -70 30 -70 70s30 70 70 70s70 -30 70 -70s-30 -70 -70 -70z" />
    <glyph glyph-name="uni04EC" unicode="&#x4ec;" horiz-adv-x="645" 
d="M305 -5c-155 0 -255 100 -285 210l150 10c20 -40 60 -80 135 -80c80 0 135 55 155 120h-205v120h205c-15 60 -75 120 -155 120c-70 0 -110 -40 -130 -85l-150 10c30 115 130 215 280 215c170 0 310 -140 310 -320s-140 -320 -310 -320zM215 690c-40 0 -70 30 -70 70
s30 70 70 70s70 -30 70 -70s-30 -70 -70 -70zM400 690c-40 0 -70 30 -70 70s30 70 70 70s70 -30 70 -70s-30 -70 -70 -70z" />
    <glyph glyph-name="uni04ED" unicode="&#x4ed;" horiz-adv-x="505" 
d="M240 -10c-180 0 -215 170 -215 170l135 10s20 -55 80 -55c70 0 91 65 90 65h-130v95h130s-15 70 -90 70c-60 0 -80 -55 -80 -55l-135 10s35 170 215 170c130 0 235 -105 235 -240s-105 -240 -235 -240zM150 510c-40 0 -70 30 -70 70s30 70 70 70s70 -30 70 -70
s-30 -70 -70 -70zM335 510c-40 0 -70 30 -70 70s30 70 70 70s70 -30 70 -70s-30 -70 -70 -70z" />
    <glyph glyph-name="uni04EE" unicode="&#x4ee;" horiz-adv-x="552" 
d="M140 -10c-35 0 -65 10 -65 10v130s20 -5 45 -5c60 0 85 55 85 55l-205 450h150l125 -280l125 280h150l-200 -450c-65 -145 -110 -190 -210 -190zM145 700v105h265v-105h-265z" />
    <glyph glyph-name="uni04EF" unicode="&#x4ef;" horiz-adv-x="490" 
d="M125 -165c-20 0 -45 5 -45 5v115c55 0 80 25 95 65l-175 440h145l100 -285l100 285h145l-185 -460c-46 -115 -95 -165 -180 -165zM115 520v105h265v-105h-265z" />
    <glyph glyph-name="uni04F0" unicode="&#x4f0;" horiz-adv-x="552" 
d="M140 -10c-35 0 -65 10 -65 10v130s20 -5 45 -5c60 0 85 55 85 55l-205 450h150l125 -280l125 280h150l-200 -450c-65 -145 -110 -190 -210 -190zM185 690c-40 0 -70 30 -70 70s30 70 70 70s70 -30 70 -70s-30 -70 -70 -70zM370 690c-40 0 -70 30 -70 70s30 70 70 70
s70 -30 70 -70s-30 -70 -70 -70z" />
    <glyph glyph-name="uni04F1" unicode="&#x4f1;" horiz-adv-x="490" 
d="M125 -165c-20 0 -45 5 -45 5v115c55 0 80 25 95 65l-175 440h145l100 -285l100 285h145l-185 -460c-46 -115 -95 -165 -180 -165zM160 510c-40 0 -70 30 -70 70s30 70 70 70s70 -30 70 -70s-30 -70 -70 -70zM345 510c-40 0 -70 30 -70 70s30 70 70 70s70 -30 70 -70
s-30 -70 -70 -70z" />
    <glyph glyph-name="uni04F2" unicode="&#x4f2;" horiz-adv-x="545" 
d="M140 -10c-35 0 -65 10 -65 10v130s20 -5 45 -5c60 0 85 55 85 55l-205 450h150l125 -280l125 280h150l-200 -450c-65 -145 -110 -190 -210 -190zM140 695l70 130h135l-100 -130h-105zM315 695l70 130h135l-100 -130h-105z" />
    <glyph glyph-name="uni04F3" unicode="&#x4f3;" horiz-adv-x="490" 
d="M125 -165c-20 0 -45 5 -45 5v115c55 0 80 25 95 65l-175 440h145l100 -285l100 285h145l-185 -460c-46 -115 -95 -165 -180 -165zM101 515l70 130h135l-100 -130h-105zM276 515l70 130h135l-100 -130h-105z" />
    <glyph glyph-name="uni04F4" unicode="&#x4f4;" horiz-adv-x="615" 
d="M410 0v210s-60 -35 -135 -35c-135 0 -225 90 -225 225v230h145v-220c0 -70 35 -105 105 -105c60 0 110 30 110 30v295h145v-630h-145zM215 690c-40 0 -70 30 -70 70s30 70 70 70s70 -30 70 -70s-30 -70 -70 -70zM400 690c-40 0 -70 30 -70 70s30 70 70 70s70 -30 70 -70
s-30 -70 -70 -70z" />
    <glyph glyph-name="uni04F5" unicode="&#x4f5;" horiz-adv-x="505" 
d="M320 0v145s-50 -25 -110 -25c-100 0 -170 70 -170 180v160h135v-140c0 -45 30 -75 70 -75c45 0 75 25 75 25v190h135v-460h-135zM155 510c-40 0 -70 30 -70 70s30 70 70 70s70 -30 70 -70s-30 -70 -70 -70zM340 510c-40 0 -70 30 -70 70s30 70 70 70s70 -30 70 -70
s-30 -70 -70 -70z" />
    <glyph glyph-name="uni04F6" unicode="&#x4f6;" horiz-adv-x="480" 
d="M130 -120v120h-70v630h410v-140h-265v-350h70v-260h-145z" />
    <glyph glyph-name="uni04F7" unicode="&#x4f7;" horiz-adv-x="390" 
d="M110 -100v100h-60v460h330v-130h-195v-200h60v-230h-135z" />
    <glyph glyph-name="uni04F8" unicode="&#x4f8;" horiz-adv-x="790" 
d="M60 0v630h145v-200h95c130 0 225 -95 225 -215s-95 -215 -225 -215h-240zM205 140h95c45 0 80 35 80 75s-35 75 -80 75h-95v-150zM585 0v630h145v-630h-145zM305 690c-40 0 -70 30 -70 70s30 70 70 70s70 -30 70 -70s-30 -70 -70 -70zM490 690c-40 0 -70 30 -70 70
s30 70 70 70s70 -30 70 -70s-30 -70 -70 -70z" />
    <glyph glyph-name="uni04F9" unicode="&#x4f9;" horiz-adv-x="660" 
d="M50 0v460h135v-140h85c95 0 165 -70 165 -160s-70 -160 -165 -160h-220zM185 110h60c35 0 55 20 55 50s-20 50 -55 50h-60v-100zM475 0v460h135v-460h-135zM235 510c-40 0 -70 30 -70 70s30 70 70 70s70 -30 70 -70s-30 -70 -70 -70zM420 510c-40 0 -70 30 -70 70
s30 70 70 70s70 -30 70 -70s-30 -70 -70 -70z" />
    <glyph glyph-name="uni04FA" unicode="&#x4fa;" horiz-adv-x="515" 
d="M155 -200c-42 0 -65 15 -65 15v125s10 -10 30 -10c25 0 40 15 40 50v20h-70v235h-70v125h70v270h410v-140h-265v-130h195v-125h-195v-95h70v-160c0 -115 -65 -180 -150 -180z" />
    <glyph glyph-name="uni04FB" unicode="&#x4fb;" horiz-adv-x="405" 
d="M115 -165c-35 0 -55 10 -55 10v115s10 -5 25 -5c25 0 35 15 35 35v10h-60v145h-55v105h55v210h330v-130h-195v-80h140v-105h-140v-45h60v-110c0 -100 -55 -155 -140 -155z" />
    <glyph glyph-name="uni04FC" unicode="&#x4fc;" horiz-adv-x="580" 
d="M400 -200c-55 0 -80 15 -80 15v125s15 -10 40 -10c35 0 55 20 55 45c0 20 -5 40 -20 65l-105 175l-130 -215h-160l200 320l-190 310h160l120 -205l120 205h160l-190 -310l135 -215c35 -55 50 -95 50 -150c0 -85 -70 -155 -165 -155z" />
    <glyph glyph-name="uni04FD" unicode="&#x4fd;" horiz-adv-x="460" 
d="M315 -165c-45 0 -70 15 -70 15v110s10 -5 30 -5s35 10 35 30c0 15 -6 31 -20 55l-60 100l-85 -140h-150l150 235l-140 225h150l75 -130l75 130h150l-140 -225l90 -140c35 -55 50 -90 50 -135c0 -70 -55 -125 -140 -125z" />
    <glyph glyph-name="uni04FE" unicode="&#x4fe;" horiz-adv-x="580" 
d="M0 0l160 260h-110v125h110l-150 245h160l120 -205l120 205h160l-150 -245h110v-125h-110l160 -260h-160l-130 215l-130 -215h-160z" />
    <glyph glyph-name="uni04FF" unicode="&#x4ff;" horiz-adv-x="460" 
d="M-5 0l120 185h-85v100h85l-110 175h150l75 -130l75 130h150l-110 -175h85v-100h-85l120 -185h-150l-85 140l-85 -140h-150z" />
    <glyph glyph-name="uni0510" unicode="&#x510;" horiz-adv-x="525" 
d="M260 -5c-145 0 -230 85 -230 180c0 115 100 155 100 155s-85 40 -85 130s85 175 220 175c140 0 225 -85 230 -190l-145 -10c-5 40 -35 70 -80 70c-50 0 -80 -30 -80 -65s25 -60 80 -60h60v-120h-65c-55 0 -85 -30 -85 -65c0 -40 30 -70 85 -70c50 0 85 35 95 75l145 -10
c-10 -110 -95 -195 -245 -195z" />
    <glyph glyph-name="uni0511" unicode="&#x511;" horiz-adv-x="440" 
d="M220 -10c-120 0 -190 70 -190 145c0 70 70 100 70 100s-60 20 -60 95c0 70 70 140 180 140c120 0 175 -55 195 -145l-125 -10c-5 25 -25 45 -60 45c-30 0 -50 -20 -50 -40s20 -40 50 -40h45v-95h-45c-40 0 -60 -20 -60 -40c0 -25 20 -45 60 -45c35 0 60 25 65 55
c0 0 124 -10 125 -10c-10 -85 -80 -155 -200 -155z" />
    <glyph glyph-name="uni0512" unicode="&#x512;" horiz-adv-x="645" 
d="M415 -200c-55 0 -80 15 -80 15v125s15 -10 45 -10c35 0 60 25 60 65v495h-170l-25 -300c-10 -125 -80 -195 -185 -195c-31 0 -60 5 -60 5v125h20c45 0 80 35 85 95l35 410h445v-635c0 -125 -70 -195 -170 -195z" />
    <glyph glyph-name="uni0513" unicode="&#x513;" horiz-adv-x="510" 
d="M295 -165c-35 0 -65 10 -65 10v120s15 -5 35 -5c35 0 60 25 60 65v305h-105l-15 -180c-8 -100 -65 -155 -165 -155c-25 0 -40 5 -40 5v115h15c40 0 55 15 60 65l25 280h360v-455c0 -110 -60 -170 -165 -170z" />
    <glyph glyph-name="Wgrave" unicode="&#x1e80;" horiz-adv-x="860" 
d="M205 0l-200 630h140l120 -390l120 390h90l120 -390l120 390h140l-200 -630h-110l-115 370l-115 -370h-110zM375 695l-95 130h135l65 -130h-105z" />
    <glyph glyph-name="wgrave" unicode="&#x1e81;" horiz-adv-x="700" 
d="M155 0l-155 460h140l80 -270l85 270h90l85 -270l80 270h140l-155 -460h-115l-80 255l-80 -255h-115zM295 515l-95 130h135l65 -130h-105z" />
    <glyph glyph-name="Wacute" unicode="&#x1e82;" horiz-adv-x="860" 
d="M205 0l-200 630h140l120 -390l120 390h90l120 -390l120 390h140l-200 -630h-110l-115 370l-115 -370h-110zM375 695l65 130h135l-95 -130h-105z" />
    <glyph glyph-name="wacute" unicode="&#x1e83;" horiz-adv-x="700" 
d="M155 0l-155 460h140l80 -270l85 270h90l85 -270l80 270h140l-155 -460h-115l-80 255l-80 -255h-115zM300 515l65 130h135l-95 -130h-105z" />
    <glyph glyph-name="Wdieresis" unicode="&#x1e84;" horiz-adv-x="860" 
d="M205 0l-200 630h140l120 -390l120 390h90l120 -390l120 390h140l-200 -630h-110l-115 370l-115 -370h-110zM335 690c-40 0 -70 30 -70 70s30 70 70 70s70 -30 70 -70s-30 -70 -70 -70zM520 690c-40 0 -70 30 -70 70s30 70 70 70s70 -30 70 -70s-30 -70 -70 -70z" />
    <glyph glyph-name="wdieresis" unicode="&#x1e85;" horiz-adv-x="700" 
d="M155 0l-155 460h140l80 -270l85 270h90l85 -270l80 270h140l-155 -460h-115l-80 255l-80 -255h-115zM260 510c-40 0 -70 30 -70 70s30 70 70 70s70 -30 70 -70s-30 -70 -70 -70zM445 510c-40 0 -70 30 -70 70s30 70 70 70s70 -30 70 -70s-30 -70 -70 -70z" />
    <glyph glyph-name="uni1E9E" unicode="&#x1e9e;" horiz-adv-x="635" 
d="M60 0v420c0 120 90 210 225 210h275v-130l-105 -130s145 -25 145 -180c0 -110 -80 -190 -207 -190h-83v130h70c35 0 65 30 65 70s-30 70 -65 70h-70v95l100 125h-125c-40 0 -70 -30 -70 -70v-420h-155z" />
    <glyph glyph-name="uni1EA0" unicode="&#x1ea0;" horiz-adv-x="590" 
d="M-5 0l225 630h150l225 -630h-150l-40 120h-220l-40 -120h-150zM225 245h140l-70 210zM295 -205c-40 0 -75 35 -75 75s35 75 75 75s75 -35 75 -75s-35 -75 -75 -75z" />
    <glyph glyph-name="uni1EA1" unicode="&#x1ea1;" horiz-adv-x="485" 
d="M185 -5c-100 0 -155 55 -155 130c0 90 65 155 275 155c0 45 -25 70 -60 70c-50 0 -60 -45 -60 -45l-135 10c15 90 80 155 200 155c110 0 190 -80 190 -190v-280h-100l-20 45s-55 -50 -135 -50zM220 95c50 0 85 35 85 85v20c-115 0 -140 -25 -140 -60c0 -25 20 -45 55 -45
zM235 -205c-40 0 -75 35 -75 75s35 75 75 75s75 -35 75 -75s-35 -75 -75 -75z" />
    <glyph glyph-name="uni1EA2" unicode="&#x1ea2;" horiz-adv-x="590" 
d="M-5 0l225 630h150l225 -630h-150l-40 120h-220l-40 -120h-150zM225 245h140l-70 210zM255 690c0 0 25 30 25 60c0 25 -20 45 -50 45c-15 0 -25 -5 -25 -5v65s20 10 55 10c70 0 110 -40 110 -90c0 -55 -40 -85 -40 -85h-75z" />
    <glyph glyph-name="uni1EA3" unicode="&#x1ea3;" horiz-adv-x="485" 
d="M185 -5c-100 0 -155 55 -155 130c0 90 65 155 275 155c0 45 -25 70 -60 70c-50 0 -60 -45 -60 -45l-135 10c15 90 80 155 200 155c110 0 190 -80 190 -190v-280h-100l-20 45s-55 -50 -135 -50zM220 95c50 0 85 35 85 85v20c-115 0 -140 -25 -140 -60c0 -25 20 -45 55 -45
zM215 510c0 0 25 30 25 60c0 25 -20 45 -50 45c-15 0 -25 -5 -25 -5v65s20 10 55 10c70 0 110 -40 110 -90c0 -55 -40 -85 -40 -85h-75z" />
    <glyph glyph-name="uni1EA4" unicode="&#x1ea4;" horiz-adv-x="590" 
d="M-5 0l225 630h150l225 -630h-150l-40 120h-220l-40 -120h-150zM225 245h140l-70 210zM150 695l85 130h120l85 -130h-115l-30 60l-30 -60h-115zM410 775l60 110h125l-90 -110h-95z" />
    <glyph glyph-name="uni1EA5" unicode="&#x1ea5;" horiz-adv-x="485" 
d="M185 -5c-100 0 -155 55 -155 130c0 90 65 155 275 155c0 45 -25 70 -60 70c-50 0 -60 -45 -60 -45l-135 10c15 90 80 155 200 155c110 0 190 -80 190 -190v-280h-100l-20 45s-55 -50 -135 -50zM220 95c50 0 85 35 85 85v20c-115 0 -140 -25 -140 -60c0 -25 20 -45 55 -45
zM110 520l85 130h120l85 -130h-115l-30 60l-30 -60h-115zM370 600l60 110h125l-90 -110h-95z" />
    <glyph glyph-name="uni1EA6" unicode="&#x1ea6;" horiz-adv-x="590" 
d="M-5 0l225 630h150l225 -630h-150l-40 120h-220l-40 -120h-150zM225 245h140l-70 210zM150 695l85 130h120l85 -130h-115l-30 60l-30 -60h-115zM440 775l-90 110h125l60 -110h-95z" />
    <glyph glyph-name="uni1EA7" unicode="&#x1ea7;" horiz-adv-x="485" 
d="M185 -5c-100 0 -155 55 -155 130c0 90 65 155 275 155c0 45 -25 70 -60 70c-50 0 -60 -45 -60 -45l-135 10c15 90 80 155 200 155c110 0 190 -80 190 -190v-280h-100l-20 45s-55 -50 -135 -50zM220 95c50 0 85 35 85 85v20c-115 0 -140 -25 -140 -60c0 -25 20 -45 55 -45
zM110 520l85 130h120l85 -130h-115l-30 60l-30 -60h-115zM400 600l-90 110h125l60 -110h-95z" />
    <glyph glyph-name="uni1EA8" unicode="&#x1ea8;" horiz-adv-x="590" 
d="M-5 0l225 630h150l225 -630h-150l-40 120h-220l-40 -120h-150zM225 245h140l-70 210zM150 695l85 130h120l85 -130h-115l-30 60l-30 -60h-115zM410 775c0 0 25 30 25 60c0 20 -15 35 -40 35c-15 0 -25 -5 -25 -5v65s20 10 55 10c65 0 100 -35 100 -80
c0 -55 -40 -85 -40 -85h-75z" />
    <glyph glyph-name="uni1EA9" unicode="&#x1ea9;" horiz-adv-x="485" 
d="M185 -5c-100 0 -155 55 -155 130c0 90 65 155 275 155c0 45 -25 70 -60 70c-50 0 -60 -45 -60 -45l-135 10c15 90 80 155 200 155c110 0 190 -80 190 -190v-280h-100l-20 45s-55 -50 -135 -50zM220 95c50 0 85 35 85 85v20c-115 0 -140 -25 -140 -60c0 -25 20 -45 55 -45
zM110 520l85 130h120l85 -130h-115l-30 60l-30 -60h-115zM370 600c0 0 25 30 25 60c0 20 -15 35 -40 35c-15 0 -25 -5 -25 -5v65s20 10 55 10c65 0 100 -35 100 -80c0 -55 -40 -85 -40 -85h-75z" />
    <glyph glyph-name="uni1EAA" unicode="&#x1eaa;" horiz-adv-x="590" 
d="M-5 0l225 630h150l225 -630h-150l-40 120h-220l-40 -120h-150zM225 245h140l-70 210zM150 695l85 120h120l85 -120h-115l-30 50l-30 -50h-115zM225 835l-75 10c0 80 35 115 90 115c50 0 80 -40 110 -40c15 0 25 10 25 40l75 -10c0 -80 -35 -115 -90 -115
c-50 0 -80 40 -110 40c-15 0 -25 -10 -25 -40z" />
    <glyph glyph-name="uni1EAB" unicode="&#x1eab;" horiz-adv-x="485" 
d="M185 -5c-100 0 -155 55 -155 130c0 90 65 155 275 155c0 45 -25 70 -60 70c-50 0 -60 -45 -60 -45l-135 10c15 90 80 155 200 155c110 0 190 -80 190 -190v-280h-100l-20 45s-55 -50 -135 -50zM220 95c50 0 85 35 85 85v20c-115 0 -140 -25 -140 -60c0 -25 20 -45 55 -45
zM110 520l85 120h120l85 -120h-115l-30 50l-30 -50h-115zM185 660l-75 10c0 80 35 115 90 115c50 0 80 -40 110 -40c15 0 25 10 25 40l75 -10c0 -80 -35 -115 -90 -115c-50 0 -80 40 -110 40c-15 0 -25 -10 -25 -40z" />
    <glyph glyph-name="uni1EAC" unicode="&#x1eac;" horiz-adv-x="590" 
d="M135 695l100 130h120l100 -130h-115l-45 60l-45 -60h-115zM-5 0l225 630h150l225 -630h-150l-40 120h-220l-40 -120h-150zM225 245h140l-70 210zM295 -205c-40 0 -75 35 -75 75s35 75 75 75s75 -35 75 -75s-35 -75 -75 -75z" />
    <glyph glyph-name="uni1EAD" unicode="&#x1ead;" horiz-adv-x="485" 
d="M95 520l100 130h120l100 -130h-115l-45 60l-45 -60h-115zM185 -5c-100 0 -155 55 -155 130c0 90 65 155 275 155c0 45 -25 70 -60 70c-50 0 -60 -45 -60 -45l-135 10c15 90 80 155 200 155c110 0 190 -80 190 -190v-280h-100l-20 45s-55 -50 -135 -50zM220 95
c50 0 85 35 85 85v20c-115 0 -140 -25 -140 -60c0 -25 20 -45 55 -45zM235 -205c-40 0 -75 35 -75 75s35 75 75 75s75 -35 75 -75s-35 -75 -75 -75z" />
    <glyph glyph-name="uni1EAE" unicode="&#x1eae;" horiz-adv-x="590" 
d="M-5 0l225 630h150l225 -630h-150l-40 120h-220l-40 -120h-150zM225 245h140l-70 210zM295 690c-80 0 -135 55 -145 130h85c5 -35 30 -60 60 -60s55 25 60 60h85c-10 -75 -65 -130 -145 -130zM245 805l50 110h115l-80 -110h-85z" />
    <glyph glyph-name="uni1EAF" unicode="&#x1eaf;" horiz-adv-x="485" 
d="M185 -5c-100 0 -155 55 -155 130c0 90 65 155 275 155c0 45 -25 70 -60 70c-50 0 -60 -45 -60 -45l-135 10c15 90 80 155 200 155c110 0 190 -80 190 -190v-280h-100l-20 45s-55 -50 -135 -50zM220 95c50 0 85 35 85 85v20c-115 0 -140 -25 -140 -60c0 -25 20 -45 55 -45
zM255 510c-80 0 -135 55 -145 130h85c5 -35 30 -60 60 -60s55 25 60 60h85c-10 -75 -65 -130 -145 -130zM205 625l50 110h115l-80 -110h-85z" />
    <glyph glyph-name="uni1EB0" unicode="&#x1eb0;" horiz-adv-x="590" 
d="M-5 0l225 630h150l225 -630h-150l-40 120h-220l-40 -120h-150zM225 245h140l-70 210zM295 690c-80 0 -135 55 -145 130h85c5 -35 30 -60 60 -60s55 25 60 60h85c-10 -75 -65 -130 -145 -130zM260 805l-80 110h115l50 -110h-85z" />
    <glyph glyph-name="uni1EB1" unicode="&#x1eb1;" horiz-adv-x="485" 
d="M185 -5c-100 0 -155 55 -155 130c0 90 65 155 275 155c0 45 -25 70 -60 70c-50 0 -60 -45 -60 -45l-135 10c15 90 80 155 200 155c110 0 190 -80 190 -190v-280h-100l-20 45s-55 -50 -135 -50zM220 95c50 0 85 35 85 85v20c-115 0 -140 -25 -140 -60c0 -25 20 -45 55 -45
zM255 510c-80 0 -135 55 -145 130h85c5 -35 30 -60 60 -60s55 25 60 60h85c-10 -75 -65 -130 -145 -130zM220 625l-80 110h115l50 -110h-85z" />
    <glyph glyph-name="uni1EB2" unicode="&#x1eb2;" horiz-adv-x="590" 
d="M-5 0l225 630h150l225 -630h-150l-40 120h-220l-40 -120h-150zM225 245h140l-70 210zM295 690c-80 0 -135 55 -145 130h85c5 -35 30 -60 60 -60s55 25 60 60h85c-10 -75 -65 -130 -145 -130zM250 805c0 0 25 30 25 60c0 20 -15 35 -40 35c-15 0 -25 -5 -25 -5v65
s20 10 55 10c65 0 100 -35 100 -80c0 -55 -40 -85 -40 -85h-75z" />
    <glyph glyph-name="uni1EB3" unicode="&#x1eb3;" horiz-adv-x="485" 
d="M185 -5c-100 0 -155 55 -155 130c0 90 65 155 275 155c0 45 -25 70 -60 70c-50 0 -60 -45 -60 -45l-135 10c15 90 80 155 200 155c110 0 190 -80 190 -190v-280h-100l-20 45s-55 -50 -135 -50zM220 95c50 0 85 35 85 85v20c-115 0 -140 -25 -140 -60c0 -25 20 -45 55 -45
zM255 510c-80 0 -135 55 -145 130h85c5 -35 30 -60 60 -60s55 25 60 60h85c-10 -75 -65 -130 -145 -130zM210 625c0 0 25 30 25 60c0 20 -15 35 -40 35c-15 0 -25 -5 -25 -5v65s20 10 55 10c65 0 100 -35 100 -80c0 -55 -40 -85 -40 -85h-75z" />
    <glyph glyph-name="uni1EB4" unicode="&#x1eb4;" horiz-adv-x="590" 
d="M-5 0l225 630h150l225 -630h-150l-40 120h-220l-40 -120h-150zM225 245h140l-70 210zM295 690c-80 0 -135 55 -145 130h85c5 -35 30 -60 60 -60s55 25 60 60h85c-10 -75 -65 -130 -145 -130zM225 840l-75 10c0 80 35 115 90 115c50 0 80 -40 110 -40c15 0 25 10 25 40
l75 -10c0 -80 -35 -115 -90 -115c-50 0 -80 40 -110 40c-15 0 -25 -10 -25 -40z" />
    <glyph glyph-name="uni1EB5" unicode="&#x1eb5;" horiz-adv-x="485" 
d="M185 -5c-100 0 -155 55 -155 130c0 90 65 155 275 155c0 45 -25 70 -60 70c-50 0 -60 -45 -60 -45l-135 10c15 90 80 155 200 155c110 0 190 -80 190 -190v-280h-100l-20 45s-55 -50 -135 -50zM220 95c50 0 85 35 85 85v20c-115 0 -140 -25 -140 -60c0 -25 20 -45 55 -45
zM255 510c-80 0 -135 55 -145 130h85c5 -35 30 -60 60 -60s55 25 60 60h85c-10 -75 -65 -130 -145 -130zM185 660l-75 10c0 80 35 115 90 115c50 0 80 -40 110 -40c15 0 25 10 25 40l75 -10c0 -80 -35 -115 -90 -115c-50 0 -80 40 -110 40c-15 0 -25 -10 -25 -40z" />
    <glyph glyph-name="uni1EB6" unicode="&#x1eb6;" horiz-adv-x="590" 
d="M295 690c-80 0 -135 55 -145 130h95c5 -30 25 -50 50 -50s45 20 50 50h95c-10 -75 -65 -130 -145 -130zM-5 0l225 630h150l225 -630h-150l-40 120h-220l-40 -120h-150zM225 245h140l-70 210zM295 -205c-40 0 -75 35 -75 75s35 75 75 75s75 -35 75 -75s-35 -75 -75 -75z
" />
    <glyph glyph-name="uni1EB7" unicode="&#x1eb7;" horiz-adv-x="485" 
d="M255 510c-80 0 -135 55 -145 130h95c5 -30 25 -50 50 -50s45 20 50 50h95c-10 -75 -65 -130 -145 -130zM185 -5c-100 0 -155 55 -155 130c0 90 65 155 275 155c0 45 -25 70 -60 70c-50 0 -60 -45 -60 -45l-135 10c15 90 80 155 200 155c110 0 190 -80 190 -190v-280h-100
l-20 45s-55 -50 -135 -50zM220 95c50 0 85 35 85 85v20c-115 0 -140 -25 -140 -60c0 -25 20 -45 55 -45zM235 -205c-40 0 -75 35 -75 75s35 75 75 75s75 -35 75 -75s-35 -75 -75 -75z" />
    <glyph glyph-name="uni1EB8" unicode="&#x1eb8;" horiz-adv-x="560" 
d="M60 0v630h450v-140h-305v-100h280v-140h-280v-110h315v-140h-460zM290 -205c-40 0 -75 35 -75 75s35 75 75 75s75 -35 75 -75s-35 -75 -75 -75z" />
    <glyph glyph-name="uni1EB9" unicode="&#x1eb9;" horiz-adv-x="515" 
d="M260 -10c-125 0 -230 105 -230 240s105 240 235 240c125 0 225 -95 225 -240c0 -20 -5 -45 -5 -45h-315c10 -35 45 -70 95 -70s70 30 70 30l140 -10c-25 -75 -95 -145 -215 -145zM170 270h190c-10 40 -45 75 -95 75s-85 -35 -95 -75zM260 -205c-40 0 -75 35 -75 75
s35 75 75 75s75 -35 75 -75s-35 -75 -75 -75z" />
    <glyph glyph-name="uni1EBA" unicode="&#x1eba;" horiz-adv-x="560" 
d="M60 0v630h450v-140h-305v-100h280v-140h-280v-110h315v-140h-460zM260 690c0 0 25 30 25 60c0 25 -20 45 -50 45c-15 0 -25 -5 -25 -5v65s20 10 55 10c70 0 110 -40 110 -90c0 -55 -40 -85 -40 -85h-75z" />
    <glyph glyph-name="uni1EBB" unicode="&#x1ebb;" horiz-adv-x="515" 
d="M260 -10c-125 0 -230 105 -230 240s105 240 235 240c125 0 225 -95 225 -240c0 -20 -5 -45 -5 -45h-315c10 -35 45 -70 95 -70s70 30 70 30l140 -10c-25 -75 -95 -145 -215 -145zM170 270h190c-10 40 -45 75 -95 75s-85 -35 -95 -75zM230 510c0 0 25 30 25 60
c0 25 -20 45 -50 45c-15 0 -25 -5 -25 -5v65s20 10 55 10c70 0 110 -40 110 -90c0 -55 -40 -85 -40 -85h-75z" />
    <glyph glyph-name="uni1EBC" unicode="&#x1ebc;" horiz-adv-x="560" 
d="M60 0v630h450v-140h-305v-100h280v-140h-280v-110h315v-140h-460zM210 685l-75 10c0 85 40 125 90 125c60 0 80 -45 110 -45c20 0 35 15 35 45l75 -10c0 -85 -40 -125 -90 -125c-60 0 -80 45 -110 45c-19 0 -35 -15 -35 -45z" />
    <glyph glyph-name="uni1EBD" unicode="&#x1ebd;" horiz-adv-x="515" 
d="M260 -10c-125 0 -230 105 -230 240s105 240 235 240c125 0 225 -95 225 -240c0 -20 -5 -45 -5 -45h-315c10 -35 45 -70 95 -70s70 30 70 30l140 -10c-25 -75 -95 -145 -215 -145zM170 270h190c-10 40 -45 75 -95 75s-85 -35 -95 -75zM185 510l-75 10c0 85 40 125 90 125
c60 0 80 -45 110 -45c20 0 35 15 35 45l75 -10c0 -85 -40 -125 -90 -125c-60 0 -80 45 -110 45c-19 0 -35 -15 -35 -45z" />
    <glyph glyph-name="uni1EBE" unicode="&#x1ebe;" horiz-adv-x="560" 
d="M60 0v630h450v-140h-305v-100h280v-140h-280v-110h315v-140h-460zM140 695l85 130h120l85 -130h-115l-30 60l-30 -60h-115zM400 775l60 110h125l-90 -110h-95z" />
    <glyph glyph-name="uni1EBF" unicode="&#x1ebf;" horiz-adv-x="515" 
d="M260 -10c-125 0 -230 105 -230 240s105 240 235 240c125 0 225 -95 225 -240c0 -20 -5 -45 -5 -45h-315c10 -35 45 -70 95 -70s70 30 70 30l140 -10c-25 -75 -95 -145 -215 -145zM170 270h190c-10 40 -45 75 -95 75s-85 -35 -95 -75zM120 520l85 130h120l85 -130h-115
l-30 60l-30 -60h-115zM380 600l60 110h125l-90 -110h-95z" />
    <glyph glyph-name="uni1EC0" unicode="&#x1ec0;" horiz-adv-x="560" 
d="M60 0v630h450v-140h-305v-100h280v-140h-280v-110h315v-140h-460zM140 695l85 130h120l85 -130h-115l-30 60l-30 -60h-115zM430 775l-90 110h125l60 -110h-95z" />
    <glyph glyph-name="uni1EC1" unicode="&#x1ec1;" horiz-adv-x="515" 
d="M260 -10c-125 0 -230 105 -230 240s105 240 235 240c125 0 225 -95 225 -240c0 -20 -5 -45 -5 -45h-315c10 -35 45 -70 95 -70s70 30 70 30l140 -10c-25 -75 -95 -145 -215 -145zM170 270h190c-10 40 -45 75 -95 75s-85 -35 -95 -75zM120 520l85 130h120l85 -130h-115
l-30 60l-30 -60h-115zM410 600l-90 110h125l60 -110h-95z" />
    <glyph glyph-name="uni1EC2" unicode="&#x1ec2;" horiz-adv-x="560" 
d="M60 0v630h450v-140h-305v-100h280v-140h-280v-110h315v-140h-460zM140 695l85 130h120l85 -130h-115l-30 60l-30 -60h-115zM400 775c0 0 25 30 25 60c0 20 -15 35 -40 35c-15 0 -25 -5 -25 -5v65s20 10 55 10c65 0 100 -35 100 -80c0 -55 -40 -85 -40 -85h-75z" />
    <glyph glyph-name="uni1EC3" unicode="&#x1ec3;" horiz-adv-x="515" 
d="M260 -10c-125 0 -230 105 -230 240s105 240 235 240c125 0 225 -95 225 -240c0 -20 -5 -45 -5 -45h-315c10 -35 45 -70 95 -70s70 30 70 30l140 -10c-25 -75 -95 -145 -215 -145zM170 270h190c-10 40 -45 75 -95 75s-85 -35 -95 -75zM120 520l85 130h120l85 -130h-115
l-30 60l-30 -60h-115zM380 600c0 0 25 30 25 60c0 20 -15 35 -40 35c-15 0 -25 -5 -25 -5v65s20 10 55 10c65 0 100 -35 100 -80c0 -55 -40 -85 -40 -85h-75z" />
    <glyph glyph-name="uni1EC4" unicode="&#x1ec4;" horiz-adv-x="560" 
d="M60 0v630h450v-140h-305v-100h280v-140h-280v-110h315v-140h-460zM140 695l85 120h120l85 -120h-115l-30 50l-30 -50h-115zM215 835l-75 10c0 80 35 115 90 115c50 0 80 -40 110 -40c15 0 25 10 25 40l75 -10c0 -80 -35 -115 -90 -115c-50 0 -80 40 -110 40
c-15 0 -25 -10 -25 -40z" />
    <glyph glyph-name="uni1EC5" unicode="&#x1ec5;" horiz-adv-x="515" 
d="M260 -10c-125 0 -230 105 -230 240s105 240 235 240c125 0 225 -95 225 -240c0 -20 -5 -45 -5 -45h-315c10 -35 45 -70 95 -70s70 30 70 30l140 -10c-25 -75 -95 -145 -215 -145zM170 270h190c-10 40 -45 75 -95 75s-85 -35 -95 -75zM120 520l85 120h120l85 -120h-115
l-30 50l-30 -50h-115zM195 660l-75 10c0 80 35 115 90 115c50 0 80 -40 110 -40c15 0 25 10 25 40l75 -10c0 -80 -35 -115 -90 -115c-50 0 -80 40 -110 40c-15 0 -25 -10 -25 -40z" />
    <glyph glyph-name="uni1EC6" unicode="&#x1ec6;" horiz-adv-x="560" 
d="M125 695l100 130h120l100 -130h-115l-45 60l-45 -60h-115zM60 0v630h450v-140h-305v-100h280v-140h-280v-110h315v-140h-460zM290 -205c-40 0 -75 35 -75 75s35 75 75 75s75 -35 75 -75s-35 -75 -75 -75z" />
    <glyph glyph-name="uni1EC7" unicode="&#x1ec7;" horiz-adv-x="515" 
d="M105 520l100 130h120l100 -130h-115l-45 60l-45 -60h-115zM260 -10c-125 0 -230 105 -230 240s105 240 235 240c125 0 225 -95 225 -240c0 -20 -5 -45 -5 -45h-315c10 -35 45 -70 95 -70s70 30 70 30l140 -10c-25 -75 -95 -145 -215 -145zM170 270h190
c-10 40 -45 75 -95 75s-85 -35 -95 -75zM260 -205c-40 0 -75 35 -75 75s35 75 75 75s75 -35 75 -75s-35 -75 -75 -75z" />
    <glyph glyph-name="uni1EC8" unicode="&#x1ec8;" horiz-adv-x="265" 
d="M60 0v630h145v-630h-145zM95 690c0 0 25 30 25 60c0 25 -20 45 -50 45c-15 0 -25 -5 -25 -5v65s20 10 55 10c70 0 110 -40 110 -90c0 -55 -40 -85 -40 -85h-75z" />
    <glyph glyph-name="uni1EC9" unicode="&#x1ec9;" horiz-adv-x="235" 
d="M50 0v460h135v-460h-135zM80 510c0 0 25 30 25 60c0 25 -20 45 -50 45c-15 0 -25 -5 -25 -5v65s20 10 55 10c70 0 110 -40 110 -90c0 -55 -40 -85 -40 -85h-75z" />
    <glyph glyph-name="uni1ECA" unicode="&#x1eca;" horiz-adv-x="265" 
d="M60 0v630h145v-630h-145zM130 -205c-40 0 -75 35 -75 75s35 75 75 75s75 -35 75 -75s-35 -75 -75 -75z" />
    <glyph glyph-name="uni1ECB" unicode="&#x1ecb;" horiz-adv-x="235" 
d="M50 0v460h135v-460h-135zM120 510c-40 0 -75 35 -75 75s35 75 75 75s75 -35 75 -75s-35 -75 -75 -75zM125 -205c-40 0 -75 35 -75 75s35 75 75 75s75 -35 75 -75s-35 -75 -75 -75z" />
    <glyph glyph-name="uni1ECC" unicode="&#x1ecc;" horiz-adv-x="680" 
d="M340 -5c-170 0 -310 140 -310 320s140 320 310 320s310 -140 310 -320s-140 -320 -310 -320zM340 135c90 0 165 75 165 180s-75 180 -165 180s-165 -75 -165 -180s75 -180 165 -180zM340 -205c-40 0 -75 35 -75 75s35 75 75 75s75 -35 75 -75s-35 -75 -75 -75z" />
    <glyph glyph-name="uni1ECD" unicode="&#x1ecd;" horiz-adv-x="530" 
d="M265 -10c-130 0 -235 105 -235 240s105 240 235 240s235 -105 235 -240s-105 -240 -235 -240zM265 115c55 0 100 45 100 115s-45 115 -100 115s-100 -45 -100 -115s45 -115 100 -115zM265 -205c-40 0 -75 35 -75 75s35 75 75 75s75 -35 75 -75s-35 -75 -75 -75z" />
    <glyph glyph-name="uni1ECE" unicode="&#x1ece;" horiz-adv-x="680" 
d="M340 -5c-170 0 -310 140 -310 320s140 320 310 320s310 -140 310 -320s-140 -320 -310 -320zM340 135c90 0 165 75 165 180s-75 180 -165 180s-165 -75 -165 -180s75 -180 165 -180zM315 690c0 0 25 30 25 60c0 25 -20 45 -50 45c-15 0 -25 -5 -25 -5v65s20 10 55 10
c70 0 110 -40 110 -90c0 -55 -40 -85 -40 -85h-75z" />
    <glyph glyph-name="uni1ECF" unicode="&#x1ecf;" horiz-adv-x="530" 
d="M265 -10c-130 0 -235 105 -235 240s105 240 235 240s235 -105 235 -240s-105 -240 -235 -240zM265 115c55 0 100 45 100 115s-45 115 -100 115s-100 -45 -100 -115s45 -115 100 -115zM225 510c0 0 25 30 25 60c0 25 -20 45 -50 45c-15 0 -25 -5 -25 -5v65s20 10 55 10
c70 0 110 -40 110 -90c0 -55 -40 -85 -40 -85h-75z" />
    <glyph glyph-name="uni1ED0" unicode="&#x1ed0;" horiz-adv-x="680" 
d="M340 -5c-170 0 -310 140 -310 320s140 320 310 320s310 -140 310 -320s-140 -320 -310 -320zM340 135c90 0 165 75 165 180s-75 180 -165 180s-165 -75 -165 -180s75 -180 165 -180zM195 695l85 130h120l85 -130h-115l-30 60l-30 -60h-115zM455 775l60 110h125l-90 -110
h-95z" />
    <glyph glyph-name="uni1ED1" unicode="&#x1ed1;" horiz-adv-x="530" 
d="M265 -10c-130 0 -235 105 -235 240s105 240 235 240s235 -105 235 -240s-105 -240 -235 -240zM265 115c55 0 100 45 100 115s-45 115 -100 115s-100 -45 -100 -115s45 -115 100 -115zM120 520l85 130h120l85 -130h-115l-30 60l-30 -60h-115zM380 600l60 110h125l-90 -110
h-95z" />
    <glyph glyph-name="uni1ED2" unicode="&#x1ed2;" horiz-adv-x="680" 
d="M340 -5c-170 0 -310 140 -310 320s140 320 310 320s310 -140 310 -320s-140 -320 -310 -320zM340 135c90 0 165 75 165 180s-75 180 -165 180s-165 -75 -165 -180s75 -180 165 -180zM195 695l85 130h120l85 -130h-115l-30 60l-30 -60h-115zM485 775l-90 110h125l60 -110
h-95z" />
    <glyph glyph-name="uni1ED3" unicode="&#x1ed3;" horiz-adv-x="530" 
d="M265 -10c-130 0 -235 105 -235 240s105 240 235 240s235 -105 235 -240s-105 -240 -235 -240zM265 115c55 0 100 45 100 115s-45 115 -100 115s-100 -45 -100 -115s45 -115 100 -115zM120 520l85 130h120l85 -130h-115l-30 60l-30 -60h-115zM410 600l-90 110h125l60 -110
h-95z" />
    <glyph glyph-name="uni1ED4" unicode="&#x1ed4;" horiz-adv-x="680" 
d="M340 -5c-170 0 -310 140 -310 320s140 320 310 320s310 -140 310 -320s-140 -320 -310 -320zM340 135c90 0 165 75 165 180s-75 180 -165 180s-165 -75 -165 -180s75 -180 165 -180zM195 695l85 130h120l85 -130h-115l-30 60l-30 -60h-115zM455 775c0 0 25 30 25 60
c0 20 -15 35 -40 35c-15 0 -25 -5 -25 -5v65s20 10 55 10c65 0 100 -35 100 -80c0 -55 -40 -85 -40 -85h-75z" />
    <glyph glyph-name="uni1ED5" unicode="&#x1ed5;" horiz-adv-x="530" 
d="M265 -10c-130 0 -235 105 -235 240s105 240 235 240s235 -105 235 -240s-105 -240 -235 -240zM265 115c55 0 100 45 100 115s-45 115 -100 115s-100 -45 -100 -115s45 -115 100 -115zM120 520l85 130h120l85 -130h-115l-30 60l-30 -60h-115zM380 600c0 0 25 30 25 60
c0 20 -15 35 -40 35c-15 0 -25 -5 -25 -5v65s20 10 55 10c65 0 100 -35 100 -80c0 -55 -40 -85 -40 -85h-75z" />
    <glyph glyph-name="uni1ED6" unicode="&#x1ed6;" horiz-adv-x="680" 
d="M340 -5c-170 0 -310 140 -310 320s140 320 310 320s310 -140 310 -320s-140 -320 -310 -320zM340 135c90 0 165 75 165 180s-75 180 -165 180s-165 -75 -165 -180s75 -180 165 -180zM195 695l85 120h120l85 -120h-115l-30 50l-30 -50h-115zM270 835l-75 10
c0 80 35 115 90 115c50 0 80 -40 110 -40c15 0 25 10 25 40l75 -10c0 -80 -35 -115 -90 -115c-50 0 -80 40 -110 40c-15 0 -25 -10 -25 -40z" />
    <glyph glyph-name="uni1ED7" unicode="&#x1ed7;" horiz-adv-x="530" 
d="M265 -10c-130 0 -235 105 -235 240s105 240 235 240s235 -105 235 -240s-105 -240 -235 -240zM265 115c55 0 100 45 100 115s-45 115 -100 115s-100 -45 -100 -115s45 -115 100 -115zM120 520l85 120h120l85 -120h-115l-30 50l-30 -50h-115zM195 660l-75 10
c0 80 35 115 90 115c50 0 80 -40 110 -40c15 0 25 10 25 40l75 -10c0 -80 -35 -115 -90 -115c-50 0 -80 40 -110 40c-15 0 -25 -10 -25 -40z" />
    <glyph glyph-name="uni1ED8" unicode="&#x1ed8;" horiz-adv-x="680" 
d="M180 695l100 130h120l100 -130h-115l-45 60l-45 -60h-115zM340 -5c-170 0 -310 140 -310 320s140 320 310 320s310 -140 310 -320s-140 -320 -310 -320zM340 135c90 0 165 75 165 180s-75 180 -165 180s-165 -75 -165 -180s75 -180 165 -180zM340 -205
c-40 0 -75 35 -75 75s35 75 75 75s75 -35 75 -75s-35 -75 -75 -75z" />
    <glyph glyph-name="uni1ED9" unicode="&#x1ed9;" horiz-adv-x="530" 
d="M105 520l100 130h120l100 -130h-115l-45 60l-45 -60h-115zM265 -10c-130 0 -235 105 -235 240s105 240 235 240s235 -105 235 -240s-105 -240 -235 -240zM265 115c55 0 100 45 100 115s-45 115 -100 115s-100 -45 -100 -115s45 -115 100 -115zM265 -205
c-40 0 -75 35 -75 75s35 75 75 75s75 -35 75 -75s-35 -75 -75 -75z" />
    <glyph glyph-name="uni1EDA" unicode="&#x1eda;" horiz-adv-x="680" 
d="M340 -5c-170 0 -310 140 -310 320s140 320 310 320c110 0 180 -60 180 -60h25c25 0 40 15 40 35c0 30 -15 55 -15 55h85s20 -25 20 -65c0 -85 -85 -95 -85 -95s60 -75 60 -190c0 -180 -140 -320 -310 -320zM340 135c90 0 165 75 165 180s-75 180 -165 180
s-165 -75 -165 -180s75 -180 165 -180zM290 695l65 130h135l-95 -130h-105z" />
    <glyph glyph-name="uni1EDB" unicode="&#x1edb;" horiz-adv-x="550" 
d="M265 -10c-130 0 -235 105 -235 240s105 240 235 240c95 0 150 -55 150 -55h15c25 0 40 15 40 35c0 30 -15 55 -15 55h85s20 -25 20 -65c0 -85 -90 -95 -90 -95s30 -45 30 -115c0 -135 -105 -240 -235 -240zM265 115c55 0 100 45 100 115s-45 115 -100 115
s-100 -45 -100 -115s45 -115 100 -115zM215 520l65 130h135l-95 -130h-105z" />
    <glyph glyph-name="uni1EDC" unicode="&#x1edc;" horiz-adv-x="680" 
d="M340 -5c-170 0 -310 140 -310 320s140 320 310 320c110 0 180 -60 180 -60h25c25 0 40 15 40 35c0 30 -15 55 -15 55h85s20 -25 20 -65c0 -85 -85 -95 -85 -95s60 -75 60 -190c0 -180 -140 -320 -310 -320zM340 135c90 0 165 75 165 180s-75 180 -165 180
s-165 -75 -165 -180s75 -180 165 -180zM290 695l-95 130h135l65 -130h-105z" />
    <glyph glyph-name="uni1EDD" unicode="&#x1edd;" horiz-adv-x="550" 
d="M265 -10c-130 0 -235 105 -235 240s105 240 235 240c95 0 150 -55 150 -55h15c25 0 40 15 40 35c0 30 -15 55 -15 55h85s20 -25 20 -65c0 -85 -90 -95 -90 -95s30 -45 30 -115c0 -135 -105 -240 -235 -240zM265 115c55 0 100 45 100 115s-45 115 -100 115
s-100 -45 -100 -115s45 -115 100 -115zM220 520l-95 130h135l65 -130h-105z" />
    <glyph glyph-name="uni1EDE" unicode="&#x1ede;" horiz-adv-x="680" 
d="M340 -5c-170 0 -310 140 -310 320s140 320 310 320c110 0 180 -60 180 -60h25c25 0 40 15 40 35c0 30 -15 55 -15 55h85s20 -25 20 -65c0 -85 -85 -95 -85 -95s60 -75 60 -190c0 -180 -140 -320 -310 -320zM340 135c90 0 165 75 165 180s-75 180 -165 180
s-165 -75 -165 -180s75 -180 165 -180zM315 690c0 0 25 30 25 60c0 25 -20 45 -50 45c-15 0 -25 -5 -25 -5v65s20 10 55 10c70 0 110 -40 110 -90c0 -55 -40 -85 -40 -85h-75z" />
    <glyph glyph-name="uni1EDF" unicode="&#x1edf;" horiz-adv-x="550" 
d="M265 -10c-130 0 -235 105 -235 240s105 240 235 240c95 0 150 -55 150 -55h15c25 0 40 15 40 35c0 30 -15 55 -15 55h85s20 -25 20 -65c0 -85 -90 -95 -90 -95s30 -45 30 -115c0 -135 -105 -240 -235 -240zM265 115c55 0 100 45 100 115s-45 115 -100 115
s-100 -45 -100 -115s45 -115 100 -115zM225 510c0 0 25 30 25 60c0 25 -20 45 -50 45c-15 0 -25 -5 -25 -5v65s20 10 55 10c70 0 110 -40 110 -90c0 -55 -40 -85 -40 -85h-75z" />
    <glyph glyph-name="uni1EE0" unicode="&#x1ee0;" horiz-adv-x="680" 
d="M340 -5c-170 0 -310 140 -310 320s140 320 310 320c110 0 180 -60 180 -60h25c25 0 40 15 40 35c0 30 -15 55 -15 55h85s20 -25 20 -65c0 -85 -85 -95 -85 -95s60 -75 60 -190c0 -180 -140 -320 -310 -320zM340 135c90 0 165 75 165 180s-75 180 -165 180
s-165 -75 -165 -180s75 -180 165 -180zM260 685l-75 10c0 85 40 125 90 125c60 0 80 -45 110 -45c20 0 35 15 35 45l75 -10c0 -85 -40 -125 -90 -125c-60 0 -80 45 -110 45c-19 0 -35 -15 -35 -45z" />
    <glyph glyph-name="uni1EE1" unicode="&#x1ee1;" horiz-adv-x="550" 
d="M265 -10c-130 0 -235 105 -235 240s105 240 235 240c95 0 150 -55 150 -55h15c25 0 40 15 40 35c0 30 -15 55 -15 55h85s20 -25 20 -65c0 -85 -90 -95 -90 -95s30 -45 30 -115c0 -135 -105 -240 -235 -240zM265 115c55 0 100 45 100 115s-45 115 -100 115
s-100 -45 -100 -115s45 -115 100 -115zM185 510l-75 10c0 85 40 125 90 125c60 0 80 -45 110 -45c20 0 35 15 35 45l75 -10c0 -85 -40 -125 -90 -125c-60 0 -80 45 -110 45c-19 0 -35 -15 -35 -45z" />
    <glyph glyph-name="uni1EE2" unicode="&#x1ee2;" horiz-adv-x="680" 
d="M340 -5c-170 0 -310 140 -310 320s140 320 310 320c110 0 180 -60 180 -60h25c25 0 40 15 40 35c0 30 -15 55 -15 55h85s20 -25 20 -65c0 -85 -85 -95 -85 -95s60 -75 60 -190c0 -180 -140 -320 -310 -320zM340 135c90 0 165 75 165 180s-75 180 -165 180
s-165 -75 -165 -180s75 -180 165 -180zM340 -205c-40 0 -75 35 -75 75s35 75 75 75s75 -35 75 -75s-35 -75 -75 -75z" />
    <glyph glyph-name="uni1EE3" unicode="&#x1ee3;" horiz-adv-x="550" 
d="M265 -10c-130 0 -235 105 -235 240s105 240 235 240c95 0 150 -55 150 -55h15c25 0 40 15 40 35c0 30 -15 55 -15 55h85s20 -25 20 -65c0 -85 -90 -95 -90 -95s30 -45 30 -115c0 -135 -105 -240 -235 -240zM265 115c55 0 100 45 100 115s-45 115 -100 115
s-100 -45 -100 -115s45 -115 100 -115zM265 -205c-40 0 -75 35 -75 75s35 75 75 75s75 -35 75 -75s-35 -75 -75 -75z" />
    <glyph glyph-name="uni1EE4" unicode="&#x1ee4;" horiz-adv-x="620" 
d="M310 -5c-155 0 -260 105 -260 260v375h145v-375c0 -75 45 -120 115 -120s115 45 115 120v375h145v-375c0 -155 -105 -260 -260 -260zM310 -205c-40 0 -75 35 -75 75s35 75 75 75s75 -35 75 -75s-35 -75 -75 -75z" />
    <glyph glyph-name="uni1EE5" unicode="&#x1ee5;" 
d="M230 -5c-110 0 -185 75 -185 195v270h135v-245c0 -60 35 -95 85 -95s85 35 85 95v245h135v-460h-100l-20 45s-55 -50 -135 -50zM265 -205c-40 0 -75 35 -75 75s35 75 75 75s75 -35 75 -75s-35 -75 -75 -75z" />
    <glyph glyph-name="uni1EE6" unicode="&#x1ee6;" horiz-adv-x="620" 
d="M310 -5c-155 0 -260 105 -260 260v375h145v-375c0 -75 45 -120 115 -120s115 45 115 120v375h145v-375c0 -155 -105 -260 -260 -260zM280 690c0 0 25 30 25 60c0 25 -20 45 -50 45c-15 0 -25 -5 -25 -5v65s20 10 55 10c70 0 110 -40 110 -90c0 -55 -40 -85 -40 -85h-75z
" />
    <glyph glyph-name="uni1EE7" unicode="&#x1ee7;" 
d="M230 -5c-110 0 -185 75 -185 195v270h135v-245c0 -60 35 -95 85 -95s85 35 85 95v245h135v-460h-100l-20 45s-55 -50 -135 -50zM230 510c0 0 25 30 25 60c0 25 -20 45 -50 45c-15 0 -25 -5 -25 -5v65s20 10 55 10c70 0 110 -40 110 -90c0 -55 -40 -85 -40 -85h-75z" />
    <glyph glyph-name="uni1EE8" unicode="&#x1ee8;" horiz-adv-x="705" 
d="M310 -5c-155 0 -260 105 -260 260v375h145v-375c0 -75 45 -120 115 -120s115 45 115 120v375h145v-55h15c25 0 40 15 40 35c0 30 -15 55 -15 55h85s20 -25 20 -65c0 -55 -40 -95 -110 -95c-15 0 -35 5 -35 5v-255c0 -155 -105 -260 -260 -260zM255 700l65 130h135
l-95 -130h-105z" />
    <glyph glyph-name="uni1EE9" unicode="&#x1ee9;" horiz-adv-x="620" 
d="M230 -5c-110 0 -185 75 -185 195v270h135v-245c0 -60 35 -95 85 -95s85 35 85 95v245h135v-45h15c25 0 40 15 40 35c0 30 -15 55 -15 55h85s20 -25 20 -65c0 -55 -40 -95 -110 -95c-15 0 -35 5 -35 5v-350h-100l-20 45s-55 -50 -135 -50zM210 520l65 130h135l-95 -130
h-105z" />
    <glyph glyph-name="uni1EEA" unicode="&#x1eea;" horiz-adv-x="705" 
d="M310 -5c-155 0 -260 105 -260 260v375h145v-375c0 -75 45 -120 115 -120s115 45 115 120v375h145v-55h15c25 0 40 15 40 35c0 30 -15 55 -15 55h85s20 -25 20 -65c0 -55 -40 -95 -110 -95c-15 0 -35 5 -35 5v-255c0 -155 -105 -260 -260 -260zM265 700l-95 130h135
l65 -130h-105z" />
    <glyph glyph-name="uni1EEB" unicode="&#x1eeb;" horiz-adv-x="620" 
d="M230 -5c-110 0 -185 75 -185 195v270h135v-245c0 -60 35 -95 85 -95s85 35 85 95v245h135v-45h15c25 0 40 15 40 35c0 30 -15 55 -15 55h85s20 -25 20 -65c0 -55 -40 -95 -110 -95c-15 0 -35 5 -35 5v-350h-100l-20 45s-55 -50 -135 -50zM225 520l-95 130h135l65 -130
h-105z" />
    <glyph glyph-name="uni1EEC" unicode="&#x1eec;" horiz-adv-x="705" 
d="M310 -5c-155 0 -260 105 -260 260v375h145v-375c0 -75 45 -120 115 -120s115 45 115 120v375h145v-55h15c25 0 40 15 40 35c0 30 -15 55 -15 55h85s20 -25 20 -65c0 -55 -40 -95 -110 -95c-15 0 -35 5 -35 5v-255c0 -155 -105 -260 -260 -260zM280 690c0 0 25 30 25 60
c0 25 -20 45 -50 45c-15 0 -25 -5 -25 -5v65s20 10 55 10c70 0 110 -40 110 -90c0 -55 -40 -85 -40 -85h-75z" />
    <glyph glyph-name="uni1EED" unicode="&#x1eed;" horiz-adv-x="620" 
d="M230 -5c-110 0 -185 75 -185 195v270h135v-245c0 -60 35 -95 85 -95s85 35 85 95v245h135v-45h15c25 0 40 15 40 35c0 30 -15 55 -15 55h85s20 -25 20 -65c0 -55 -40 -95 -110 -95c-15 0 -35 5 -35 5v-350h-100l-20 45s-55 -50 -135 -50zM230 510c0 0 25 30 25 60
c0 25 -20 45 -50 45c-15 0 -25 -5 -25 -5v65s20 10 55 10c70 0 110 -40 110 -90c0 -55 -40 -85 -40 -85h-75z" />
    <glyph glyph-name="uni1EEE" unicode="&#x1eee;" horiz-adv-x="705" 
d="M310 -5c-155 0 -260 105 -260 260v375h145v-375c0 -75 45 -120 115 -120s115 45 115 120v375h145v-55h15c25 0 40 15 40 35c0 30 -15 55 -15 55h85s20 -25 20 -65c0 -55 -40 -95 -110 -95c-15 0 -35 5 -35 5v-255c0 -155 -105 -260 -260 -260zM230 685l-75 10
c0 85 40 125 90 125c60 0 80 -45 110 -45c20 0 35 15 35 45l75 -10c0 -85 -40 -125 -90 -125c-60 0 -80 45 -110 45c-19 0 -35 -15 -35 -45z" />
    <glyph glyph-name="uni1EEF" unicode="&#x1eef;" horiz-adv-x="620" 
d="M230 -5c-110 0 -185 75 -185 195v270h135v-245c0 -60 35 -95 85 -95s85 35 85 95v245h135v-45h15c25 0 40 15 40 35c0 30 -15 55 -15 55h85s20 -25 20 -65c0 -55 -40 -95 -110 -95c-15 0 -35 5 -35 5v-350h-100l-20 45s-55 -50 -135 -50zM185 510l-75 10
c0 85 40 125 90 125c60 0 80 -45 110 -45c20 0 35 15 35 45l75 -10c0 -85 -40 -125 -90 -125c-60 0 -80 45 -110 45c-19 0 -35 -15 -35 -45z" />
    <glyph glyph-name="uni1EF0" unicode="&#x1ef0;" horiz-adv-x="705" 
d="M310 -5c-155 0 -260 105 -260 260v375h145v-375c0 -75 45 -120 115 -120s115 45 115 120v375h145v-55h15c25 0 40 15 40 35c0 30 -15 55 -15 55h85s20 -25 20 -65c0 -55 -40 -95 -110 -95c-15 0 -35 5 -35 5v-255c0 -155 -105 -260 -260 -260zM310 -205
c-40 0 -75 35 -75 75s35 75 75 75s75 -35 75 -75s-35 -75 -75 -75z" />
    <glyph glyph-name="uni1EF1" unicode="&#x1ef1;" horiz-adv-x="620" 
d="M230 -5c-110 0 -185 75 -185 195v270h135v-245c0 -60 35 -95 85 -95s85 35 85 95v245h135v-45h15c25 0 40 15 40 35c0 30 -15 55 -15 55h85s20 -25 20 -65c0 -55 -40 -95 -110 -95c-15 0 -35 5 -35 5v-350h-100l-20 45s-55 -50 -135 -50zM265 -205c-40 0 -75 35 -75 75
s35 75 75 75s75 -35 75 -75s-35 -75 -75 -75z" />
    <glyph glyph-name="uni1EF2" unicode="&#x1ef2;" horiz-adv-x="565" 
d="M210 0v235l-210 395h155l128 -250l127 250h155l-210 -395v-235h-145zM230 700l-95 130h135l65 -130h-105z" />
    <glyph glyph-name="uni1EF3" unicode="&#x1ef3;" horiz-adv-x="490" 
d="M125 -165c-20 0 -45 5 -45 5v115c55 0 80 25 95 65l-175 440h145l100 -285l100 285h145l-185 -460c-46 -115 -95 -165 -180 -165zM195 520l-95 130h135l65 -130h-105z" />
    <glyph glyph-name="uni1EF4" unicode="&#x1ef4;" horiz-adv-x="565" 
d="M210 0v235l-210 395h155l128 -250l127 250h155l-210 -395v-235h-145zM280 -205c-40 0 -75 35 -75 75s35 75 75 75s75 -35 75 -75s-35 -75 -75 -75z" />
    <glyph glyph-name="uni1EF5" unicode="&#x1ef5;" horiz-adv-x="490" 
d="M125 -165c-20 0 -45 5 -45 5v115c55 0 80 25 95 65l-175 440h145l100 -285l100 285h145l-185 -460c-46 -115 -95 -165 -180 -165zM375 -205c-40 0 -75 35 -75 75s35 75 75 75s75 -35 75 -75s-35 -75 -75 -75z" />
    <glyph glyph-name="uni1EF6" unicode="&#x1ef6;" horiz-adv-x="565" 
d="M210 0v235l-210 395h155l128 -250l127 250h155l-210 -395v-235h-145zM250 690c0 0 25 30 25 60c0 25 -20 45 -50 45c-15 0 -25 -5 -25 -5v65s20 10 55 10c70 0 110 -40 110 -90c0 -55 -40 -85 -40 -85h-75z" />
    <glyph glyph-name="uni1EF7" unicode="&#x1ef7;" horiz-adv-x="490" 
d="M125 -165c-20 0 -45 5 -45 5v115c55 0 80 25 95 65l-175 440h145l100 -285l100 285h145l-185 -460c-46 -115 -95 -165 -180 -165zM210 510c0 0 25 30 25 60c0 25 -20 45 -50 45c-15 0 -25 -5 -25 -5v65s20 10 55 10c70 0 110 -40 110 -90c0 -55 -40 -85 -40 -85h-75z" />
    <glyph glyph-name="uni1EF8" unicode="&#x1ef8;" horiz-adv-x="565" 
d="M210 0v235l-210 395h155l128 -250l127 250h155l-210 -395v-235h-145zM200 685l-75 10c0 85 40 125 90 125c60 0 80 -45 110 -45c20 0 35 15 35 45l75 -10c0 -85 -40 -125 -90 -125c-60 0 -80 45 -110 45c-19 0 -35 -15 -35 -45z" />
    <glyph glyph-name="uni1EF9" unicode="&#x1ef9;" horiz-adv-x="490" 
d="M125 -165c-20 0 -45 5 -45 5v115c55 0 80 25 95 65l-175 440h145l100 -285l100 285h145l-185 -460c-46 -115 -95 -165 -180 -165zM165 510l-75 10c0 85 40 125 90 125c60 0 80 -45 110 -45c20 0 35 15 35 45l75 -10c0 -85 -40 -125 -90 -125c-60 0 -80 45 -110 45
c-19 0 -35 -15 -35 -45z" />
    <glyph glyph-name="endash" unicode="&#x2013;" horiz-adv-x="495" 
d="M35 195v120h425v-120h-425z" />
    <glyph glyph-name="emdash" unicode="&#x2014;" horiz-adv-x="740" 
d="M35 195v120h670v-120h-670z" />
    <glyph glyph-name="quoteleft" unicode="&#x2018;" horiz-adv-x="210" 
d="M105 405c-40 0 -75 35 -75 80c0 125 100 175 100 175l25 -35s-40 -25 -50 -70c40 0 75 -35 75 -75s-35 -75 -75 -75z" />
    <glyph glyph-name="quoteright" unicode="&#x2019;" horiz-adv-x="210" 
d="M80 405l-25 35s40 25 50 70c-40 0 -75 35 -75 75s35 75 75 75s75 -35 75 -80c0 -125 -100 -175 -100 -175z" />
    <glyph glyph-name="quotesinglbase" unicode="&#x201a;" horiz-adv-x="210" 
d="M80 -110l-25 35s40 25 50 70c-40 0 -75 35 -75 75s35 75 75 75s75 -35 75 -80c0 -125 -100 -175 -100 -175z" />
    <glyph glyph-name="quotedblleft" unicode="&#x201c;" horiz-adv-x="395" 
d="M105 405c-40 0 -75 35 -75 80c0 125 100 175 100 175l25 -35s-40 -25 -50 -70c40 0 75 -35 75 -75s-35 -75 -75 -75zM290 405c-40 0 -75 35 -75 80c0 125 100 175 100 175l25 -35s-40 -25 -50 -70c40 0 75 -35 75 -75s-35 -75 -75 -75z" />
    <glyph glyph-name="quotedblright" unicode="&#x201d;" horiz-adv-x="395" 
d="M80 405l-25 35s40 25 50 70c-40 0 -75 35 -75 75s35 75 75 75s75 -35 75 -80c0 -125 -100 -175 -100 -175zM265 405l-25 35s40 25 50 70c-40 0 -75 35 -75 75s35 75 75 75s75 -35 75 -80c0 -125 -100 -175 -100 -175z" />
    <glyph glyph-name="quotedblbase" unicode="&#x201e;" horiz-adv-x="395" 
d="M80 -110l-25 35s40 25 50 70c-40 0 -75 35 -75 75s35 75 75 75s75 -35 75 -80c0 -125 -100 -175 -100 -175zM265 -110l-25 35s40 25 50 70c-40 0 -75 35 -75 75s35 75 75 75s75 -35 75 -80c0 -125 -100 -175 -100 -175z" />
    <glyph glyph-name="dagger" unicode="&#x2020;" horiz-adv-x="400" 
d="M140 165v240h-105v115h105v110h120v-110h105v-115h-105v-240h-120z" />
    <glyph glyph-name="daggerdbl" unicode="&#x2021;" horiz-adv-x="400" 
d="M140 165v95h-105v100h105v75h-105v100h105v95h120v-95h105v-100h-105v-75h105v-100h-105v-95h-120z" />
    <glyph glyph-name="bullet" unicode="&#x2022;" horiz-adv-x="380" 
d="M190 165c-60 0 -105 45 -105 105s45 105 105 105s105 -45 105 -105s-45 -105 -105 -105z" />
    <glyph glyph-name="ellipsis" unicode="&#x2026;" horiz-adv-x="610" 
d="M105 -5c-40 0 -75 35 -75 75s35 75 75 75s75 -35 75 -75s-35 -75 -75 -75zM305 -5c-40 0 -75 35 -75 75s35 75 75 75s75 -35 75 -75s-35 -75 -75 -75zM505 -5c-40 0 -75 35 -75 75s35 75 75 75s75 -35 75 -75s-35 -75 -75 -75z" />
    <glyph glyph-name="perthousand" unicode="&#x2030;" horiz-adv-x="980" 
d="M80 0l385 630h115l-385 -630h-115zM490 -5c-80 0 -140 60 -140 140s60 140 140 140s140 -60 140 -140s-60 -140 -140 -140zM490 80c30 0 55 24 55 55c0 30 -25 55 -55 55s-55 -25 -55 -55s25 -55 55 -55zM810 -5c-80 0 -140 60 -140 140s60 140 140 140s140 -60 140 -140
s-60 -140 -140 -140zM810 80c30 0 55 24 55 55c0 30 -25 55 -55 55s-55 -25 -55 -55s25 -55 55 -55zM170 355c-80 0 -140 60 -140 140s60 140 140 140s140 -60 140 -140s-60 -140 -140 -140zM170 440c30 0 55 24 55 55c0 30 -25 55 -55 55s-55 -25 -55 -55s25 -55 55 -55z
" />
    <glyph glyph-name="guilsinglleft" unicode="&#x2039;" horiz-adv-x="305" 
d="M140 65l-110 160l110 160h135l-110 -160l110 -160h-135z" />
    <glyph glyph-name="guilsinglright" unicode="&#x203a;" horiz-adv-x="305" 
d="M30 65l110 160l-110 160h135l110 -160l-110 -160h-135z" />
    <glyph glyph-name="uni203D" unicode="&#x203d;" horiz-adv-x="465" 
d="M230 -5c-40 0 -75 35 -75 75s35 75 75 75s75 -35 75 -75s-35 -75 -75 -75zM155 190l-10 230l-130 10c10 125 90 205 210 205c135 0 215 -80 215 -175c0 -135 -140 -135 -145 -270h-140zM225 355c35 25 65 55 65 90s-25 60 -60 60z" />
    <glyph glyph-name="fraction" unicode="&#x2044;" horiz-adv-x="120" 
d="M-190 0l385 630h115l-385 -630h-115z" />
    <glyph glyph-name="zerosuperior" unicode="&#x2070;" horiz-adv-x="310" 
d="M155 415c-75 0 -130 55 -130 155s55 155 130 155s130 -55 130 -155s-55 -155 -130 -155zM155 495c20 0 40 20 40 75s-20 75 -40 75s-40 -20 -40 -75s20 -75 40 -75z" />
    <glyph glyph-name="foursuperior" unicode="&#x2074;" horiz-adv-x="280" 
d="M135 420v55h-135v55l120 190h105v-170h35v-75h-35v-55h-90zM90 550h50v80z" />
    <glyph glyph-name="fivesuperior" unicode="&#x2075;" horiz-adv-x="280" 
d="M140 415c-60 0 -105 35 -120 90l90 5s10 -20 30 -20c15 0 30 15 30 35s-15 35 -30 35c-25 0 -30 -23 -30 -23h-80l20 183h190v-75h-115l-5 -35s15 10 40 10c50 0 100 -40 100 -95c0 -60 -45 -110 -120 -110z" />
    <glyph glyph-name="sixsuperior" unicode="&#x2076;" horiz-adv-x="285" 
d="M145 415c-75 0 -125 50 -125 110c0 50 45 105 45 105l65 90h95l-65 -90c60 0 110 -50 110 -105c0 -60 -50 -110 -125 -110zM145 485c20 0 35 15 35 40s-15 40 -35 40s-35 -15 -35 -40s15 -40 35 -40z" />
    <glyph glyph-name="sevensuperior" unicode="&#x2077;" horiz-adv-x="255" 
d="M45 420l100 220h-120v80h220v-65l-105 -235h-95z" />
    <glyph glyph-name="eightsuperior" unicode="&#x2078;" horiz-adv-x="290" 
d="M145 415c-80 0 -125 45 -125 90c0 50 45 70 45 70s-35 20 -35 60c0 50 40 90 115 90s115 -40 115 -90c0 -40 -35 -60 -35 -60s45 -20 45 -70c0 -45 -45 -90 -125 -90zM145 475c20 0 35 15 35 35s-15 35 -35 35s-35 -15 -35 -35s15 -35 35 -35zM145 605c15 0 30 15 30 30
s-15 30 -30 30s-30 -15 -30 -30s15 -30 30 -30z" />
    <glyph glyph-name="ninesuperior" unicode="&#x2079;" horiz-adv-x="285" 
d="M60 420l65 90c-60 0 -110 50 -110 105c0 60 50 110 125 110s125 -50 125 -110c0 -50 -45 -105 -45 -105l-65 -90h-95zM140 575c20 0 35 15 35 40s-15 40 -35 40s-35 -15 -35 -40s15 -40 35 -40z" />
    <glyph glyph-name="zeroinferior" unicode="&#x2080;" horiz-adv-x="310" 
d="M155 -100c-75 0 -130 55 -130 155s55 155 130 155s130 -55 130 -155s-55 -155 -130 -155zM155 -20c20 0 40 20 40 75s-20 75 -40 75s-40 -20 -40 -75s20 -75 40 -75z" />
    <glyph glyph-name="oneinferior" unicode="&#x2081;" horiz-adv-x="250" 
d="M90 -95v190l-35 -20l-40 65l105 65h60v-300h-90z" />
    <glyph glyph-name="twoinferior" unicode="&#x2082;" horiz-adv-x="280" 
d="M25 -95v60l90 80s50 40 50 65c0 15 -10 25 -30 25s-35 -15 -35 -35l-80 5c10 65 50 105 120 105c80 0 120 -40 120 -100c0 -40 -30 -65 -30 -65l-75 -65h100v-75h-230z" />
    <glyph glyph-name="threeinferior" unicode="&#x2083;" horiz-adv-x="285" 
d="M140 -100c-75 0 -120 45 -125 100c1 0 84 5 85 5c0 -15 16 -30 36 -30c29 0 39 15 39 25c0 15 -10 25 -39 25h-31v65h30c15 0 30 10 30 20c0 15 -10 25 -30 25c-25 0 -35 -10 -35 -25l-80 5c5 55 45 95 120 95s115 -40 115 -90c0 -40 -35 -60 -35 -60s45 -20 45 -65
c0 -50 -50 -95 -125 -95z" />
    <glyph glyph-name="fourinferior" unicode="&#x2084;" horiz-adv-x="280" 
d="M135 -95v55h-135v55l120 190h105v-170h35v-75h-35v-55h-90zM90 35h50v80z" />
    <glyph glyph-name="fiveinferior" unicode="&#x2085;" horiz-adv-x="280" 
d="M140 -100c-60 0 -105 35 -120 90l90 5s10 -20 30 -20c15 0 30 15 30 35s-15 35 -30 35c-25 0 -30 -23 -30 -23h-80l20 183h190v-75h-115l-5 -35s15 10 40 10c50 0 100 -40 100 -95c0 -60 -45 -110 -120 -110z" />
    <glyph glyph-name="sixinferior" unicode="&#x2086;" horiz-adv-x="285" 
d="M145 -100c-75 0 -125 50 -125 110c0 50 45 105 45 105l65 90h95l-65 -90c60 0 110 -50 110 -105c0 -60 -50 -110 -125 -110zM145 -30c20 0 35 15 35 40s-15 40 -35 40s-35 -15 -35 -40s15 -40 35 -40z" />
    <glyph glyph-name="seveninferior" unicode="&#x2087;" horiz-adv-x="255" 
d="M45 -95l100 220h-120v80h220v-65l-105 -235h-95z" />
    <glyph glyph-name="eightinferior" unicode="&#x2088;" horiz-adv-x="290" 
d="M145 -100c-80 0 -125 45 -125 90c0 50 45 70 45 70s-35 20 -35 60c0 50 40 90 115 90s115 -40 115 -90c0 -40 -35 -60 -35 -60s45 -20 45 -70c0 -45 -45 -90 -125 -90zM145 -40c20 0 35 15 35 35s-15 35 -35 35s-35 -15 -35 -35s15 -35 35 -35zM145 90c15 0 30 15 30 30
s-15 30 -30 30s-30 -15 -30 -30s15 -30 30 -30z" />
    <glyph glyph-name="nineinferior" unicode="&#x2089;" horiz-adv-x="285" 
d="M60 -95l65 90c-60 0 -110 50 -110 105c0 60 50 110 125 110s125 -50 125 -110c0 -50 -45 -105 -45 -105l-65 -90h-95zM140 60c20 0 35 15 35 40s-15 40 -35 40s-35 -15 -35 -40s15 -40 35 -40z" />
    <glyph glyph-name="uni20A9" unicode="&#x20a9;" horiz-adv-x="850" 
d="M195 0l-51 190h-139v90h114l-16 60h-98v90h74l-54 200h145l55 -200h97l53 200h100l52 -200h98l55 200h145l-54 -200h74v-90h-99l-16 -60h115v-90h-139l-51 -190h-130l-50 190h-100l-50 -190h-130zM266 280h17l16 60h-49zM398 280h53l-16 60h-21zM567 280h16l17 60h-49z
" />
    <glyph glyph-name="uni20AB" unicode="&#x20ab;" horiz-adv-x="475" 
d="M60 0v80h350v-80h-350zM205 110c-100 0 -175 75 -175 175s75 175 175 175c65 0 95 -30 95 -30v60h-95v90h95v50h115v-50h55v-90h-55v-375h-85l-15 35s-35 -40 -110 -40zM225 210c45 0 80 35 80 75s-35 75 -80 75s-80 -35 -80 -75s35 -75 80 -75z" />
    <glyph glyph-name="Euro" unicode="&#x20ac;" horiz-adv-x="700" 
d="M385 -5c-230 0 -290 210 -290 210h-75v80h60v50h-60v80h75s60 220 290 220c155 0 250 -95 285 -220l-145 -10c-15 55 -60 100 -140 100c-95 0 -135 -90 -135 -90h150v-80h-170v-50h170v-80h-150s40 -80 135 -80c80 0 125 45 140 100l145 -10
c-35 -125 -130 -220 -285 -220z" />
    <glyph glyph-name="uni20B4" unicode="&#x20b4;" horiz-adv-x="555" 
d="M275 -5c-135 0 -205 75 -205 150c0 45 25 65 25 65h-60v80h485v-80h-260s-40 -17 -40 -50c0 -25 25 -50 65 -50c45 0 70 25 70 60l135 -10c-10 -95 -80 -165 -215 -165zM35 340v80h260s40 17 40 50c0 25 -25 50 -65 50c-45 0 -70 -25 -70 -60l-135 10
c10 95 80 165 215 165s205 -75 205 -150c0 -45 -25 -65 -25 -65h60v-80h-485z" />
    <glyph glyph-name="uni20B8" unicode="&#x20b8;" 
d="M195 0v340h-170v120h485v-120h-170v-340h-145zM25 510v120h485v-120h-485z" />
    <glyph glyph-name="uni20B9" unicode="&#x20b9;" horiz-adv-x="525" 
d="M295 0l-260 220v110h145c50 0 80 30 90 50h-235v90h235c-10 20 -40 50 -90 50h-145v110h450v-110h-85s15 -25 20 -50h65v-90h-65c-15 -80 -85 -150 -180 -160l260 -220h-205z" />
    <glyph glyph-name="uni20BA" unicode="&#x20ba;" horiz-adv-x="540" 
d="M85 0v204l-65 -24v110l65 24v40l-65 -24v110l65 24v166h145v-113l130 48v-110l-130 -48v-40l130 48v-110l-130 -48v-117c112 0 155 39 155 120h135c0 -174 -84 -260 -290 -260h-145z" />
    <glyph glyph-name="uni20BD" unicode="&#x20bd;" horiz-adv-x="580" 
d="M95 0v85h-70v115h70v45h-70v115h70v270h230c140 0 225 -85 225 -195c0 -105 -85 -190 -225 -190h-85v-45h170v-115h-170v-85h-145zM240 360h80c50 0 85 35 85 75s-35 75 -85 75h-80v-150z" />
    <glyph glyph-name="uni20BF" unicode="&#x20bf;" horiz-adv-x="580" 
d="M150 -85v85h-90v630h90v85h105v-85h40v85h105v-96c76 -25 125 -90 125 -164c0 -85 -75 -120 -75 -120s100 -40 100 -150c0 -84 -60 -157 -150 -179v-91h-105v85h-40v-85h-105zM205 120h125c45 0 80 35 80 75s-35 75 -80 75h-125v-150zM205 380h110c40 0 70 30 70 65
s-30 65 -70 65h-110v-130z" />
    <glyph glyph-name="uni2113" unicode="&#x2113;" horiz-adv-x="360" 
d="M205 -10c-75 0 -125 50 -125 140v60s-35 -15 -75 -15v90c45 0 75 15 75 15v220c0 90 50 140 120 140s125 -55 125 -155c0 -130 -85 -215 -155 -260v-95c0 -35 20 -55 55 -55s55 15 55 15v-80s-25 -20 -75 -20zM170 340c30 25 65 70 65 145c0 45 -20 65 -35 65
s-30 -15 -30 -50v-160z" />
    <glyph glyph-name="afii61352" unicode="&#x2116;" horiz-adv-x="1003" 
d="M60 0v630h130l255 -370v370h145v-630h-130l-255 370v-370h-145zM678 0v110h280v-110h-280zM818 165c-85 0 -150 65 -150 150s65 150 150 150s150 -65 150 -150s-65 -150 -150 -150zM818 265c30 0 50 20 50 50s-20 50 -50 50s-50 -20 -50 -50s20 -50 50 -50z" />
    <glyph glyph-name="uni2117" unicode="&#x2117;" horiz-adv-x="720" 
d="M360 -5c-180 0 -320 140 -320 320s140 320 320 320s320 -140 320 -320s-140 -320 -320 -320zM360 75c130 0 235 105 235 240s-105 240 -235 240s-235 -105 -235 -240s105 -240 235 -240zM255 150v330h130c70 0 120 -50 120 -115s-50 -115 -120 -115h-45v-100h-85z
M340 325h40c25 0 40 15 40 40s-15 40 -40 40h-40v-80z" />
    <glyph glyph-name="trademark" unicode="&#x2122;" horiz-adv-x="595" 
d="M80 370v180h-70v80h225v-80h-70v-180h-85zM265 370v260h75l70 -105l70 105h75v-260h-85v135l-45 -65h-30l-45 65v-135h-85z" />
    <glyph glyph-name="uni2126" unicode="&#x2126;" horiz-adv-x="750" 
d="M75 0v90h115s-130 80 -130 245c0 170 135 305 315 305s315 -135 315 -305c0 -165 -130 -245 -130 -245h115v-90h-250v90s175 65 175 245c0 120 -100 220 -225 220s-225 -100 -225 -220c0 -180 175 -245 175 -245v-90h-250z" />
    <glyph glyph-name="estimated" unicode="&#x212e;" horiz-adv-x="770" 
d="M390 -10c-180 0 -325 145 -325 325s145 325 325 325s325 -145 325 -325v-5h-515v-220s70 -70 190 -70c180 0 255 140 255 140h35s-80 -170 -290 -170zM200 340h380v200c-50 45 -120 70 -190 70s-140 -25 -190 -70v-200z" />
    <glyph glyph-name="uni2150" unicode="&#x2150;" horiz-adv-x="625" 
d="M60 0l385 630h115l-385 -630h-115zM90 330v190l-35 -20l-40 65l105 65h60v-300h-90zM415 0l100 220h-120v80h220v-65l-105 -235h-95z" />
    <glyph glyph-name="uni2151" unicode="&#x2151;" horiz-adv-x="645" 
d="M60 0l385 630h115l-385 -630h-115zM90 330v190l-35 -20l-40 65l105 65h60v-300h-90zM420 2l65 90c-60 0 -110 50 -110 105c0 60 50 110 125 110s125 -50 125 -110c0 -50 -45 -105 -45 -105l-65 -90h-95zM500 157c20 0 35 15 35 40s-15 40 -35 40s-35 -15 -35 -40
s15 -40 35 -40z" />
    <glyph glyph-name="uni2152" unicode="&#x2152;" horiz-adv-x="870" 
d="M60 0l385 630h115l-385 -630h-115zM90 330v190l-35 -20l-40 65l105 65h60v-300h-90zM450 0v190l-35 -20l-40 65l105 65h60v-300h-90zM715 -5c-75 0 -130 55 -130 155s55 155 130 155s130 -55 130 -155s-55 -155 -130 -155zM715 75c20 0 40 20 40 75s-20 75 -40 75
s-40 -20 -40 -75s20 -75 40 -75z" />
    <glyph glyph-name="onethird" unicode="&#x2153;" horiz-adv-x="645" 
d="M60 0l385 630h115l-385 -630h-115zM90 330v190l-35 -20l-40 65l105 65h60v-300h-90zM500 -5c-75 0 -120 45 -125 100c1 0 84 5 85 5c0 -15 16 -30 36 -30c29 0 39 15 39 25c0 15 -10 25 -39 25h-31v65h30c15 0 30 10 30 20c0 15 -10 25 -30 25c-25 0 -35 -10 -35 -25
l-80 5c5 55 45 95 120 95s115 -40 115 -90c0 -40 -35 -60 -35 -60s45 -20 45 -65c0 -50 -50 -95 -125 -95z" />
    <glyph glyph-name="twothirds" unicode="&#x2154;" horiz-adv-x="665" 
d="M90 0l385 630h115l-385 -630h-115zM25 330v60l90 80s50 40 50 65c0 15 -10 25 -30 25s-35 -15 -35 -35l-80 5c10 65 50 105 120 105c80 0 120 -40 120 -100c0 -40 -30 -65 -30 -65l-75 -65h100v-75h-230zM520 -5c-75 0 -120 45 -125 100c1 0 84 5 85 5
c0 -15 16 -30 36 -30c29 0 39 15 39 25c0 15 -10 25 -39 25h-31v65h30c15 0 30 10 30 20c0 15 -10 25 -30 25c-25 0 -35 -10 -35 -25l-80 5c5 55 45 95 120 95s115 -40 115 -90c0 -40 -35 -60 -35 -60s45 -20 45 -65c0 -50 -50 -95 -125 -95z" />
    <glyph glyph-name="uni2155" unicode="&#x2155;" horiz-adv-x="640" 
d="M60 0l385 630h115l-385 -630h-115zM90 330v190l-35 -20l-40 65l105 65h60v-300h-90zM500 -5c-60 0 -105 35 -120 90l90 5s10 -20 30 -20c15 0 30 15 30 35s-15 35 -30 35c-25 0 -30 -23 -30 -23h-80l20 183h190v-75h-115l-5 -35s15 10 40 10c50 0 100 -40 100 -95
c0 -60 -45 -110 -120 -110z" />
    <glyph glyph-name="uni2156" unicode="&#x2156;" horiz-adv-x="660" 
d="M90 0l385 630h115l-385 -630h-115zM25 330v60l90 80s50 40 50 65c0 15 -10 25 -30 25s-35 -15 -35 -35l-80 5c10 65 50 105 120 105c80 0 120 -40 120 -100c0 -40 -30 -65 -30 -65l-75 -65h100v-75h-230zM520 -5c-60 0 -105 35 -120 90l90 5s10 -20 30 -20
c15 0 30 15 30 35s-15 35 -30 35c-25 0 -30 -23 -30 -23h-80l20 183h190v-75h-115l-5 -35s15 10 40 10c50 0 100 -40 100 -95c0 -60 -45 -110 -120 -110z" />
    <glyph glyph-name="uni2157" unicode="&#x2157;" horiz-adv-x="675" 
d="M95 0l385 630h115l-385 -630h-115zM140 325c-75 0 -120 45 -125 100c1 0 84 5 85 5c0 -15 16 -30 36 -30c29 0 39 15 39 25c0 15 -10 25 -39 25h-31v65h30c15 0 30 10 30 20c0 15 -10 25 -30 25c-25 0 -35 -10 -35 -25l-80 5c5 55 45 95 120 95s115 -40 115 -90
c0 -40 -35 -60 -35 -60s45 -20 45 -65c0 -50 -50 -95 -125 -95zM535 -5c-60 0 -105 35 -120 90l90 5s10 -20 30 -20c15 0 30 15 30 35s-15 35 -30 35c-25 0 -30 -23 -30 -23h-80l20 183h190v-75h-115l-5 -35s15 10 40 10c50 0 100 -40 100 -95c0 -60 -45 -110 -120 -110z
" />
    <glyph glyph-name="uni2158" unicode="&#x2158;" horiz-adv-x="670" 
d="M90 0l385 630h115l-385 -630h-115zM135 330v55h-135v55l120 190h105v-170h35v-75h-35v-55h-90zM90 460h50v80zM530 -5c-60 0 -105 35 -120 90l90 5s10 -20 30 -20c15 0 30 15 30 35s-15 35 -30 35c-25 0 -30 -23 -30 -23h-80l20 183h190v-75h-115l-5 -35s15 10 40 10
c50 0 100 -40 100 -95c0 -60 -45 -110 -120 -110z" />
    <glyph glyph-name="uni2159" unicode="&#x2159;" horiz-adv-x="625" 
d="M60 0l385 630h115l-385 -630h-115zM90 330v190l-35 -20l-40 65l105 65h60v-300h-90zM485 -5c-75 0 -125 50 -125 110c0 50 45 105 45 105l65 90h95l-65 -90c60 0 110 -50 110 -105c0 -60 -50 -110 -125 -110zM485 65c20 0 35 15 35 40s-15 40 -35 40s-35 -15 -35 -40
s15 -40 35 -40z" />
    </font>
</defs>
</svg>
